<svg width="822" height="953" viewBox="0 0 822 953" fill="none" xmlns="http://www.w3.org/2000/svg">
<path fill-rule="evenodd" clip-rule="evenodd" d="M411.16 0C357.83 0 283.33 5.07 211.2 17.04C138.78 29.06 68.2999 48.43 22.4499 77.49C16.0399 81.55 10.7099 89.1 9.9399 96.82C0.129904 195.83 -1.5001 362.06 1.1099 523.14C3.6999 683.08 10.4599 837.97 17.2699 918.61C18.0999 928.42 28.4799 938.54 38.2699 939.55C79.2599 943.78 133.26 946.93 196.61 948.98C259.79 951.02 332.78 952.03 411.16 952.03C489.54 952.03 561.87 951.03 625.21 948.98C688.39 946.94 742.39 943.67 783.63 939.36C793.43 938.34 803.79 928.13 804.63 918.23C811.59 837.21 818.29 682.41 820.87 522.95C823.47 362.34 821.9 196.5 811.93 97.49C811.14 89.68 805.83 82.14 799.42 78.07C753.32 48.82 682.85 29.25 610.76 17.14C538.33 4.97 464.5 0 411.16 0Z" fill="url(#paint0_radial_19_4332)"/>
<path style="mix-blend-mode:screen" opacity="0.75" fill-rule="evenodd" clip-rule="evenodd" d="M411.16 0C357.83 0 283.33 5.07 211.2 17.04C138.78 29.06 68.2999 48.43 22.4499 77.49C16.0399 81.55 10.7099 89.1 9.9399 96.82C0.129904 195.83 -1.5001 362.06 1.1099 523.14C3.6999 683.08 10.4599 837.97 17.2699 918.61C18.0999 928.42 28.4799 938.54 38.2699 939.55C79.2599 943.78 133.26 946.93 196.61 948.98C259.79 951.02 332.78 952.03 411.16 952.03C489.54 952.03 561.87 951.03 625.21 948.98C688.39 946.94 742.39 943.67 783.63 939.36C793.43 938.34 803.79 928.13 804.63 918.23C811.59 837.21 818.29 682.41 820.87 522.95C823.47 362.34 821.9 196.5 811.93 97.49C811.14 89.68 805.83 82.14 799.42 78.07C753.32 48.82 682.85 29.25 610.76 17.14C538.33 4.97 464.5 0 411.16 0Z" fill="url(#paint1_radial_19_4332)"/>
<path style="mix-blend-mode:screen" fill-rule="evenodd" clip-rule="evenodd" d="M59.34 71.2598C30.66 83.0798 23.76 108.98 19.17 136.72C1.09004 246.1 2.67004 512.26 16.19 626.22C17.14 634.24 24.61 642.65 32.56 644.07C41.53 645.67 52.9 641.31 57.85 633.65C175.16 452.53 445.41 169.93 661.91 121.85C680.41 117.74 700.83 116.87 718.45 115.9C738.7 114.79 733.09 96.5998 718.45 87.6298C546.96 -17.3902 280.25 -19.7802 59.34 71.2598Z" fill="url(#paint2_radial_19_4332)"/>
<path style="mix-blend-mode:screen" fill-rule="evenodd" clip-rule="evenodd" d="M326.03 12.8702C266.13 16.5802 76.7398 47.7702 39.6198 99.9102C30.7198 112.41 30.2698 129.97 32.7798 132.91C41.0898 142.64 53.7698 126.11 65.4198 115.54C134.37 53.0402 241.41 36.5202 329.75 21.7902C332.69 21.3002 337.59 18.6002 336.44 15.8402C335.05 12.5102 329.63 12.6402 326.03 12.8602V12.8702Z" fill="url(#paint3_radial_19_4332)"/>
<path style="mix-blend-mode:screen" opacity="0.65" fill-rule="evenodd" clip-rule="evenodd" d="M560.64 908.55C556.51 909.36 550.14 913.35 551.68 917.32C553.6 922.27 561.13 923.32 566.4 923.4C610.78 924.06 735.01 919.67 760.36 888.53C777.47 867.5 791.47 711.8 791.73 672.2C791.75 668.65 789.52 663.02 785.97 663.12C781.88 663.23 779.25 668.59 778.29 672.55C764.58 728.89 760.39 808 730.28 856.52C704.02 898.82 615.72 897.72 560.65 908.56L560.64 908.55Z" fill="url(#paint4_linear_19_4332)"/>
<path style="mix-blend-mode:multiply" fill-rule="evenodd" clip-rule="evenodd" d="M774.24 877.3C769.71 895.02 750.32 908.57 732.58 913.01C627.82 939.2 138.19 959.67 45.1998 915.24C31.3198 908.61 19.8998 879.02 12.5898 851.41C14.1098 877.23 15.6898 899.92 17.2698 918.61C18.0998 928.42 28.4798 938.54 38.2698 939.55C79.2598 943.78 133.26 946.93 196.61 948.98C259.79 951.02 332.78 952.03 411.16 952.03C489.54 952.03 561.87 951.03 625.21 948.98C688.39 946.94 742.39 943.67 783.63 939.36C793.43 938.34 803.79 928.13 804.63 918.23C811.59 837.21 818.29 682.41 820.87 522.95C823.47 362.34 821.9 196.5 811.93 97.49C811.14 89.68 805.83 82.14 799.42 78.07C753.32 48.82 682.85 29.25 610.76 17.14C538.33 4.97 464.5 0 411.16 0C409.56 0 407.95 0 406.31 0.02C495.22 6.19 581.28 17.35 668.59 48.58C724.84 68.7 761.64 92.36 777.67 117.96C790.17 137.9 806.23 213.03 806.96 297.05C808.23 443.54 809.63 738.98 774.23 877.3H774.24Z" fill="url(#paint5_radial_19_4332)"/>
<defs>
<radialGradient id="paint0_radial_19_4332" cx="0" cy="0" r="1" gradientUnits="userSpaceOnUse" gradientTransform="translate(-28.2401 -25.8) scale(1386.6)">
<stop stop-color="#6BECFF"/>
<stop offset="0.93" stop-color="#0090FF"/>
</radialGradient>
<radialGradient id="paint1_radial_19_4332" cx="0" cy="0" r="1" gradientUnits="userSpaceOnUse" gradientTransform="translate(537.39 1941.39) scale(1386.61 1386.61)">
<stop offset="0.74" stop-color="#3DEFFF"/>
<stop offset="0.78" stop-color="#2DB1BD"/>
<stop offset="0.83" stop-color="#1F7B83"/>
<stop offset="0.87" stop-color="#144F54"/>
<stop offset="0.91" stop-color="#0B2C2F"/>
<stop offset="0.94" stop-color="#051415"/>
<stop offset="0.97" stop-color="#010505"/>
<stop offset="1"/>
</radialGradient>
<radialGradient id="paint2_radial_19_4332" cx="0" cy="0" r="1" gradientUnits="userSpaceOnUse" gradientTransform="translate(-74.28 -160.46) scale(870.86 870.86)">
<stop stop-color="#B5F6FF"/>
<stop offset="1"/>
</radialGradient>
<radialGradient id="paint3_radial_19_4332" cx="0" cy="0" r="1" gradientUnits="userSpaceOnUse" gradientTransform="translate(92.9998 11.2502) scale(471.39 471.39)">
<stop stop-color="white"/>
<stop offset="1"/>
</radialGradient>
<linearGradient id="paint4_linear_19_4332" x1="491.06" y1="591.81" x2="972.25" y2="1127.17" gradientUnits="userSpaceOnUse">
<stop/>
<stop offset="1" stop-color="#B5F6FF"/>
</linearGradient>
<radialGradient id="paint5_radial_19_4332" cx="0" cy="0" r="1" gradientUnits="userSpaceOnUse" gradientTransform="translate(19.3599 66.81) scale(1343.61 1343.61)">
<stop offset="0.53" stop-color="white"/>
<stop offset="0.66" stop-color="#C2E8FF"/>
<stop offset="0.95" stop-color="#2CAFFF"/>
<stop offset="1" stop-color="#12A5FF"/>
</radialGradient>
</defs>
</svg>
