<svg width="276" height="86" viewBox="0 0 276 86" fill="none" xmlns="http://www.w3.org/2000/svg">
<g clip-path="url(#clip0_17_4283)">
<path fill-rule="evenodd" clip-rule="evenodd" d="M8.74999 2.5299C26.08 1.1199 47.55 0.489895 70.12 0.209895C92.58 -0.060105 116.15 -0.000104962 137.7 0.019895C159.14 0.029895 180.65 0.269895 202.19 0.689895C223.64 1.10989 245.09 1.7599 266.61 2.5699C270.96 2.7299 273.96 6.24989 274.32 10.6499C274.77 16.1599 275.11 21.6699 275.25 27.1499C275.39 32.6099 275.4 38.0599 275.27 43.5099C275.14 48.9499 274.84 54.3799 274.44 59.7999C274.04 65.1999 273.47 70.6099 272.77 75.9999C272.21 80.3099 269.09 83.6299 264.79 83.8899C247.42 84.9399 226.21 85.4699 204.1 85.7399C181.94 86.0099 158.81 86.0099 137.69 86.0099C116.57 86.0099 93.6 85.8599 71.63 85.5399C49.61 85.2099 28.4 84.6699 10.56 83.9299C6.31999 83.7499 3.43999 80.3499 2.63999 76.1099C1.87999 72.0699 1.29999 66.8399 0.919989 61.2399C0.539989 55.6499 0.269989 49.6799 0.129989 44.2399C-0.0200109 38.7799 -0.0600109 32.8799 0.0799891 27.0899C0.219989 21.2799 0.539989 15.5899 1.09999 10.5799C1.58999 6.19989 4.45999 2.88989 8.74999 2.5399V2.5299Z" fill="url(#paint0_radial_17_4283)"/>
<path style="mix-blend-mode:screen" fill-rule="evenodd" clip-rule="evenodd" d="M2.25008 14.88C1.92008 21.21 1.19008 38.91 2.33008 50.1C3.41008 60.67 6.45008 63.35 18.3701 59.52C91.5901 36.02 173.43 23.55 252.84 16.13C267.66 14.75 264.44 7.97 250.34 5.44C215.52 -0.820004 157.37 0.599996 121.48 0.799996C97.7201 0.939996 74.6601 0.799996 50.9001 1.33C40.6701 1.56 30.4401 2.1 20.2501 2.93C9.91008 3.77 2.87008 2.81 2.25008 14.87V14.88Z" fill="url(#paint1_radial_17_4283)"/>
<path style="mix-blend-mode:screen" fill-rule="evenodd" clip-rule="evenodd" d="M36.7898 4.23993C29.3898 4.67993 31.8898 8.68994 35.0298 8.66994C84.8898 8.26994 163.88 8.37994 180.06 7.62994C181.55 7.55994 185.15 7.10994 185.02 5.77994C184.92 4.75994 182.1 3.67993 180.06 3.60993C139.36 2.32993 77.0198 1.83993 36.7898 4.23993ZM10.3298 9.36994C14.7398 9.74994 25.7798 9.89993 27.1598 8.85993C28.9498 7.50993 27.6098 4.45993 23.7998 4.45993C21.8098 4.45993 13.1598 5.01994 9.96984 5.89994C5.70984 7.06993 4.95984 8.89993 10.3298 9.35993V9.36994Z" fill="url(#paint2_radial_17_4283)"/>
<path style="mix-blend-mode:multiply" fill-rule="evenodd" clip-rule="evenodd" d="M8.84014 73.8799C3.65014 72.2399 2.16014 65.6999 0.890137 60.7599C0.900137 60.9199 0.910137 61.0799 0.920137 61.2399C1.30014 66.8299 1.88014 72.0599 2.64014 76.1099C3.44014 80.3499 6.32014 83.7499 10.5601 83.9299C28.3901 84.6799 49.6001 85.2099 71.6301 85.5399C93.6001 85.8699 116.46 86.0099 137.69 86.0099C158.92 86.0099 181.94 86.0099 204.1 85.7399C226.2 85.4699 247.41 84.9399 264.79 83.8899C269.09 83.6299 272.2 80.3099 272.77 75.9999C273.48 70.6099 274.04 65.1999 274.44 59.7999C274.84 54.3799 275.14 48.9499 275.27 43.5099C275.4 38.0699 275.39 32.6099 275.25 27.1499C275.1 21.6699 274.77 16.1699 274.32 10.6499C273.96 6.23988 270.96 2.72988 266.61 2.56988C257.52 2.22988 248.44 1.90988 239.37 1.62988C252.63 2.84988 264.82 5.29988 267.99 10.4199C276.99 25.0099 268.71 63.3999 258.39 72.0699C249.05 79.9199 211.12 80.1199 191 80.9899C153.23 82.6299 42.3701 84.4599 8.85014 73.8599L8.84014 73.8799Z" fill="url(#paint3_radial_17_4283)"/>
<path style="mix-blend-mode:multiply" fill-rule="evenodd" clip-rule="evenodd" d="M8.84014 73.8799C3.65014 72.2399 2.16014 65.6999 0.890137 60.7599C0.900137 60.9199 0.910137 61.0799 0.920137 61.2399C1.30014 66.8299 1.88014 72.0599 2.64014 76.1099C3.44014 80.3499 6.32014 83.7499 10.5601 83.9299C28.3901 84.6799 49.6001 85.2099 71.6301 85.5399C93.6001 85.8699 116.46 86.0099 137.69 86.0099C158.92 86.0099 181.94 86.0099 204.1 85.7399C226.2 85.4699 247.41 84.9399 264.79 83.8899C269.09 83.6299 272.2 80.3099 272.77 75.9999C273.48 70.6099 274.04 65.1999 274.44 59.7999C274.84 54.3799 275.14 48.9499 275.27 43.5099C275.4 38.0699 275.39 32.6099 275.25 27.1499C275.11 21.6699 274.77 16.1699 274.32 10.6499C273.96 6.23988 270.96 2.72988 266.61 2.56988C257.52 2.22988 248.44 1.90988 239.37 1.62988C252.63 2.84988 264.82 5.29988 267.99 10.4199C276.99 25.0099 268.71 63.3999 258.39 72.0699C249.05 79.9199 211.12 80.1199 191 80.9899C153.23 82.6299 42.3701 84.4599 8.85014 73.8599L8.84014 73.8799Z" fill="url(#paint4_radial_17_4283)"/>
<path style="mix-blend-mode:screen" fill-rule="evenodd" clip-rule="evenodd" d="M163.14 75.8898C159.8 76.3298 160.13 78.2598 164.34 78.4698C178.08 79.1398 224.4 80.9798 248.2 78.9298C261.76 77.7598 264.84 75.3498 266.66 63.5798C267.61 57.4698 267.91 51.1898 267.01 49.2998C266.43 48.0898 265.41 56.0098 263.48 62.5198C260.76 71.6898 258.33 72.2598 248.03 73.4598C225.1 76.1198 173.81 74.4998 163.15 75.8898H163.14Z" fill="url(#paint5_radial_17_4283)"/>
<path fill-rule="evenodd" clip-rule="evenodd" d="M15.3599 22.77C14.7199 35.7 14.9699 50.7 16.2499 63.56C16.5599 66.7 19.0999 69.08 22.2499 69.2C96.8399 71.96 178.58 73.04 252.98 69.35C256.11 69.19 258.61 66.8 258.91 63.68C260.18 50.3 260.54 36.68 259.95 23.25C259.8 19.98 257.19 17.39 253.92 17.27C179.25 14.59 95.3799 12.07 21.2199 16.83C18.0299 17.04 15.5199 19.57 15.3699 22.77H15.3599Z" fill="url(#paint6_linear_17_4283)"/>
<path fill-rule="evenodd" clip-rule="evenodd" d="M17.3797 22.8698C17.0497 29.5498 16.9697 36.2698 17.0997 42.9598C17.2397 49.7598 17.5897 56.5898 18.2597 63.3598C18.4697 65.4898 20.1897 67.0998 22.3297 67.1798C60.1597 68.5798 98.0297 69.4898 135.89 69.6698C174.88 69.8498 213.94 69.2698 252.89 67.3298C255.02 67.2198 256.7 65.6098 256.9 63.4898C258.16 50.1598 258.53 36.7198 257.93 23.3398C257.83 21.1198 256.06 19.3698 253.84 19.2898C216.27 17.9398 178.69 16.7198 141.09 16.3198C101.21 15.8898 61.1497 16.2898 21.3497 18.8498C19.1797 18.9898 17.4897 20.6998 17.3797 22.8698Z" fill="url(#paint7_radial_17_4283)"/>
<path style="mix-blend-mode:screen" fill-rule="evenodd" clip-rule="evenodd" d="M193.66 13.22C194.12 12.48 192.12 12.28 191.25 12.24C146.32 10.12 50.6 10.17 19.08 12.77C13.82 13.21 11.37 15.97 10.97 19.54C10.64 22.49 10.53 25.62 10.84 28.58C11.01 30.2 13.73 30.21 13.69 27.24C13.67 25.43 13.75 23.3 14.09 21.4C14.77 17.61 18.35 15.55 22.11 15.25C77.96 10.84 134.96 13.61 190.09 14.09C191.31 14.1 193.01 14.24 193.65 13.2L193.66 13.22ZM10.89 33.45C10.48 36.9 10.88 42.68 11.29 46.06C11.57 48.34 13.53 48.1 13.7 45.61C13.98 41.43 13.74 37.27 13.48 33.09C13.36 31.25 11.18 31.02 10.9 33.45H10.89Z" fill="url(#paint8_linear_17_4283)"/>
<path style="mix-blend-mode:screen" fill-rule="evenodd" clip-rule="evenodd" d="M18.04 27.22C17.58 34.25 17.48 44.68 18.59 49.49C18.95 51.03 19.73 53.01 21.26 53.41C50.65 61.11 186.69 53.55 221.76 30.78C225.15 28.58 226.59 23.19 219.26 21.87C178.43 14.52 80.2 17.05 27.94 19.35C20.03 19.7 18.56 19.05 18.03 27.22H18.04Z" fill="url(#paint9_radial_17_4283)"/>
<path style="mix-blend-mode:screen" fill-rule="evenodd" clip-rule="evenodd" d="M45.9399 20.0299C39.9399 20.3999 41.9699 23.8299 44.5099 23.8099C84.9199 23.4699 148.94 23.5599 162.05 22.9199C163.26 22.8599 166.18 22.4699 166.07 21.3399C165.99 20.4699 163.71 19.5499 162.05 19.4899C129.06 18.3999 78.5399 17.9799 45.9299 20.0199L45.9399 20.0299ZM24.4999 24.3999C28.0699 24.7299 37.0199 24.8599 38.1399 23.9699C39.5899 22.8199 38.4999 20.2099 35.4199 20.2199C33.7999 20.2199 26.7999 20.6999 24.2099 21.4499C20.7599 22.4499 20.1499 24.0099 24.4999 24.3999Z" fill="url(#paint10_linear_17_4283)"/>
<path style="mix-blend-mode:screen" fill-rule="evenodd" clip-rule="evenodd" d="M147.9 63.2399C144.56 63.6799 144.89 65.6098 149.1 65.8198C167.04 66.6898 237.79 65.8199 246.54 57.1098C251.04 52.6299 255.76 38.5398 254.08 35.0498C253.13 33.0798 244.01 46.5398 237.19 49.9798C216.07 60.6198 160.91 61.5398 147.89 63.2498L147.9 63.2399Z" fill="url(#paint11_linear_17_4283)"/>
<path style="mix-blend-mode:multiply" fill-rule="evenodd" clip-rule="evenodd" d="M243.83 60.32C220.01 70.85 28.51 67.77 22.07 63.21C20.75 62.28 19.84 60.98 19.14 59.29C18.43 57.59 17.94 55.49 17.48 52.99C17.6 55.22 17.75 57.45 17.94 59.68C18.04 60.91 18.15 62.14 18.28 63.37C18.49 65.5 20.21 67.11 22.35 67.19C60.18 68.59 98.05 69.5 135.91 69.68C174.9 69.86 213.96 69.28 252.91 67.34C255.04 67.23 256.72 65.62 256.92 63.5C258.18 50.17 258.55 36.73 257.95 23.35C257.85 21.13 256.08 19.38 253.86 19.3C248.62 19.11 243.37 18.93 238.13 18.74C242.36 19.87 245.13 20.77 248.48 22.81C260.35 30.03 254.94 55.42 243.85 60.33L243.83 60.32Z" fill="url(#paint12_radial_17_4283)"/>
<g opacity="0.75">
<path style="mix-blend-mode:screen" fill-rule="evenodd" clip-rule="evenodd" d="M8.06009 20.0498C9.07009 20.0498 10.1801 20.9498 10.1801 21.9598C10.1801 22.9698 9.21009 23.7898 8.20009 23.7898C7.19009 23.7898 6.31009 22.9398 6.37009 21.9598C6.43009 20.9798 7.05009 20.0498 8.06009 20.0498ZM7.97009 20.1698C8.81009 20.1698 9.72009 20.9098 9.72009 21.7498C9.72009 22.5898 8.92009 23.2598 8.08009 23.2598C7.24009 23.2598 6.52009 22.5598 6.57009 21.7498C6.62009 20.9398 7.13009 20.1698 7.97009 20.1698ZM8.39009 20.5198C8.69009 20.8198 8.53009 21.2698 8.13009 21.6698C7.73009 22.0698 7.23009 22.2698 6.94009 21.9798C6.64009 21.6798 6.74009 21.0498 7.14009 20.6498C7.54009 20.2498 8.10009 20.2298 8.39009 20.5298V20.5198ZM9.49009 21.4598C9.63009 21.4898 9.70009 22.1598 9.25009 22.6498C8.80009 23.1398 8.10009 23.1298 8.08009 22.9498C8.06009 22.7698 8.60009 22.7898 8.98009 22.3998C9.37009 22.0098 9.33009 21.4298 9.48009 21.4698L9.49009 21.4598Z" fill="url(#paint13_radial_17_4283)"/>
<path style="mix-blend-mode:screen" opacity="0.7" fill-rule="evenodd" clip-rule="evenodd" d="M67.94 5.60986C69.26 5.60986 70.71 6.77986 70.71 8.09986C70.71 9.41986 69.44 10.4899 68.12 10.4899C66.8 10.4899 65.65 9.37986 65.73 8.09986C65.81 6.81986 66.62 5.60986 67.94 5.60986ZM67.83 5.76986C68.92 5.76986 70.12 6.73986 70.12 7.82986C70.12 8.91986 69.07 9.80986 67.98 9.80986C66.89 9.80986 65.94 8.88986 66 7.82986C66.07 6.76986 66.74 5.76986 67.83 5.76986ZM68.38 6.22986C68.77 6.61986 68.56 7.19986 68.04 7.72986C67.52 8.25986 66.87 8.51986 66.48 8.12986C66.09 7.73986 66.22 6.90986 66.74 6.38986C67.26 5.86986 67.99 5.83986 68.38 6.22986ZM69.82 7.45986C70.01 7.49986 70.09 8.36986 69.51 9.00986C68.93 9.64986 68.01 9.63986 67.99 9.39986C67.97 9.14986 68.67 9.18986 69.17 8.67986C69.68 8.16986 69.63 7.41986 69.82 7.45986Z" fill="url(#paint14_radial_17_4283)"/>
<path style="mix-blend-mode:screen" opacity="0.6" fill-rule="evenodd" clip-rule="evenodd" d="M8.78003 44.0498C10.38 43.9598 11.58 45.0198 11.58 46.3898C11.58 47.7598 10.24 48.9098 8.80003 48.8398C7.36003 48.7698 6.25003 47.7298 6.32003 46.3598C6.39003 44.9898 7.17003 44.1398 8.77003 44.0498H8.78003ZM8.56003 44.2698C9.87003 44.1898 10.86 45.0598 10.86 46.1898C10.86 47.3198 9.76003 48.2598 8.58003 48.1998C7.40003 48.1398 6.49003 47.2898 6.55003 46.1698C6.61003 45.0498 7.25003 44.3498 8.56003 44.2698ZM9.01003 44.7098C9.41003 45.1098 9.20003 45.7998 8.66003 46.3398C8.12003 46.8798 7.44003 47.0798 7.04003 46.6798C6.64003 46.2798 6.78003 45.4898 7.19003 45.0198C7.59003 44.5498 8.61003 44.3198 9.01003 44.7198V44.7098ZM10.54 45.6998C10.74 45.7498 10.84 46.6798 10.21 47.3798C9.58003 48.0698 8.59003 48.0598 8.56003 47.7998C8.53003 47.5298 9.29003 47.5698 9.84003 47.0198C10.39 46.4698 10.34 45.6598 10.54 45.6998Z" fill="url(#paint15_radial_17_4283)"/>
<path style="mix-blend-mode:screen" opacity="0.4" fill-rule="evenodd" clip-rule="evenodd" d="M34.5098 72.2398C36.5498 72.1198 38.0698 73.4698 38.0698 75.2098C38.0698 76.9498 36.3598 78.4198 34.5398 78.3298C32.7198 78.2398 31.2998 76.9198 31.3898 75.1798C31.4798 73.4398 32.4698 72.3598 34.5098 72.2398ZM34.2298 72.5098C35.8998 72.4098 37.1498 73.5198 37.1498 74.9498C37.1498 76.3798 35.7498 77.5798 34.2498 77.5098C32.7498 77.4398 31.5898 76.3498 31.6698 74.9298C31.7398 73.4998 32.5598 72.6198 34.2298 72.5198V72.5098ZM34.7998 73.0698C35.3098 73.5798 35.0498 74.4498 34.3598 75.1398C33.6698 75.8298 32.8098 76.0798 32.2998 75.5698C31.7898 75.0598 31.9698 74.0598 32.4898 73.4598C32.9998 72.8598 34.2998 72.5598 34.7998 73.0698ZM36.7398 74.3298C36.9998 74.3898 37.1198 75.5798 36.3198 76.4598C35.5198 77.3398 34.2598 77.3298 34.2298 76.9898C34.1998 76.6498 35.1598 76.6998 35.8498 75.9998C36.5398 75.3098 36.4898 74.2698 36.7398 74.3298Z" fill="url(#paint16_radial_17_4283)"/>
<path style="mix-blend-mode:screen" opacity="0.4" fill-rule="evenodd" clip-rule="evenodd" d="M7.89967 69.1499C9.65967 69.0499 10.9697 70.2099 10.9697 71.7099C10.9697 73.2099 9.49967 74.4799 7.91967 74.3999C6.33967 74.3199 5.12967 73.1799 5.19967 71.6799C5.26967 70.1799 6.12967 69.2499 7.88967 69.1399L7.89967 69.1499ZM7.65967 69.3899C9.09967 69.3099 10.1797 70.2599 10.1797 71.4899C10.1797 72.7199 8.96967 73.7599 7.67967 73.6999C6.38967 73.6399 5.38967 72.6999 5.44967 71.4699C5.50967 70.2399 6.21967 69.4699 7.65967 69.3899ZM8.14967 69.8699C8.58967 70.3099 8.35967 71.0599 7.76967 71.6599C7.17967 72.2599 6.43967 72.4699 5.99967 72.0299C5.55967 71.5899 5.71967 70.7299 6.15967 70.2099C6.59967 69.6899 7.71967 69.4399 8.15967 69.8799L8.14967 69.8699ZM9.82967 70.9599C10.0497 71.0099 10.1597 72.0399 9.45967 72.7999C8.76967 73.5599 7.67967 73.5499 7.65967 73.2599C7.62967 72.9699 8.45967 73.0099 9.05967 72.4099C9.65967 71.8099 9.60967 70.9099 9.82967 70.9699V70.9599Z" fill="url(#paint17_radial_17_4283)"/>
<path style="mix-blend-mode:screen" opacity="0.4" fill-rule="evenodd" clip-rule="evenodd" d="M58.46 73.5598C59.61 73.4898 60.48 74.2598 60.48 75.2398C60.48 76.2198 59.51 77.0498 58.48 76.9998C57.45 76.9498 56.65 76.1998 56.7 75.2198C56.75 74.2398 57.31 73.6198 58.46 73.5598ZM58.3 73.7098C59.24 73.6498 59.95 74.2798 59.95 75.0898C59.95 75.8998 59.16 76.5798 58.31 76.5398C57.46 76.4998 56.81 75.8898 56.85 75.0798C56.89 74.2698 57.35 73.7698 58.3 73.7198V73.7098ZM58.62 74.0298C58.91 74.3198 58.76 74.8098 58.37 75.1998C57.98 75.5898 57.5 75.7298 57.21 75.4398C56.92 75.1498 57.03 74.5798 57.31 74.2398C57.6 73.8998 58.33 73.7298 58.62 74.0198V74.0298ZM59.72 74.7398C59.87 74.7698 59.93 75.4498 59.48 75.9498C59.03 76.4498 58.32 76.4398 58.3 76.2498C58.28 76.0598 58.82 76.0798 59.22 75.6898C59.62 75.2998 59.58 74.7098 59.73 74.7398H59.72Z" fill="url(#paint18_radial_17_4283)"/>
<path style="mix-blend-mode:screen" fill-rule="evenodd" clip-rule="evenodd" d="M30.3096 8.00988C31.5196 7.93988 32.4196 8.73988 32.4196 9.76988C32.4196 10.7999 31.4096 11.6699 30.3296 11.6199C29.2496 11.5699 28.4096 10.7799 28.4596 9.74988C28.5096 8.71988 29.0996 8.07988 30.3096 8.00988ZM30.1396 8.16988C31.1296 8.10988 31.8696 8.76988 31.8696 9.60988C31.8696 10.4499 31.0396 11.1699 30.1496 11.1299C29.2596 11.0899 28.5796 10.4399 28.6196 9.59988C28.6596 8.74988 29.1496 8.22988 30.1396 8.16988ZM30.4796 8.49988C30.7796 8.79988 30.6296 9.31988 30.2196 9.72988C29.8096 10.1399 29.2996 10.2899 28.9996 9.97988C28.6996 9.66988 28.8096 9.07988 29.1096 8.72988C29.4096 8.36988 30.1796 8.19988 30.4796 8.49988ZM31.6296 9.24988C31.7796 9.28988 31.8496 9.98988 31.3796 10.5099C30.9096 11.0299 30.1596 11.0299 30.1396 10.8199C30.1196 10.6199 30.6896 10.6499 31.0996 10.2399C31.5096 9.82988 31.4796 9.20988 31.6296 9.24988Z" fill="url(#paint19_radial_17_4283)"/>
<path style="mix-blend-mode:screen" opacity="0.4" fill-rule="evenodd" clip-rule="evenodd" d="M7.87979 11.4499C9.06979 11.3799 9.95979 12.1699 9.95979 13.1799C9.95979 14.1899 8.95979 15.0499 7.89979 14.9999C6.82979 14.9499 6.00979 14.1799 6.05979 13.1599C6.10979 12.1499 6.68979 11.5099 7.87979 11.4399V11.4499ZM7.71979 11.6099C8.68979 11.5499 9.42979 12.1999 9.42979 13.0299C9.42979 13.8599 8.60979 14.5699 7.73979 14.5199C6.85979 14.4799 6.18979 13.8499 6.22979 13.0099C6.26979 12.1799 6.74979 11.6599 7.71979 11.5999V11.6099ZM8.04979 11.9399C8.34979 12.2399 8.18979 12.7499 7.78979 13.1499C7.38979 13.5499 6.88979 13.6999 6.58979 13.3999C6.28979 13.0999 6.39979 12.5199 6.69979 12.1699C6.99979 11.8199 7.74979 11.6499 8.04979 11.9399ZM9.17979 12.6799C9.32979 12.7099 9.39979 13.4099 8.92979 13.9199C8.45979 14.4299 7.72979 14.4299 7.70979 14.2299C7.68979 14.0299 8.24979 14.0599 8.65979 13.6499C9.06979 13.2399 9.02979 12.6399 9.17979 12.6699V12.6799Z" fill="url(#paint20_radial_17_4283)"/>
<path style="mix-blend-mode:screen" opacity="0.6" fill-rule="evenodd" clip-rule="evenodd" d="M23.94 75.5299C25.62 75.5599 27.15 77.1799 27.15 79.0399C27.15 80.8999 25.91 81.6899 24.06 81.6899C22.21 81.6899 20.73 80.9299 20.73 79.0699C20.73 77.2099 22.26 75.4999 23.94 75.5299ZM23.69 75.8299C25.08 75.8499 26.35 77.1999 26.35 78.7399C26.35 80.2799 25.32 80.9299 23.79 80.9299C22.26 80.9299 21.03 80.2999 21.03 78.7599C21.03 77.2199 22.3 75.7999 23.69 75.8299ZM24.34 76.3699C24.85 76.8799 24.65 77.9299 23.95 78.6199C23.25 79.3199 22.28 79.4699 21.77 78.9499C21.26 78.4399 21.43 77.3599 22.13 76.6699C22.83 75.9699 23.83 75.8499 24.34 76.3699ZM25.85 77.8999C26.1 77.9599 26.39 79.2299 25.63 80.0599C24.87 80.8999 23.49 80.7399 23.46 80.4199C23.43 80.0999 24.52 80.2799 25.18 79.6199C25.84 78.9599 25.6 77.8299 25.85 77.8899V77.8999Z" fill="url(#paint21_radial_17_4283)"/>
<path style="mix-blend-mode:screen" fill-rule="evenodd" clip-rule="evenodd" d="M4.73986 29.8899C5.97986 29.9099 7.11986 31.1199 7.11986 32.4899C7.11986 33.8599 6.19986 34.4499 4.82986 34.4499C3.45986 34.4499 2.35986 33.8899 2.35986 32.5099C2.35986 31.1299 3.49986 29.8599 4.73986 29.8799V29.8899ZM4.54986 30.1099C5.57986 30.1299 6.52986 31.1299 6.52986 32.2699C6.52986 33.4099 5.76986 33.8999 4.62986 33.8999C3.48986 33.8999 2.57986 33.4299 2.57986 32.2899C2.57986 31.1499 3.51986 30.0999 4.54986 30.1099ZM5.02986 30.5099C5.40986 30.8899 5.25986 31.6599 4.73986 32.1799C4.21986 32.6999 3.49986 32.8099 3.11986 32.4299C2.73986 32.0499 2.86986 31.2499 3.38986 30.7399C3.90986 30.2299 4.64986 30.1299 5.02986 30.5099ZM6.14986 31.6399C6.32986 31.6799 6.54986 32.6199 5.98986 33.2399C5.42986 33.8599 4.40986 33.7499 4.37986 33.5099C4.35986 33.2699 5.16986 33.4099 5.65986 32.9199C6.14986 32.4299 5.96986 31.5899 6.14986 31.6399Z" fill="url(#paint22_radial_17_4283)"/>
<path style="mix-blend-mode:screen" opacity="0.7" fill-rule="evenodd" clip-rule="evenodd" d="M153.1 5.34985C154.42 5.34985 155.87 6.51985 155.87 7.83985C155.87 9.15985 154.6 10.2299 153.28 10.2299C151.96 10.2299 150.81 9.11985 150.89 7.83985C150.97 6.55985 151.78 5.34985 153.1 5.34985ZM152.99 5.50985C154.08 5.50985 155.28 6.47985 155.28 7.56985C155.28 8.65985 154.23 9.54985 153.14 9.54985C152.05 9.54985 151.1 8.62985 151.16 7.56985C151.23 6.50985 151.9 5.50985 152.99 5.50985ZM153.54 5.96985C153.93 6.35985 153.72 6.93985 153.2 7.46985C152.68 7.99985 152.03 8.25985 151.64 7.86985C151.25 7.47985 151.38 6.64985 151.9 6.12985C152.42 5.60985 153.15 5.57985 153.54 5.96985ZM154.98 7.19985C155.17 7.23985 155.25 8.10985 154.67 8.74985C154.09 9.38985 153.17 9.37985 153.15 9.13985C153.13 8.89985 153.83 8.92985 154.33 8.41985C154.84 7.90985 154.79 7.15985 154.98 7.19985Z" fill="url(#paint23_radial_17_4283)"/>
<path style="mix-blend-mode:screen" opacity="0.4" fill-rule="evenodd" clip-rule="evenodd" d="M91.44 70.5599C93.48 70.4399 95 71.7899 95 73.5299C95 75.2699 93.29 76.7399 91.47 76.6499C89.64 76.5599 88.23 75.2399 88.32 73.4999C88.41 71.7599 89.4 70.6799 91.44 70.5599ZM91.16 70.8299C92.83 70.7299 94.08 71.8399 94.08 73.2699C94.08 74.6999 92.68 75.8999 91.18 75.8299C89.68 75.7599 88.52 74.6699 88.6 73.2499C88.67 71.8199 89.49 70.9399 91.16 70.8399V70.8299ZM91.73 71.3899C92.24 71.8999 91.98 72.7699 91.29 73.4599C90.6 74.1499 89.74 74.3999 89.23 73.8899C88.72 73.3799 88.9 72.3799 89.42 71.7799C89.93 71.1799 91.23 70.8799 91.73 71.3899ZM93.67 72.6499C93.93 72.7099 94.05 73.8999 93.25 74.7799C92.45 75.6599 91.19 75.6499 91.16 75.3099C91.13 74.9699 92.09 75.0199 92.78 74.3199C93.47 73.6199 93.42 72.5899 93.67 72.6499Z" fill="url(#paint24_radial_17_4283)"/>
<path style="mix-blend-mode:screen" opacity="0.4" fill-rule="evenodd" clip-rule="evenodd" d="M135.93 75.2798C137.08 75.2098 137.95 75.9798 137.95 76.9598C137.95 77.9398 136.98 78.7698 135.95 78.7198C134.92 78.6698 134.12 77.9198 134.17 76.9398C134.22 75.9598 134.78 75.3398 135.93 75.2798ZM135.77 75.4298C136.71 75.3698 137.42 75.9998 137.42 76.8098C137.42 77.6198 136.63 78.2998 135.78 78.2598C134.93 78.2198 134.28 77.6098 134.32 76.7998C134.36 75.9898 134.82 75.4898 135.77 75.4398V75.4298ZM136.09 75.7498C136.38 76.0398 136.23 76.5298 135.84 76.9198C135.45 77.3098 134.96 77.4498 134.68 77.1598C134.39 76.8698 134.49 76.3098 134.78 75.9598C135.07 75.6098 135.8 75.4498 136.09 75.7398V75.7498ZM137.19 76.4598C137.34 76.4898 137.4 77.1698 136.95 77.6698C136.5 78.1698 135.79 78.1598 135.77 77.9698C135.75 77.7798 136.29 77.7998 136.69 77.4098C137.08 77.0198 137.05 76.4298 137.2 76.4598H137.19Z" fill="url(#paint25_radial_17_4283)"/>
<path style="mix-blend-mode:screen" fill-rule="evenodd" clip-rule="evenodd" d="M121.25 6.17985C122.91 6.07985 124.16 7.18985 124.16 8.60985C124.16 10.0298 122.76 11.2298 121.27 11.1598C119.78 11.0898 118.62 10.0098 118.7 8.58985C118.77 7.16985 119.59 6.27985 121.25 6.18985V6.17985ZM121.02 6.39985C122.39 6.31985 123.41 7.22985 123.41 8.38985C123.41 9.54985 122.27 10.5398 121.04 10.4798C119.81 10.4198 118.87 9.52985 118.93 8.36985C118.99 7.20985 119.66 6.47985 121.02 6.39985ZM121.49 6.85985C121.91 7.27985 121.69 7.98985 121.13 8.54985C120.57 9.10985 119.86 9.31985 119.45 8.89985C119.03 8.47985 119.18 7.65985 119.6 7.16985C120.02 6.67985 121.08 6.43985 121.49 6.84985V6.85985ZM123.08 7.88985C123.29 7.93985 123.39 8.90985 122.73 9.62985C122.07 10.3498 121.05 10.3398 121.02 10.0598C120.99 9.77985 121.78 9.81985 122.35 9.24985C122.92 8.67985 122.87 7.82985 123.08 7.87985V7.88985Z" fill="url(#paint26_radial_17_4283)"/>
<path style="mix-blend-mode:screen" opacity="0.4" fill-rule="evenodd" clip-rule="evenodd" d="M216.31 72.44C217.46 72.37 218.33 73.14 218.33 74.12C218.33 75.1 217.36 75.93 216.33 75.88C215.3 75.83 214.5 75.08 214.55 74.1C214.6 73.12 215.16 72.5 216.31 72.44ZM216.15 72.59C217.09 72.53 217.8 73.16 217.8 73.97C217.8 74.78 217.01 75.46 216.16 75.42C215.31 75.38 214.66 74.77 214.7 73.96C214.74 73.15 215.2 72.65 216.15 72.6V72.59ZM216.47 72.91C216.76 73.2 216.61 73.69 216.22 74.08C215.83 74.47 215.34 74.61 215.06 74.32C214.77 74.03 214.88 73.46 215.16 73.12C215.45 72.78 216.18 72.61 216.47 72.9V72.91ZM217.57 73.62C217.72 73.65 217.78 74.33 217.33 74.83C216.88 75.33 216.17 75.32 216.15 75.13C216.13 74.94 216.67 74.96 217.07 74.57C217.47 74.18 217.43 73.59 217.58 73.62H217.57Z" fill="url(#paint27_radial_17_4283)"/>
<path style="mix-blend-mode:screen" fill-rule="evenodd" clip-rule="evenodd" d="M180.67 8.24974C181.91 8.26974 183.05 9.47974 183.05 10.8497C183.05 12.2197 182.13 12.8097 180.76 12.8097C179.39 12.8097 178.29 12.2497 178.29 10.8697C178.29 9.48974 179.43 8.21974 180.67 8.23974V8.24974ZM180.48 8.46974C181.51 8.48974 182.46 9.48974 182.46 10.6297C182.46 11.7697 181.7 12.2597 180.56 12.2597C179.42 12.2597 178.51 11.7897 178.51 10.6497C178.51 9.50973 179.45 8.45974 180.48 8.46974ZM180.96 8.86974C181.34 9.24974 181.19 10.0197 180.67 10.5397C180.15 11.0597 179.43 11.1697 179.05 10.7897C178.67 10.4097 178.8 9.60974 179.32 9.09974C179.84 8.57974 180.58 8.48974 180.96 8.86974ZM182.08 9.99974C182.26 10.0397 182.48 10.9797 181.92 11.5997C181.36 12.2197 180.34 12.1097 180.31 11.8697C180.29 11.6297 181.1 11.7697 181.59 11.2797C182.08 10.7897 181.9 9.94974 182.08 9.99974Z" fill="url(#paint28_radial_17_4283)"/>
<path style="mix-blend-mode:screen" fill-rule="evenodd" clip-rule="evenodd" d="M205.16 5.56984C206.29 5.58984 207.31 6.67984 207.31 7.91984C207.31 9.15984 206.48 9.69984 205.24 9.69984C204 9.69984 203.01 9.18984 203.01 7.93984C203.01 6.68984 204.04 5.54984 205.16 5.56984ZM204.99 5.76984C205.92 5.78984 206.78 6.68984 206.78 7.71984C206.78 8.74984 206.09 9.18984 205.06 9.18984C204.03 9.18984 203.21 8.76984 203.21 7.73984C203.21 6.70984 204.06 5.75984 205 5.76984H204.99ZM205.42 6.12984C205.76 6.46984 205.63 7.16984 205.16 7.63984C204.69 8.10984 204.04 8.20984 203.7 7.85984C203.36 7.50984 203.47 6.79984 203.94 6.32984C204.41 5.85984 205.08 5.77984 205.42 6.12984ZM206.43 7.14984C206.59 7.18984 206.79 8.03984 206.28 8.59984C205.77 9.15984 204.85 9.05984 204.83 8.83984C204.81 8.61984 205.54 8.74984 205.98 8.30984C206.42 7.86984 206.26 7.10984 206.43 7.14984Z" fill="url(#paint29_radial_17_4283)"/>
<path style="mix-blend-mode:screen" opacity="0.7" fill-rule="evenodd" clip-rule="evenodd" d="M267.69 31.4199C268.6 31.4199 269.59 32.2199 269.59 33.1299C269.59 34.0399 268.72 34.7699 267.81 34.7699C266.9 34.7699 266.11 34.0099 266.17 33.1299C266.23 32.2499 266.78 31.4199 267.69 31.4199ZM267.61 31.5299C268.36 31.5299 269.18 32.1899 269.18 32.9399C269.18 33.6899 268.46 34.2999 267.71 34.2999C266.96 34.2999 266.31 33.6699 266.35 32.9399C266.4 32.2099 266.86 31.5299 267.6 31.5299H267.61ZM267.98 31.8499C268.25 32.1199 268.11 32.5199 267.75 32.8799C267.39 33.2399 266.94 33.4199 266.68 33.1599C266.42 32.8999 266.5 32.3299 266.86 31.9699C267.22 31.6099 267.72 31.5899 267.99 31.8599L267.98 31.8499ZM268.97 32.6999C269.1 32.7299 269.16 33.3299 268.76 33.7699C268.36 34.2099 267.73 34.2099 267.71 34.0399C267.69 33.8699 268.17 33.8899 268.52 33.5499C268.87 33.1999 268.84 32.6799 268.97 32.7099V32.6999Z" fill="url(#paint30_radial_17_4283)"/>
<path style="mix-blend-mode:screen" fill-rule="evenodd" clip-rule="evenodd" d="M264.88 20.9199C266.64 20.9199 268.57 22.4799 268.57 24.2299C268.57 25.9799 266.88 27.4099 265.12 27.4099C263.36 27.4099 261.83 25.9299 261.94 24.2299C262.05 22.5299 263.12 20.9199 264.88 20.9199ZM264.73 21.1299C266.18 21.1299 267.78 22.4199 267.78 23.8699C267.78 25.3199 266.38 26.4999 264.93 26.4999C263.48 26.4999 262.21 25.2799 262.3 23.8699C262.39 22.4599 263.28 21.1299 264.73 21.1299ZM265.45 21.7399C265.96 22.2499 265.7 23.0399 265 23.7299C264.3 24.4299 263.44 24.7799 262.93 24.2599C262.42 23.7499 262.58 22.6399 263.28 21.9499C263.98 21.2499 264.95 21.2199 265.46 21.7399H265.45ZM267.36 23.3799C267.61 23.4399 267.73 24.5899 266.95 25.4399C266.17 26.2899 264.96 26.2799 264.92 25.9499C264.89 25.6199 265.82 25.6699 266.49 24.9899C267.16 24.3199 267.11 23.3099 267.36 23.3699V23.3799Z" fill="url(#paint31_radial_17_4283)"/>
<path style="mix-blend-mode:screen" fill-rule="evenodd" clip-rule="evenodd" d="M230.63 7.16984C232.29 7.06984 233.54 8.17984 233.54 9.59984C233.54 11.0198 232.14 12.2198 230.65 12.1498C229.16 12.0798 228 10.9998 228.08 9.57984C228.15 8.15984 228.97 7.26984 230.63 7.17984V7.16984ZM230.4 7.38984C231.77 7.30984 232.79 8.21984 232.79 9.37984C232.79 10.5398 231.65 11.5298 230.42 11.4698C229.19 11.4098 228.25 10.5198 228.31 9.35984C228.37 8.19984 229.04 7.46984 230.4 7.38984ZM230.87 7.84984C231.29 8.26984 231.07 8.97984 230.51 9.53984C229.95 10.0998 229.24 10.3098 228.83 9.88984C228.41 9.46984 228.56 8.64984 228.98 8.15984C229.4 7.66984 230.46 7.42984 230.87 7.83984V7.84984ZM232.46 8.87984C232.67 8.92984 232.77 9.89984 232.11 10.6198C231.45 11.3398 230.43 11.3298 230.4 11.0498C230.37 10.7698 231.16 10.8098 231.73 10.2398C232.3 9.66984 232.25 8.81984 232.46 8.86984V8.87984Z" fill="url(#paint32_radial_17_4283)"/>
<path style="mix-blend-mode:screen" fill-rule="evenodd" clip-rule="evenodd" d="M250.5 9.42993C251.54 9.44993 252.49 10.4599 252.49 11.6099C252.49 12.7599 251.72 13.2499 250.57 13.2499C249.42 13.2499 248.5 12.7799 248.5 11.6299C248.5 10.4799 249.45 9.41993 250.49 9.43993L250.5 9.42993ZM250.34 9.61993C251.2 9.63993 251.99 10.4699 251.99 11.4199C251.99 12.3699 251.35 12.7799 250.4 12.7799C249.45 12.7799 248.69 12.3899 248.69 11.4399C248.69 10.4899 249.48 9.60993 250.34 9.61993ZM250.74 9.94993C251.06 10.2699 250.93 10.9099 250.5 11.3499C250.07 11.7799 249.47 11.8799 249.15 11.5599C248.83 11.2399 248.94 10.5799 249.37 10.1399C249.8 9.70993 250.42 9.62993 250.74 9.94993ZM251.68 10.8999C251.83 10.9399 252.02 11.7199 251.54 12.2399C251.06 12.7599 250.22 12.6599 250.2 12.4599C250.18 12.2599 250.86 12.3799 251.27 11.9699C251.68 11.5599 251.53 10.8599 251.68 10.8999Z" fill="url(#paint33_radial_17_4283)"/>
</g>
<g filter="url(#filter0_d_17_4283)">
<path d="M112.797 57.072C111.909 57.072 111.261 56.952 110.853 56.712C110.445 56.472 110.241 56.136 110.241 55.704V37.308H106.569C105.729 37.308 105.309 36.636 105.309 35.292V33.78C105.309 32.46 105.729 31.8 106.569 31.8H119.853C120.693 31.8 121.113 32.46 121.113 33.78V35.292C121.113 36.636 120.693 37.308 119.853 37.308H116.181V55.704C116.181 56.136 115.977 56.472 115.569 56.712C115.161 56.952 114.513 57.072 113.625 57.072H112.797ZM128.416 57.288C125.392 57.288 123.184 56.46 121.792 54.804C120.4 53.148 119.704 50.76 119.704 47.64C119.704 45.168 120.04 43.224 120.712 41.808C121.384 40.392 122.308 39.384 123.484 38.784C124.684 38.184 126.052 37.884 127.588 37.884C130.132 37.884 131.932 38.712 132.988 40.368C134.068 42.024 134.608 44.28 134.608 47.136C134.608 48.912 134.008 49.8 132.808 49.8H125.68C125.68 50.832 125.944 51.552 126.472 51.96C127.024 52.368 127.756 52.572 128.668 52.572C129.772 52.572 130.684 52.428 131.404 52.14C132.124 51.852 132.64 51.708 132.952 51.708C133.216 51.708 133.432 51.9 133.6 52.284C133.792 52.668 133.936 53.1 134.032 53.58C134.152 54.06 134.212 54.456 134.212 54.768C134.212 55.152 133.996 55.5 133.564 55.812C133.156 56.124 132.628 56.4 131.98 56.64C131.356 56.856 130.72 57.012 130.072 57.108C129.424 57.228 128.872 57.288 128.416 57.288ZM125.644 46.128H129.244C129.244 44.664 129.112 43.644 128.848 43.068C128.608 42.468 128.164 42.168 127.516 42.168C126.868 42.168 126.388 42.444 126.076 42.996C125.788 43.524 125.644 44.568 125.644 46.128ZM141.164 57.288C140.372 57.288 139.568 57.192 138.752 57C137.96 56.832 137.288 56.58 136.736 56.244C136.184 55.884 135.908 55.452 135.908 54.948C135.908 54.468 136.004 53.988 136.196 53.508C136.412 53.004 136.664 52.596 136.952 52.284C137.24 51.948 137.504 51.78 137.744 51.78C137.936 51.78 138.164 51.864 138.428 52.032C138.692 52.176 139.004 52.332 139.364 52.5C139.748 52.668 140.192 52.752 140.696 52.752C141.56 52.752 141.992 52.368 141.992 51.6C141.992 51.024 141.752 50.592 141.272 50.304C140.816 50.016 140.3 49.692 139.724 49.332C139.196 49.02 138.656 48.648 138.104 48.216C137.552 47.76 137.084 47.172 136.7 46.452C136.34 45.732 136.16 44.808 136.16 43.68C136.16 41.832 136.724 40.404 137.852 39.396C139.004 38.388 140.48 37.884 142.28 37.884C142.904 37.884 143.588 37.956 144.332 38.1C145.1 38.22 145.76 38.436 146.312 38.748C146.864 39.036 147.14 39.444 147.14 39.972C147.14 40.404 147.056 40.86 146.888 41.34C146.744 41.82 146.552 42.228 146.312 42.564C146.096 42.9 145.88 43.068 145.664 43.068C145.424 43.068 145.088 42.96 144.656 42.744C144.224 42.528 143.696 42.42 143.072 42.42C142.184 42.42 141.74 42.78 141.74 43.5C141.74 43.86 141.872 44.16 142.136 44.4C142.4 44.616 142.736 44.832 143.144 45.048C143.552 45.24 143.972 45.48 144.404 45.768C144.908 46.104 145.4 46.5 145.88 46.956C146.384 47.388 146.792 47.952 147.104 48.648C147.44 49.32 147.608 50.172 147.608 51.204C147.608 52.956 147.044 54.408 145.916 55.56C144.812 56.712 143.228 57.288 141.164 57.288ZM154.575 57.288C153.015 57.288 151.803 56.808 150.939 55.848C150.099 54.864 149.679 53.472 149.679 51.672V43.176H148.995C148.155 43.176 147.735 42.504 147.735 41.16V40.152C147.735 38.832 148.155 38.172 148.995 38.172H149.679L150.363 34.896C150.459 34.44 150.663 34.116 150.975 33.924C151.311 33.708 151.815 33.6 152.487 33.6H153.351C154.815 33.6 155.547 34.044 155.547 34.932V38.172H156.879C157.719 38.172 158.139 38.832 158.139 40.152V41.16C158.139 42.504 157.719 43.176 156.879 43.176H155.547V51.06C155.547 51.54 155.607 51.9 155.727 52.14C155.847 52.38 156.087 52.5 156.447 52.5C156.687 52.5 156.879 52.476 157.023 52.428C157.191 52.356 157.347 52.32 157.491 52.32C157.707 52.32 157.899 52.524 158.067 52.932C158.235 53.34 158.367 53.784 158.463 54.264C158.559 54.744 158.607 55.104 158.607 55.344C158.607 55.8 158.211 56.244 157.419 56.676C156.651 57.084 155.703 57.288 154.575 57.288ZM162.103 57.072C161.215 57.072 160.579 56.964 160.195 56.748C159.811 56.508 159.619 56.16 159.619 55.704V39.468C159.619 39.012 159.811 38.676 160.195 38.46C160.579 38.22 161.215 38.1 162.103 38.1H162.967C163.855 38.1 164.491 38.22 164.875 38.46C165.259 38.676 165.451 39.012 165.451 39.468V55.704C165.451 56.16 165.259 56.508 164.875 56.748C164.491 56.964 163.855 57.072 162.967 57.072H162.103ZM162.571 36.336C161.491 36.336 160.711 36.228 160.231 36.012C159.751 35.772 159.511 35.436 159.511 35.004V32.556C159.511 32.124 159.751 31.8 160.231 31.584C160.711 31.344 161.491 31.224 162.571 31.224C163.627 31.224 164.395 31.344 164.875 31.584C165.379 31.8 165.631 32.124 165.631 32.556V35.004C165.631 35.436 165.379 35.772 164.875 36.012C164.395 36.228 163.627 36.336 162.571 36.336Z" fill="white"/>
</g>
</g>
<defs>
<filter id="filter0_d_17_4283" x="97.3086" y="25.2241" width="80.3218" height="46.064" filterUnits="userSpaceOnUse" color-interpolation-filters="sRGB">
<feFlood flood-opacity="0" result="BackgroundImageFix"/>
<feColorMatrix in="SourceAlpha" type="matrix" values="0 0 0 0 0 0 0 0 0 0 0 0 0 0 0 0 0 0 127 0" result="hardAlpha"/>
<feOffset dx="2" dy="4"/>
<feGaussianBlur stdDeviation="5"/>
<feComposite in2="hardAlpha" operator="out"/>
<feColorMatrix type="matrix" values="0 0 0 0 0.120921 0 0 0 0 0.21252 0 0 0 0 0.390329 0 0 0 1 0"/>
<feBlend mode="normal" in2="BackgroundImageFix" result="effect1_dropShadow_17_4283"/>
<feBlend mode="normal" in="SourceGraphic" in2="effect1_dropShadow_17_4283" result="shape"/>
</filter>
<radialGradient id="paint0_radial_17_4283" cx="0" cy="0" r="1" gradientUnits="userSpaceOnUse" gradientTransform="translate(48.7724 -46.2853) scale(386.528 386.528)">
<stop stop-color="#6BECFF"/>
<stop offset="0.93" stop-color="#0090FF"/>
</radialGradient>
<radialGradient id="paint1_radial_17_4283" cx="0" cy="0" r="1" gradientUnits="userSpaceOnUse" gradientTransform="translate(108.942 -160.787) scale(273.144)">
<stop stop-color="#B5F6FF"/>
<stop offset="1"/>
</radialGradient>
<radialGradient id="paint2_radial_17_4283" cx="0" cy="0" r="1" gradientUnits="userSpaceOnUse" gradientTransform="translate(49.1598 -35.4781) scale(188.966)">
<stop stop-color="white"/>
<stop offset="1"/>
</radialGradient>
<radialGradient id="paint3_radial_17_4283" cx="0" cy="0" r="1" gradientUnits="userSpaceOnUse" gradientTransform="translate(84.3405 -153.217) scale(381.398 381.398)">
<stop offset="0.53" stop-color="white"/>
<stop offset="0.66" stop-color="#C2E8FF"/>
<stop offset="0.95" stop-color="#2CAFFF"/>
<stop offset="1" stop-color="#12A5FF"/>
</radialGradient>
<radialGradient id="paint4_radial_17_4283" cx="0" cy="0" r="1" gradientUnits="userSpaceOnUse" gradientTransform="translate(51.9417 -112.702) scale(463.091 463.091)">
<stop offset="0.53" stop-color="white"/>
<stop offset="0.66" stop-color="#C2E8FF"/>
<stop offset="0.95" stop-color="#2CAFFF"/>
<stop offset="1" stop-color="#12A5FF"/>
</radialGradient>
<radialGradient id="paint5_radial_17_4283" cx="0" cy="0" r="1" gradientUnits="userSpaceOnUse" gradientTransform="translate(251.487 4.71819) scale(195.236 195.236)">
<stop stop-color="#B5F6FF"/>
<stop offset="1"/>
</radialGradient>
<linearGradient id="paint6_linear_17_4283" x1="137.62" y1="71.72" x2="137.62" y2="14.16" gradientUnits="userSpaceOnUse">
<stop stop-color="#199CD4"/>
<stop offset="1" stop-color="#1D65AD"/>
</linearGradient>
<radialGradient id="paint7_radial_17_4283" cx="0" cy="0" r="1" gradientUnits="userSpaceOnUse" gradientTransform="translate(137.62 42.9298) scale(87.34 87.34)">
<stop stop-color="#B3D7AB"/>
<stop offset="0.93" stop-color="#95C11F"/>
</radialGradient>
<linearGradient id="paint8_linear_17_4283" x1="10.66" y1="29.18" x2="193.72" y2="29.18" gradientUnits="userSpaceOnUse">
<stop stop-color="white"/>
<stop offset="1"/>
</linearGradient>
<radialGradient id="paint9_radial_17_4283" cx="0" cy="0" r="1" gradientUnits="userSpaceOnUse" gradientTransform="translate(78.1388 -34.338) scale(180.53 180.53)">
<stop stop-color="#62C706"/>
<stop offset="1"/>
</radialGradient>
<linearGradient id="paint10_linear_17_4283" x1="21.4299" y1="21.6199" x2="166.08" y2="21.6199" gradientUnits="userSpaceOnUse">
<stop stop-color="#F7E984"/>
<stop offset="1"/>
</linearGradient>
<linearGradient id="paint11_linear_17_4283" x1="145.64" y1="50.4598" x2="254.43" y2="50.4598" gradientUnits="userSpaceOnUse">
<stop stop-color="#CCFF6B" stop-opacity="0.1"/>
<stop offset="1" stop-color="#171F00"/>
</linearGradient>
<radialGradient id="paint12_radial_17_4283" cx="0" cy="0" r="1" gradientUnits="userSpaceOnUse" gradientTransform="translate(144.829 -54.2424) scale(228.41 228.41)">
<stop offset="0.53" stop-color="#FFFF6B"/>
<stop offset="0.81" stop-color="#C3CA6B"/>
<stop offset="1" stop-color="#97A36B"/>
</radialGradient>
<radialGradient id="paint13_radial_17_4283" cx="0" cy="0" r="1" gradientUnits="userSpaceOnUse" gradientTransform="translate(4.99649 16.9846) scale(7.7292 7.7292)">
<stop stop-color="#B0F5FF"/>
<stop offset="0.93" stop-color="#63BBFF"/>
</radialGradient>
<radialGradient id="paint14_radial_17_4283" cx="0" cy="0" r="1" gradientUnits="userSpaceOnUse" gradientTransform="translate(63.9572 1.54906) scale(10.1004 10.1004)">
<stop stop-color="#B0F5FF"/>
<stop offset="0.93" stop-color="#63BBFF"/>
</radialGradient>
<radialGradient id="paint15_radial_17_4283" cx="0" cy="0" r="1" gradientUnits="userSpaceOnUse" gradientTransform="translate(7.34483 42.931) scale(7.4328 7.4328)">
<stop stop-color="#B0F5FF"/>
<stop offset="0.93" stop-color="#63BBFF"/>
</radialGradient>
<radialGradient id="paint16_radial_17_4283" cx="0" cy="0" r="1" gradientUnits="userSpaceOnUse" gradientTransform="translate(32.6754 70.8154) scale(9.462 9.46201)">
<stop stop-color="#B0F5FF"/>
<stop offset="0.93" stop-color="#63BBFF"/>
</radialGradient>
<radialGradient id="paint17_radial_17_4283" cx="0" cy="0" r="1" gradientUnits="userSpaceOnUse" gradientTransform="translate(6.31847 67.9427) scale(8.1624 8.1624)">
<stop stop-color="#B0F5FF"/>
<stop offset="0.93" stop-color="#63BBFF"/>
</radialGradient>
<radialGradient id="paint18_radial_17_4283" cx="0" cy="0" r="1" gradientUnits="userSpaceOnUse" gradientTransform="translate(57.5048 72.8218) scale(5.358 5.358)">
<stop stop-color="#B0F5FF"/>
<stop offset="0.93" stop-color="#63BBFF"/>
</radialGradient>
<radialGradient id="paint19_radial_17_4283" cx="0" cy="0" r="1" gradientUnits="userSpaceOnUse" gradientTransform="translate(29.2552 7.15788) scale(5.6088)">
<stop stop-color="#B0F5FF"/>
<stop offset="0.93" stop-color="#63BBFF"/>
</radialGradient>
<radialGradient id="paint20_radial_17_4283" cx="0" cy="0" r="1" gradientUnits="userSpaceOnUse" gradientTransform="translate(6.84299 10.6235) scale(5.5176)">
<stop stop-color="#B0F5FF"/>
<stop offset="0.93" stop-color="#63BBFF"/>
</radialGradient>
<radialGradient id="paint21_radial_17_4283" cx="0" cy="0" r="1" gradientUnits="userSpaceOnUse" gradientTransform="translate(22.5524 73.9619) scale(10.3512 10.3512)">
<stop stop-color="#B0F5FF"/>
<stop offset="0.93" stop-color="#63BBFF"/>
</radialGradient>
<radialGradient id="paint22_radial_17_4283" cx="0" cy="0" r="1" gradientUnits="userSpaceOnUse" gradientTransform="translate(3.69666 28.7267) scale(7.6608 7.6608)">
<stop stop-color="#B0F5FF"/>
<stop offset="0.93" stop-color="#63BBFF"/>
</radialGradient>
<radialGradient id="paint23_radial_17_4283" cx="0" cy="0" r="1" gradientUnits="userSpaceOnUse" gradientTransform="translate(149.206 1.29825) scale(10.1004 10.1004)">
<stop stop-color="#B0F5FF"/>
<stop offset="0.93" stop-color="#63BBFF"/>
</radialGradient>
<radialGradient id="paint24_radial_17_4283" cx="0" cy="0" r="1" gradientUnits="userSpaceOnUse" gradientTransform="translate(89.6756 69.1283) scale(9.462 9.46201)">
<stop stop-color="#B0F5FF"/>
<stop offset="0.93" stop-color="#63BBFF"/>
</radialGradient>
<radialGradient id="paint25_radial_17_4283" cx="0" cy="0" r="1" gradientUnits="userSpaceOnUse" gradientTransform="translate(135.047 74.5546) scale(5.358 5.358)">
<stop stop-color="#B0F5FF"/>
<stop offset="0.93" stop-color="#63BBFF"/>
</radialGradient>
<radialGradient id="paint26_radial_17_4283" cx="0" cy="0" r="1" gradientUnits="userSpaceOnUse" gradientTransform="translate(119.863 4.99185) scale(7.72921 7.7292)">
<stop stop-color="#B0F5FF"/>
<stop offset="0.93" stop-color="#63BBFF"/>
</radialGradient>
<radialGradient id="paint27_radial_17_4283" cx="0" cy="0" r="1" gradientUnits="userSpaceOnUse" gradientTransform="translate(215.532 71.7048) scale(5.358 5.35799)">
<stop stop-color="#B0F5FF"/>
<stop offset="0.93" stop-color="#63BBFF"/>
</radialGradient>
<radialGradient id="paint28_radial_17_4283" cx="0" cy="0" r="1" gradientUnits="userSpaceOnUse" gradientTransform="translate(179.827 7.04373) scale(7.66082 7.6608)">
<stop stop-color="#B0F5FF"/>
<stop offset="0.93" stop-color="#63BBFF"/>
</radialGradient>
<radialGradient id="paint29_radial_17_4283" cx="0" cy="0" r="1" gradientUnits="userSpaceOnUse" gradientTransform="translate(204.451 4.49024) scale(6.9312 6.9312)">
<stop stop-color="#B0F5FF"/>
<stop offset="0.93" stop-color="#63BBFF"/>
</radialGradient>
<radialGradient id="paint30_radial_17_4283" cx="0" cy="0" r="1" gradientUnits="userSpaceOnUse" gradientTransform="translate(265.213 28.6811) scale(6.93117 6.9312)">
<stop stop-color="#B0F5FF"/>
<stop offset="0.93" stop-color="#63BBFF"/>
</radialGradient>
<radialGradient id="paint31_radial_17_4283" cx="0" cy="0" r="1" gradientUnits="userSpaceOnUse" gradientTransform="translate(259.74 15.5027) scale(13.4292 13.4292)">
<stop stop-color="#B0F5FF"/>
<stop offset="0.93" stop-color="#63BBFF"/>
</radialGradient>
<radialGradient id="paint32_radial_17_4283" cx="0" cy="0" r="1" gradientUnits="userSpaceOnUse" gradientTransform="translate(229.371 5.97224) scale(7.72919 7.7292)">
<stop stop-color="#B0F5FF"/>
<stop offset="0.93" stop-color="#63BBFF"/>
</radialGradient>
<radialGradient id="paint33_radial_17_4283" cx="0" cy="0" r="1" gradientUnits="userSpaceOnUse" gradientTransform="translate(249.914 8.45753) scale(6.40681 6.4068)">
<stop stop-color="#B0F5FF"/>
<stop offset="0.93" stop-color="#63BBFF"/>
</radialGradient>
<clipPath id="clip0_17_4283">
<rect width="275.37" height="86" fill="white"/>
</clipPath>
</defs>
</svg>
