<svg width="50" height="51" viewBox="0 0 50 51" fill="none" xmlns="http://www.w3.org/2000/svg">
<path fill-rule="evenodd" clip-rule="evenodd" d="M3.64789 0.759768C6.65697 0.529838 10.0159 0.339896 13.5949 0.209936C17.1738 0.0799756 21.0126 0 25.0014 0C28.9901 0 32.799 0.0799756 36.3879 0.209936C39.9768 0.329899 43.3158 0.529838 46.3348 0.759768C48.1643 0.899725 49.5539 2.36928 49.6538 4.22871C49.8138 7.29777 49.9237 10.6867 49.9737 14.2856C50.0137 17.8545 50.0137 21.6434 49.9337 25.5522C49.8538 29.431 49.6838 33.1599 49.4939 36.6188C49.3039 40.0578 49.054 43.2568 48.7741 46.1159C48.6042 47.8354 47.2146 49.175 45.4551 49.3049C42.566 49.5249 39.347 49.7048 35.918 49.8148C32.4791 49.9347 28.8102 49.9947 25.0214 49.9947C21.2325 49.9947 17.5336 49.9347 14.1047 49.8148C10.6657 49.6948 7.45673 49.5249 4.55761 49.3149C2.81815 49.185 1.41857 47.8454 1.24863 46.1259C0.968712 43.2668 0.718789 40.0777 0.528847 36.6288C0.338905 33.1699 0.198948 29.441 0.108975 25.5522C-0.000991354 21.6434 -0.0209852 17.8445 0.0190025 14.2656C0.0589903 10.6667 0.178954 7.27778 0.338905 4.21871C0.438874 2.36928 1.82845 0.909722 3.64789 0.759768Z" fill="#3F6D09"/>
<g style="mix-blend-mode:screen">
<path fill-rule="evenodd" clip-rule="evenodd" d="M3.64789 0.759536C6.65697 0.529607 10.0159 0.339665 13.5949 0.209705C17.1738 0.0897412 21.0126 0.00976562 25.0014 0.00976562C28.9901 0.00976562 32.799 0.0897412 36.3879 0.219701C39.9768 0.339665 43.3158 0.539604 46.3348 0.769533C48.1643 0.909491 49.5539 2.37904 49.6538 4.23847C49.8138 7.30753 49.9237 10.6965 49.9737 14.2954C50.0137 17.8643 50.0137 21.6531 49.9337 25.562C49.8538 29.4408 49.6838 33.1696 49.4939 36.6286C49.3039 40.0675 49.054 43.2665 48.7741 46.1257C48.6042 47.8451 47.2146 49.1847 45.4551 49.3147C42.566 49.5346 39.347 49.7146 35.918 49.8245C32.4791 49.9445 28.8102 50.0045 25.0214 50.0045C21.2325 50.0045 17.5336 49.9445 14.1047 49.8245C10.6657 49.7046 7.45673 49.5346 4.55761 49.3247C2.81815 49.1947 1.41857 47.8551 1.24863 46.1357C0.968712 43.2765 0.718789 40.0875 0.528847 36.6386C0.338905 33.1796 0.198948 29.4508 0.108975 25.562C-0.000991354 21.6432 -0.0209852 17.8443 0.0190025 14.2654C0.0589903 10.6665 0.178954 7.27754 0.338905 4.21848C0.438874 2.36904 1.82845 0.909491 3.64789 0.759536Z" fill="#5EAA10"/>
</g>
<path style="mix-blend-mode:screen" fill-rule="evenodd" clip-rule="evenodd" d="M37.1277 2.54893C31.8993 0.00970519 12.2753 0.989406 6.03718 1.55923C2.55824 1.87913 1.25864 2.55893 1.17866 6.29778C1.01871 14.2953 -0.0109727 26.4516 1.75849 34.1493C2.59823 37.7782 5.81725 36.4886 6.49704 35.5388C16.0941 21.973 27.6506 13.0257 37.4176 7.57739C39.5169 6.40775 41.2364 4.53832 37.1277 2.54893Z" fill="url(#paint0_radial_75_1096)"/>
<path style="mix-blend-mode:screen" fill-rule="evenodd" clip-rule="evenodd" d="M22.4322 1.59969C19.3232 1.24979 16.1841 1.58969 13.0851 1.79963C10.6358 1.96957 8.17656 2.16951 5.79729 2.73934C3.15809 3.36915 2.65824 4.31886 2.24837 6.87807C1.86849 9.25735 1.88848 11.6866 1.87848 14.1059C1.86849 16.1452 3.84788 15.8353 4.24776 14.7057C5.11749 12.2464 4.86757 9.18737 6.62703 7.128C9.0063 4.32885 18.1035 4.03894 22.2023 3.44912C23.7318 3.22919 23.8318 1.75964 22.4522 1.60968L22.4322 1.59969ZM1.63856 17.9847C1.4986 19.2643 1.4886 20.5739 1.68854 21.8435C1.93846 23.463 3.64794 23.9129 3.98784 22.0534C4.24776 20.6839 4.33773 19.2643 4.23776 17.8747C4.16778 16.855 1.85849 15.9453 1.62856 17.9847H1.63856Z" fill="url(#paint1_radial_75_1096)"/>
<path style="mix-blend-mode:screen" fill-rule="evenodd" clip-rule="evenodd" d="M28.9502 45.0162C28.6203 45.0762 28.1204 45.3961 28.2404 45.706C28.3903 46.0959 28.9801 46.1759 29.4 46.1859C32.8989 46.2359 40.1567 45.6161 42.2761 43.2668C44.6154 40.6776 45.775 31.6303 45.795 28.5113C45.795 28.2314 45.6251 27.7915 45.3451 27.7915C45.0252 27.7915 44.8153 28.2214 44.7353 28.5313C43.6557 32.9699 41.8062 37.6985 39.6169 40.4176C37.7775 42.6969 33.2788 44.1565 28.9502 45.0062V45.0162Z" fill="url(#paint2_radial_75_1096)"/>
<g opacity="0.75">
<path style="mix-blend-mode:screen" fill-rule="evenodd" clip-rule="evenodd" d="M36.6586 27.0615C37.4386 27.0615 38.2986 27.7515 38.2986 28.5315C38.2986 29.3115 37.5486 29.9415 36.7686 29.9415C35.9886 29.9415 35.3086 29.2915 35.3586 28.5315C35.4086 27.7715 35.8786 27.0615 36.6586 27.0615ZM36.5886 27.1515C37.2286 27.1515 37.9386 27.7215 37.9386 28.3615C37.9386 29.0015 37.3186 29.5315 36.6786 29.5315C36.0386 29.5315 35.4786 28.9915 35.5086 28.3615C35.5486 27.7415 35.9386 27.1515 36.5886 27.1515ZM36.9086 27.4215C37.1386 27.6515 37.0186 27.9915 36.7086 28.3015C36.3986 28.6115 36.0186 28.7615 35.7886 28.5415C35.5586 28.3215 35.6286 27.8215 35.9386 27.5115C36.2486 27.2015 36.6786 27.1915 36.9086 27.4215ZM37.7586 28.1515C37.8686 28.1815 37.9186 28.6915 37.5786 29.0715C37.2386 29.4515 36.6986 29.4415 36.6786 29.3015C36.6686 29.1515 37.0786 29.1715 37.3786 28.8815C37.6786 28.5915 37.6486 28.1415 37.7586 28.1615V28.1515Z" fill="url(#paint3_radial_75_1096)"/>
<path style="mix-blend-mode:screen" fill-rule="evenodd" clip-rule="evenodd" d="M5.79771 13.9854C6.57771 13.9854 7.43771 14.6754 7.43771 15.4554C7.43771 16.2354 6.68771 16.8654 5.90771 16.8654C5.12771 16.8654 4.44771 16.2154 4.49771 15.4554C4.54771 14.7054 5.01771 13.9854 5.79771 13.9854ZM5.72771 14.0754C6.36771 14.0754 7.07771 14.6454 7.07771 15.2854C7.07771 15.9254 6.45771 16.4554 5.81771 16.4554C5.17771 16.4554 4.61771 15.9154 4.64771 15.2854C4.67771 14.6554 5.07771 14.0754 5.72771 14.0754ZM6.04771 14.3454C6.27771 14.5754 6.15771 14.9154 5.84771 15.2254C5.53771 15.5354 5.15771 15.6854 4.92771 15.4654C4.69771 15.2454 4.76771 14.7454 5.07771 14.4354C5.38771 14.1254 5.81771 14.1154 6.04771 14.3454ZM6.89771 15.0754C7.00771 15.1054 7.05771 15.6154 6.71771 15.9954C6.37771 16.3754 5.83771 16.3654 5.81771 16.2254C5.80771 16.0754 6.21771 16.0954 6.51771 15.8054C6.81771 15.5054 6.78771 15.0654 6.89771 15.0854V15.0754Z" fill="url(#paint4_radial_75_1096)"/>
<path style="mix-blend-mode:screen" opacity="0.7" fill-rule="evenodd" clip-rule="evenodd" d="M40.5971 9.08691C41.3771 9.08691 42.2271 9.77691 42.2271 10.5469C42.2271 11.3169 41.4771 11.9569 40.7071 11.9569C39.9371 11.9569 39.2571 11.3069 39.2971 10.5469C39.3471 9.79691 39.8171 9.08691 40.5971 9.08691ZM40.5271 9.17691C41.1671 9.17691 41.8771 9.74691 41.8771 10.3869C41.8771 11.0269 41.2571 11.5469 40.6171 11.5469C39.9771 11.5469 39.4171 11.0069 39.4571 10.3869C39.4971 9.76691 39.8871 9.17691 40.5271 9.17691ZM40.8471 9.44691C41.0771 9.67691 40.9571 10.0169 40.6471 10.3269C40.3371 10.6369 39.9571 10.7869 39.7271 10.5669C39.4971 10.3369 39.5671 9.85691 39.8771 9.54691C40.1871 9.23691 40.6171 9.22691 40.8371 9.45691L40.8471 9.44691ZM41.6971 10.1669C41.8071 10.1969 41.8571 10.7069 41.5171 11.0769C41.1771 11.4569 40.6371 11.4469 40.6171 11.3069C40.5971 11.1669 41.0171 11.1769 41.3071 10.8869C41.5971 10.5969 41.5771 10.1469 41.6871 10.1669H41.6971Z" fill="url(#paint5_radial_75_1096)"/>
<path style="mix-blend-mode:screen" fill-rule="evenodd" clip-rule="evenodd" d="M10.4362 20.3936C11.4659 20.3936 12.6055 21.3033 12.6055 22.343C12.6055 23.3826 11.6158 24.2124 10.5861 24.2124C9.55645 24.2124 8.65672 23.3427 8.7167 22.343C8.77669 21.3433 9.41649 20.3936 10.4462 20.3936H10.4362ZM10.3462 20.5235C11.1959 20.5235 12.1357 21.2833 12.1357 22.133C12.1357 22.9828 11.3159 23.6726 10.4662 23.6726C9.61643 23.6726 8.86666 22.9528 8.92664 22.133C8.97663 21.3033 9.49647 20.5235 10.3562 20.5235H10.3462ZM10.7761 20.8834C11.076 21.1833 10.916 21.6432 10.5062 22.053C10.0963 22.4629 9.58644 22.6629 9.28653 22.363C8.98662 22.063 9.07659 21.4132 9.48647 21.0034C9.89634 20.5935 10.4662 20.5735 10.7661 20.8834H10.7761ZM11.8957 21.8431C12.0457 21.8731 12.1057 22.5529 11.6558 23.0527C11.1959 23.5526 10.4862 23.5426 10.4662 23.3527C10.4462 23.1627 10.996 23.1827 11.3859 22.7928C11.7858 22.3929 11.7458 21.8031 11.8957 21.8431Z" fill="url(#paint6_radial_75_1096)"/>
<path style="mix-blend-mode:screen" opacity="0.4" fill-rule="evenodd" clip-rule="evenodd" d="M18.6634 37.0085C19.863 36.9386 20.7527 37.7283 20.7527 38.748C20.7527 39.7677 19.753 40.6274 18.6734 40.5774C17.6037 40.5275 16.7739 39.7477 16.8239 38.728C16.8739 37.7083 17.4637 37.0685 18.6534 36.9985L18.6634 37.0085ZM18.5034 37.1685C19.4831 37.1085 20.2229 37.7583 20.2229 38.598C20.2229 39.4378 19.4031 40.1476 18.5234 40.0976C17.6437 40.0576 16.9639 39.4178 17.0039 38.5781C17.0439 37.7383 17.5237 37.2185 18.5034 37.1585V37.1685ZM18.8433 37.4984C19.1432 37.7983 18.9833 38.3081 18.5834 38.718C18.1735 39.1279 17.6737 39.2678 17.3738 38.9679C17.0738 38.668 17.1838 38.0782 17.4837 37.7283C17.7836 37.3784 18.5434 37.1985 18.8433 37.4984ZM19.983 38.2382C20.1329 38.2681 20.2029 38.9679 19.733 39.4878C19.2632 40.0076 18.5234 39.9976 18.5034 39.7977C18.4834 39.5977 19.0432 39.6277 19.4531 39.2179C19.863 38.808 19.823 38.1982 19.983 38.2382Z" fill="url(#paint7_radial_75_1096)"/>
<path style="mix-blend-mode:screen" opacity="0.4" fill-rule="evenodd" clip-rule="evenodd" d="M7.30691 43.657C8.50655 43.587 9.39628 44.3767 9.39628 45.3964C9.39628 46.4161 8.39658 47.2759 7.31691 47.2259C6.24724 47.1759 5.41749 46.3961 5.46748 45.3764C5.51746 44.3568 6.10728 43.717 7.29692 43.647L7.30691 43.657ZM7.14696 43.8169C8.12666 43.7569 8.86644 44.4067 8.86644 45.2465C8.86644 46.0862 8.04669 46.796 7.16696 46.746C6.28723 46.706 5.60743 46.0662 5.64742 45.2265C5.68741 44.3867 6.16726 43.8669 7.14696 43.8069V43.8169ZM7.48686 44.1468C7.78677 44.4467 7.62682 44.9566 7.22694 45.3664C6.82706 45.7763 6.31722 45.9163 6.01731 45.6164C5.7174 45.3165 5.82737 44.7266 6.12728 44.3767C6.42718 44.0269 7.18695 43.8469 7.48686 44.1468ZM8.62651 44.8866C8.77647 44.9166 8.84644 45.6164 8.37659 46.1362C7.90673 46.6561 7.16696 46.6461 7.14696 46.4461C7.12697 46.2462 7.6868 46.2762 8.09667 45.8663C8.50655 45.4564 8.46656 44.8466 8.62651 44.8866Z" fill="url(#paint8_radial_75_1096)"/>
<path style="mix-blend-mode:screen" opacity="0.4" fill-rule="evenodd" clip-rule="evenodd" d="M29.0507 36.9989C29.7807 36.9589 30.3207 37.4389 30.3207 38.0589C30.3207 38.6789 29.7107 39.1989 29.0607 39.1689C28.4107 39.1389 27.9107 38.6689 27.9407 38.0489C27.9707 37.4289 28.3307 37.0489 29.0507 36.9989ZM28.9507 37.0989C29.5507 37.0689 29.9907 37.4589 29.9907 37.9689C29.9907 38.4789 29.4907 38.9089 28.9607 38.8789C28.4307 38.8489 28.0107 38.4689 28.0407 37.9589C28.0707 37.4489 28.3607 37.1389 28.9507 37.0989ZM29.1507 37.2989C29.3307 37.4789 29.2407 37.7889 28.9907 38.0389C28.7407 38.2889 28.4407 38.3689 28.2607 38.1889C28.0807 38.0089 28.1407 37.6489 28.3307 37.4389C28.5107 37.2289 28.9707 37.1189 29.1507 37.2989ZM29.8407 37.7489C29.9307 37.7689 29.9707 38.1989 29.6907 38.5089C29.4007 38.8189 28.9607 38.8189 28.9407 38.6989C28.9207 38.5789 29.2707 38.5989 29.5207 38.3489C29.7707 38.0989 29.7507 37.7289 29.8407 37.7489Z" fill="url(#paint9_radial_75_1096)"/>
<path style="mix-blend-mode:screen" opacity="0.4" fill-rule="evenodd" clip-rule="evenodd" d="M34.5491 42.4766C35.2291 42.4366 35.7291 42.8866 35.7291 43.4666C35.7291 44.0466 35.1591 44.5366 34.5591 44.5066C33.9591 44.4766 33.4791 44.0366 33.5091 43.4566C33.5391 42.8766 33.8691 42.5166 34.5491 42.4766ZM34.4591 42.5666C35.0091 42.5366 35.4291 42.9066 35.4291 43.3766C35.4291 43.8466 34.9591 44.2466 34.4691 44.2266C33.9691 44.2066 33.5891 43.8466 33.6091 43.3666C33.6291 42.8966 33.9091 42.5966 34.4591 42.5666ZM34.6491 42.7566C34.8191 42.9266 34.7291 43.2166 34.4991 43.4466C34.2691 43.6766 33.9891 43.7566 33.8191 43.5866C33.6491 43.4166 33.7091 43.0866 33.8791 42.8866C34.0491 42.6866 34.4791 42.5866 34.6491 42.7566ZM35.2991 43.1766C35.3891 43.1966 35.4291 43.5966 35.1591 43.8866C34.8891 44.1766 34.4791 44.1766 34.4591 44.0666C34.4491 43.9566 34.7691 43.9666 34.9991 43.7366C35.2291 43.5066 35.2091 43.1566 35.2991 43.1766Z" fill="url(#paint10_radial_75_1096)"/>
<path style="mix-blend-mode:screen" fill-rule="evenodd" clip-rule="evenodd" d="M22.7926 8.71771C23.7726 8.65771 24.5026 9.30771 24.5026 10.1477C24.5026 10.9877 23.6826 11.6877 22.8026 11.6477C21.9226 11.6077 21.2426 10.9677 21.2926 10.1377C21.3426 9.30771 21.8126 8.77771 22.7926 8.72771V8.71771ZM22.6626 8.84771C23.4626 8.79771 24.0626 9.33771 24.0626 10.0177C24.0626 10.6977 23.3926 11.2777 22.6726 11.2477C21.9526 11.2177 21.3926 10.6877 21.4326 10.0077C21.4626 9.31771 21.8626 8.89771 22.6626 8.84771ZM22.9326 9.11771C23.1726 9.35771 23.0526 9.77771 22.7226 10.1077C22.3926 10.4377 21.9826 10.5577 21.7326 10.3177C21.4926 10.0777 21.5726 9.58771 21.8226 9.30771C22.0726 9.01771 22.6926 8.87771 22.9326 9.11771ZM23.8626 9.71771C23.9826 9.74771 24.0426 10.3177 23.6626 10.7377C23.2726 11.1577 22.6726 11.1577 22.6526 10.9877C22.6326 10.8277 23.1026 10.8477 23.4326 10.5177C23.7626 10.1877 23.7426 9.68771 23.8626 9.71771Z" fill="url(#paint11_radial_75_1096)"/>
<path style="mix-blend-mode:screen" opacity="0.4" fill-rule="evenodd" clip-rule="evenodd" d="M22.7422 15.8149C23.4422 15.7749 23.9622 16.2349 23.9622 16.8349C23.9622 17.4349 23.3722 17.9349 22.7522 17.9049C22.1222 17.8749 21.6422 17.4249 21.6722 16.8249C21.7022 16.2249 22.0422 15.8549 22.7422 15.8149ZM22.6422 15.9049C23.2122 15.8749 23.6422 16.2549 23.6422 16.7449C23.6422 17.2349 23.1622 17.6449 22.6522 17.6249C22.1422 17.6049 21.7422 17.2249 21.7622 16.7349C21.7922 16.2449 22.0622 15.9449 22.6422 15.9049ZM22.8422 16.0949C23.0122 16.2649 22.9222 16.5649 22.6922 16.8049C22.4522 17.0449 22.1622 17.1249 21.9922 16.9549C21.8222 16.7849 21.8822 16.4349 22.0522 16.2349C22.2322 16.0249 22.6722 15.9249 22.8422 16.1049V16.0949ZM23.5122 16.5249C23.6022 16.5449 23.6422 16.9549 23.3622 17.2549C23.0922 17.5549 22.6522 17.5549 22.6422 17.4349C22.6322 17.3149 22.9622 17.3349 23.2022 17.0949C23.4422 16.8549 23.4222 16.5049 23.5122 16.5249Z" fill="url(#paint12_radial_75_1096)"/>
<path style="mix-blend-mode:screen" fill-rule="evenodd" clip-rule="evenodd" d="M11.4464 34.7592C12.1764 34.7692 12.8464 35.4792 12.8464 36.2892C12.8464 37.0992 12.3064 37.4392 11.4964 37.4392C10.6864 37.4392 10.0464 37.1092 10.0464 36.2992C10.0464 35.4892 10.7164 34.7392 11.4464 34.7592ZM11.3364 34.8892C11.9464 34.8992 12.4964 35.4892 12.4964 36.1592C12.4964 36.8292 12.0464 37.1192 11.3764 37.1192C10.7064 37.1192 10.1764 36.8492 10.1764 36.1692C10.1764 35.4892 10.7264 34.8792 11.3364 34.8892ZM11.6164 35.1192C11.8364 35.3392 11.7464 35.7992 11.4464 36.0992C11.1464 36.3992 10.7164 36.4692 10.4964 36.2392C10.2764 36.0192 10.3464 35.5492 10.6564 35.2492C10.9564 34.9492 11.3964 34.8892 11.6164 35.1192ZM12.2764 35.7792C12.3864 35.7992 12.5164 36.3592 12.1764 36.7192C11.8464 37.0792 11.2464 37.0192 11.2364 36.8792C11.2264 36.7392 11.6964 36.8192 11.9864 36.5292C12.2764 36.2392 12.1664 35.7492 12.2764 35.7792Z" fill="url(#paint13_radial_75_1096)"/>
<path style="mix-blend-mode:screen" fill-rule="evenodd" clip-rule="evenodd" d="M8.70664 7.75772C9.43664 7.76772 10.1066 8.47772 10.1066 9.28772C10.1066 10.0977 9.56664 10.4377 8.75664 10.4377C7.94664 10.4377 7.30664 10.1077 7.30664 9.29772C7.30664 8.48772 7.97664 7.73772 8.70664 7.75772ZM8.59664 7.88772C9.20664 7.89772 9.75664 8.48771 9.75664 9.15771C9.75664 9.82771 9.30664 10.1177 8.63664 10.1177C7.96664 10.1177 7.43664 9.84772 7.43664 9.16772C7.43664 8.48772 7.98664 7.87772 8.59664 7.88772ZM8.87664 8.11772C9.09664 8.33772 9.00664 8.79772 8.70664 9.09772C8.40664 9.39772 7.97664 9.46772 7.75664 9.24772C7.53664 9.02772 7.60664 8.55772 7.91664 8.24772C8.22664 7.93772 8.65664 7.88772 8.87664 8.11772ZM9.53664 8.77772C9.64664 8.79772 9.77664 9.35772 9.43664 9.71772C9.10664 10.0777 8.50664 10.0177 8.49664 9.87772C8.48664 9.73772 8.95664 9.81772 9.24664 9.52772C9.53664 9.23772 9.42664 8.74772 9.53664 8.77772Z" fill="url(#paint14_radial_75_1096)"/>
<path style="mix-blend-mode:screen" fill-rule="evenodd" clip-rule="evenodd" d="M27.6311 3.49897C28.2911 3.50897 28.9011 4.14897 28.9011 4.87897C28.9011 5.60897 28.4111 5.91897 27.6811 5.91897C26.9511 5.91897 26.3711 5.61897 26.3711 4.88897C26.3711 4.15897 26.9711 3.47897 27.6411 3.49897H27.6311ZM27.5311 3.61897C28.0811 3.61897 28.5811 4.15897 28.5811 4.76897C28.5811 5.37897 28.1811 5.62897 27.5711 5.62897C26.9611 5.62897 26.4811 5.37897 26.4811 4.77897C26.4811 4.17897 26.9811 3.60897 27.5311 3.61897ZM27.7811 3.82897C27.9811 4.02897 27.9011 4.43897 27.6311 4.71897C27.3511 4.99897 26.9711 5.04897 26.7711 4.84897C26.5711 4.64897 26.6411 4.22897 26.9111 3.94897C27.1911 3.66897 27.5811 3.62897 27.7811 3.82897ZM28.3811 4.42897C28.4811 4.44897 28.5911 4.94897 28.2911 5.27897C27.9911 5.60897 27.4511 5.54897 27.4411 5.41897C27.4311 5.28897 27.8611 5.36897 28.1211 5.10897C28.3811 4.84897 28.2911 4.40897 28.3811 4.42897Z" fill="url(#paint15_radial_75_1096)"/>
</g>
<path style="mix-blend-mode:multiply" fill-rule="evenodd" clip-rule="evenodd" d="M42.9658 43.6464C39.2069 48.255 13.6547 47.5052 6.19702 44.2662C2.44817 42.6367 1.33851 39.2878 0.48877 36.3787C0.48877 36.4686 0.48877 36.5486 0.498766 36.6386C0.688708 40.0775 0.938632 43.2665 1.21855 46.1357C1.38849 47.8551 2.77807 49.1947 4.52753 49.3247C7.41665 49.5446 10.6357 49.7146 14.0746 49.8245C17.5036 49.9345 21.1724 50.0045 24.9913 50.0045C28.8101 50.0045 32.449 49.9445 35.8879 49.8245C39.3269 49.7146 42.5359 49.5346 45.425 49.3147C47.1745 49.1847 48.5741 47.8451 48.744 46.1257C49.0239 43.2665 49.2739 40.0675 49.4638 36.6286C49.6537 33.1696 49.8137 29.4408 49.9037 25.562C49.9936 21.6531 49.9936 17.8643 49.9436 14.2954C49.9037 10.6965 49.7937 7.30753 49.6237 4.23847C49.5238 2.37904 48.1342 0.919488 46.3048 0.769533C43.2957 0.539604 39.9467 0.349662 36.3578 0.219701C33.1688 0.0997381 29.7698 0.0297595 26.2609 0.00976562C31.8692 0.299677 39.9967 1.25938 43.3457 4.51839C49.3238 10.3366 46.7346 39.0078 42.9658 43.6364V43.6464Z" fill="url(#paint16_radial_75_1096)"/>
<defs>
<radialGradient id="paint0_radial_75_1096" cx="0" cy="0" r="1" gradientUnits="userSpaceOnUse" gradientTransform="translate(-5.17939 -10.0372) scale(50.7245 50.7245)">
<stop stop-color="#B5F6FF"/>
<stop offset="1"/>
</radialGradient>
<radialGradient id="paint1_radial_75_1096" cx="0" cy="0" r="1" gradientUnits="userSpaceOnUse" gradientTransform="translate(-2.51017 -7.61749) scale(33.8297 33.8297)">
<stop stop-color="white"/>
<stop offset="1"/>
</radialGradient>
<radialGradient id="paint2_radial_75_1096" cx="0" cy="0" r="1" gradientUnits="userSpaceOnUse" gradientTransform="translate(23.9917 22.953) scale(33.0399 33.0399)">
<stop stop-color="#B5F6FF"/>
<stop offset="1"/>
</radialGradient>
<radialGradient id="paint3_radial_75_1096" cx="0" cy="0" r="1" gradientUnits="userSpaceOnUse" gradientTransform="translate(34.2186 24.6115) scale(5.95001 5.95)">
<stop stop-color="#B0F5FF"/>
<stop offset="0.93" stop-color="#63BBFF"/>
</radialGradient>
<radialGradient id="paint4_radial_75_1096" cx="0" cy="0" r="1" gradientUnits="userSpaceOnUse" gradientTransform="translate(3.35771 11.5354) scale(5.95 5.95)">
<stop stop-color="#B0F5FF"/>
<stop offset="0.93" stop-color="#63BBFF"/>
</radialGradient>
<radialGradient id="paint5_radial_75_1096" cx="0" cy="0" r="1" gradientUnits="userSpaceOnUse" gradientTransform="translate(38.1671 6.64691) scale(5.93)">
<stop stop-color="#B0F5FF"/>
<stop offset="0.93" stop-color="#63BBFF"/>
</radialGradient>
<radialGradient id="paint6_radial_75_1096" cx="0" cy="0" r="1" gradientUnits="userSpaceOnUse" gradientTransform="translate(7.19717 17.1445) scale(7.88759)">
<stop stop-color="#B0F5FF"/>
<stop offset="0.93" stop-color="#63BBFF"/>
</radialGradient>
<radialGradient id="paint7_radial_75_1096" cx="0" cy="0" r="1" gradientUnits="userSpaceOnUse" gradientTransform="translate(17.5137 36.0688) scale(5.5483 5.54831)">
<stop stop-color="#B0F5FF"/>
<stop offset="0.93" stop-color="#63BBFF"/>
</radialGradient>
<radialGradient id="paint8_radial_75_1096" cx="0" cy="0" r="1" gradientUnits="userSpaceOnUse" gradientTransform="translate(6.15727 42.7273) scale(5.5483 5.5483)">
<stop stop-color="#B0F5FF"/>
<stop offset="0.93" stop-color="#63BBFF"/>
</radialGradient>
<radialGradient id="paint9_radial_75_1096" cx="0" cy="0" r="1" gradientUnits="userSpaceOnUse" gradientTransform="translate(28.3507 36.4389) scale(3.37 3.37)">
<stop stop-color="#B0F5FF"/>
<stop offset="0.93" stop-color="#63BBFF"/>
</radialGradient>
<radialGradient id="paint10_radial_75_1096" cx="0" cy="0" r="1" gradientUnits="userSpaceOnUse" gradientTransform="translate(33.8991 41.9466) scale(3.14 3.14)">
<stop stop-color="#B0F5FF"/>
<stop offset="0.93" stop-color="#63BBFF"/>
</radialGradient>
<radialGradient id="paint11_radial_75_1096" cx="0" cy="0" r="1" gradientUnits="userSpaceOnUse" gradientTransform="translate(21.8526 7.94771) scale(4.54)">
<stop stop-color="#B0F5FF"/>
<stop offset="0.93" stop-color="#63BBFF"/>
</radialGradient>
<radialGradient id="paint12_radial_75_1096" cx="0" cy="0" r="1" gradientUnits="userSpaceOnUse" gradientTransform="translate(22.0722 15.2649) scale(3.24)">
<stop stop-color="#B0F5FF"/>
<stop offset="0.93" stop-color="#63BBFF"/>
</radialGradient>
<radialGradient id="paint13_radial_75_1096" cx="0" cy="0" r="1" gradientUnits="userSpaceOnUse" gradientTransform="translate(10.7864 33.9992) scale(4.5)">
<stop stop-color="#B0F5FF"/>
<stop offset="0.93" stop-color="#63BBFF"/>
</radialGradient>
<radialGradient id="paint14_radial_75_1096" cx="0" cy="0" r="1" gradientUnits="userSpaceOnUse" gradientTransform="translate(8.04664 6.99772) scale(4.5 4.5)">
<stop stop-color="#B0F5FF"/>
<stop offset="0.93" stop-color="#63BBFF"/>
</radialGradient>
<radialGradient id="paint15_radial_75_1096" cx="0" cy="0" r="1" gradientUnits="userSpaceOnUse" gradientTransform="translate(27.0311 2.80897) scale(4.07 4.07)">
<stop stop-color="#B0F5FF"/>
<stop offset="0.93" stop-color="#63BBFF"/>
</radialGradient>
<radialGradient id="paint16_radial_75_1096" cx="0" cy="0" r="1" gradientUnits="userSpaceOnUse" gradientTransform="translate(24.0416 23.4026) scale(43.0368 43.0368)">
<stop offset="0.53" stop-color="#FFFF6B"/>
<stop offset="0.81" stop-color="#C3CA6B"/>
<stop offset="1" stop-color="#97A36B"/>
</radialGradient>
</defs>
</svg>
