<svg width="50" height="50" viewBox="0 0 50 50" fill="none" xmlns="http://www.w3.org/2000/svg">
<g clip-path="url(#clip0_9_1969)">
<path fill-rule="evenodd" clip-rule="evenodd" d="M3.64921 0.755172C6.66041 0.521552 10.0147 0.330172 13.5992 0.205172C17.1802 0.0801724 21.0173 0 25.007 0C28.9966 0 32.8027 0.0801724 36.394 0.205172C39.9794 0.330172 43.3285 0.521552 46.3389 0.755172C48.1639 0.896552 49.5587 2.36034 49.657 4.21983C49.819 7.28535 49.9294 10.675 49.9725 14.275C50.0156 17.8448 50.013 21.6397 49.9277 25.55C49.8432 29.4345 49.6828 33.1603 49.4889 36.6198C49.2966 40.0603 49.0501 43.2552 48.769 46.1198C48.6001 47.8448 47.2052 49.1828 45.4509 49.3147C42.5578 49.5328 39.3458 49.7095 35.9095 49.825C32.4699 49.9397 28.8018 50 25.007 50C21.2121 50 17.5147 49.9397 14.0846 49.825C10.6492 49.7095 7.4311 49.5353 4.53886 49.3198C2.79403 49.1905 1.39921 47.85 1.23024 46.1302C0.949207 43.2698 0.698345 40.075 0.506104 36.6353C0.312138 33.1707 0.171621 29.4457 0.086276 25.5509C0.000931189 21.6405 -0.0214826 17.8405 0.0207588 14.2603C0.0638622 10.6603 0.178517 7.26983 0.341448 4.21034C0.439724 2.35517 1.83455 0.896552 3.64921 0.755172Z" fill="#F7B04B"/>
<path style="mix-blend-mode:screen" fill-rule="evenodd" clip-rule="evenodd" d="M37.1422 2.53716C31.9086 9.08971e-05 12.2836 0.983712 6.03964 1.5544C2.55688 1.8725 1.26205 2.55268 1.1836 6.29406C1.0155 14.2897 -0.012948 26.4535 1.76119 34.151C2.5974 37.7785 5.82498 36.4949 6.50171 35.538C16.1008 21.9673 27.6603 13.0199 37.431 7.56561C39.5293 6.39406 41.25 4.52854 37.1422 2.53802V2.53716Z" fill="url(#paint0_radial_9_1969)"/>
<path style="mix-blend-mode:screen" fill-rule="evenodd" clip-rule="evenodd" d="M22.4373 1.58625C19.3313 1.24142 16.1916 1.57159 13.0856 1.78366C10.6365 1.95004 8.17096 2.14918 5.79078 2.71987C3.14768 3.35349 2.64941 4.29573 2.23734 6.86211C1.85458 9.24659 1.87699 11.6673 1.8632 14.0957C1.85199 16.1328 3.82958 15.8294 4.23475 14.6914C5.10889 12.2354 4.85199 9.17504 6.60975 7.10694C8.99251 4.30435 18.0856 4.01556 22.1925 3.42935C23.7175 3.21211 23.821 1.7397 22.4382 1.58625H22.4373ZM1.64165 17.9794C1.50027 19.2569 1.49423 20.569 1.69165 21.8388C1.9451 23.463 3.64768 23.9078 3.99596 22.0509C4.25285 20.6819 4.34337 19.2647 4.24682 17.8742C4.17613 16.8587 1.86665 15.9483 1.64165 17.9794Z" fill="url(#paint1_radial_9_1969)"/>
<path style="mix-blend-mode:screen" fill-rule="evenodd" clip-rule="evenodd" d="M28.9612 45.0164C28.6362 45.0802 28.1345 45.3949 28.2552 45.707C28.406 46.0966 29 46.1794 29.4147 46.1854C32.9095 46.2371 40.175 45.6104 42.2957 43.2647C44.6371 40.6751 45.7974 31.6276 45.8181 28.5095C45.8198 28.2302 45.644 27.7871 45.3647 27.794C45.0422 27.8018 44.8353 28.2251 44.7595 28.5371C43.6793 32.9733 41.8276 37.7078 39.6345 40.4233C37.7931 42.7035 33.2991 44.1639 28.9612 45.0173V45.0164Z" fill="url(#paint2_radial_9_1969)"/>
<g opacity="0.75">
<path style="mix-blend-mode:screen" fill-rule="evenodd" clip-rule="evenodd" d="M36.6725 27.0601C37.4509 27.0601 38.3078 27.7506 38.3078 28.529C38.3078 29.3075 37.5578 29.9385 36.7794 29.9385C36.0009 29.9385 35.3216 29.2842 35.369 28.529C35.4165 27.7739 35.894 27.0601 36.6725 27.0601ZM36.6061 27.1549C37.2501 27.1549 37.9578 27.7256 37.9578 28.3695C37.9578 29.0135 37.338 29.5351 36.694 29.5351C36.0501 29.5351 35.4889 28.9937 35.5285 28.3695C35.5682 27.7454 35.9621 27.1549 36.6061 27.1549ZM36.9277 27.4273C37.1561 27.6549 37.0363 28.0014 36.7268 28.3109C36.4173 28.6204 36.0354 28.7747 35.807 28.5471C35.5785 28.3195 35.6509 27.8307 35.9604 27.5213C36.2699 27.2118 36.6992 27.1997 36.9277 27.4273ZM37.7768 28.1532C37.888 28.179 37.9389 28.6902 37.5949 29.0687C37.2509 29.4471 36.7104 29.442 36.6966 29.2963C36.6828 29.1506 37.0949 29.1704 37.3932 28.8721C37.6915 28.5739 37.6656 28.1273 37.7777 28.1532H37.7768Z" fill="url(#paint3_linear_9_1969)"/>
<path style="mix-blend-mode:screen" fill-rule="evenodd" clip-rule="evenodd" d="M5.79847 13.9756C6.57692 13.9756 7.43381 14.6661 7.43381 15.4446C7.43381 16.223 6.68381 16.854 5.90536 16.854C5.12691 16.854 4.4476 16.1997 4.49502 15.4446C4.54243 14.6894 5.02002 13.9756 5.79847 13.9756ZM5.73209 14.0704C6.37605 14.0704 7.08381 14.6411 7.08381 15.2851C7.08381 15.929 6.46398 16.4506 5.82002 16.4506C5.17605 16.4506 4.61485 15.9092 4.6545 15.2851C4.69416 14.6609 5.08812 14.0704 5.73209 14.0704ZM6.05364 14.3428C6.28209 14.5704 6.16226 14.917 5.85278 15.2264C5.54329 15.5359 5.1614 15.6902 4.93295 15.4627C4.7045 15.2351 4.77691 14.7463 5.0864 14.4368C5.39588 14.1273 5.82519 14.1144 6.05364 14.3428ZM6.90278 15.0687C7.01398 15.0946 7.06485 15.6058 6.72002 15.9842C6.37605 16.3627 5.83554 16.3575 5.82174 16.2118C5.80795 16.0661 6.22002 16.0859 6.51829 15.7877C6.81657 15.4894 6.79157 15.0428 6.90278 15.0687Z" fill="url(#paint4_linear_9_1969)"/>
<path style="mix-blend-mode:screen" opacity="0.7" fill-rule="evenodd" clip-rule="evenodd" d="M40.6072 9.08154C41.3839 9.08154 42.2373 9.76947 42.2373 10.5462C42.2373 11.3229 41.4899 11.9514 40.7132 11.9514C39.9365 11.9514 39.2606 11.2988 39.308 10.5462C39.3554 9.79361 39.8313 9.08154 40.6072 9.08154ZM40.5408 9.17637C41.183 9.17637 41.8882 9.74534 41.8882 10.3867C41.8882 11.0281 41.2701 11.5488 40.6287 11.5488C39.9873 11.5488 39.4278 11.0091 39.4666 10.3867C39.5054 9.7643 39.8994 9.17637 40.5408 9.17637ZM40.8615 9.44706C41.0891 9.67378 40.9701 10.0195 40.6615 10.3281C40.3528 10.6367 39.9718 10.791 39.7451 10.5634C39.5175 10.3359 39.5899 9.84878 39.8977 9.54103C40.2054 9.23327 40.6347 9.22034 40.8615 9.44706ZM41.708 10.1712C41.8192 10.1962 41.8692 10.7065 41.5261 11.0833C41.183 11.4609 40.6442 11.4557 40.6304 11.3109C40.6166 11.166 41.027 11.1859 41.3244 10.8884C41.6218 10.591 41.5968 10.1462 41.7072 10.1712H41.708Z" fill="url(#paint5_linear_9_1969)"/>
<path style="mix-blend-mode:screen" fill-rule="evenodd" clip-rule="evenodd" d="M10.4364 20.3867C11.4683 20.3867 12.6028 21.3014 12.6028 22.3324C12.6028 23.3634 11.6097 24.1996 10.5778 24.1996C9.54587 24.1996 8.64673 23.3324 8.70966 22.3324C8.77259 21.3324 9.40449 20.3867 10.4364 20.3867ZM10.3485 20.5126C11.201 20.5126 12.1398 21.2686 12.1398 22.1212C12.1398 22.9738 11.3183 23.6652 10.4657 23.6652C9.61311 23.6652 8.86914 22.9479 8.92173 22.1212C8.97345 21.2945 9.49673 20.5126 10.3493 20.5126H10.3485ZM10.7743 20.8729C11.076 21.1746 10.9183 21.6341 10.5079 22.0436C10.0985 22.4531 9.59156 22.6583 9.28983 22.3565C8.98811 22.0548 9.08294 21.4074 9.49328 20.9971C9.90276 20.5876 10.4726 20.5703 10.7743 20.8729ZM11.8993 21.835C12.0467 21.8686 12.114 22.5462 11.6579 23.0479C11.2019 23.5488 10.4864 23.5428 10.4674 23.3496C10.4485 23.1565 10.995 23.1833 11.3907 22.7876C11.7864 22.3928 11.7519 21.8005 11.8993 21.835Z" fill="url(#paint6_linear_9_1969)"/>
<path style="mix-blend-mode:screen" opacity="0.4" fill-rule="evenodd" clip-rule="evenodd" d="M18.6657 37.0057C19.8622 36.9359 20.7597 37.729 20.7597 38.7506C20.7597 39.7721 19.7571 40.6351 18.6829 40.5825C17.6088 40.5299 16.7804 39.7549 16.8329 38.7333C16.8855 37.7118 17.4691 37.0756 18.6657 37.0057ZM18.501 37.1661C19.4821 37.1092 20.2191 37.7592 20.2191 38.5971C20.2191 39.4351 19.3967 40.1428 18.5148 40.0997C17.6338 40.0566 16.9545 39.4204 16.9976 38.5825C17.0407 37.7445 17.5191 37.223 18.501 37.1652V37.1661ZM18.8364 37.4954C19.1355 37.7945 18.9812 38.3057 18.5752 38.7118C18.1691 39.117 17.6666 39.2626 17.3674 38.9644C17.0683 38.6661 17.1752 38.0764 17.476 37.723C17.7769 37.3695 18.5372 37.1971 18.8355 37.4963L18.8364 37.4954ZM19.9786 38.2351C20.1312 38.2704 20.2002 38.9695 19.7295 39.4876C19.2588 40.0049 18.5191 39.9989 18.5002 39.7989C18.4812 39.5997 19.045 39.6273 19.4536 39.2187C19.8614 38.8109 19.8269 38.1997 19.9795 38.2351H19.9786Z" fill="url(#paint7_linear_9_1969)"/>
<path style="mix-blend-mode:screen" opacity="0.4" fill-rule="evenodd" clip-rule="evenodd" d="M7.30632 43.66C8.50287 43.5902 9.40029 44.3833 9.40029 45.4049C9.40029 46.4264 8.3977 47.2894 7.32356 47.2368C6.24942 47.1842 5.42098 46.4083 5.47356 45.3876C5.52615 44.3661 6.10977 43.7299 7.30632 43.66ZM7.14167 43.8204C8.1227 43.7635 8.85977 44.4135 8.85977 45.2514C8.85977 46.0894 8.03736 46.7971 7.15632 46.754C6.27529 46.7109 5.59598 46.0747 5.63822 45.2368C5.68132 44.3988 6.16063 43.8773 7.14167 43.8195V43.8204ZM7.47701 44.1497C7.77615 44.4488 7.62184 44.96 7.2158 45.3661C6.81063 45.7713 6.30718 45.9169 6.00805 45.6187C5.70891 45.3195 5.8158 44.7307 6.11667 44.3773C6.41753 44.0238 7.17787 43.8514 7.47615 44.1506L7.47701 44.1497ZM8.61925 44.8894C8.77098 44.9247 8.8408 45.6238 8.37011 46.1419C7.89942 46.6592 7.15977 46.6531 7.1408 46.454C7.12184 46.2549 7.68563 46.2825 8.09425 45.8738C8.50201 45.4652 8.46753 44.8549 8.62011 44.8902L8.61925 44.8894Z" fill="url(#paint8_linear_9_1969)"/>
<path style="mix-blend-mode:screen" opacity="0.4" fill-rule="evenodd" clip-rule="evenodd" d="M29.057 37.004C29.782 36.9618 30.3268 37.4428 30.3268 38.0618C30.3268 38.6808 29.719 39.204 29.0673 39.1722C28.4165 39.1403 27.9139 38.6704 27.9458 38.0506C27.9777 37.4316 28.3311 37.0454 29.057 37.0032V37.004ZM28.957 37.1015C29.5518 37.067 29.9984 37.4609 29.9984 37.9687C29.9984 38.4765 29.4992 38.9058 28.9656 38.8799C28.432 38.854 28.019 38.4678 28.0458 37.9601C28.0716 37.4523 28.3622 37.1359 28.957 37.1015ZM29.1604 37.3006C29.3415 37.4816 29.2484 37.792 29.0027 38.0377C28.757 38.2834 28.4518 38.3722 28.2708 38.1911C28.0897 38.0101 28.1544 37.6523 28.3372 37.4385C28.5199 37.2247 28.9803 37.1196 29.1613 37.3006H29.1604ZM29.8527 37.7489C29.9449 37.7704 29.9872 38.1946 29.7018 38.5084C29.4165 38.8222 28.9682 38.8178 28.957 38.6972C28.9458 38.5765 29.2872 38.5928 29.5346 38.3454C29.782 38.098 29.7613 37.7273 29.8535 37.7489H29.8527Z" fill="url(#paint9_linear_9_1969)"/>
<path style="mix-blend-mode:screen" opacity="0.4" fill-rule="evenodd" clip-rule="evenodd" d="M34.5603 42.4756C35.2371 42.4359 35.7448 42.8842 35.7448 43.4627C35.7448 44.0411 35.1776 44.5282 34.5698 44.4989C33.9621 44.4696 33.494 44.0308 33.5233 43.4532C33.5526 42.8756 33.8828 42.5161 34.5595 42.4764L34.5603 42.4756ZM34.4672 42.5661C35.0224 42.5333 35.4388 42.9014 35.4388 43.3756C35.4388 43.8497 34.9733 44.2497 34.475 44.2256C33.9767 44.2014 33.5922 43.8411 33.6164 43.3678C33.6405 42.8937 33.9112 42.5989 34.4664 42.5661H34.4672ZM34.6569 42.7523C34.8259 42.9213 34.7388 43.2109 34.5095 43.4402C34.2802 43.6696 33.9957 43.7523 33.8267 43.5833C33.6578 43.4144 33.7181 43.0808 33.8879 42.8816C34.0586 42.6816 34.4879 42.5842 34.6569 42.7532V42.7523ZM35.3026 43.1704C35.3888 43.1902 35.4276 43.5859 35.1621 43.8782C34.8957 44.1713 34.4776 44.167 34.4664 44.0549C34.4552 43.942 34.7741 43.9575 35.0052 43.7264C35.2362 43.4954 35.2164 43.1506 35.3026 43.1704Z" fill="url(#paint10_linear_9_1969)"/>
<path style="mix-blend-mode:screen" fill-rule="evenodd" clip-rule="evenodd" d="M22.8037 8.71002C23.7822 8.65312 24.5158 9.3014 24.5158 10.1367C24.5158 10.9721 23.696 11.6773 22.8175 11.635C21.9391 11.5919 21.2624 10.9574 21.3046 10.123C21.3477 9.28761 21.8253 8.76778 22.8029 8.71088L22.8037 8.71002ZM22.6693 8.84105C23.4718 8.7945 24.0744 9.3264 24.0744 10.0117C24.0744 10.6971 23.402 11.2755 22.6813 11.2402C21.9606 11.2048 21.4055 10.685 21.4408 9.99968C21.4762 9.31433 21.8675 8.88761 22.6701 8.84105H22.6693ZM22.9434 9.11002C23.1874 9.35399 23.0615 9.77295 22.7305 10.104C22.3994 10.435 21.9874 10.5548 21.7425 10.31C21.4986 10.0661 21.5856 9.58416 21.8313 9.29537C22.077 9.00657 22.6986 8.86519 22.9434 9.11002ZM23.877 9.71519C24.0012 9.74364 24.0581 10.3161 23.6736 10.7393C23.2882 11.1626 22.6839 11.1574 22.6684 10.9945C22.6529 10.8316 23.1141 10.854 23.4477 10.5204C23.7813 10.1867 23.7529 9.68761 23.8779 9.71606L23.877 9.71519Z" fill="url(#paint11_linear_9_1969)"/>
<path style="mix-blend-mode:screen" opacity="0.4" fill-rule="evenodd" clip-rule="evenodd" d="M22.7474 15.8111C23.4457 15.7705 23.969 16.2335 23.969 16.8292C23.969 17.4249 23.3836 17.9283 22.7569 17.8981C22.1302 17.868 21.6474 17.4154 21.6776 16.8188C21.7078 16.2231 22.0492 15.8516 22.7466 15.8111H22.7474ZM22.6509 15.905C23.2233 15.8714 23.6535 16.2516 23.6535 16.7404C23.6535 17.2292 23.1733 17.6421 22.6595 17.6171C22.1457 17.5921 21.7492 17.2205 21.7742 16.7318C21.7992 16.243 22.0785 15.9386 22.6517 15.905H22.6509ZM22.8466 16.0973C23.0207 16.2714 22.9311 16.5705 22.694 16.8068C22.4569 17.043 22.1638 17.1283 21.9888 16.9542C21.8147 16.78 21.8767 16.4361 22.0526 16.23C22.2285 16.024 22.6716 15.9231 22.8466 16.0973ZM23.513 16.5292C23.6017 16.5499 23.6423 16.9576 23.3673 17.2593C23.0923 17.5611 22.6612 17.5576 22.65 17.4412C22.6388 17.3249 22.9681 17.3412 23.2061 17.1024C23.444 16.8645 23.4242 16.5076 23.513 16.5283V16.5292Z" fill="url(#paint12_linear_9_1969)"/>
<path style="mix-blend-mode:screen" fill-rule="evenodd" clip-rule="evenodd" d="M11.4474 34.7594C12.1784 34.7724 12.8474 35.4801 12.8474 36.2888C12.8474 37.0974 12.3086 37.4422 11.4991 37.4422C10.6896 37.4422 10.0474 37.1103 10.0474 36.3017C10.0474 35.4931 10.7163 34.7465 11.4474 34.7594ZM11.337 34.8905C11.9431 34.9008 12.4974 35.4879 12.4974 36.1577C12.4974 36.8275 12.0499 37.1138 11.3801 37.1138C10.7103 37.1138 10.1767 36.8388 10.1767 36.1681C10.1767 35.4974 10.731 34.8793 11.337 34.8896V34.8905ZM11.6181 35.1241C11.8422 35.3482 11.7517 35.8017 11.4474 36.1069C11.1431 36.4112 10.7206 36.4758 10.4965 36.2517C10.2724 36.0275 10.3499 35.5612 10.6543 35.2569C10.9586 34.9525 11.3939 34.9 11.6181 35.1241ZM12.2767 35.7888C12.3836 35.8129 12.5129 36.3672 12.181 36.731C11.8499 37.0956 11.2499 37.0293 11.2362 36.8888C11.2224 36.7482 11.6991 36.8293 11.9862 36.5422C12.2732 36.2551 12.1689 35.7638 12.2758 35.7888H12.2767Z" fill="url(#paint13_linear_9_1969)"/>
<path style="mix-blend-mode:screen" fill-rule="evenodd" clip-rule="evenodd" d="M8.70615 7.7531C9.43719 7.76603 10.1062 8.47378 10.1062 9.28241C10.1062 10.091 9.5665 10.4359 8.75788 10.4359C7.94926 10.4359 7.30615 10.104 7.30615 9.29534C7.30615 8.48672 7.97512 7.74016 8.70615 7.7531ZM8.59581 7.88499C9.20184 7.89534 9.75615 8.48241 9.75615 9.15223C9.75615 9.82206 9.3096 10.1083 8.63891 10.1083C7.96822 10.1083 7.43546 9.83327 7.43546 9.16344C7.43546 8.49361 7.98977 7.87465 8.59581 7.88499ZM8.87684 8.11861C9.10098 8.34275 9.01046 8.79706 8.70615 9.10137C8.40184 9.40568 7.97943 9.47034 7.75529 9.2462C7.53115 9.02206 7.60874 8.55568 7.91305 8.25137C8.21736 7.94706 8.6527 7.89447 8.87684 8.11861ZM9.53546 8.78327C9.64236 8.80741 9.77167 9.36172 9.43977 9.72551C9.10874 10.0902 8.50874 10.0238 8.49495 9.88327C8.48115 9.74275 8.95788 9.82378 9.24495 9.53672C9.53201 9.24965 9.4277 8.75827 9.5346 8.78327H9.53546Z" fill="url(#paint14_linear_9_1969)"/>
<path style="mix-blend-mode:screen" fill-rule="evenodd" clip-rule="evenodd" d="M27.6355 3.49121C28.2967 3.50328 28.901 4.14294 28.901 4.87397C28.901 5.605 28.414 5.91707 27.6821 5.91707C26.9502 5.91707 26.3691 5.61707 26.3691 4.88604C26.3691 4.155 26.9735 3.48 27.6347 3.49207L27.6355 3.49121ZM27.5364 3.61018C28.0838 3.61966 28.5855 4.14983 28.5855 4.75587C28.5855 5.3619 28.1812 5.62052 27.5752 5.62052C26.9691 5.62052 26.4872 5.37225 26.4872 4.76621C26.4872 4.16018 26.9881 3.60069 27.5364 3.61018ZM27.7907 3.82138C27.9933 4.02397 27.9114 4.43431 27.6364 4.70931C27.3614 4.98431 26.9795 5.04294 26.7769 4.84035C26.5743 4.63776 26.6441 4.21621 26.92 3.94121C27.195 3.66621 27.5881 3.6188 27.7907 3.82138ZM28.3864 4.42225C28.4829 4.44466 28.5993 4.94466 28.3002 5.27397C28.001 5.60328 27.4579 5.5438 27.4459 5.41707C27.4338 5.29035 27.8648 5.36276 28.1243 5.10328C28.3838 4.8438 28.2898 4.39983 28.3864 4.42225Z" fill="url(#paint15_linear_9_1969)"/>
</g>
<path style="mix-blend-mode:multiply" opacity="0.8" fill-rule="evenodd" clip-rule="evenodd" d="M42.9767 43.6457C39.2206 48.2586 13.6586 47.5051 6.19995 44.2689C2.44995 42.6414 1.3396 39.2888 0.492188 36.3767C0.496498 36.4629 0.50167 36.5491 0.505981 36.6353C0.698222 40.0758 0.949946 43.2698 1.23012 46.1301C1.39908 47.85 2.79391 49.1905 4.53874 49.3198C7.43184 49.5353 10.6491 49.7095 14.0844 49.825C17.5146 49.9396 21.1879 50 25.0068 50C28.8258 50 32.4698 49.9396 35.9094 49.825C39.3448 49.7103 42.5577 49.5327 45.4508 49.3146C47.2051 49.1827 48.5999 47.8448 48.7689 46.1198C49.0499 43.2551 49.2956 40.0603 49.4887 36.6198C49.6827 33.1603 49.843 29.4345 49.9275 25.55C50.0129 21.6396 50.0155 17.8448 49.9724 14.275C49.9293 10.675 49.8189 7.28445 49.6568 4.2198C49.5586 2.35945 48.1637 0.896521 46.3387 0.755142C43.3275 0.522384 39.9784 0.330142 36.3939 0.205142C33.1844 0.0930732 29.7827 0.0180731 26.2655 0.00341797C31.8767 0.298246 40.0086 1.25256 43.3594 4.51462C49.3396 10.3379 46.7465 39.0163 42.9767 43.6457Z" fill="url(#paint16_radial_9_1969)"/>
</g>
<defs>
<radialGradient id="paint0_radial_9_1969" cx="0" cy="0" r="1" gradientUnits="userSpaceOnUse" gradientTransform="translate(-5.18363 -10.0422) scale(50.7388)">
<stop stop-color="#FFFF6D"/>
<stop offset="1"/>
</radialGradient>
<radialGradient id="paint1_radial_9_1969" cx="0" cy="0" r="1" gradientUnits="userSpaceOnUse" gradientTransform="translate(-2.51008 -7.62668) scale(33.8362 33.8362)">
<stop stop-color="white"/>
<stop offset="1"/>
</radialGradient>
<radialGradient id="paint2_radial_9_1969" cx="0" cy="0" r="1" gradientUnits="userSpaceOnUse" gradientTransform="translate(23.9974 22.9561) scale(33.0517 33.0517)">
<stop stop-color="#FFFF6D"/>
<stop offset="1"/>
</radialGradient>
<linearGradient id="paint3_linear_9_1969" x1="35.3673" y1="28.4989" x2="38.3078" y2="28.4989" gradientUnits="userSpaceOnUse">
<stop stop-color="#F7E984"/>
<stop offset="1"/>
</linearGradient>
<linearGradient id="paint4_linear_9_1969" x1="4.49243" y1="15.4152" x2="7.43381" y2="15.4152" gradientUnits="userSpaceOnUse">
<stop stop-color="#F7E984"/>
<stop offset="1"/>
</linearGradient>
<linearGradient id="paint5_linear_9_1969" x1="39.3054" y1="10.516" x2="42.2373" y2="10.516" gradientUnits="userSpaceOnUse">
<stop stop-color="#F7E984"/>
<stop offset="1"/>
</linearGradient>
<linearGradient id="paint6_linear_9_1969" x1="8.70707" y1="22.2928" x2="12.6028" y2="22.2928" gradientUnits="userSpaceOnUse">
<stop stop-color="#F7E984"/>
<stop offset="1"/>
</linearGradient>
<linearGradient id="paint7_linear_9_1969" x1="16.8312" y1="38.7928" x2="20.7605" y2="38.7928" gradientUnits="userSpaceOnUse">
<stop stop-color="#F7E984"/>
<stop offset="1"/>
</linearGradient>
<linearGradient id="paint8_linear_9_1969" x1="5.47184" y1="45.4471" x2="9.40115" y2="45.4471" gradientUnits="userSpaceOnUse">
<stop stop-color="#F7E984"/>
<stop offset="1"/>
</linearGradient>
<linearGradient id="paint9_linear_9_1969" x1="27.9449" y1="38.0877" x2="30.3268" y2="38.0877" gradientUnits="userSpaceOnUse">
<stop stop-color="#F7E984"/>
<stop offset="1"/>
</linearGradient>
<linearGradient id="paint10_linear_9_1969" x1="33.5224" y1="43.4868" x2="35.7448" y2="43.4868" gradientUnits="userSpaceOnUse">
<stop stop-color="#F7E984"/>
<stop offset="1"/>
</linearGradient>
<linearGradient id="paint11_linear_9_1969" x1="21.3037" y1="10.1712" x2="24.5167" y2="10.1712" gradientUnits="userSpaceOnUse">
<stop stop-color="#F7E984"/>
<stop offset="1"/>
</linearGradient>
<linearGradient id="paint12_linear_9_1969" x1="21.6767" y1="16.8542" x2="23.969" y2="16.8542" gradientUnits="userSpaceOnUse">
<stop stop-color="#F7E984"/>
<stop offset="1"/>
</linearGradient>
<linearGradient id="paint13_linear_9_1969" x1="10.0474" y1="36.1008" x2="12.8474" y2="36.1008" gradientUnits="userSpaceOnUse">
<stop stop-color="#F7E984"/>
<stop offset="1"/>
</linearGradient>
<linearGradient id="paint14_linear_9_1969" x1="7.30615" y1="9.09447" x2="10.107" y2="9.09447" gradientUnits="userSpaceOnUse">
<stop stop-color="#F7E984"/>
<stop offset="1"/>
</linearGradient>
<linearGradient id="paint15_linear_9_1969" x1="26.37" y1="4.70328" x2="28.9019" y2="4.70328" gradientUnits="userSpaceOnUse">
<stop stop-color="#F7E984"/>
<stop offset="1"/>
</linearGradient>
<radialGradient id="paint16_radial_9_1969" cx="0" cy="0" r="1" gradientUnits="userSpaceOnUse" gradientTransform="translate(24.0474 23.4103) scale(43.0483 43.0483)">
<stop offset="0.16" stop-color="white"/>
<stop offset="0.45" stop-color="#FFF9C2"/>
<stop offset="1" stop-color="#FFED44"/>
</radialGradient>
<clipPath id="clip0_9_1969">
<rect width="50" height="50" fill="white"/>
</clipPath>
</defs>
</svg>
