<svg width="50" height="50" viewBox="0 0 50 50" fill="none" xmlns="http://www.w3.org/2000/svg">
<path fill-rule="evenodd" clip-rule="evenodd" d="M3.64872 0.755172C6.65993 0.521552 10.0142 0.330172 13.5987 0.205172C17.1798 0.0801724 21.0168 0 25.0065 0C28.9961 0 32.8022 0.0801724 36.3935 0.205172C39.9789 0.330172 43.328 0.521552 46.3384 0.755172C48.1634 0.896552 49.5582 2.36034 49.6565 4.21983C49.8186 7.28535 49.9289 10.675 49.972 14.275C50.0151 17.8448 50.0125 21.6397 49.9272 25.55C49.8427 29.4345 49.6823 33.1603 49.4884 36.6198C49.2961 40.0603 49.0496 43.2552 48.7685 46.1198C48.5996 47.8448 47.2048 49.1828 45.4504 49.3147C42.5573 49.5328 39.3453 49.7095 35.9091 49.825C32.4694 49.9397 28.8013 50 25.0065 50C21.2116 50 17.5142 49.9397 14.0841 49.825C10.6487 49.7095 7.43062 49.5353 4.53837 49.3198C2.79355 49.1905 1.39872 47.85 1.22975 46.1302C0.948719 43.2698 0.697857 40.075 0.505615 36.6353C0.31165 33.1707 0.171133 29.4457 0.0857877 25.5509C0.000442908 21.6405 -0.0219709 17.8405 0.0202705 14.2603C0.0633739 10.6603 0.178029 7.26983 0.34096 4.21034C0.439236 2.35517 1.83406 0.896552 3.64872 0.755172Z" fill="url(#paint0_radial_9_715)"/>
<path style="mix-blend-mode:screen" fill-rule="evenodd" clip-rule="evenodd" d="M37.1422 2.53716C31.9086 9.08971e-05 12.2836 0.983712 6.03964 1.5544C2.55688 1.8725 1.26205 2.55268 1.1836 6.29406C1.0155 14.2897 -0.012948 26.4535 1.76119 34.151C2.5974 37.7785 5.82498 36.4949 6.50171 35.538C16.1008 21.9673 27.6603 13.0199 37.431 7.56561C39.5293 6.39406 41.25 4.52854 37.1422 2.53802V2.53716Z" fill="url(#paint1_radial_9_715)"/>
<path style="mix-blend-mode:screen" fill-rule="evenodd" clip-rule="evenodd" d="M22.4368 1.58625C19.3308 1.24142 16.1912 1.57159 13.0851 1.78366C10.636 1.95004 8.17047 2.14918 5.7903 2.71987C3.14719 3.35349 2.64892 4.29573 2.23685 6.86211C1.85409 9.24659 1.8765 11.6673 1.86271 14.0957C1.8515 16.1328 3.82909 15.8294 4.23426 14.6914C5.1084 12.2354 4.8515 9.17504 6.60926 7.10694C8.99202 4.30435 18.0851 4.01556 22.192 3.42935C23.717 3.21211 23.8205 1.7397 22.4377 1.58625H22.4368ZM1.64116 17.9794C1.49978 19.2569 1.49375 20.569 1.69116 21.8388C1.94461 23.463 3.64719 23.9078 3.99547 22.0509C4.25237 20.6819 4.34288 19.2647 4.24633 17.8742C4.17564 16.8587 1.86616 15.9483 1.64116 17.9794Z" fill="url(#paint2_radial_9_715)"/>
<path style="mix-blend-mode:screen" fill-rule="evenodd" clip-rule="evenodd" d="M28.9612 45.0164C28.6362 45.0802 28.1345 45.3949 28.2552 45.707C28.406 46.0966 29 46.1794 29.4147 46.1854C32.9095 46.2371 40.175 45.6104 42.2957 43.2647C44.6371 40.6751 45.7974 31.6276 45.8181 28.5095C45.8198 28.2302 45.644 27.7871 45.3647 27.794C45.0422 27.8018 44.8353 28.2251 44.7595 28.5371C43.6793 32.9733 41.8276 37.7078 39.6345 40.4233C37.7931 42.7035 33.2991 44.1639 28.9612 45.0173V45.0164Z" fill="url(#paint3_radial_9_715)"/>
<path style="mix-blend-mode:screen" fill-rule="evenodd" clip-rule="evenodd" d="M3.64872 0.755172C6.65993 0.521552 10.0142 0.330172 13.5987 0.205172C17.1798 0.0801724 21.0168 0 25.0065 0C28.9961 0 32.8022 0.0801724 36.3935 0.205172C39.9789 0.330172 43.328 0.521552 46.3384 0.755172C48.1634 0.896552 49.5582 2.36034 49.6565 4.21983C49.8186 7.28535 49.9289 10.675 49.972 14.275C50.0151 17.8448 50.0125 21.6397 49.9272 25.55C49.8427 29.4345 49.6823 33.1603 49.4884 36.6198C49.2961 40.0603 49.0496 43.2552 48.7685 46.1198C48.5996 47.8448 47.2048 49.1828 45.4504 49.3147C42.5573 49.5328 39.3453 49.7095 35.9091 49.825C32.4694 49.9397 28.8013 50 25.0065 50C21.2116 50 17.5142 49.9397 14.0841 49.825C10.6487 49.7095 7.43062 49.5353 4.53837 49.3198C2.79355 49.1905 1.39872 47.85 1.22975 46.1302C0.948719 43.2698 0.697857 40.075 0.505615 36.6353C0.31165 33.1707 0.171133 29.4457 0.0857877 25.5509C0.000442908 21.6405 -0.0219709 17.8405 0.0202705 14.2603C0.0633739 10.6603 0.178029 7.26983 0.34096 4.21034C0.439236 2.35517 1.83406 0.896552 3.64872 0.755172Z" fill="url(#paint4_radial_9_715)"/>
<g opacity="0.75">
<path style="mix-blend-mode:screen" fill-rule="evenodd" clip-rule="evenodd" d="M36.672 27.0601C37.4504 27.0601 38.3073 27.7506 38.3073 28.529C38.3073 29.3075 37.5573 29.9385 36.7789 29.9385C36.0005 29.9385 35.3211 29.2842 35.3686 28.529C35.416 27.7739 35.8936 27.0601 36.672 27.0601ZM36.6056 27.1549C37.2496 27.1549 37.9573 27.7256 37.9573 28.3695C37.9573 29.0135 37.3375 29.5351 36.6936 29.5351C36.0496 29.5351 35.4884 28.9937 35.528 28.3695C35.5677 27.7454 35.9617 27.1549 36.6056 27.1549ZM36.9272 27.4273C37.1556 27.6549 37.0358 28.0014 36.7263 28.3109C36.4168 28.6204 36.0349 28.7747 35.8065 28.5471C35.578 28.3195 35.6505 27.8307 35.9599 27.5213C36.2694 27.2118 36.6987 27.1997 36.9272 27.4273ZM37.7763 28.1532C37.8875 28.179 37.9384 28.6902 37.5944 29.0687C37.2505 29.4471 36.7099 29.442 36.6961 29.2963C36.6823 29.1506 37.0944 29.1704 37.3927 28.8721C37.691 28.5739 37.6651 28.1273 37.7772 28.1532H37.7763Z" fill="url(#paint5_radial_9_715)"/>
<path style="mix-blend-mode:screen" fill-rule="evenodd" clip-rule="evenodd" d="M5.79798 13.9756C6.57643 13.9756 7.43332 14.6661 7.43332 15.4446C7.43332 16.223 6.68332 16.854 5.90487 16.854C5.12643 16.854 4.44712 16.1997 4.49453 15.4446C4.54194 14.6894 5.01953 13.9756 5.79798 13.9756ZM5.7316 14.0704C6.37556 14.0704 7.08332 14.6411 7.08332 15.2851C7.08332 15.929 6.4635 16.4506 5.81953 16.4506C5.17556 16.4506 4.61436 15.9092 4.65401 15.2851C4.69281 14.6609 5.08763 14.0704 5.7316 14.0704ZM6.05315 14.3428C6.2816 14.5704 6.16177 14.917 5.85229 15.2264C5.54281 15.5359 5.16091 15.6902 4.93246 15.4627C4.70401 15.2351 4.77643 14.7463 5.08591 14.4368C5.39539 14.1273 5.8247 14.1144 6.05315 14.3428ZM6.90229 15.0687C7.0135 15.0946 7.06436 15.6058 6.71953 15.9842C6.37556 16.3627 5.83505 16.3575 5.82125 16.2118C5.80746 16.0661 6.21953 16.0859 6.51781 15.7877C6.81608 15.4894 6.79108 15.0428 6.90229 15.0687Z" fill="url(#paint6_radial_9_715)"/>
<path style="mix-blend-mode:screen" opacity="0.7" fill-rule="evenodd" clip-rule="evenodd" d="M40.6067 9.08154C41.3834 9.08154 42.2368 9.76947 42.2368 10.5462C42.2368 11.3229 41.4894 11.9514 40.7127 11.9514C39.936 11.9514 39.2601 11.2988 39.3075 10.5462C39.3549 9.79361 39.8308 9.08154 40.6067 9.08154ZM40.5403 9.17637C41.1825 9.17637 41.8877 9.74534 41.8877 10.3867C41.8877 11.0281 41.2696 11.5488 40.6282 11.5488C39.9868 11.5488 39.4274 11.0091 39.4661 10.3867C39.5049 9.7643 39.8989 9.17637 40.5403 9.17637ZM40.861 9.44706C41.0886 9.67378 40.9696 10.0195 40.661 10.3281C40.3524 10.6367 39.9713 10.791 39.7446 10.5634C39.517 10.3359 39.5894 9.84878 39.8972 9.54103C40.2058 9.23241 40.6343 9.22034 40.861 9.44706ZM41.7075 10.1712C41.8187 10.1962 41.8687 10.7065 41.5256 11.0833C41.1825 11.4609 40.6437 11.4557 40.6299 11.3109C40.6161 11.166 41.0265 11.1859 41.3239 10.8884C41.6213 10.591 41.5963 10.1462 41.7067 10.1712H41.7075Z" fill="url(#paint7_radial_9_715)"/>
<path style="mix-blend-mode:screen" fill-rule="evenodd" clip-rule="evenodd" d="M10.4359 20.3867C11.4678 20.3867 12.6023 21.3014 12.6023 22.3324C12.6023 23.3634 11.6092 24.1996 10.5773 24.1996C9.54538 24.1996 8.64624 23.3324 8.70917 22.3324C8.7721 21.3324 9.404 20.3867 10.4359 20.3867ZM10.348 20.5126C11.2006 20.5126 12.1393 21.2686 12.1393 22.1212C12.1393 22.9738 11.3178 23.6652 10.4652 23.6652C9.61262 23.6652 8.86865 22.9479 8.92124 22.1212C8.97296 21.2945 9.49624 20.5126 10.3488 20.5126H10.348ZM10.7738 20.8729C11.0756 21.1746 10.9178 21.6341 10.5074 22.0436C10.098 22.4531 9.59107 22.6583 9.28934 22.3565C8.98762 22.0548 9.08245 21.4074 9.49279 20.9971C9.90228 20.5876 10.4721 20.5703 10.7738 20.8729ZM11.8988 21.835C12.0462 21.8686 12.1135 22.5462 11.6574 23.0479C11.2014 23.5488 10.4859 23.5428 10.4669 23.3496C10.448 23.1565 10.9945 23.1833 11.3902 22.7876C11.7859 22.3928 11.7514 21.8005 11.8988 21.835Z" fill="url(#paint8_radial_9_715)"/>
<path style="mix-blend-mode:screen" opacity="0.4" fill-rule="evenodd" clip-rule="evenodd" d="M18.6652 37.0057C19.8618 36.9359 20.7592 37.729 20.7592 38.7506C20.7592 39.7721 19.7566 40.6351 18.6824 40.5825C17.6083 40.5299 16.7799 39.7549 16.8324 38.7333C16.885 37.7118 17.4687 37.0756 18.6652 37.0057ZM18.5006 37.1661C19.4816 37.1092 20.2187 37.7592 20.2187 38.5971C20.2187 39.4351 19.3962 40.1428 18.5143 40.0997C17.6333 40.0566 16.954 39.4204 16.9971 38.5825C17.0402 37.7445 17.5187 37.223 18.5006 37.1652V37.1661ZM18.8359 37.4954C19.135 37.7945 18.9807 38.3057 18.5747 38.7118C18.1687 39.117 17.6661 39.2626 17.3669 38.9644C17.0678 38.6661 17.1747 38.0764 17.4756 37.723C17.7764 37.3695 18.5368 37.1971 18.835 37.4963L18.8359 37.4954ZM19.9781 38.2351C20.1307 38.2704 20.1997 38.9695 19.729 39.4876C19.2583 40.0049 18.5187 39.9989 18.4997 39.7989C18.4807 39.5997 19.0445 39.6273 19.4531 39.2187C19.8609 38.8109 19.8264 38.1997 19.979 38.2351H19.9781Z" fill="url(#paint9_radial_9_715)"/>
<path style="mix-blend-mode:screen" opacity="0.4" fill-rule="evenodd" clip-rule="evenodd" d="M7.30583 43.66C8.50238 43.5902 9.3998 44.3833 9.3998 45.4049C9.3998 46.4264 8.39721 47.2894 7.32307 47.2368C6.24894 47.1842 5.42049 46.4083 5.47307 45.3876C5.52566 44.3661 6.10928 43.7299 7.30583 43.66ZM7.14118 43.8204C8.12221 43.7635 8.85928 44.4135 8.85928 45.2514C8.85928 46.0894 8.03687 46.7971 7.15583 46.754C6.2748 46.7109 5.59549 46.0747 5.63773 45.2368C5.68083 44.3988 6.16014 43.8773 7.14118 43.8195V43.8204ZM7.47652 44.1497C7.77566 44.4488 7.62135 44.96 7.21532 45.3661C6.81014 45.7713 6.3067 45.9169 6.00756 45.6187C5.70842 45.3195 5.81532 44.7307 6.11618 44.3773C6.41704 44.0238 7.17738 43.8514 7.47566 44.1506L7.47652 44.1497ZM8.61876 44.8894C8.77049 44.9247 8.84032 45.6238 8.36963 46.1419C7.89894 46.6592 7.15928 46.6531 7.14032 46.454C7.12135 46.2549 7.68514 46.2825 8.09376 45.8738C8.50152 45.4652 8.46704 44.8549 8.61963 44.8902L8.61876 44.8894Z" fill="url(#paint10_radial_9_715)"/>
<path style="mix-blend-mode:screen" opacity="0.4" fill-rule="evenodd" clip-rule="evenodd" d="M29.0565 37.004C29.7815 36.9618 30.3263 37.4428 30.3263 38.0618C30.3263 38.6808 29.7186 39.204 29.0668 39.1722C28.416 39.1403 27.9134 38.6704 27.9453 38.0506C27.9772 37.4316 28.3306 37.0454 29.0565 37.0032V37.004ZM28.9565 37.1015C29.5513 37.067 29.9979 37.4609 29.9979 37.9687C29.9979 38.4765 29.4987 38.9058 28.9651 38.8799C28.4315 38.854 28.0186 38.4678 28.0453 37.9601C28.0711 37.4523 28.3617 37.1359 28.9565 37.1015ZM29.1599 37.3006C29.341 37.4816 29.2479 37.792 29.0022 38.0377C28.7565 38.2834 28.4513 38.3722 28.2703 38.1911C28.0893 38.0101 28.1539 37.6523 28.3367 37.4385C28.5194 37.2247 28.9798 37.1196 29.1608 37.3006H29.1599ZM29.8522 37.7489C29.9444 37.7704 29.9867 38.1946 29.7013 38.5084C29.416 38.8222 28.9677 38.8178 28.9565 38.6972C28.9453 38.5765 29.2867 38.5928 29.5341 38.3454C29.7815 38.098 29.7608 37.7273 29.853 37.7489H29.8522Z" fill="url(#paint11_radial_9_715)"/>
<path style="mix-blend-mode:screen" opacity="0.4" fill-rule="evenodd" clip-rule="evenodd" d="M34.5599 42.4756C35.2366 42.4359 35.7443 42.8842 35.7443 43.4627C35.7443 44.0411 35.1771 44.5282 34.5693 44.4989C33.9616 44.4696 33.4935 44.0308 33.5228 43.4532C33.5521 42.8756 33.8823 42.5161 34.559 42.4764L34.5599 42.4756ZM34.4668 42.5661C35.0219 42.5333 35.4383 42.9014 35.4383 43.3756C35.4383 43.8497 34.9728 44.2497 34.4745 44.2256C33.9762 44.2014 33.5918 43.8411 33.6159 43.3678C33.64 42.8937 33.9107 42.5989 34.4659 42.5661H34.4668ZM34.6564 42.7523C34.8254 42.9213 34.7383 43.2109 34.509 43.4402C34.2797 43.6696 33.9952 43.7523 33.8262 43.5833C33.6573 43.4144 33.7176 43.0808 33.8874 42.8816C34.0581 42.6816 34.4874 42.5842 34.6564 42.7532V42.7523ZM35.3021 43.1704C35.3883 43.1902 35.4271 43.5859 35.1616 43.8782C34.8952 44.1713 34.4771 44.167 34.4659 44.0549C34.4547 43.942 34.7737 43.9575 35.0047 43.7264C35.2357 43.4954 35.2159 43.1506 35.3021 43.1704Z" fill="url(#paint12_radial_9_715)"/>
<path style="mix-blend-mode:screen" fill-rule="evenodd" clip-rule="evenodd" d="M22.8033 8.71002C23.7817 8.65312 24.5153 9.3014 24.5153 10.1367C24.5153 10.9721 23.6955 11.6773 22.8171 11.635C21.9386 11.5919 21.2619 10.9574 21.3041 10.123C21.3472 9.28761 21.8248 8.76778 22.8024 8.71088L22.8033 8.71002ZM22.6688 8.84105C23.4714 8.7945 24.0739 9.3264 24.0739 10.0117C24.0739 10.6971 23.4015 11.2755 22.6808 11.2402C21.9602 11.2048 21.405 10.685 21.4403 9.99968C21.4757 9.31433 21.8671 8.88761 22.6696 8.84105H22.6688ZM22.9429 9.11002C23.1869 9.35399 23.061 9.77295 22.73 10.104C22.3989 10.435 21.9869 10.5548 21.7421 10.31C21.4981 10.0661 21.5852 9.58416 21.8308 9.29537C22.0765 9.00657 22.6981 8.86519 22.9429 9.11002ZM23.8765 9.71519C24.0007 9.74364 24.0576 10.3161 23.6731 10.7393C23.2877 11.1626 22.6834 11.1574 22.6679 10.9945C22.6524 10.8316 23.1136 10.854 23.4472 10.5204C23.7808 10.1867 23.7524 9.68761 23.8774 9.71606L23.8765 9.71519Z" fill="url(#paint13_radial_9_715)"/>
<path style="mix-blend-mode:screen" opacity="0.4" fill-rule="evenodd" clip-rule="evenodd" d="M22.7469 15.8111C23.4452 15.7705 23.9685 16.2335 23.9685 16.8292C23.9685 17.4249 23.3832 17.9283 22.7564 17.8981C22.1297 17.868 21.6469 17.4154 21.6771 16.8188C21.7073 16.2223 22.0487 15.8516 22.7461 15.8111H22.7469ZM22.6504 15.905C23.2228 15.8714 23.653 16.2516 23.653 16.7404C23.653 17.2292 23.1728 17.6421 22.659 17.6171C22.1452 17.5921 21.7487 17.2205 21.7737 16.7318C21.7987 16.243 22.078 15.9386 22.6513 15.905H22.6504ZM22.8461 16.0973C23.0202 16.2714 22.9306 16.5705 22.6935 16.8068C22.4564 17.043 22.1633 17.1283 21.9883 16.9542C21.8142 16.78 21.8763 16.4361 22.0521 16.23C22.228 16.024 22.6711 15.9231 22.8461 16.0973ZM23.5125 16.5292C23.6013 16.5499 23.6418 16.9576 23.3668 17.2593C23.0918 17.5611 22.6607 17.5576 22.6495 17.4412C22.6383 17.3249 22.9676 17.3412 23.2056 17.1024C23.4435 16.8645 23.4237 16.5076 23.5125 16.5283V16.5292Z" fill="url(#paint14_radial_9_715)"/>
<path style="mix-blend-mode:screen" fill-rule="evenodd" clip-rule="evenodd" d="M11.4469 34.7594C12.1779 34.7724 12.8469 35.4801 12.8469 36.2888C12.8469 37.0974 12.3081 37.4422 11.4986 37.4422C10.6891 37.4422 10.0469 37.1103 10.0469 36.3017C10.0469 35.4931 10.7158 34.7465 11.4469 34.7594ZM11.3365 34.8905C11.9426 34.9008 12.4969 35.4879 12.4969 36.1577C12.4969 36.8275 12.0495 37.1138 11.3796 37.1138C10.7098 37.1138 10.1762 36.8388 10.1762 36.1681C10.1762 35.4974 10.7305 34.8793 11.3365 34.8896V34.8905ZM11.6176 35.1241C11.8417 35.3482 11.7512 35.8017 11.4469 36.1069C11.1426 36.4112 10.7202 36.4758 10.496 36.2517C10.2719 36.0275 10.3495 35.5612 10.6538 35.2569C10.9581 34.9525 11.3934 34.9 11.6176 35.1241ZM12.2762 35.7888C12.3831 35.8129 12.5124 36.3672 12.1805 36.731C11.8495 37.0956 11.2495 37.0293 11.2357 36.8888C11.2219 36.7482 11.6986 36.8293 11.9857 36.5422C12.2727 36.2551 12.1684 35.7638 12.2753 35.7888H12.2762Z" fill="url(#paint15_radial_9_715)"/>
<path style="mix-blend-mode:screen" fill-rule="evenodd" clip-rule="evenodd" d="M8.70566 7.7531C9.4367 7.76603 10.1057 8.47378 10.1057 9.28241C10.1057 10.091 9.56601 10.4359 8.75739 10.4359C7.94877 10.4359 7.30566 10.104 7.30566 9.29534C7.30566 8.48672 7.97463 7.74016 8.70566 7.7531ZM8.59532 7.88499C9.20135 7.89534 9.75566 8.48241 9.75566 9.15223C9.75566 9.82206 9.30911 10.1083 8.63842 10.1083C7.96773 10.1083 7.43497 9.83327 7.43497 9.16344C7.43497 8.49361 7.98928 7.87465 8.59532 7.88499ZM8.87635 8.11861C9.10049 8.34275 9.00997 8.79706 8.70566 9.10137C8.40135 9.40568 7.97894 9.47034 7.7548 9.2462C7.53066 9.02206 7.60825 8.55568 7.91256 8.25137C8.21687 7.94706 8.65222 7.89447 8.87635 8.11861ZM9.53497 8.78327C9.64187 8.80741 9.77118 9.36172 9.43928 9.72551C9.10825 10.0902 8.50825 10.0238 8.49446 9.88327C8.48066 9.74275 8.95739 9.82378 9.24446 9.53672C9.53153 9.24965 9.42722 8.75827 9.53411 8.78327H9.53497Z" fill="url(#paint16_radial_9_715)"/>
<path style="mix-blend-mode:screen" fill-rule="evenodd" clip-rule="evenodd" d="M27.635 3.49121C28.2962 3.50328 28.9005 4.14294 28.9005 4.87397C28.9005 5.605 28.4135 5.91707 27.6816 5.91707C26.9497 5.91707 26.3687 5.61707 26.3687 4.88604C26.3687 4.155 26.973 3.48 27.6342 3.49207L27.635 3.49121ZM27.5359 3.61018C28.0833 3.61966 28.585 4.14983 28.585 4.75587C28.585 5.3619 28.1807 5.62052 27.5747 5.62052C26.9687 5.62052 26.4868 5.37225 26.4868 4.76621C26.4868 4.16018 26.9876 3.60069 27.5359 3.61018ZM27.7902 3.82138C27.9928 4.02397 27.9109 4.43431 27.6359 4.70931C27.3609 4.98431 26.979 5.04294 26.7764 4.84035C26.5738 4.63776 26.6437 4.21621 26.9195 3.94121C27.1945 3.66621 27.5876 3.6188 27.7902 3.82138ZM28.3859 4.42225C28.4824 4.44466 28.5988 4.94466 28.2997 5.27397C28.0005 5.60328 27.4574 5.5438 27.4454 5.41707C27.4333 5.29035 27.8643 5.36276 28.1238 5.10328C28.3833 4.8438 28.2893 4.39983 28.3859 4.42225Z" fill="url(#paint17_radial_9_715)"/>
</g>
<path style="mix-blend-mode:multiply" fill-rule="evenodd" clip-rule="evenodd" d="M42.9767 43.6457C39.2206 48.2586 13.6586 47.5051 6.19995 44.2689C2.44995 42.6414 1.3396 39.2888 0.492188 36.3767C0.496498 36.4629 0.50167 36.5491 0.505981 36.6353C0.698222 40.0758 0.949946 43.2698 1.23012 46.1301C1.39908 47.85 2.79391 49.1905 4.53874 49.3198C7.43184 49.5353 10.6491 49.7095 14.0844 49.825C17.5146 49.9396 21.1879 50 25.0068 50C28.8258 50 32.4698 49.9396 35.9094 49.825C39.3448 49.7103 42.5577 49.5327 45.4508 49.3146C47.2051 49.1827 48.5999 47.8448 48.7689 46.1198C49.0499 43.2551 49.2956 40.0603 49.4887 36.6198C49.6827 33.1603 49.843 29.4345 49.9275 25.55C50.0129 21.6396 50.0155 17.8448 49.9724 14.275C49.9293 10.675 49.8189 7.28445 49.6568 4.2198C49.5586 2.35945 48.1637 0.896521 46.3387 0.755142C43.3275 0.522384 39.9784 0.330142 36.3939 0.205142C33.1844 0.0930732 29.7827 0.0180731 26.2655 0.00341797C31.8767 0.298246 40.0086 1.25256 43.3594 4.51462C49.3396 10.3379 46.7465 39.0163 42.9767 43.6457Z" fill="url(#paint18_radial_9_715)"/>
<defs>
<radialGradient id="paint0_radial_9_715" cx="0" cy="0" r="1" gradientUnits="userSpaceOnUse" gradientTransform="translate(2.42286 0.831895) scale(73.8776 73.8776)">
<stop stop-color="#6BECFF"/>
<stop offset="0.93" stop-color="#0090FF"/>
</radialGradient>
<radialGradient id="paint1_radial_9_715" cx="0" cy="0" r="1" gradientUnits="userSpaceOnUse" gradientTransform="translate(-5.18363 -10.0422) scale(50.7388)">
<stop stop-color="#B5F6FF"/>
<stop offset="1"/>
</radialGradient>
<radialGradient id="paint2_radial_9_715" cx="0" cy="0" r="1" gradientUnits="userSpaceOnUse" gradientTransform="translate(-2.51057 -7.62668) scale(33.8362 33.8362)">
<stop stop-color="white"/>
<stop offset="1"/>
</radialGradient>
<radialGradient id="paint3_radial_9_715" cx="0" cy="0" r="1" gradientUnits="userSpaceOnUse" gradientTransform="translate(23.9974 22.9561) scale(33.0517 33.0517)">
<stop stop-color="#B5F6FF"/>
<stop offset="1"/>
</radialGradient>
<radialGradient id="paint4_radial_9_715" cx="0" cy="0" r="1" gradientUnits="userSpaceOnUse" gradientTransform="translate(72.3918 187.94) scale(170.603 170.603)">
<stop offset="0.8" stop-color="#3DEFFF"/>
<stop offset="0.82" stop-color="#39DFEE"/>
<stop offset="0.86" stop-color="#2EB7C3"/>
<stop offset="0.91" stop-color="#1E757D"/>
<stop offset="0.98" stop-color="#071C1E"/>
<stop offset="1"/>
</radialGradient>
<radialGradient id="paint5_radial_9_715" cx="0" cy="0" r="1" gradientUnits="userSpaceOnUse" gradientTransform="translate(34.2332 24.6204) scale(5.95259 5.95259)">
<stop stop-color="#B0F5FF"/>
<stop offset="0.93" stop-color="#63BBFF"/>
</radialGradient>
<radialGradient id="paint6_radial_9_715" cx="0" cy="0" r="1" gradientUnits="userSpaceOnUse" gradientTransform="translate(3.35918 11.5325) scale(5.95259 5.95259)">
<stop stop-color="#B0F5FF"/>
<stop offset="0.93" stop-color="#63BBFF"/>
</radialGradient>
<radialGradient id="paint7_radial_9_715" cx="0" cy="0" r="1" gradientUnits="userSpaceOnUse" gradientTransform="translate(38.1756 6.64361) scale(5.93448 5.93448)">
<stop stop-color="#B0F5FF"/>
<stop offset="0.93" stop-color="#63BBFF"/>
</radialGradient>
<radialGradient id="paint8_radial_9_715" cx="0" cy="0" r="1" gradientUnits="userSpaceOnUse" gradientTransform="translate(7.20486 17.1496) scale(7.88621)">
<stop stop-color="#B0F5FF"/>
<stop offset="0.93" stop-color="#63BBFF"/>
</radialGradient>
<radialGradient id="paint9_radial_9_715" cx="0" cy="0" r="1" gradientUnits="userSpaceOnUse" gradientTransform="translate(17.5169 36.0799) scale(5.55172 5.55173)">
<stop stop-color="#B0F5FF"/>
<stop offset="0.93" stop-color="#63BBFF"/>
</radialGradient>
<radialGradient id="paint10_radial_9_715" cx="0" cy="0" r="1" gradientUnits="userSpaceOnUse" gradientTransform="translate(6.15756 42.7359) scale(5.55172 5.55173)">
<stop stop-color="#B0F5FF"/>
<stop offset="0.93" stop-color="#63BBFF"/>
</radialGradient>
<radialGradient id="paint11_radial_9_715" cx="0" cy="0" r="1" gradientUnits="userSpaceOnUse" gradientTransform="translate(28.3599 36.4472) scale(3.36552)">
<stop stop-color="#B0F5FF"/>
<stop offset="0.93" stop-color="#63BBFF"/>
</radialGradient>
<radialGradient id="paint12_radial_9_715" cx="0" cy="0" r="1" gradientUnits="userSpaceOnUse" gradientTransform="translate(33.9099 41.9583) scale(3.13966 3.13966)">
<stop stop-color="#B0F5FF"/>
<stop offset="0.93" stop-color="#63BBFF"/>
</radialGradient>
<radialGradient id="paint13_radial_9_715" cx="0" cy="0" r="1" gradientUnits="userSpaceOnUse" gradientTransform="translate(21.8645 7.94709) scale(4.53966)">
<stop stop-color="#B0F5FF"/>
<stop offset="0.93" stop-color="#63BBFF"/>
</radialGradient>
<radialGradient id="paint14_radial_9_715" cx="0" cy="0" r="1" gradientUnits="userSpaceOnUse" gradientTransform="translate(22.0771 15.2697) scale(3.23879 3.23879)">
<stop stop-color="#B0F5FF"/>
<stop offset="0.93" stop-color="#63BBFF"/>
</radialGradient>
<radialGradient id="paint15_radial_9_715" cx="0" cy="0" r="1" gradientUnits="userSpaceOnUse" gradientTransform="translate(10.7865 34.0051) scale(4.50259)">
<stop stop-color="#B0F5FF"/>
<stop offset="0.93" stop-color="#63BBFF"/>
</radialGradient>
<radialGradient id="paint16_radial_9_715" cx="0" cy="0" r="1" gradientUnits="userSpaceOnUse" gradientTransform="translate(8.04532 6.99103) scale(4.50259)">
<stop stop-color="#B0F5FF"/>
<stop offset="0.93" stop-color="#63BBFF"/>
</radialGradient>
<radialGradient id="paint17_radial_9_715" cx="0" cy="0" r="1" gradientUnits="userSpaceOnUse" gradientTransform="translate(27.0385 2.80069) scale(4.07069)">
<stop stop-color="#B0F5FF"/>
<stop offset="0.93" stop-color="#63BBFF"/>
</radialGradient>
<radialGradient id="paint18_radial_9_715" cx="0" cy="0" r="1" gradientUnits="userSpaceOnUse" gradientTransform="translate(24.0474 23.4103) scale(43.0483 43.0483)">
<stop offset="0.53" stop-color="white"/>
<stop offset="0.66" stop-color="#C2E8FF"/>
<stop offset="0.95" stop-color="#2CAFFF"/>
<stop offset="1" stop-color="#12A5FF"/>
</radialGradient>
</defs>
</svg>
