<svg width="792" height="215" viewBox="0 0 792 215" fill="none" xmlns="http://www.w3.org/2000/svg">
<path fill-rule="evenodd" clip-rule="evenodd" d="M63.91 49.1599C174.38 46.3599 284.99 45.9399 395.52 45.9399C506.05 45.9399 616.5 46.3599 727.05 49.1599C743.76 49.5799 758.16 56.0299 767.97 66.9299C777.74 77.7999 783.01 92.6099 781.18 108.77C779.36 124.8 770.91 139.22 759.03 149.63C747.26 159.95 731.97 165.93 715.84 166.35C609.03 169.15 502.17 169.57 395.53 169.57C288.89 169.57 181.87 169.15 75.14 166.35C59 165.92 43.6 160.02 31.87 149.68C20.1 139.31 11.99 124.83 10.17 108.78C8.32998 92.5799 13.24 77.6799 22.9 66.8599C32.66 55.9399 47.19 49.5699 63.9 49.1499L63.91 49.1599Z" fill="url(#paint0_linear_19_4324)"/>
<path style="mix-blend-mode:screen" fill-rule="evenodd" clip-rule="evenodd" d="M499.77 38.7198C425.55 36.8998 168.87 35.7798 66.9402 39.5498C34.6802 40.7498 12.0102 49.6198 3.83016 80.9298C3.22016 83.2498 2.46016 86.7698 4.48016 88.0498C6.07016 89.0598 7.80016 85.7998 8.49016 84.0398C20.0602 54.5198 36.2902 47.0198 67.9202 45.0598C160.32 39.3198 414.16 43.2698 499.56 41.7798C509.74 41.5998 505.59 38.8498 499.78 38.7098L499.77 38.7198ZM3.28016 94.4198C1.68016 94.1098 0.580158 96.7298 0.360159 98.3398C-0.339841 103.38 0.0101585 108.58 1.26016 113.99C2.47016 119.23 5.08016 125.94 7.40016 129.08C9.12016 131.42 12.7802 132.42 11.5302 128.35C10.4402 124.8 8.18016 120.15 6.83016 112.86C6.06016 108.65 5.36016 103.36 5.39016 99.4598C5.40016 97.5398 5.16016 94.7998 3.28016 94.4298V94.4198Z" fill="url(#paint1_linear_19_4324)"/>
<path style="mix-blend-mode:screen" fill-rule="evenodd" clip-rule="evenodd" d="M277.85 176.43C351.71 178.26 608.17 179.37 710.84 175.6C743.34 174.4 767.75 165.53 782.1 134.22C783.16 131.91 784.62 128.38 782.86 127.1C781.47 126.09 779.1 129.35 778.07 131.11C760.68 160.63 742.98 168.13 710.95 170.1C617.42 175.84 364.36 171.89 278.67 173.37C268.46 173.55 272.06 176.3 277.85 176.44V176.43ZM785.32 120.73C786.86 121.04 788.47 118.42 789.01 116.81C790.71 111.77 791.38 106.57 791.19 101.16C791.01 95.9201 789.72 89.2101 788.03 86.0701C786.77 83.7301 783.3 82.7301 783.76 86.8001C784.15 90.3501 785.5 95.0101 785.4 102.3C785.34 106.51 785 111.8 784.2 115.7C783.81 117.61 783.51 120.36 785.32 120.73Z" fill="url(#paint2_linear_19_4324)"/>
<path style="mix-blend-mode:screen" opacity="0.35" fill-rule="evenodd" clip-rule="evenodd" d="M9.80034 49.12C7.91034 52.86 7.66034 58.09 9.31034 58.91C10.5203 59.51 12.7503 56.96 16.1103 53.72C19.9403 50.03 26.6603 44.68 39.1603 40.88C54.1403 36.32 71.1903 36.72 85.5503 36.15C124.69 34.59 163.87 34.19 203.04 34.19C363.65 34.19 530.9 31.33 691.86 37.85C742.85 39.91 754.06 43.89 781.19 66.5C783.71 68.6 787.05 71.39 788.71 70.47C790.21 69.63 790.3 65.38 787.51 61.28C764.46 27.34 729.11 13.42 687.69 10.7C514.42 -0.690009 257.65 -5.78001 86.5303 9.70999C51.9403 12.85 21.6103 25.75 9.80034 49.12Z" fill="url(#paint3_linear_19_4324)"/>
<path style="mix-blend-mode:multiply" opacity="0.5" fill-rule="evenodd" clip-rule="evenodd" d="M9.80034 165.45C7.91034 161.71 7.66034 156.48 9.31034 155.66C10.5203 155.06 12.7503 157.61 16.1103 160.85C19.9403 164.54 26.6603 169.89 39.1603 173.7C54.1403 178.26 71.1903 177.85 85.5503 178.43C124.69 179.99 163.87 180.39 203.04 180.39C363.65 180.39 532.61 185.69 693.57 179.18C744.56 177.12 757 174.61 781.92 149.79C784.25 147.47 786.8 144.41 788.46 145.33C789.96 146.17 789.31 149.93 786.52 154.03C763.47 187.97 729.1 201.16 687.68 203.87C514.41 215.25 257.64 220.34 86.5203 204.85C51.9303 201.72 21.6003 188.81 9.78034 165.44L9.80034 165.45Z" fill="url(#paint4_linear_19_4324)"/>
<defs>
<linearGradient id="paint0_linear_19_4324" x1="395.67" y1="169.57" x2="395.67" y2="45.9399" gradientUnits="userSpaceOnUse">
<stop stop-color="#BDD8DB"/>
<stop offset="1" stop-color="white"/>
</linearGradient>
<linearGradient id="paint1_linear_19_4324" x1="0.000158507" y1="84.0798" x2="505.75" y2="84.0798" gradientUnits="userSpaceOnUse">
<stop stop-color="white"/>
<stop offset="1"/>
</linearGradient>
<linearGradient id="paint2_linear_19_4324" x1="272.22" y1="131.07" x2="791.23" y2="131.07" gradientUnits="userSpaceOnUse">
<stop/>
<stop offset="1" stop-color="white"/>
</linearGradient>
<linearGradient id="paint3_linear_19_4324" x1="398.98" y1="70.65" x2="398.98" y2="-7.81416e-06" gradientUnits="userSpaceOnUse">
<stop stop-color="#B5F6FF"/>
<stop offset="1"/>
</linearGradient>
<linearGradient id="paint4_linear_19_4324" x1="398.73" y1="214.57" x2="398.73" y2="145.16" gradientUnits="userSpaceOnUse">
<stop stop-color="white"/>
<stop offset="0.49" stop-color="#C2C4FF"/>
<stop offset="1" stop-color="#8084FF"/>
</linearGradient>
</defs>
</svg>
