<svg width="50" height="50" viewBox="0 0 50 50" fill="none" xmlns="http://www.w3.org/2000/svg">
<g clip-path="url(#clip0_9_3359)">
<path fill-rule="evenodd" clip-rule="evenodd" d="M3.64872 0.755172C6.65993 0.521552 10.0142 0.330172 13.5987 0.205172C17.1798 0.0801724 21.0168 0 25.0065 0C28.9961 0 32.8022 0.0801724 36.3935 0.205172C39.9789 0.330172 43.328 0.521552 46.3384 0.755172C48.1634 0.896552 49.5582 2.36034 49.6565 4.21983C49.8186 7.28535 49.9289 10.675 49.972 14.275C50.0151 17.8448 50.0125 21.6397 49.9272 25.55C49.8427 29.4345 49.6823 33.1603 49.4884 36.6198C49.2961 40.0603 49.0496 43.2552 48.7685 46.1198C48.5996 47.8448 47.2048 49.1828 45.4504 49.3147C42.5573 49.5328 39.3453 49.7095 35.9091 49.825C32.4694 49.9397 28.8013 50 25.0065 50C21.2116 50 17.5142 49.9397 14.0841 49.825C10.6487 49.7095 7.43062 49.5353 4.53837 49.3198C2.79355 49.1905 1.39872 47.85 1.22975 46.1302C0.948719 43.2698 0.697857 40.075 0.505615 36.6353C0.31165 33.1707 0.171133 29.4457 0.0857877 25.5509C0.000442908 21.6405 -0.0219709 17.8405 0.0202705 14.2603C0.0633739 10.6603 0.178029 7.26983 0.34096 4.21034C0.439236 2.35517 1.83406 0.896552 3.64872 0.755172Z" fill="url(#paint0_radial_9_3359)"/>
<path style="mix-blend-mode:screen" fill-rule="evenodd" clip-rule="evenodd" d="M37.1422 2.53716C31.9086 9.08971e-05 12.2836 0.983712 6.03964 1.5544C2.55688 1.8725 1.26205 2.55268 1.1836 6.29406C1.0155 14.2897 -0.012948 26.4535 1.76119 34.151C2.5974 37.7785 5.82498 36.4949 6.50171 35.538C16.1008 21.9673 27.6603 13.0199 37.431 7.56561C39.5293 6.39406 41.25 4.52854 37.1422 2.53802V2.53716Z" fill="url(#paint1_radial_9_3359)"/>
<path style="mix-blend-mode:screen" fill-rule="evenodd" clip-rule="evenodd" d="M22.4368 1.58625C19.3308 1.24142 16.1912 1.57159 13.0851 1.78366C10.636 1.95004 8.17047 2.14918 5.7903 2.71987C3.14719 3.35349 2.64892 4.29573 2.23685 6.86211C1.85409 9.24659 1.8765 11.6673 1.86271 14.0957C1.8515 16.1328 3.82909 15.8294 4.23426 14.6914C5.1084 12.2354 4.8515 9.17504 6.60926 7.10694C8.99202 4.30435 18.0851 4.01556 22.192 3.42935C23.717 3.21211 23.8205 1.7397 22.4377 1.58625H22.4368ZM1.64116 17.9794C1.49978 19.2569 1.49375 20.569 1.69116 21.8388C1.94461 23.463 3.64719 23.9078 3.99547 22.0509C4.25237 20.6819 4.34288 19.2647 4.24633 17.8742C4.17564 16.8587 1.86616 15.9483 1.64116 17.9794Z" fill="url(#paint2_radial_9_3359)"/>
<path style="mix-blend-mode:screen" fill-rule="evenodd" clip-rule="evenodd" d="M28.9612 45.0164C28.6362 45.0802 28.1345 45.3949 28.2552 45.707C28.406 46.0966 29 46.1794 29.4147 46.1854C32.9095 46.2371 40.175 45.6104 42.2957 43.2647C44.6371 40.6751 45.7974 31.6276 45.8181 28.5095C45.8198 28.2302 45.644 27.7871 45.3647 27.794C45.0422 27.8018 44.8353 28.2251 44.7595 28.5371C43.6793 32.9733 41.8276 37.7078 39.6345 40.4233C37.7931 42.7035 33.2991 44.1639 28.9612 45.0173V45.0164Z" fill="url(#paint3_radial_9_3359)"/>
<path style="mix-blend-mode:screen" fill-rule="evenodd" clip-rule="evenodd" d="M3.64872 0.755172C6.65993 0.521552 10.0142 0.330172 13.5987 0.205172C17.1798 0.0801724 21.0168 0 25.0065 0C28.9961 0 32.8022 0.0801724 36.3935 0.205172C39.9789 0.330172 43.328 0.521552 46.3384 0.755172C48.1634 0.896552 49.5582 2.36034 49.6565 4.21983C49.8186 7.28535 49.9289 10.675 49.972 14.275C50.0151 17.8448 50.0125 21.6397 49.9272 25.55C49.8427 29.4345 49.6823 33.1603 49.4884 36.6198C49.2961 40.0603 49.0496 43.2552 48.7685 46.1198C48.5996 47.8448 47.2048 49.1828 45.4504 49.3147C42.5573 49.5328 39.3453 49.7095 35.9091 49.825C32.4694 49.9397 28.8013 50 25.0065 50C21.2116 50 17.5142 49.9397 14.0841 49.825C10.6487 49.7095 7.43062 49.5353 4.53837 49.3198C2.79355 49.1905 1.39872 47.85 1.22975 46.1302C0.948719 43.2698 0.697857 40.075 0.505615 36.6353C0.31165 33.1707 0.171133 29.4457 0.0857877 25.5509C0.000442908 21.6405 -0.0219709 17.8405 0.0202705 14.2603C0.0633739 10.6603 0.178029 7.26983 0.34096 4.21034C0.439236 2.35517 1.83406 0.896552 3.64872 0.755172Z" fill="url(#paint4_radial_9_3359)"/>
<g opacity="0.75">
<path style="mix-blend-mode:screen" fill-rule="evenodd" clip-rule="evenodd" d="M36.672 27.0603C37.4504 27.0603 38.3073 27.7508 38.3073 28.5293C38.3073 29.3077 37.5573 29.9388 36.7789 29.9388C36.0005 29.9388 35.3211 29.2844 35.3686 28.5293C35.416 27.7741 35.8936 27.0603 36.672 27.0603ZM36.6056 27.1551C37.2496 27.1551 37.9573 27.7258 37.9573 28.3698C37.9573 29.0138 37.3375 29.5353 36.6936 29.5353C36.0496 29.5353 35.4884 28.9939 35.528 28.3698C35.5677 27.7456 35.9617 27.1551 36.6056 27.1551ZM36.9272 27.4275C37.1556 27.6551 37.0358 28.0017 36.7263 28.3112C36.4168 28.6206 36.0349 28.775 35.8065 28.5474C35.578 28.3198 35.6505 27.831 35.9599 27.5215C36.2694 27.212 36.6987 27.2 36.9272 27.4275ZM37.7763 28.1534C37.8875 28.1793 37.9384 28.6905 37.5944 29.0689C37.2505 29.4474 36.7099 29.4422 36.6961 29.2965C36.6823 29.1508 37.0944 29.1706 37.3927 28.8724C37.691 28.5741 37.6651 28.1275 37.7772 28.1534H37.7763Z" fill="url(#paint5_radial_9_3359)"/>
<path style="mix-blend-mode:screen" fill-rule="evenodd" clip-rule="evenodd" d="M5.79798 13.9758C6.57643 13.9758 7.43332 14.6663 7.43332 15.4448C7.43332 16.2232 6.68332 16.8543 5.90487 16.8543C5.12643 16.8543 4.44712 16.2 4.49453 15.4448C4.54194 14.6896 5.01953 13.9758 5.79798 13.9758ZM5.7316 14.0707C6.37556 14.0707 7.08332 14.6413 7.08332 15.2853C7.08332 15.9293 6.4635 16.4508 5.81953 16.4508C5.17556 16.4508 4.61436 15.9095 4.65401 15.2853C4.69281 14.6612 5.08763 14.0707 5.7316 14.0707ZM6.05315 14.3431C6.2816 14.5707 6.16177 14.9172 5.85229 15.2267C5.54281 15.5362 5.16091 15.6905 4.93246 15.4629C4.70401 15.2353 4.77643 14.7465 5.08591 14.437C5.39539 14.1276 5.8247 14.1146 6.05315 14.3431ZM6.90229 15.0689C7.0135 15.0948 7.06436 15.606 6.71953 15.9845C6.37556 16.3629 5.83505 16.3577 5.82125 16.212C5.80746 16.0663 6.21953 16.0862 6.51781 15.7879C6.81608 15.4896 6.79108 15.0431 6.90229 15.0689Z" fill="url(#paint6_radial_9_3359)"/>
<path style="mix-blend-mode:screen" opacity="0.7" fill-rule="evenodd" clip-rule="evenodd" d="M40.6067 9.08203C41.3834 9.08203 42.2368 9.76996 42.2368 10.5467C42.2368 11.3234 41.4894 11.9519 40.7127 11.9519C39.936 11.9519 39.2601 11.2993 39.3075 10.5467C39.3549 9.7941 39.8308 9.08203 40.6067 9.08203ZM40.5403 9.17686C41.1825 9.17686 41.8877 9.74582 41.8877 10.3872C41.8877 11.0286 41.2696 11.5493 40.6282 11.5493C39.9868 11.5493 39.4274 11.0096 39.4661 10.3872C39.5049 9.76479 39.8989 9.17686 40.5403 9.17686ZM40.861 9.44755C41.0886 9.67427 40.9696 10.02 40.661 10.3286C40.3524 10.6372 39.9713 10.7915 39.7446 10.5639C39.517 10.3363 39.5894 9.84927 39.8972 9.54151C40.2058 9.23289 40.6343 9.22082 40.861 9.44755ZM41.7075 10.1717C41.8187 10.1967 41.8687 10.707 41.5256 11.0838C41.1825 11.4613 40.6437 11.4562 40.6299 11.3113C40.6161 11.1665 41.0265 11.1863 41.3239 10.8889C41.6213 10.5915 41.5963 10.1467 41.7067 10.1717H41.7075Z" fill="url(#paint7_radial_9_3359)"/>
<path style="mix-blend-mode:screen" fill-rule="evenodd" clip-rule="evenodd" d="M10.4359 20.3872C11.4678 20.3872 12.6023 21.3019 12.6023 22.3329C12.6023 23.3639 11.6092 24.2001 10.5773 24.2001C9.54538 24.2001 8.64624 23.3329 8.70917 22.3329C8.7721 21.3329 9.404 20.3872 10.4359 20.3872ZM10.348 20.5131C11.2006 20.5131 12.1393 21.2691 12.1393 22.1217C12.1393 22.9743 11.3178 23.6657 10.4652 23.6657C9.61262 23.6657 8.86865 22.9484 8.92124 22.1217C8.97296 21.295 9.49624 20.5131 10.3488 20.5131H10.348ZM10.7738 20.8734C11.0756 21.1751 10.9178 21.6346 10.5074 22.0441C10.098 22.4536 9.59107 22.6588 9.28934 22.357C8.98762 22.0553 9.08245 21.4079 9.49279 20.9976C9.90228 20.5881 10.4721 20.5708 10.7738 20.8734ZM11.8988 21.8355C12.0462 21.8691 12.1135 22.5467 11.6574 23.0484C11.2014 23.5493 10.4859 23.5432 10.4669 23.3501C10.448 23.157 10.9945 23.1838 11.3902 22.7881C11.7859 22.3932 11.7514 21.801 11.8988 21.8355Z" fill="url(#paint8_radial_9_3359)"/>
<path style="mix-blend-mode:screen" opacity="0.4" fill-rule="evenodd" clip-rule="evenodd" d="M18.6652 37.0062C19.8618 36.9364 20.7592 37.7295 20.7592 38.7511C20.7592 39.7726 19.7566 40.6355 18.6824 40.583C17.6083 40.5304 16.7799 39.7554 16.8324 38.7338C16.885 37.7123 17.4687 37.0761 18.6652 37.0062ZM18.5006 37.1666C19.4816 37.1097 20.2187 37.7597 20.2187 38.5976C20.2187 39.4355 19.3962 40.1433 18.5143 40.1002C17.6333 40.0571 16.954 39.4209 16.9971 38.583C17.0402 37.745 17.5187 37.2235 18.5006 37.1657V37.1666ZM18.8359 37.4959C19.135 37.795 18.9807 38.3062 18.5747 38.7123C18.1687 39.1174 17.6661 39.2631 17.3669 38.9649C17.0678 38.6666 17.1747 38.0769 17.4756 37.7235C17.7764 37.37 18.5368 37.1976 18.835 37.4968L18.8359 37.4959ZM19.9781 38.2355C20.1307 38.2709 20.1997 38.97 19.729 39.4881C19.2583 40.0054 18.5187 39.9993 18.4997 39.7993C18.4807 39.6002 19.0445 39.6278 19.4531 39.2192C19.8609 38.8114 19.8264 38.2002 19.979 38.2355H19.9781Z" fill="url(#paint9_radial_9_3359)"/>
<path style="mix-blend-mode:screen" opacity="0.4" fill-rule="evenodd" clip-rule="evenodd" d="M7.30583 43.6605C8.50238 43.5907 9.3998 44.3838 9.3998 45.4054C9.3998 46.4269 8.39721 47.2898 7.32307 47.2373C6.24894 47.1847 5.42049 46.4088 5.47307 45.3881C5.52566 44.3666 6.10928 43.7304 7.30583 43.6605ZM7.14118 43.8209C8.12221 43.764 8.85928 44.414 8.85928 45.2519C8.85928 46.0898 8.03687 46.7976 7.15583 46.7545C6.2748 46.7114 5.59549 46.0752 5.63773 45.2373C5.68083 44.3993 6.16014 43.8778 7.14118 43.82V43.8209ZM7.47652 44.1502C7.77566 44.4493 7.62135 44.9605 7.21532 45.3666C6.81014 45.7717 6.3067 45.9174 6.00756 45.6192C5.70842 45.32 5.81532 44.7312 6.11618 44.3778C6.41704 44.0243 7.17738 43.8519 7.47566 44.1511L7.47652 44.1502ZM8.61876 44.8898C8.77049 44.9252 8.84032 45.6243 8.36963 46.1424C7.89894 46.6597 7.15928 46.6536 7.14032 46.4545C7.12135 46.2554 7.68514 46.2829 8.09376 45.8743C8.50152 45.4657 8.46704 44.8554 8.61963 44.8907L8.61876 44.8898Z" fill="url(#paint10_radial_9_3359)"/>
<path style="mix-blend-mode:screen" opacity="0.4" fill-rule="evenodd" clip-rule="evenodd" d="M29.0565 37.0043C29.7815 36.9621 30.3263 37.4431 30.3263 38.062C30.3263 38.681 29.7186 39.2043 29.0668 39.1724C28.416 39.1405 27.9134 38.6707 27.9453 38.0508C27.9772 37.4319 28.3306 37.0457 29.0565 37.0034V37.0043ZM28.9565 37.1017C29.5513 37.0672 29.9979 37.4612 29.9979 37.9689C29.9979 38.4767 29.4987 38.906 28.9651 38.8802C28.4315 38.8543 28.0186 38.4681 28.0453 37.9603C28.0711 37.4526 28.3617 37.1362 28.9565 37.1017ZM29.1599 37.3008C29.341 37.4819 29.2479 37.7922 29.0022 38.0379C28.7565 38.2836 28.4513 38.3724 28.2703 38.1914C28.0893 38.0103 28.1539 37.6526 28.3367 37.4388C28.5194 37.225 28.9798 37.1198 29.1608 37.3008H29.1599ZM29.8522 37.7491C29.9444 37.7707 29.9867 38.1948 29.7013 38.5086C29.416 38.8224 28.9677 38.8181 28.9565 38.6974C28.9453 38.5767 29.2867 38.5931 29.5341 38.3457C29.7815 38.0983 29.7608 37.7276 29.853 37.7491H29.8522Z" fill="url(#paint11_radial_9_3359)"/>
<path style="mix-blend-mode:screen" opacity="0.4" fill-rule="evenodd" clip-rule="evenodd" d="M34.5599 42.4758C35.2366 42.4362 35.7443 42.8845 35.7443 43.4629C35.7443 44.0413 35.1771 44.5284 34.5693 44.4991C33.9616 44.4698 33.4935 44.031 33.5228 43.4534C33.5521 42.8758 33.8823 42.5163 34.559 42.4767L34.5599 42.4758ZM34.4668 42.5663C35.0219 42.5336 35.4383 42.9017 35.4383 43.3758C35.4383 43.85 34.9728 44.25 34.4745 44.2258C33.9762 44.2017 33.5918 43.8413 33.6159 43.3681C33.64 42.8939 33.9107 42.5991 34.4659 42.5663H34.4668ZM34.6564 42.7526C34.8254 42.9215 34.7383 43.2112 34.509 43.4405C34.2797 43.6698 33.9952 43.7526 33.8262 43.5836C33.6573 43.4146 33.7176 43.081 33.8874 42.8819C34.0581 42.6819 34.4874 42.5845 34.6564 42.7534V42.7526ZM35.3021 43.1707C35.3883 43.1905 35.4271 43.5862 35.1616 43.8784C34.8952 44.1715 34.4771 44.1672 34.4659 44.0551C34.4547 43.9422 34.7737 43.9577 35.0047 43.7267C35.2357 43.4957 35.2159 43.1508 35.3021 43.1707Z" fill="url(#paint12_radial_9_3359)"/>
<path style="mix-blend-mode:screen" fill-rule="evenodd" clip-rule="evenodd" d="M22.8033 8.71051C23.7817 8.65361 24.5153 9.30189 24.5153 10.1372C24.5153 10.9726 23.6955 11.6778 22.8171 11.6355C21.9386 11.5924 21.2619 10.9579 21.3041 10.1234C21.3472 9.2881 21.8248 8.76827 22.8024 8.71137L22.8033 8.71051ZM22.6688 8.84154C23.4714 8.79499 24.0739 9.32689 24.0739 10.0122C24.0739 10.6976 23.4015 11.276 22.6808 11.2407C21.9602 11.2053 21.405 10.6855 21.4403 10.0002C21.4757 9.31482 21.8671 8.88809 22.6696 8.84154H22.6688ZM22.9429 9.11051C23.1869 9.35447 23.061 9.77344 22.73 10.1045C22.3989 10.4355 21.9869 10.5553 21.7421 10.3105C21.4981 10.0665 21.5852 9.58465 21.8308 9.29585C22.0765 9.00706 22.6981 8.86568 22.9429 9.11051ZM23.8765 9.71568C24.0007 9.74413 24.0576 10.3165 23.6731 10.7398C23.2877 11.1631 22.6834 11.1579 22.6679 10.995C22.6524 10.8321 23.1136 10.8545 23.4472 10.5209C23.7808 10.1872 23.7524 9.6881 23.8774 9.71654L23.8765 9.71568Z" fill="url(#paint13_radial_9_3359)"/>
<path style="mix-blend-mode:screen" opacity="0.4" fill-rule="evenodd" clip-rule="evenodd" d="M22.7469 15.8113C23.4452 15.7708 23.9685 16.2337 23.9685 16.8294C23.9685 17.4251 23.3832 17.9285 22.7564 17.8984C22.1297 17.8682 21.6469 17.4156 21.6771 16.8191C21.7073 16.2225 22.0487 15.8518 22.7461 15.8113H22.7469ZM22.6504 15.9053C23.2228 15.8717 23.653 16.2518 23.653 16.7406C23.653 17.2294 23.1728 17.6423 22.659 17.6173C22.1452 17.5923 21.7487 17.2208 21.7737 16.732C21.7987 16.2432 22.078 15.9389 22.6513 15.9053H22.6504ZM22.8461 16.0975C23.0202 16.2717 22.9306 16.5708 22.6935 16.807C22.4564 17.0432 22.1633 17.1285 21.9883 16.9544C21.8142 16.7803 21.8763 16.4363 22.0521 16.2303C22.228 16.0242 22.6711 15.9234 22.8461 16.0975ZM23.5125 16.5294C23.6013 16.5501 23.6418 16.9579 23.3668 17.2596C23.0918 17.5613 22.6607 17.5579 22.6495 17.4415C22.6383 17.3251 22.9676 17.3415 23.2056 17.1027C23.4435 16.8648 23.4237 16.5079 23.5125 16.5285V16.5294Z" fill="url(#paint14_radial_9_3359)"/>
<path style="mix-blend-mode:screen" fill-rule="evenodd" clip-rule="evenodd" d="M11.4469 34.7594C12.1779 34.7724 12.8469 35.4801 12.8469 36.2888C12.8469 37.0974 12.3081 37.4422 11.4986 37.4422C10.6891 37.4422 10.0469 37.1103 10.0469 36.3017C10.0469 35.4931 10.7158 34.7465 11.4469 34.7594ZM11.3365 34.8905C11.9426 34.9008 12.4969 35.4879 12.4969 36.1577C12.4969 36.8275 12.0495 37.1138 11.3796 37.1138C10.7098 37.1138 10.1762 36.8388 10.1762 36.1681C10.1762 35.4974 10.7305 34.8793 11.3365 34.8896V34.8905ZM11.6176 35.1241C11.8417 35.3482 11.7512 35.8017 11.4469 36.1069C11.1426 36.4112 10.7202 36.4758 10.496 36.2517C10.2719 36.0275 10.3495 35.5612 10.6538 35.2569C10.9581 34.9525 11.3934 34.9 11.6176 35.1241ZM12.2762 35.7888C12.3831 35.8129 12.5124 36.3672 12.1805 36.731C11.8495 37.0956 11.2495 37.0293 11.2357 36.8888C11.2219 36.7482 11.6986 36.8293 11.9857 36.5422C12.2727 36.2551 12.1684 35.7638 12.2753 35.7888H12.2762Z" fill="url(#paint15_radial_9_3359)"/>
<path style="mix-blend-mode:screen" fill-rule="evenodd" clip-rule="evenodd" d="M8.70566 7.75358C9.4367 7.76651 10.1057 8.47427 10.1057 9.28289C10.1057 10.0915 9.56601 10.4363 8.75739 10.4363C7.94877 10.4363 7.30566 10.1044 7.30566 9.29582C7.30566 8.4872 7.97463 7.74065 8.70566 7.75358ZM8.59532 7.88548C9.20135 7.89582 9.75566 8.48289 9.75566 9.15272C9.75566 9.82255 9.30911 10.1088 8.63842 10.1088C7.96773 10.1088 7.43497 9.83376 7.43497 9.16393C7.43497 8.4941 7.98928 7.87514 8.59532 7.88548ZM8.87635 8.1191C9.10049 8.34324 9.00997 8.79755 8.70566 9.10186C8.40135 9.40617 7.97894 9.47082 7.7548 9.24669C7.53066 9.02255 7.60825 8.55617 7.91256 8.25186C8.21687 7.94755 8.65222 7.89496 8.87635 8.1191ZM9.53497 8.78376C9.64187 8.80789 9.77118 9.3622 9.43928 9.726C9.10825 10.0907 8.50825 10.0243 8.49446 9.88376C8.48066 9.74324 8.95739 9.82427 9.24446 9.5372C9.53153 9.25013 9.42722 8.75876 9.53411 8.78376H9.53497Z" fill="url(#paint16_radial_9_3359)"/>
<path style="mix-blend-mode:screen" fill-rule="evenodd" clip-rule="evenodd" d="M27.635 3.49146C28.2962 3.50352 28.9005 4.14318 28.9005 4.87421C28.9005 5.60525 28.4135 5.91732 27.6816 5.91732C26.9497 5.91732 26.3687 5.61732 26.3687 4.88628C26.3687 4.15525 26.973 3.48025 27.6342 3.49232L27.635 3.49146ZM27.5359 3.61042C28.0833 3.6199 28.585 4.15008 28.585 4.75611C28.585 5.36214 28.1807 5.62076 27.5747 5.62076C26.9687 5.62076 26.4868 5.37249 26.4868 4.76646C26.4868 4.16042 26.9876 3.60094 27.5359 3.61042ZM27.7902 3.82163C27.9928 4.02421 27.9109 4.43456 27.6359 4.70956C27.3609 4.98456 26.979 5.04318 26.7764 4.84059C26.5738 4.63801 26.6437 4.21646 26.9195 3.94146C27.1945 3.66646 27.5876 3.61904 27.7902 3.82163ZM28.3859 4.42249C28.4824 4.4449 28.5988 4.9449 28.2997 5.27421C28.0005 5.60352 27.4574 5.54404 27.4454 5.41732C27.4333 5.29059 27.8643 5.36301 28.1238 5.10352C28.3833 4.84404 28.2893 4.40008 28.3859 4.42249Z" fill="url(#paint17_radial_9_3359)"/>
</g>
<path style="mix-blend-mode:multiply" fill-rule="evenodd" clip-rule="evenodd" d="M42.9767 43.6457C39.2206 48.2586 13.6586 47.5051 6.19995 44.2689C2.44995 42.6414 1.3396 39.2888 0.492188 36.3767C0.496498 36.4629 0.50167 36.5491 0.505981 36.6353C0.698222 40.0758 0.949946 43.2698 1.23012 46.1301C1.39908 47.85 2.79391 49.1905 4.53874 49.3198C7.43184 49.5353 10.6491 49.7095 14.0844 49.825C17.5146 49.9396 21.1879 50 25.0068 50C28.8258 50 32.4698 49.9396 35.9094 49.825C39.3448 49.7103 42.5577 49.5327 45.4508 49.3146C47.2051 49.1827 48.5999 47.8448 48.7689 46.1198C49.0499 43.2551 49.2956 40.0603 49.4887 36.6198C49.6827 33.1603 49.843 29.4345 49.9275 25.55C50.0129 21.6396 50.0155 17.8448 49.9724 14.275C49.9293 10.675 49.8189 7.28445 49.6568 4.2198C49.5586 2.35945 48.1637 0.896521 46.3387 0.755142C43.3275 0.522384 39.9784 0.330142 36.3939 0.205142C33.1844 0.0930732 29.7827 0.0180731 26.2655 0.00341797C31.8767 0.298246 40.0086 1.25256 43.3594 4.51462C49.3396 10.3379 46.7465 39.0163 42.9767 43.6457Z" fill="url(#paint18_radial_9_3359)"/>
</g>
<defs>
<radialGradient id="paint0_radial_9_3359" cx="0" cy="0" r="1" gradientUnits="userSpaceOnUse" gradientTransform="translate(2.42286 0.831895) scale(73.8776 73.8776)">
<stop stop-color="#6BECFF"/>
<stop offset="0.93" stop-color="#0090FF"/>
</radialGradient>
<radialGradient id="paint1_radial_9_3359" cx="0" cy="0" r="1" gradientUnits="userSpaceOnUse" gradientTransform="translate(-5.18363 -10.0422) scale(50.7388)">
<stop stop-color="#B5F6FF"/>
<stop offset="1"/>
</radialGradient>
<radialGradient id="paint2_radial_9_3359" cx="0" cy="0" r="1" gradientUnits="userSpaceOnUse" gradientTransform="translate(-2.51057 -7.62668) scale(33.8362 33.8362)">
<stop stop-color="white"/>
<stop offset="1"/>
</radialGradient>
<radialGradient id="paint3_radial_9_3359" cx="0" cy="0" r="1" gradientUnits="userSpaceOnUse" gradientTransform="translate(23.9974 22.9561) scale(33.0517 33.0517)">
<stop stop-color="#B5F6FF"/>
<stop offset="1"/>
</radialGradient>
<radialGradient id="paint4_radial_9_3359" cx="0" cy="0" r="1" gradientUnits="userSpaceOnUse" gradientTransform="translate(72.3918 187.94) scale(170.603 170.603)">
<stop offset="0.8" stop-color="#3DEFFF"/>
<stop offset="0.82" stop-color="#39DFEE"/>
<stop offset="0.86" stop-color="#2EB7C3"/>
<stop offset="0.91" stop-color="#1E757D"/>
<stop offset="0.98" stop-color="#071C1E"/>
<stop offset="1"/>
</radialGradient>
<radialGradient id="paint5_radial_9_3359" cx="0" cy="0" r="1" gradientUnits="userSpaceOnUse" gradientTransform="translate(34.2332 24.6206) scale(5.95259 5.95259)">
<stop stop-color="#B0F5FF"/>
<stop offset="0.93" stop-color="#63BBFF"/>
</radialGradient>
<radialGradient id="paint6_radial_9_3359" cx="0" cy="0" r="1" gradientUnits="userSpaceOnUse" gradientTransform="translate(3.35918 11.5327) scale(5.95259 5.95259)">
<stop stop-color="#B0F5FF"/>
<stop offset="0.93" stop-color="#63BBFF"/>
</radialGradient>
<radialGradient id="paint7_radial_9_3359" cx="0" cy="0" r="1" gradientUnits="userSpaceOnUse" gradientTransform="translate(38.1756 6.6441) scale(5.93448 5.93448)">
<stop stop-color="#B0F5FF"/>
<stop offset="0.93" stop-color="#63BBFF"/>
</radialGradient>
<radialGradient id="paint8_radial_9_3359" cx="0" cy="0" r="1" gradientUnits="userSpaceOnUse" gradientTransform="translate(7.20486 17.1501) scale(7.88621)">
<stop stop-color="#B0F5FF"/>
<stop offset="0.93" stop-color="#63BBFF"/>
</radialGradient>
<radialGradient id="paint9_radial_9_3359" cx="0" cy="0" r="1" gradientUnits="userSpaceOnUse" gradientTransform="translate(17.5169 36.0804) scale(5.55172 5.55173)">
<stop stop-color="#B0F5FF"/>
<stop offset="0.93" stop-color="#63BBFF"/>
</radialGradient>
<radialGradient id="paint10_radial_9_3359" cx="0" cy="0" r="1" gradientUnits="userSpaceOnUse" gradientTransform="translate(6.15756 42.7364) scale(5.55172 5.55173)">
<stop stop-color="#B0F5FF"/>
<stop offset="0.93" stop-color="#63BBFF"/>
</radialGradient>
<radialGradient id="paint11_radial_9_3359" cx="0" cy="0" r="1" gradientUnits="userSpaceOnUse" gradientTransform="translate(28.3599 36.4474) scale(3.36552)">
<stop stop-color="#B0F5FF"/>
<stop offset="0.93" stop-color="#63BBFF"/>
</radialGradient>
<radialGradient id="paint12_radial_9_3359" cx="0" cy="0" r="1" gradientUnits="userSpaceOnUse" gradientTransform="translate(33.9099 41.9586) scale(3.13966 3.13966)">
<stop stop-color="#B0F5FF"/>
<stop offset="0.93" stop-color="#63BBFF"/>
</radialGradient>
<radialGradient id="paint13_radial_9_3359" cx="0" cy="0" r="1" gradientUnits="userSpaceOnUse" gradientTransform="translate(21.8645 7.94758) scale(4.53966)">
<stop stop-color="#B0F5FF"/>
<stop offset="0.93" stop-color="#63BBFF"/>
</radialGradient>
<radialGradient id="paint14_radial_9_3359" cx="0" cy="0" r="1" gradientUnits="userSpaceOnUse" gradientTransform="translate(22.0771 15.2699) scale(3.23879 3.23879)">
<stop stop-color="#B0F5FF"/>
<stop offset="0.93" stop-color="#63BBFF"/>
</radialGradient>
<radialGradient id="paint15_radial_9_3359" cx="0" cy="0" r="1" gradientUnits="userSpaceOnUse" gradientTransform="translate(10.7865 34.0051) scale(4.50259)">
<stop stop-color="#B0F5FF"/>
<stop offset="0.93" stop-color="#63BBFF"/>
</radialGradient>
<radialGradient id="paint16_radial_9_3359" cx="0" cy="0" r="1" gradientUnits="userSpaceOnUse" gradientTransform="translate(8.04532 6.99151) scale(4.50259)">
<stop stop-color="#B0F5FF"/>
<stop offset="0.93" stop-color="#63BBFF"/>
</radialGradient>
<radialGradient id="paint17_radial_9_3359" cx="0" cy="0" r="1" gradientUnits="userSpaceOnUse" gradientTransform="translate(27.0385 2.80094) scale(4.07069)">
<stop stop-color="#B0F5FF"/>
<stop offset="0.93" stop-color="#63BBFF"/>
</radialGradient>
<radialGradient id="paint18_radial_9_3359" cx="0" cy="0" r="1" gradientUnits="userSpaceOnUse" gradientTransform="translate(24.0474 23.4103) scale(43.0483 43.0483)">
<stop offset="0.53" stop-color="white"/>
<stop offset="0.66" stop-color="#C2E8FF"/>
<stop offset="0.95" stop-color="#2CAFFF"/>
<stop offset="1" stop-color="#12A5FF"/>
</radialGradient>
<clipPath id="clip0_9_3359">
<rect width="50" height="50" fill="white"/>
</clipPath>
</defs>
</svg>
