<svg width="273" height="86" viewBox="0 0 273 86" fill="none" xmlns="http://www.w3.org/2000/svg">
<g clip-path="url(#clip0_10_3994)">
<path fill-rule="evenodd" clip-rule="evenodd" d="M136.18 86C105.31 86.01 74.47 85.59 43.54 84.7C32.48 84.38 22.1 80.05 14.31 73.07C6.46002 66.02 1.09002 56.21 0.140019 45.1C-0.819981 33.83 3.07002 23.77 9.91002 16.2C15.95 9.51004 24.7 6.25004 34.3 4.59004C62.45 -0.279958 102.48 0.310042 136.18 0.310042C169.88 0.310042 209.91 -0.279958 238.06 4.60004C247.67 6.26004 256.42 9.53004 262.45 16.21C269.28 23.78 273.17 33.84 272.22 45.11C271.28 56.22 265.9 66.03 258.05 73.08C250.27 80.06 239.89 84.39 228.82 84.71C197.89 85.6 167.05 86.02 136.18 86.01V86Z" fill="url(#paint0_radial_10_3994)"/>
<path style="mix-blend-mode:screen" fill-rule="evenodd" clip-rule="evenodd" d="M5.76005 24.3301C2.21005 30.6301 0.850052 42.4801 3.27005 51.1201C6.90005 64.0901 15.3701 63.1201 24.9801 59.8901C37.1401 55.8001 49.2601 50.8601 61.7001 47.4801C105.93 35.4501 176.63 23.5901 232.16 21.0001C245.16 20.3901 260.94 22.9201 247.51 11.2101C238.46 3.32011 221.05 3.53011 209.18 2.76011C163.56 -0.219895 86.8401 -2.13989 42.5901 4.34011C25.6301 6.82011 13.7101 10.2501 5.76005 24.3301Z" fill="url(#paint1_radial_10_3994)"/>
<path style="mix-blend-mode:screen" fill-rule="evenodd" clip-rule="evenodd" d="M36.4698 8.11005C30.4198 8.11005 22.2598 10.88 17.7798 14.91C17.0798 15.54 16.3898 16.21 15.7998 16.94C13.6998 19.57 14.8698 21.53 17.7798 20.08C26.8498 15.55 30.6598 14.04 36.9598 12.89C37.9398 12.71 38.9798 12.54 40.0998 12.37C43.5298 11.85 43.0498 8.12005 36.4698 8.12005V8.11005ZM49.6798 6.21005C42.5198 6.87005 45.0398 10.62 48.0798 10.51C96.3298 8.69005 162.62 7.78005 178.27 7.70005C179.72 7.70005 183.2 7.11005 183.04 5.84005C182.92 4.86005 180.16 3.92005 178.18 3.83005C140.42 2.24005 79.3798 3.47005 49.6698 6.21005H49.6798Z" fill="url(#paint2_radial_10_3994)"/>
<path style="mix-blend-mode:multiply" opacity="0.75" fill-rule="evenodd" clip-rule="evenodd" d="M260.65 37.3901C259.15 53.0901 248.05 70.3001 233.58 75.1101C203.35 85.1501 101.22 82.7801 64.1698 80.2001C33.7298 78.0701 17.9498 77.6401 4.33984 60.0301C6.80984 64.9901 10.2298 69.4101 14.3198 73.0801C22.0998 80.0601 32.4798 84.3901 43.5498 84.7101C74.4798 85.6001 105.32 86.0201 136.19 86.0101C167.06 86.0201 197.9 85.6001 228.83 84.7101C239.89 84.3901 250.27 80.0601 258.06 73.0801C265.91 66.0301 271.29 56.2201 272.23 45.1101C273.19 33.8401 269.3 23.7801 262.46 16.2101C256.42 9.52007 247.67 6.26007 238.07 4.60007C237.51 4.50007 236.95 4.41007 236.38 4.32007C250.24 8.93007 262.57 17.3101 260.65 37.4001V37.3901Z" fill="url(#paint3_radial_10_3994)"/>
<path style="mix-blend-mode:screen" fill-rule="evenodd" clip-rule="evenodd" d="M160.56 75.95C159.33 76.05 157.67 78.52 160.92 78.56C178.69 78.77 211.35 79.88 233.43 77.82C250.97 76.19 267.28 62.21 264.02 43.41C263.17 38.52 262.01 44.02 261.57 45.72C257.5 61.42 247.04 70.76 232.49 72.39C211.83 74.71 178.19 74.53 160.57 75.94L160.56 75.95Z" fill="url(#paint4_radial_10_3994)"/>
<path fill-rule="evenodd" clip-rule="evenodd" d="M136.18 71.0902C166.92 71.0902 197.66 70.6802 228.39 69.7902C235.62 69.5802 242.7 66.8002 248.09 61.9702C253.33 57.2702 256.76 50.8902 257.36 43.8402C257.92 37.2202 255.82 31.1102 251.38 26.2002C247.59 22.0002 240.88 20.2202 235.51 19.2902C225.98 17.6402 216.18 16.8102 206.53 16.2502C195.3 15.6002 184.04 15.3602 172.8 15.2602C160.59 15.1502 148.39 15.2202 136.18 15.2202C123.97 15.2202 111.77 15.1502 99.5598 15.2602C88.3198 15.3602 77.0498 15.6002 65.8298 16.2502C56.1798 16.8102 46.3798 17.6402 36.8498 19.2902C31.4898 20.2202 24.7798 22.0002 20.9798 26.2002C16.5498 31.1102 14.4398 37.2202 15.0098 43.8402C15.6098 50.8902 19.0398 57.2702 24.2798 61.9702C29.6698 66.8002 36.7498 69.5802 43.9798 69.7902C74.7098 70.6702 105.45 71.0902 136.19 71.0902H136.18Z" fill="url(#paint5_linear_10_3994)"/>
<path fill-rule="evenodd" clip-rule="evenodd" d="M136.18 69.1C166.9 69.1 197.63 68.69 228.34 67.81C235.1 67.62 241.73 65.01 246.76 60.5C251.62 56.14 254.82 50.23 255.37 43.69C255.88 37.63 253.97 32.06 249.9 27.55C246.47 23.75 240.05 22.11 235.17 21.27C225.67 19.63 216.03 18.81 206.41 18.26C183.06 16.92 159.55 17.23 136.17 17.23C123.97 17.23 111.77 17.16 99.5698 17.27C88.3498 17.37 77.1298 17.61 65.9398 18.25C56.3298 18.8 46.6798 19.62 37.1798 21.26C32.2998 22.1 25.8798 23.74 22.4498 27.54C18.3798 32.05 16.4698 37.62 16.9798 43.68C17.5398 50.22 20.7298 56.13 25.5898 60.49C30.6298 65.01 37.2598 67.61 44.0098 67.8C74.7198 68.68 105.44 69.09 136.17 69.09L136.18 69.1Z" fill="#F7B04B"/>
<path style="mix-blend-mode:screen" fill-rule="evenodd" clip-rule="evenodd" d="M194.54 13.67C190.46 13.28 185.7 12.93 180.42 12.61C136.89 10 57.71 10.05 27.45 18.14C20 20.13 14.42 26.59 12.76 33.92C12.55 34.84 12.32 36.22 13.11 36.73C13.74 37.13 14.43 35.85 14.69 35.15C16.66 29.89 18.88 23.93 28.28 20.42C52 11.57 151.73 13.92 180.51 14.37C185.17 14.44 189.82 14.79 194.47 14.88C195.98 14.91 196.86 14.85 196.91 14.62C196.98 14.3 195.69 13.77 194.54 13.66V13.67ZM12.64 39.23C12.01 39.11 11.58 40.14 11.49 40.77C11.21 42.76 11.35 44.8 11.85 46.93C12.33 49 13.36 51.64 14.27 52.88C14.95 53.8 16.39 54.2 15.9 52.59C15.47 51.19 14.58 49.36 14.05 46.48C13.74 44.82 13.47 42.74 13.48 41.2C13.48 40.45 13.39 39.36 12.65 39.22L12.64 39.23Z" fill="url(#paint6_linear_10_3994)"/>
<path style="mix-blend-mode:screen" fill-rule="evenodd" clip-rule="evenodd" d="M24.0298 27.61C14.5198 35.76 15.8698 52 31.0498 54.44C54.9898 58.3 231.12 47.99 229.67 28.8C229.1 21.2 179.7 19.17 164.85 18.54C141.85 17.56 36.7498 16.71 24.0298 27.61Z" fill="url(#paint7_radial_10_3994)"/>
<path style="mix-blend-mode:screen" fill-rule="evenodd" clip-rule="evenodd" d="M42.9702 23.56C33.7202 25.27 35.8902 29.56 39.8102 29.2C79.1702 25.54 123.72 24.3 162.57 22.41C163.98 22.34 167.06 22.01 166.43 20.97C166.16 20.53 164.1 20.23 160.99 20.03C133.58 18.29 66.5102 19.22 42.9702 23.57V23.56ZM31.9202 27.35C26.6602 27.17 20.9302 32.97 20.2602 38.4C20.1602 39.19 20.0702 40.18 20.6102 40.77C20.9902 41.18 21.9702 41.06 22.2802 40.6C26.0502 34.8 29.1402 33.26 34.2502 31.26C35.1502 30.91 36.0002 29.78 35.5202 28.94C34.8802 27.8 33.2302 27.41 31.9202 27.36V27.35Z" fill="url(#paint8_linear_10_3994)"/>
<path style="mix-blend-mode:screen" opacity="0.5" fill-rule="evenodd" clip-rule="evenodd" d="M248.79 50.3201C247.97 51.9501 246.75 53.4501 245.28 54.5301C235.6 61.6301 222.83 63.7501 211.17 64.7001C203.64 65.3201 196.09 65.6401 188.55 65.9301C177.68 66.3401 166.81 66.9601 155.93 66.8101C154.56 66.7901 152.03 66.2901 152.07 65.4101C152.11 64.4901 155.14 63.9101 156.81 63.6601C175.76 60.8101 194.89 59.2101 213.81 56.1201C226.36 54.0701 235.73 51.2901 245.38 47.1801C248.49 45.8501 249.88 48.1801 248.8 50.3401L248.79 50.3201Z" fill="url(#paint9_linear_10_3994)"/>
<g opacity="0.75">
<path style="mix-blend-mode:screen" fill-rule="evenodd" clip-rule="evenodd" d="M52.7904 78.1201C53.7804 78.1201 54.8804 79.0001 54.8804 80.0001C54.8804 81.0001 53.9204 81.8001 52.9304 81.8001C51.9404 81.8001 51.0704 80.9601 51.1304 80.0001C51.1904 79.0401 51.8004 78.1201 52.7904 78.1201ZM52.7104 78.2401C53.5304 78.2401 54.4404 78.9701 54.4404 79.7901C54.4404 80.6101 53.6504 81.2801 52.8304 81.2801C52.0104 81.2801 51.2904 80.5901 51.3404 79.7901C51.3904 78.9901 51.8904 78.2401 52.7204 78.2401H52.7104ZM53.1204 78.5901C53.4104 78.8801 53.2604 79.3201 52.8604 79.7201C52.4604 80.1201 51.9804 80.3101 51.6904 80.0201C51.4004 79.7301 51.4904 79.1001 51.8904 78.7101C52.2804 78.3201 52.8304 78.3001 53.1204 78.5901ZM54.2004 79.5201C54.3404 79.5501 54.4104 80.2101 53.9704 80.6901C53.5304 81.1701 52.8404 81.1701 52.8204 80.9801C52.8004 80.7901 53.3304 80.8201 53.7104 80.4401C54.0904 80.0601 54.0604 79.4901 54.2004 79.5201Z" fill="url(#paint10_radial_10_3994)"/>
<path style="mix-blend-mode:screen" opacity="0.7" fill-rule="evenodd" clip-rule="evenodd" d="M67.7702 4.74023C69.0702 4.74023 70.5002 5.89023 70.5002 7.19023C70.5002 8.49023 69.2502 9.54023 67.9502 9.54023C66.6502 9.54023 65.5202 8.45023 65.6002 7.19023C65.6802 5.93023 66.4802 4.74023 67.7802 4.74023H67.7702ZM67.6602 4.90023C68.7302 4.90023 69.9202 5.85023 69.9202 6.93023C69.9202 8.01023 68.8902 8.88023 67.8102 8.88023C66.7302 8.88023 65.8002 7.98023 65.8602 6.93023C65.9302 5.89023 66.5802 4.90023 67.6602 4.90023ZM68.2002 5.35023C68.5802 5.73023 68.3802 6.31023 67.8702 6.83023C67.3602 7.35023 66.7202 7.61023 66.3302 7.22023C65.9502 6.84023 66.0702 6.02023 66.5902 5.51023C67.1102 4.99023 67.8202 4.97023 68.2002 5.35023ZM69.6202 6.56023C69.8102 6.60023 69.8902 7.46023 69.3202 8.09023C68.7502 8.72023 67.8402 8.71023 67.8202 8.47023C67.8002 8.23023 68.4802 8.26023 68.9802 7.76023C69.4802 7.26023 69.4402 6.52023 69.6202 6.56023Z" fill="url(#paint11_radial_10_3994)"/>
<path style="mix-blend-mode:screen" opacity="0.6" fill-rule="evenodd" clip-rule="evenodd" d="M9.55012 42.5603C11.1301 42.4703 12.3101 43.5103 12.3101 44.8603C12.3101 46.2103 10.9901 47.3403 9.57012 47.2703C8.16012 47.2003 7.06012 46.1803 7.13012 44.8303C7.20012 43.4803 7.97012 42.6503 9.54012 42.5503L9.55012 42.5603ZM9.33012 42.7703C10.6201 42.6903 11.5901 43.5503 11.5901 44.6603C11.5901 45.7703 10.5101 46.7003 9.35012 46.6403C8.19012 46.5803 7.29012 45.7403 7.35012 44.6403C7.41012 43.5403 8.04012 42.8503 9.33012 42.7703ZM9.77012 43.2003C10.1601 43.5903 9.96012 44.2703 9.43012 44.8003C8.90012 45.3303 8.23012 45.5303 7.84012 45.1303C7.45012 44.7403 7.59012 43.9603 7.98012 43.4903C8.38012 43.0203 9.38012 42.8003 9.77012 43.1903V43.2003ZM11.2701 44.1803C11.4701 44.2303 11.5601 45.1503 10.9401 45.8303C10.3201 46.5103 9.35012 46.5003 9.32012 46.2403C9.29012 45.9803 10.0401 46.0103 10.5801 45.4803C11.1201 44.9403 11.0701 44.1403 11.2701 44.1803Z" fill="url(#paint12_radial_10_3994)"/>
<path style="mix-blend-mode:screen" opacity="0.4" fill-rule="evenodd" clip-rule="evenodd" d="M34.87 70.3003C36.87 70.1803 38.38 71.5102 38.38 73.2202C38.38 74.9302 36.7 76.3802 34.9 76.2902C33.1 76.2002 31.71 74.9002 31.8 73.1902C31.89 71.4802 32.87 70.4103 34.87 70.3003ZM34.59 70.5702C36.23 70.4702 37.47 71.5602 37.47 72.9702C37.47 74.3802 36.09 75.5602 34.62 75.4902C33.14 75.4202 32.01 74.3502 32.08 72.9502C32.15 71.5502 32.95 70.6702 34.6 70.5802L34.59 70.5702ZM35.15 71.1203C35.65 71.6203 35.39 72.4803 34.71 73.1603C34.03 73.8403 33.19 74.0802 32.69 73.5802C32.19 73.0802 32.37 72.0902 32.87 71.5002C33.37 70.9102 34.65 70.6203 35.15 71.1203ZM37.06 72.3602C37.31 72.4202 37.43 73.5902 36.64 74.4602C35.85 75.3302 34.61 75.3203 34.58 74.9803C34.55 74.6503 35.49 74.6902 36.18 74.0102C36.86 73.3302 36.8 72.3002 37.06 72.3602Z" fill="url(#paint13_radial_10_3994)"/>
<path style="mix-blend-mode:screen" opacity="0.4" fill-rule="evenodd" clip-rule="evenodd" d="M13.1401 56.7902C14.8701 56.6902 16.1601 57.8402 16.1601 59.3102C16.1601 60.7802 14.7101 62.0302 13.1601 61.9602C11.6101 61.8802 10.4101 60.7602 10.4901 59.2902C10.5701 57.8102 11.4101 56.9002 13.1401 56.7902ZM12.9001 57.0202C14.3201 56.9402 15.3801 57.8802 15.3801 59.0902C15.3801 60.3002 14.1901 61.3202 12.9201 61.2602C11.6501 61.2002 10.6701 60.2802 10.7301 59.0702C10.7901 57.8602 11.4801 57.1102 12.9001 57.0202ZM13.3801 57.5002C13.8101 57.9302 13.5901 58.6702 13.0001 59.2602C12.4101 59.8502 11.6901 60.0602 11.2601 59.6202C10.8301 59.1902 10.9801 58.3402 11.4201 57.8302C11.8501 57.3202 12.9501 57.0702 13.3801 57.5002ZM15.0301 58.5702C15.2501 58.6202 15.3501 59.6302 14.6701 60.3802C13.9901 61.1302 12.9201 61.1202 12.8901 60.8302C12.8601 60.5402 13.6801 60.5802 14.2701 59.9902C14.8601 59.4002 14.8101 58.5202 15.0301 58.5702Z" fill="url(#paint14_radial_10_3994)"/>
<path style="mix-blend-mode:screen" opacity="0.4" fill-rule="evenodd" clip-rule="evenodd" d="M58.44 71.6002C59.57 71.5302 60.42 72.2902 60.42 73.2502C60.42 74.2102 59.47 75.0402 58.45 74.9902C57.43 74.9402 56.65 74.2102 56.7 73.2402C56.75 72.2702 57.3 71.6702 58.44 71.6002ZM58.28 71.7502C59.21 71.7002 59.91 72.3102 59.91 73.1102C59.91 73.9102 59.13 74.5702 58.3 74.5302C57.47 74.4902 56.82 73.8902 56.86 73.0902C56.9 72.3002 57.35 71.8002 58.28 71.7502ZM58.6 72.0602C58.88 72.3402 58.74 72.8302 58.35 73.2102C57.97 73.5902 57.49 73.7302 57.21 73.4502C56.93 73.1702 57.03 72.6102 57.31 72.2702C57.59 71.9402 58.31 71.7702 58.6 72.0502V72.0602ZM59.68 72.7602C59.82 72.7902 59.89 73.4602 59.44 73.9502C58.99 74.4402 58.29 74.4302 58.28 74.2502C58.27 74.0702 58.8 74.0902 59.18 73.7002C59.56 73.3102 59.53 72.7302 59.68 72.7702V72.7602Z" fill="url(#paint15_radial_10_3994)"/>
<path style="mix-blend-mode:screen" fill-rule="evenodd" clip-rule="evenodd" d="M44.0302 10.6503C45.2202 10.5803 46.1102 11.3703 46.1102 12.3803C46.1102 13.3903 45.1102 14.2503 44.0502 14.2003C42.9802 14.1503 42.1602 13.3803 42.2102 12.3603C42.2602 11.3503 42.8402 10.7103 44.0302 10.6503ZM43.8702 10.8103C44.8402 10.7503 45.5702 11.4003 45.5702 12.2303C45.5702 13.0603 44.7502 13.7603 43.8802 13.7203C43.0102 13.6803 42.3302 13.0503 42.3702 12.2103C42.4102 11.3703 42.8902 10.8603 43.8602 10.8003L43.8702 10.8103ZM44.2002 11.1403C44.5002 11.4403 44.3402 11.9403 43.9402 12.3503C43.5402 12.7603 43.0402 12.9003 42.7402 12.6003C42.4402 12.3003 42.5502 11.7203 42.8502 11.3703C43.1502 11.0203 43.9002 10.8503 44.2002 11.1403ZM45.3302 11.8703C45.4802 11.9003 45.5502 12.6003 45.0802 13.1103C44.6102 13.6203 43.8802 13.6203 43.8602 13.4203C43.8402 13.2203 44.4002 13.2503 44.8102 12.8403C45.2202 12.4403 45.1802 11.8303 45.3302 11.8603V11.8703Z" fill="url(#paint16_radial_10_3994)"/>
<path style="mix-blend-mode:screen" opacity="0.4" fill-rule="evenodd" clip-rule="evenodd" d="M11.3103 20.7002C12.4803 20.6302 13.3603 21.4102 13.3603 22.4102C13.3603 23.4102 12.3803 24.2502 11.3303 24.2002C10.2803 24.1502 9.47026 23.3902 9.52026 22.3902C9.57026 21.3902 10.1403 20.7702 11.3103 20.7002ZM11.1503 20.8602C12.1103 20.8002 12.8303 21.4402 12.8303 22.2602C12.8303 23.0802 12.0303 23.7702 11.1703 23.7302C10.3103 23.6902 9.65026 23.0702 9.69026 22.2502C9.73026 21.4302 10.2003 20.9202 11.1603 20.8702L11.1503 20.8602ZM11.4803 21.1802C11.7703 21.4702 11.6203 21.9702 11.2303 22.3702C10.8303 22.7702 10.3403 22.9102 10.0503 22.6202C9.76026 22.3302 9.86026 21.7502 10.1603 21.4102C10.4503 21.0602 11.2003 20.9002 11.4903 21.1902L11.4803 21.1802ZM12.6003 21.9002C12.7503 21.9302 12.8203 22.6202 12.3603 23.1202C11.9003 23.6302 11.1803 23.6202 11.1603 23.4202C11.1403 23.2302 11.6903 23.2502 12.0903 22.8502C12.4903 22.4502 12.4503 21.8502 12.6003 21.8902V21.9002Z" fill="url(#paint17_radial_10_3994)"/>
<path style="mix-blend-mode:screen" opacity="0.6" fill-rule="evenodd" clip-rule="evenodd" d="M21.6102 64.4601C23.2602 64.4901 24.7702 66.0901 24.7702 67.9101C24.7702 69.7301 23.5502 70.5201 21.7302 70.5201C19.9102 70.5201 18.4502 69.7701 18.4502 67.9401C18.4502 66.1101 19.9602 64.4301 21.6102 64.4601ZM21.3602 64.7601C22.7302 64.7801 23.9802 66.1101 23.9802 67.6201C23.9802 69.1301 22.9702 69.7801 21.4602 69.7801C19.9502 69.7801 18.7402 69.1601 18.7402 67.6501C18.7402 66.1401 19.9902 64.7401 21.3602 64.7601ZM22.0002 65.2901C22.5102 65.8001 22.3002 66.8201 21.6202 67.5101C20.9302 68.2001 19.9802 68.3401 19.4702 67.8401C18.9602 67.3401 19.1402 66.2801 19.8302 65.5901C20.5202 64.9001 21.5002 64.7801 22.0102 65.2901H22.0002ZM23.4902 66.7901C23.7302 66.8501 24.0202 68.1001 23.2702 68.9201C22.5202 69.7401 21.1702 69.5901 21.1402 69.2801C21.1102 68.9601 22.1902 69.1501 22.8302 68.5001C23.4802 67.8501 23.2402 66.7401 23.4802 66.8001L23.4902 66.7901Z" fill="url(#paint18_radial_10_3994)"/>
<path style="mix-blend-mode:screen" fill-rule="evenodd" clip-rule="evenodd" d="M5.58023 28.6302C6.80023 28.6502 7.93023 29.8402 7.93023 31.1902C7.93023 32.5402 7.03023 33.1202 5.67023 33.1202C4.31023 33.1202 3.24023 32.5602 3.24023 31.2102C3.24023 29.8602 4.36023 28.6002 5.58023 28.6302ZM5.40023 28.8502C6.42023 28.8702 7.34023 29.8502 7.34023 30.9702C7.34023 32.0902 6.59023 32.5702 5.47023 32.5702C4.35023 32.5702 3.45023 32.1102 3.45023 30.9902C3.45023 29.8702 4.38023 28.8302 5.39023 28.8502H5.40023ZM5.87023 29.2402C6.25023 29.6202 6.09023 30.3802 5.58023 30.8902C5.07023 31.4002 4.36023 31.5102 3.99023 31.1302C3.61023 30.7502 3.74023 29.9702 4.25023 29.4602C4.76023 28.9502 5.49023 28.8602 5.86023 29.2402H5.87023ZM6.97023 30.3502C7.15023 30.3902 7.36023 31.3202 6.81023 31.9302C6.26023 32.5402 5.25023 32.4302 5.23023 32.1902C5.21023 31.9602 6.01023 32.0902 6.49023 31.6102C6.97023 31.1302 6.80023 30.3102 6.98023 30.3502H6.97023Z" fill="url(#paint19_radial_10_3994)"/>
<path style="mix-blend-mode:screen" opacity="0.7" fill-rule="evenodd" clip-rule="evenodd" d="M151.57 4.48022C152.87 4.48022 154.3 5.63022 154.3 6.93022C154.3 8.23022 153.05 9.28022 151.75 9.28022C150.45 9.28022 149.32 8.19022 149.4 6.93022C149.48 5.67022 150.28 4.48022 151.58 4.48022H151.57ZM151.46 4.64022C152.54 4.64022 153.72 5.59022 153.72 6.67022C153.72 7.75022 152.69 8.62022 151.61 8.62022C150.53 8.62022 149.6 7.72022 149.66 6.67022C149.73 5.63022 150.38 4.64022 151.46 4.64022ZM152 5.09022C152.38 5.47022 152.18 6.05022 151.66 6.57022C151.14 7.09022 150.51 7.35022 150.12 6.96022C149.73 6.57022 149.86 5.76022 150.38 5.25022C150.9 4.73022 151.61 4.71022 151.99 5.09022H152ZM153.42 6.30022C153.61 6.34022 153.69 7.20022 153.12 7.83022C152.55 8.46022 151.64 8.45022 151.62 8.21022C151.6 7.97022 152.28 8.00022 152.78 7.50022C153.28 7.00022 153.24 6.26022 153.42 6.30022Z" fill="url(#paint20_radial_10_3994)"/>
<path style="mix-blend-mode:screen" opacity="0.4" fill-rule="evenodd" clip-rule="evenodd" d="M90.8901 68.6501C92.8901 68.5301 94.4001 69.8601 94.4001 71.5701C94.4001 73.2801 92.7201 74.7301 90.9201 74.6401C89.1201 74.5501 87.7301 73.2501 87.8201 71.5401C87.9101 69.8301 88.8901 68.7601 90.8901 68.6501ZM90.6101 68.9201C92.2501 68.8201 93.4901 69.9101 93.4901 71.3201C93.4901 72.7301 92.1101 73.9101 90.6401 73.8401C89.1601 73.7701 88.0301 72.7001 88.1001 71.3001C88.1701 69.9001 88.9701 69.0201 90.6201 68.9301L90.6101 68.9201ZM91.1701 69.4701C91.6701 69.9701 91.4101 70.8301 90.7301 71.5101C90.0501 72.1901 89.2101 72.4301 88.7101 71.9301C88.2101 71.4301 88.3901 70.4401 88.8901 69.8501C89.3901 69.2601 90.6701 68.9701 91.1701 69.4701ZM93.0801 70.7101C93.3401 70.7701 93.4501 71.9401 92.6601 72.8101C91.8701 73.6801 90.6301 73.6701 90.6001 73.3301C90.5701 73.0001 91.5101 73.0401 92.2001 72.3601C92.8901 71.6801 92.8301 70.6501 93.0801 70.7101Z" fill="url(#paint21_radial_10_3994)"/>
<path style="mix-blend-mode:screen" opacity="0.4" fill-rule="evenodd" clip-rule="evenodd" d="M134.67 73.3001C135.8 73.2301 136.65 73.9901 136.65 74.9501C136.65 75.9101 135.7 76.7401 134.68 76.6901C133.66 76.6401 132.88 75.9101 132.93 74.9401C132.98 73.9701 133.53 73.3701 134.67 73.3001ZM134.51 73.4501C135.44 73.4001 136.14 74.0101 136.14 74.8101C136.14 75.6101 135.36 76.2701 134.53 76.2301C133.7 76.1901 133.05 75.5901 133.09 74.7901C133.13 73.9901 133.58 73.5001 134.51 73.4501ZM134.83 73.7601C135.11 74.0401 134.97 74.5301 134.58 74.9101C134.2 75.2901 133.72 75.4301 133.44 75.1501C133.16 74.8701 133.26 74.3101 133.54 73.9701C133.83 73.6401 134.54 73.4701 134.83 73.7501V73.7601ZM135.91 74.4601C136.05 74.4901 136.12 75.1601 135.67 75.6501C135.22 76.1401 134.52 76.1301 134.51 75.9501C134.5 75.7701 135.03 75.7901 135.41 75.4001C135.8 75.0101 135.76 74.4301 135.91 74.4701V74.4601Z" fill="url(#paint22_radial_10_3994)"/>
<path style="mix-blend-mode:screen" fill-rule="evenodd" clip-rule="evenodd" d="M120.22 5.30031C121.86 5.20031 123.09 6.29031 123.09 7.69031C123.09 9.09031 121.72 10.2703 120.25 10.2003C118.78 10.1303 117.65 9.07031 117.72 7.67031C117.79 6.27031 118.59 5.40031 120.23 5.30031H120.22ZM119.99 5.52031C121.33 5.44031 122.34 6.33031 122.34 7.48031C122.34 8.63031 121.21 9.60031 120.01 9.54031C118.81 9.48031 117.87 8.61031 117.93 7.46031C117.99 6.31031 118.64 5.60031 119.99 5.52031ZM120.45 5.97031C120.86 6.38031 120.65 7.08031 120.09 7.64031C119.53 8.20031 118.85 8.40031 118.44 7.99031C118.03 7.58031 118.18 6.77031 118.59 6.29031C119 5.81031 120.04 5.57031 120.45 5.98031V5.97031ZM122.01 6.98031C122.22 7.03031 122.31 7.99031 121.67 8.70031C121.03 9.41031 120.01 9.40031 119.99 9.13031C119.97 8.86031 120.74 8.89031 121.29 8.34031C121.85 7.78031 121.8 6.94031 122.01 6.99031V6.98031Z" fill="url(#paint23_radial_10_3994)"/>
<path style="mix-blend-mode:screen" opacity="0.4" fill-rule="evenodd" clip-rule="evenodd" d="M194.55 70.8201C195.68 70.7501 196.53 71.5102 196.53 72.4702C196.53 73.4302 195.58 74.2601 194.56 74.2101C193.54 74.1601 192.76 73.4301 192.81 72.4601C192.86 71.4901 193.41 70.8901 194.55 70.8201ZM194.39 70.9702C195.32 70.9202 196.02 71.5302 196.02 72.3302C196.02 73.1302 195.24 73.7902 194.41 73.7502C193.58 73.7102 192.93 73.1101 192.97 72.3101C193.01 71.5101 193.46 71.0202 194.39 70.9702ZM194.71 71.2801C194.99 71.5601 194.85 72.0502 194.46 72.4302C194.08 72.8102 193.6 72.9501 193.32 72.6701C193.04 72.3901 193.14 71.8301 193.42 71.4901C193.71 71.1601 194.42 70.9901 194.71 71.2701V71.2801ZM195.79 71.9802C195.93 72.0102 196 72.6801 195.55 73.1701C195.1 73.6601 194.4 73.6502 194.39 73.4702C194.38 73.2902 194.91 73.3101 195.29 72.9201C195.67 72.5301 195.64 71.9501 195.79 71.9901V71.9802Z" fill="url(#paint24_radial_10_3994)"/>
<path style="mix-blend-mode:screen" fill-rule="evenodd" clip-rule="evenodd" d="M178.69 7.34012C179.91 7.36012 181.04 8.55012 181.04 9.90012C181.04 11.2501 180.14 11.8301 178.78 11.8301C177.42 11.8301 176.35 11.2701 176.35 9.92012C176.35 8.57012 177.47 7.31012 178.69 7.34012ZM178.51 7.56012C179.53 7.58012 180.45 8.56012 180.45 9.68012C180.45 10.8001 179.7 11.2801 178.58 11.2801C177.46 11.2801 176.56 10.8201 176.56 9.70012C176.56 8.58012 177.49 7.54012 178.5 7.56012H178.51ZM178.98 7.95012C179.36 8.33012 179.2 9.09013 178.69 9.60013C178.18 10.1101 177.47 10.2201 177.1 9.84012C176.73 9.46012 176.85 8.68012 177.36 8.17012C177.87 7.66012 178.6 7.57012 178.97 7.95012H178.98ZM180.08 9.06012C180.26 9.10012 180.47 10.0301 179.92 10.6401C179.37 11.2501 178.36 11.1401 178.34 10.9001C178.32 10.6701 179.12 10.8001 179.6 10.3201C180.08 9.84012 179.91 9.02013 180.09 9.06012H180.08Z" fill="url(#paint25_radial_10_3994)"/>
<path style="mix-blend-mode:screen" fill-rule="evenodd" clip-rule="evenodd" d="M202.8 4.70021C203.91 4.72021 204.92 5.79021 204.92 7.02021C204.92 8.25021 204.1 8.77021 202.88 8.77021C201.66 8.77021 200.68 8.27021 200.68 7.04021C200.68 5.81021 201.69 4.68021 202.8 4.70021ZM202.63 4.90021C203.55 4.92021 204.39 5.80021 204.39 6.82021C204.39 7.84021 203.71 8.27021 202.7 8.27021C201.69 8.27021 200.88 7.85021 200.88 6.84021C200.88 5.83021 201.72 4.89021 202.64 4.90021H202.63ZM203.06 5.25021C203.4 5.59021 203.26 6.28021 202.8 6.74021C202.34 7.20021 201.7 7.30021 201.36 6.96021C201.02 6.62021 201.14 5.91021 201.6 5.45021C202.06 4.99021 202.72 4.91021 203.06 5.25021ZM204.06 6.26021C204.22 6.30021 204.42 7.14021 203.92 7.69021C203.42 8.24021 202.51 8.14021 202.49 7.93021C202.47 7.72021 203.19 7.84021 203.63 7.41021C204.06 6.97021 203.91 6.23021 204.07 6.27021L204.06 6.26021Z" fill="url(#paint26_radial_10_3994)"/>
<path style="mix-blend-mode:screen" opacity="0.7" fill-rule="evenodd" clip-rule="evenodd" d="M263.78 34.2002C264.67 34.2002 265.65 34.9902 265.65 35.8802C265.65 36.7702 264.79 37.5002 263.9 37.5002C263.01 37.5002 262.23 36.7502 262.28 35.8802C262.33 35.0102 262.88 34.2002 263.77 34.2002H263.78ZM263.7 34.3102C264.44 34.3102 265.25 34.9602 265.25 35.7002C265.25 36.4402 264.54 37.0402 263.8 37.0402C263.06 37.0402 262.42 36.4202 262.46 35.7002C262.5 34.9802 262.96 34.3102 263.69 34.3102H263.7ZM264.07 34.6202C264.33 34.8802 264.19 35.2802 263.84 35.6302C263.49 35.9802 263.05 36.1602 262.79 35.9002C262.53 35.6402 262.61 35.0802 262.97 34.7202C263.32 34.3702 263.82 34.3502 264.08 34.6102L264.07 34.6202ZM265.04 35.4502C265.17 35.4802 265.23 36.0702 264.83 36.5002C264.43 36.9302 263.82 36.9302 263.8 36.7602C263.78 36.5902 264.26 36.6202 264.6 36.2702C264.94 35.9302 264.91 35.4202 265.04 35.4502Z" fill="url(#paint27_radial_10_3994)"/>
<path style="mix-blend-mode:screen" fill-rule="evenodd" clip-rule="evenodd" d="M256.69 20.4001C258.42 20.4001 260.32 21.9301 260.32 23.6601C260.32 25.3901 258.66 26.7901 256.93 26.7901C255.2 26.7901 253.7 25.3401 253.8 23.6601C253.91 21.9801 254.96 20.4001 256.69 20.4001ZM256.54 20.6101C257.97 20.6101 259.54 21.8801 259.54 23.3001C259.54 24.7201 258.16 25.8901 256.74 25.8901C255.32 25.8901 254.07 24.6901 254.15 23.3001C254.23 21.9101 255.11 20.6101 256.54 20.6101ZM257.25 21.2101C257.76 21.7201 257.49 22.4801 256.8 23.1701C256.11 23.8601 255.27 24.2001 254.76 23.6901C254.25 23.1801 254.41 22.1001 255.1 21.4101C255.79 20.7201 256.74 20.7001 257.25 21.2001V21.2101ZM259.13 22.8201C259.38 22.8801 259.49 24.0101 258.73 24.8501C257.97 25.6901 256.77 25.6801 256.74 25.3601C256.71 25.0401 257.62 25.0801 258.29 24.4201C258.95 23.7601 258.9 22.7701 259.14 22.8201H259.13Z" fill="url(#paint28_radial_10_3994)"/>
<path style="mix-blend-mode:screen" fill-rule="evenodd" clip-rule="evenodd" d="M227.86 6.27029C229.5 6.17029 230.73 7.26029 230.73 8.66029C230.73 10.0603 229.36 11.2403 227.89 11.1703C226.42 11.1003 225.29 10.0403 225.36 8.64029C225.43 7.24029 226.23 6.37029 227.87 6.27029H227.86ZM227.63 6.49029C228.97 6.41029 229.98 7.30029 229.98 8.45029C229.98 9.60029 228.85 10.5703 227.65 10.5103C226.45 10.4503 225.51 9.58029 225.57 8.43029C225.63 7.28029 226.28 6.57029 227.63 6.49029ZM228.09 6.94029C228.5 7.35029 228.29 8.05029 227.73 8.61029C227.17 9.17028 226.49 9.36029 226.08 8.96029C225.67 8.55029 225.82 7.74029 226.23 7.26029C226.64 6.78029 227.68 6.54029 228.09 6.95029V6.94029ZM229.65 7.95029C229.86 8.00029 229.95 8.96029 229.31 9.67029C228.67 10.3803 227.65 10.3703 227.63 10.1003C227.6 9.83029 228.38 9.86029 228.93 9.31029C229.49 8.75029 229.44 7.91029 229.65 7.96029V7.95029Z" fill="url(#paint29_radial_10_3994)"/>
<path style="mix-blend-mode:screen" fill-rule="evenodd" clip-rule="evenodd" d="M248.41 12.2603C249.43 12.2803 250.37 13.2703 250.37 14.4003C250.37 15.5303 249.62 16.0203 248.48 16.0203C247.34 16.0203 246.45 15.5603 246.45 14.4203C246.45 13.2803 247.39 12.2403 248.41 12.2603ZM248.26 12.4403C249.11 12.4603 249.88 13.2803 249.88 14.2103C249.88 15.1403 249.25 15.5503 248.32 15.5503C247.39 15.5503 246.64 15.1703 246.64 14.2303C246.64 13.2903 247.42 12.4303 248.26 12.4403ZM248.65 12.7703C248.96 13.0803 248.84 13.7203 248.41 14.1503C247.98 14.5803 247.39 14.6703 247.08 14.3503C246.77 14.0403 246.87 13.3803 247.3 12.9603C247.73 12.5303 248.33 12.4603 248.65 12.7703ZM249.57 13.7003C249.72 13.7303 249.9 14.5103 249.44 15.0203C248.98 15.5303 248.14 15.4403 248.12 15.2403C248.1 15.0403 248.77 15.1603 249.17 14.7503C249.57 14.3503 249.43 13.6603 249.58 13.6903L249.57 13.7003Z" fill="url(#paint30_radial_10_3994)"/>
</g>
<g filter="url(#filter0_d_10_3994)">
<path d="M100.631 54C99.4786 54 98.9026 53.52 98.9026 52.56V30.24C98.9026 29.28 99.4786 28.8 100.631 28.8H106.319C108.935 28.8 110.843 29.424 112.043 30.672C113.243 31.92 113.843 33.612 113.843 35.748C113.843 36.972 113.543 38.028 112.943 38.916C112.343 39.804 111.575 40.44 110.639 40.824L110.675 40.968C111.851 41.304 112.787 42.012 113.483 43.092C114.203 44.148 114.563 45.432 114.563 46.944C114.563 49.104 113.879 50.82 112.511 52.092C111.143 53.364 109.079 54 106.319 54H100.631ZM104.663 38.7H106.319C106.991 38.7 107.483 38.52 107.795 38.16C108.107 37.8 108.263 37.212 108.263 36.396C108.263 35.628 108.107 35.076 107.795 34.74C107.483 34.38 106.991 34.2 106.319 34.2H104.663V38.7ZM104.663 48.6H106.319C107.111 48.6 107.675 48.408 108.011 48.024C108.371 47.616 108.551 46.968 108.551 46.08C108.551 45.168 108.371 44.508 108.011 44.1C107.675 43.692 107.111 43.488 106.319 43.488H104.663V48.6ZM120.237 54.288C118.581 54.288 117.321 53.772 116.457 52.74C115.617 51.684 115.197 50.28 115.197 48.528C115.197 47.856 115.293 47.136 115.485 46.368C115.677 45.6 116.073 44.88 116.673 44.208C117.273 43.536 118.161 42.984 119.337 42.552C120.537 42.12 122.121 41.904 124.089 41.904V41.256C124.089 40.08 123.429 39.492 122.109 39.492C121.293 39.492 120.549 39.576 119.877 39.744C119.205 39.888 118.629 40.044 118.149 40.212C117.669 40.38 117.321 40.464 117.105 40.464C116.841 40.464 116.625 40.248 116.457 39.816C116.289 39.384 116.157 38.904 116.061 38.376C115.989 37.848 115.953 37.428 115.953 37.116C115.953 36.828 116.169 36.552 116.601 36.288C117.033 36.024 117.585 35.784 118.257 35.568C118.929 35.352 119.637 35.184 120.381 35.064C121.125 34.944 121.833 34.884 122.505 34.884C124.401 34.884 125.889 35.148 126.969 35.676C128.073 36.204 128.841 36.936 129.273 37.872C129.729 38.808 129.957 39.888 129.957 41.112V47.808C129.957 48.912 129.981 49.764 130.029 50.364C130.101 50.964 130.161 51.432 130.209 51.768C130.281 52.08 130.317 52.368 130.317 52.632C130.317 52.92 130.161 53.16 129.849 53.352C129.561 53.52 129.189 53.664 128.733 53.784C128.277 53.88 127.821 53.952 127.365 54C126.909 54.024 126.537 54.036 126.249 54.036C125.625 54.036 125.229 53.904 125.061 53.64C124.893 53.376 124.749 52.848 124.629 52.056C124.317 52.488 123.801 52.968 123.081 53.496C122.361 54.024 121.413 54.288 120.237 54.288ZM122.541 49.86C123.285 49.86 123.801 49.62 124.089 49.14V45.216C122.985 45.216 122.181 45.444 121.677 45.9C121.197 46.356 120.957 46.992 120.957 47.808C120.957 49.176 121.485 49.86 122.541 49.86ZM134.884 54.072C133.996 54.072 133.36 53.964 132.976 53.748C132.592 53.508 132.4 53.16 132.4 52.704V36.468C132.4 36.012 132.592 35.676 132.976 35.46C133.36 35.22 133.996 35.1 134.884 35.1H135.748C136.636 35.1 137.272 35.22 137.656 35.46C138.04 35.676 138.232 36.012 138.232 36.468V52.704C138.232 53.16 138.04 53.508 137.656 53.748C137.272 53.964 136.636 54.072 135.748 54.072H134.884ZM135.352 33.336C134.272 33.336 133.492 33.228 133.012 33.012C132.532 32.772 132.292 32.436 132.292 32.004V29.556C132.292 29.124 132.532 28.8 133.012 28.584C133.492 28.344 134.272 28.224 135.352 28.224C136.408 28.224 137.176 28.344 137.656 28.584C138.16 28.8 138.412 29.124 138.412 29.556V32.004C138.412 32.436 138.16 32.772 137.656 33.012C137.176 33.228 136.408 33.336 135.352 33.336ZM146.889 61.632C144.609 61.632 142.821 61.212 141.525 60.372C140.253 59.556 139.617 58.38 139.617 56.844C139.617 54.9 140.589 53.484 142.533 52.596V52.488C141.981 52.2 141.561 51.816 141.273 51.336C141.009 50.832 140.877 50.28 140.877 49.68C140.877 49.008 141.057 48.396 141.417 47.844C141.801 47.268 142.329 46.8 143.001 46.44C142.065 46.008 141.333 45.36 140.805 44.496C140.277 43.632 140.013 42.576 140.013 41.328C140.013 39.216 140.649 37.62 141.921 36.54C143.193 35.436 144.873 34.884 146.961 34.884C147.369 34.884 147.765 34.908 148.149 34.956C148.533 34.98 148.917 35.028 149.301 35.1L154.161 34.812C154.617 34.788 154.929 34.896 155.097 35.136C155.265 35.376 155.349 35.832 155.349 36.504V37.368C155.349 38.424 155.049 38.952 154.449 38.952C154.041 38.952 153.465 38.784 152.721 38.448L152.649 38.592C153.033 38.88 153.321 39.276 153.513 39.78C153.729 40.284 153.837 40.836 153.837 41.436C153.837 43.332 153.225 44.772 152.001 45.756C150.801 46.74 149.265 47.244 147.393 47.268C146.721 47.268 146.265 47.364 146.025 47.556C145.785 47.748 145.665 48.012 145.665 48.348C145.665 48.756 145.869 49.056 146.277 49.248C146.709 49.44 147.249 49.596 147.897 49.716C148.545 49.836 149.241 49.98 149.985 50.148C150.825 50.34 151.617 50.628 152.361 51.012C153.105 51.396 153.705 51.96 154.161 52.704C154.617 53.424 154.845 54.396 154.845 55.62C154.845 57.492 154.137 58.956 152.721 60.012C151.305 61.092 149.361 61.632 146.889 61.632ZM146.889 43.596C147.417 43.596 147.873 43.44 148.257 43.128C148.665 42.792 148.869 42.12 148.869 41.112C148.869 40.104 148.665 39.432 148.257 39.096C147.873 38.76 147.417 38.592 146.889 38.592C146.361 38.592 145.905 38.76 145.521 39.096C145.137 39.432 144.945 40.104 144.945 41.112C144.945 42.072 145.137 42.732 145.521 43.092C145.905 43.428 146.361 43.596 146.889 43.596ZM147.357 57.636C148.221 57.636 148.869 57.48 149.301 57.168C149.733 56.88 149.949 56.472 149.949 55.944C149.949 55.2 149.577 54.72 148.833 54.504C148.113 54.288 147.117 54.084 145.845 53.892C145.053 54.396 144.657 55.068 144.657 55.908C144.657 56.508 144.897 56.94 145.377 57.204C145.881 57.492 146.541 57.636 147.357 57.636ZM161.493 54.288C159.933 54.288 158.721 53.808 157.857 52.848C157.017 51.864 156.597 50.472 156.597 48.672V40.176H155.913C155.073 40.176 154.653 39.504 154.653 38.16V37.152C154.653 35.832 155.073 35.172 155.913 35.172H156.597L157.281 31.896C157.377 31.44 157.581 31.116 157.893 30.924C158.229 30.708 158.733 30.6 159.405 30.6H160.269C161.733 30.6 162.465 31.044 162.465 31.932V35.172H163.797C164.637 35.172 165.057 35.832 165.057 37.152V38.16C165.057 39.504 164.637 40.176 163.797 40.176H162.465V48.06C162.465 48.54 162.525 48.9 162.645 49.14C162.765 49.38 163.005 49.5 163.365 49.5C163.605 49.5 163.797 49.476 163.941 49.428C164.109 49.356 164.265 49.32 164.409 49.32C164.625 49.32 164.817 49.524 164.985 49.932C165.153 50.34 165.285 50.784 165.381 51.264C165.477 51.744 165.525 52.104 165.525 52.344C165.525 52.8 165.129 53.244 164.337 53.676C163.569 54.084 162.621 54.288 161.493 54.288ZM169.021 54.072C168.133 54.072 167.497 53.964 167.113 53.748C166.729 53.508 166.537 53.16 166.537 52.704V36.468C166.537 36.012 166.729 35.676 167.113 35.46C167.497 35.22 168.133 35.1 169.021 35.1H169.885C170.773 35.1 171.409 35.22 171.793 35.46C172.177 35.676 172.369 36.012 172.369 36.468V52.704C172.369 53.16 172.177 53.508 171.793 53.748C171.409 53.964 170.773 54.072 169.885 54.072H169.021ZM169.489 33.336C168.409 33.336 167.629 33.228 167.149 33.012C166.669 32.772 166.429 32.436 166.429 32.004V29.556C166.429 29.124 166.669 28.8 167.149 28.584C167.629 28.344 168.409 28.224 169.489 28.224C170.545 28.224 171.313 28.344 171.793 28.584C172.297 28.8 172.549 29.124 172.549 29.556V32.004C172.549 32.436 172.297 32.772 171.793 33.012C171.313 33.228 170.545 33.336 169.489 33.336Z" fill="white"/>
</g>
</g>
<defs>
<filter id="filter0_d_10_3994" x="90.9028" y="22.2241" width="93.6455" height="53.408" filterUnits="userSpaceOnUse" color-interpolation-filters="sRGB">
<feFlood flood-opacity="0" result="BackgroundImageFix"/>
<feColorMatrix in="SourceAlpha" type="matrix" values="0 0 0 0 0 0 0 0 0 0 0 0 0 0 0 0 0 0 127 0" result="hardAlpha"/>
<feOffset dx="2" dy="4"/>
<feGaussianBlur stdDeviation="5"/>
<feComposite in2="hardAlpha" operator="out"/>
<feColorMatrix type="matrix" values="0 0 0 0 0.120921 0 0 0 0 0.21252 0 0 0 0 0.390329 0 0 0 1 0"/>
<feBlend mode="normal" in2="BackgroundImageFix" result="effect1_dropShadow_10_3994"/>
<feBlend mode="normal" in="SourceGraphic" in2="effect1_dropShadow_10_3994" result="shape"/>
</filter>
<radialGradient id="paint0_radial_10_3994" cx="0" cy="0" r="1" gradientUnits="userSpaceOnUse" gradientTransform="translate(48.81 -47.29) scale(419.73 419.73)">
<stop stop-color="#6BECFF"/>
<stop offset="0.93" stop-color="#0090FF"/>
</radialGradient>
<radialGradient id="paint1_radial_10_3994" cx="0" cy="0" r="1" gradientUnits="userSpaceOnUse" gradientTransform="translate(106.24 -203.55) scale(310.26 310.26)">
<stop stop-color="#B5F6FF"/>
<stop offset="1"/>
</radialGradient>
<radialGradient id="paint2_radial_10_3994" cx="0" cy="0" r="1" gradientUnits="userSpaceOnUse" gradientTransform="translate(41.4498 -6.00996) scale(180.38 180.38)">
<stop stop-color="white"/>
<stop offset="1"/>
</radialGradient>
<radialGradient id="paint3_radial_10_3994" cx="0" cy="0" r="1" gradientUnits="userSpaceOnUse" gradientTransform="translate(120.97 -46.0799) scale(206.36 206.36)">
<stop offset="0.53" stop-color="white"/>
<stop offset="0.66" stop-color="#C2E8FF"/>
<stop offset="0.95" stop-color="#2CAFFF"/>
<stop offset="1" stop-color="#12A5FF"/>
</radialGradient>
<radialGradient id="paint4_radial_10_3994" cx="0" cy="0" r="1" gradientUnits="userSpaceOnUse" gradientTransform="translate(249.49 -5.24996) scale(149.36 149.36)">
<stop stop-color="#B5F6FF"/>
<stop offset="1"/>
</radialGradient>
<linearGradient id="paint5_linear_10_3994" x1="136.18" y1="71.0902" x2="136.18" y2="15.2002" gradientUnits="userSpaceOnUse">
<stop stop-color="#199CD4"/>
<stop offset="1" stop-color="#1D65AD"/>
</linearGradient>
<linearGradient id="paint6_linear_10_3994" x1="11.35" y1="32.38" x2="196.92" y2="32.38" gradientUnits="userSpaceOnUse">
<stop stop-color="white"/>
<stop offset="1"/>
</linearGradient>
<radialGradient id="paint7_radial_10_3994" cx="0" cy="0" r="1" gradientUnits="userSpaceOnUse" gradientTransform="translate(96.4098 -54.98) scale(207.09 207.09)">
<stop stop-color="#FFFBDC"/>
<stop offset="1"/>
</radialGradient>
<linearGradient id="paint8_linear_10_3994" x1="20.1902" y1="30.1" x2="166.52" y2="30.1" gradientUnits="userSpaceOnUse">
<stop stop-color="#F7E984"/>
<stop offset="1"/>
</linearGradient>
<linearGradient id="paint9_linear_10_3994" x1="152.07" y1="56.8001" x2="249.15" y2="56.8001" gradientUnits="userSpaceOnUse">
<stop/>
<stop offset="1" stop-color="#FFBB00"/>
</linearGradient>
<radialGradient id="paint10_radial_10_3994" cx="0" cy="0" r="1" gradientUnits="userSpaceOnUse" gradientTransform="translate(49.6804 74.9901) scale(7.6)">
<stop stop-color="#B0F5FF"/>
<stop offset="0.93" stop-color="#63BBFF"/>
</radialGradient>
<radialGradient id="paint11_radial_10_3994" cx="0" cy="0" r="1" gradientUnits="userSpaceOnUse" gradientTransform="translate(63.7002 0.650234) scale(9.94 9.94)">
<stop stop-color="#B0F5FF"/>
<stop offset="0.93" stop-color="#63BBFF"/>
</radialGradient>
<radialGradient id="paint12_radial_10_3994" cx="0" cy="0" r="1" gradientUnits="userSpaceOnUse" gradientTransform="translate(8.04012 41.3303) scale(7.31 7.31)">
<stop stop-color="#B0F5FF"/>
<stop offset="0.93" stop-color="#63BBFF"/>
</radialGradient>
<radialGradient id="paint13_radial_10_3994" cx="0" cy="0" r="1" gradientUnits="userSpaceOnUse" gradientTransform="translate(32.95 68.7303) scale(9.3 9.3)">
<stop stop-color="#B0F5FF"/>
<stop offset="0.93" stop-color="#63BBFF"/>
</radialGradient>
<radialGradient id="paint14_radial_10_3994" cx="0" cy="0" r="1" gradientUnits="userSpaceOnUse" gradientTransform="translate(11.4801 55.4402) scale(8.02 8.02)">
<stop stop-color="#B0F5FF"/>
<stop offset="0.93" stop-color="#63BBFF"/>
</radialGradient>
<radialGradient id="paint15_radial_10_3994" cx="0" cy="0" r="1" gradientUnits="userSpaceOnUse" gradientTransform="translate(57.35 70.7102) scale(5.26 5.26)">
<stop stop-color="#B0F5FF"/>
<stop offset="0.93" stop-color="#63BBFF"/>
</radialGradient>
<radialGradient id="paint16_radial_10_3994" cx="0" cy="0" r="1" gradientUnits="userSpaceOnUse" gradientTransform="translate(42.8902 9.73031) scale(5.51 5.51)">
<stop stop-color="#B0F5FF"/>
<stop offset="0.93" stop-color="#63BBFF"/>
</radialGradient>
<radialGradient id="paint17_radial_10_3994" cx="0" cy="0" r="1" gradientUnits="userSpaceOnUse" gradientTransform="translate(10.1803 19.7902) scale(5.42 5.42)">
<stop stop-color="#B0F5FF"/>
<stop offset="0.93" stop-color="#63BBFF"/>
</radialGradient>
<radialGradient id="paint18_radial_10_3994" cx="0" cy="0" r="1" gradientUnits="userSpaceOnUse" gradientTransform="translate(20.1202 62.7401) scale(10.17 10.17)">
<stop stop-color="#B0F5FF"/>
<stop offset="0.93" stop-color="#63BBFF"/>
</radialGradient>
<radialGradient id="paint19_radial_10_3994" cx="0" cy="0" r="1" gradientUnits="userSpaceOnUse" gradientTransform="translate(4.47023 27.3502) scale(7.54)">
<stop stop-color="#B0F5FF"/>
<stop offset="0.93" stop-color="#63BBFF"/>
</radialGradient>
<radialGradient id="paint20_radial_10_3994" cx="0" cy="0" r="1" gradientUnits="userSpaceOnUse" gradientTransform="translate(147.5 0.400225) scale(9.94002 9.94)">
<stop stop-color="#B0F5FF"/>
<stop offset="0.93" stop-color="#63BBFF"/>
</radialGradient>
<radialGradient id="paint21_radial_10_3994" cx="0" cy="0" r="1" gradientUnits="userSpaceOnUse" gradientTransform="translate(88.9701 67.0801) scale(9.3 9.3)">
<stop stop-color="#B0F5FF"/>
<stop offset="0.93" stop-color="#63BBFF"/>
</radialGradient>
<radialGradient id="paint22_radial_10_3994" cx="0" cy="0" r="1" gradientUnits="userSpaceOnUse" gradientTransform="translate(133.59 72.4101) scale(5.26 5.26)">
<stop stop-color="#B0F5FF"/>
<stop offset="0.93" stop-color="#63BBFF"/>
</radialGradient>
<radialGradient id="paint23_radial_10_3994" cx="0" cy="0" r="1" gradientUnits="userSpaceOnUse" gradientTransform="translate(118.65 4.02031) scale(7.59999 7.6)">
<stop stop-color="#B0F5FF"/>
<stop offset="0.93" stop-color="#63BBFF"/>
</radialGradient>
<radialGradient id="paint24_radial_10_3994" cx="0" cy="0" r="1" gradientUnits="userSpaceOnUse" gradientTransform="translate(193.47 69.9301) scale(5.26 5.26)">
<stop stop-color="#B0F5FF"/>
<stop offset="0.93" stop-color="#63BBFF"/>
</radialGradient>
<radialGradient id="paint25_radial_10_3994" cx="0" cy="0" r="1" gradientUnits="userSpaceOnUse" gradientTransform="translate(177.59 6.06012) scale(7.53998 7.54)">
<stop stop-color="#B0F5FF"/>
<stop offset="0.93" stop-color="#63BBFF"/>
</radialGradient>
<radialGradient id="paint26_radial_10_3994" cx="0" cy="0" r="1" gradientUnits="userSpaceOnUse" gradientTransform="translate(201.8 3.55021) scale(6.82001 6.82)">
<stop stop-color="#B0F5FF"/>
<stop offset="0.93" stop-color="#63BBFF"/>
</radialGradient>
<radialGradient id="paint27_radial_10_3994" cx="0" cy="0" r="1" gradientUnits="userSpaceOnUse" gradientTransform="translate(260.99 31.3902) scale(6.81999 6.82)">
<stop stop-color="#B0F5FF"/>
<stop offset="0.93" stop-color="#63BBFF"/>
</radialGradient>
<radialGradient id="paint28_radial_10_3994" cx="0" cy="0" r="1" gradientUnits="userSpaceOnUse" gradientTransform="translate(251.28 14.9701) scale(13.21 13.21)">
<stop stop-color="#B0F5FF"/>
<stop offset="0.93" stop-color="#63BBFF"/>
</radialGradient>
<radialGradient id="paint29_radial_10_3994" cx="0" cy="0" r="1" gradientUnits="userSpaceOnUse" gradientTransform="translate(226.29 4.99029) scale(7.59999 7.6)">
<stop stop-color="#B0F5FF"/>
<stop offset="0.93" stop-color="#63BBFF"/>
</radialGradient>
<radialGradient id="paint30_radial_10_3994" cx="0" cy="0" r="1" gradientUnits="userSpaceOnUse" gradientTransform="translate(247.49 11.1903) scale(6.3 6.3)">
<stop stop-color="#B0F5FF"/>
<stop offset="0.93" stop-color="#63BBFF"/>
</radialGradient>
<clipPath id="clip0_10_3994">
<rect width="272.36" height="86" fill="white"/>
</clipPath>
</defs>
</svg>
