<svg width="50" height="51" viewBox="0 0 50 51" fill="none" xmlns="http://www.w3.org/2000/svg">
<path fill-rule="evenodd" clip-rule="evenodd" d="M3.64789 0.759768C6.65697 0.529838 10.0159 0.339896 13.5949 0.209936C17.1738 0.0799756 21.0126 0 25.0014 0C28.9901 0 32.799 0.0799756 36.3879 0.209936C39.9768 0.329899 43.3158 0.529838 46.3348 0.759768C48.1643 0.899725 49.5539 2.36928 49.6538 4.22871C49.8138 7.29777 49.9237 10.6867 49.9737 14.2856C50.0137 17.8545 50.0137 21.6434 49.9337 25.5522C49.8538 29.431 49.6838 33.1599 49.4939 36.6188C49.3039 40.0578 49.054 43.2568 48.7741 46.1159C48.6042 47.8354 47.2146 49.175 45.4551 49.3049C42.566 49.5249 39.347 49.7048 35.918 49.8148C32.4791 49.9347 28.8102 49.9947 25.0214 49.9947C21.2325 49.9947 17.5336 49.9347 14.1047 49.8148C10.6657 49.6948 7.45673 49.5249 4.55761 49.3149C2.81815 49.185 1.41857 47.8454 1.24863 46.1259C0.968712 43.2668 0.718789 40.0777 0.528847 36.6288C0.338905 33.1699 0.198948 29.441 0.108975 25.5522C-0.000991354 21.6434 -0.0209852 17.8445 0.0190025 14.2656C0.0589903 10.6667 0.178954 7.27778 0.338905 4.21871C0.438874 2.36928 1.82845 0.909722 3.64789 0.759768Z" fill="#DADADA"/>
<path style="mix-blend-mode:screen" fill-rule="evenodd" clip-rule="evenodd" d="M37.1277 2.54917C31.8993 0.00994933 12.2753 0.98965 6.03718 1.55948C2.55824 1.87938 1.25864 2.55917 1.17866 6.29803C1.01871 14.2956 -0.0109727 26.4519 1.75849 34.1495C2.59823 37.7784 5.81725 36.4888 6.49704 35.5391C16.0941 21.9732 27.6506 13.026 37.4176 7.57764C39.5169 6.40799 41.2364 4.53856 37.1277 2.54917Z" fill="url(#paint0_radial_75_1684)"/>
<path style="mix-blend-mode:screen" fill-rule="evenodd" clip-rule="evenodd" d="M22.4322 1.59944C19.3232 1.24955 16.1841 1.58945 13.0851 1.79938C10.6358 1.96933 8.17656 2.16927 5.79729 2.7391C3.15809 3.3689 2.65824 4.31861 2.24837 6.87783C1.86849 9.2571 1.88848 11.6864 1.87848 14.1056C1.86849 16.145 3.84788 15.8351 4.24776 14.7054C5.11749 12.2462 4.86757 9.18712 6.62703 7.12775C9.0063 4.32861 18.1035 4.0387 22.2023 3.44888C23.7318 3.22895 23.8318 1.75939 22.4522 1.60944L22.4322 1.59944ZM1.63856 17.9844C1.4986 19.264 1.4886 20.5736 1.68854 21.8433C1.93846 23.4628 3.64794 23.9126 3.98784 22.0532C4.24776 20.6836 4.33773 19.264 4.23776 17.8745C4.16778 16.8548 1.85849 15.9451 1.62856 17.9844H1.63856Z" fill="url(#paint1_radial_75_1684)"/>
<path style="mix-blend-mode:screen" fill-rule="evenodd" clip-rule="evenodd" d="M28.9502 45.0162C28.6203 45.0762 28.1204 45.3961 28.2404 45.706C28.3903 46.0959 28.9801 46.1759 29.4 46.1859C32.8989 46.2359 40.1567 45.6161 42.2761 43.2668C44.6154 40.6776 45.775 31.6303 45.795 28.5113C45.795 28.2314 45.6251 27.7915 45.3451 27.7915C45.0252 27.7915 44.8153 28.2214 44.7353 28.5313C43.6557 32.9699 41.8062 37.6985 39.6169 40.4176C37.7775 42.6969 33.2788 44.1565 28.9502 45.0062V45.0162Z" fill="url(#paint2_radial_75_1684)"/>
<g opacity="0.75">
<path style="mix-blend-mode:screen" fill-rule="evenodd" clip-rule="evenodd" d="M36.6586 27.0615C37.4386 27.0615 38.2986 27.7515 38.2986 28.5315C38.2986 29.3115 37.5486 29.9415 36.7686 29.9415C35.9886 29.9415 35.3086 29.2915 35.3586 28.5315C35.4086 27.7715 35.8786 27.0615 36.6586 27.0615ZM36.5886 27.1515C37.2286 27.1515 37.9386 27.7215 37.9386 28.3615C37.9386 29.0015 37.3186 29.5315 36.6786 29.5315C36.0386 29.5315 35.4786 28.9915 35.5086 28.3615C35.5486 27.7415 35.9386 27.1515 36.5886 27.1515ZM36.9086 27.4215C37.1386 27.6515 37.0186 27.9915 36.7086 28.3015C36.3986 28.6115 36.0186 28.7615 35.7886 28.5415C35.5586 28.3215 35.6286 27.8215 35.9386 27.5115C36.2486 27.2015 36.6786 27.1915 36.9086 27.4215ZM37.7586 28.1515C37.8686 28.1815 37.9186 28.6915 37.5786 29.0715C37.2386 29.4515 36.6986 29.4415 36.6786 29.3015C36.6686 29.1515 37.0786 29.1715 37.3786 28.8815C37.6786 28.5915 37.6486 28.1415 37.7586 28.1615V28.1515Z" fill="url(#paint3_linear_75_1684)"/>
<path style="mix-blend-mode:screen" fill-rule="evenodd" clip-rule="evenodd" d="M5.79771 13.9856C6.57771 13.9856 7.43771 14.6756 7.43771 15.4556C7.43771 16.2356 6.68771 16.8656 5.90771 16.8656C5.12771 16.8656 4.44771 16.2156 4.49771 15.4556C4.54771 14.7056 5.01771 13.9856 5.79771 13.9856ZM5.72771 14.0756C6.36771 14.0756 7.07771 14.6456 7.07771 15.2856C7.07771 15.9256 6.45771 16.4556 5.81771 16.4556C5.17771 16.4556 4.61771 15.9156 4.64771 15.2856C4.67771 14.6556 5.07771 14.0756 5.72771 14.0756ZM6.04771 14.3456C6.27771 14.5756 6.15771 14.9156 5.84771 15.2256C5.53771 15.5356 5.15771 15.6856 4.92771 15.4656C4.69771 15.2456 4.76771 14.7456 5.07771 14.4356C5.38771 14.1256 5.81771 14.1156 6.04771 14.3456ZM6.89771 15.0756C7.00771 15.1056 7.05771 15.6156 6.71771 15.9956C6.37771 16.3756 5.83771 16.3656 5.81771 16.2256C5.80771 16.0756 6.21771 16.0956 6.51771 15.8056C6.81771 15.5056 6.78771 15.0656 6.89771 15.0856V15.0756Z" fill="url(#paint4_linear_75_1684)"/>
<path style="mix-blend-mode:screen" opacity="0.7" fill-rule="evenodd" clip-rule="evenodd" d="M40.5971 9.08716C41.3771 9.08716 42.2271 9.77716 42.2271 10.5472C42.2271 11.3172 41.4771 11.9572 40.7071 11.9572C39.9371 11.9572 39.2571 11.3072 39.2971 10.5472C39.3471 9.79716 39.8171 9.08716 40.5971 9.08716ZM40.5271 9.17716C41.1671 9.17716 41.8771 9.74716 41.8771 10.3872C41.8771 11.0272 41.2571 11.5472 40.6171 11.5472C39.9771 11.5472 39.4171 11.0072 39.4571 10.3872C39.4971 9.76716 39.8871 9.17716 40.5271 9.17716ZM40.8471 9.44716C41.0771 9.67716 40.9571 10.0172 40.6471 10.3272C40.3371 10.6372 39.9571 10.7872 39.7271 10.5672C39.4971 10.3372 39.5671 9.85716 39.8771 9.54716C40.1871 9.23716 40.6171 9.22716 40.8371 9.45716L40.8471 9.44716ZM41.6971 10.1672C41.8071 10.1972 41.8571 10.7072 41.5171 11.0772C41.1771 11.4572 40.6371 11.4472 40.6171 11.3072C40.5971 11.1672 41.0171 11.1772 41.3071 10.8872C41.5971 10.5972 41.5771 10.1472 41.6871 10.1672H41.6971Z" fill="url(#paint5_linear_75_1684)"/>
<path style="mix-blend-mode:screen" fill-rule="evenodd" clip-rule="evenodd" d="M10.4362 20.3936C11.4659 20.3936 12.6055 21.3033 12.6055 22.343C12.6055 23.3826 11.6158 24.2124 10.5861 24.2124C9.55645 24.2124 8.65672 23.3427 8.7167 22.343C8.77669 21.3433 9.41649 20.3936 10.4462 20.3936H10.4362ZM10.3462 20.5235C11.1959 20.5235 12.1357 21.2833 12.1357 22.133C12.1357 22.9828 11.3159 23.6726 10.4662 23.6726C9.61643 23.6726 8.86666 22.9528 8.92664 22.133C8.97663 21.3033 9.49647 20.5235 10.3562 20.5235H10.3462ZM10.7761 20.8834C11.076 21.1833 10.916 21.6432 10.5062 22.053C10.0963 22.4629 9.58644 22.6629 9.28653 22.363C8.98662 22.063 9.07659 21.4132 9.48647 21.0034C9.89634 20.5935 10.4662 20.5735 10.7661 20.8834H10.7761ZM11.8957 21.8431C12.0457 21.8731 12.1057 22.5529 11.6558 23.0527C11.1959 23.5526 10.4862 23.5426 10.4662 23.3527C10.4462 23.1627 10.996 23.1827 11.3859 22.7928C11.7858 22.3929 11.7458 21.8031 11.8957 21.8431Z" fill="url(#paint6_linear_75_1684)"/>
<path style="mix-blend-mode:screen" opacity="0.4" fill-rule="evenodd" clip-rule="evenodd" d="M18.6634 37.0088C19.863 36.9388 20.7527 37.7286 20.7527 38.7482C20.7527 39.7679 19.753 40.6277 18.6734 40.5777C17.6037 40.5277 16.7739 39.7479 16.8239 38.7283C16.8739 37.7086 17.4637 37.0688 18.6534 36.9988L18.6634 37.0088ZM18.5034 37.1687C19.4831 37.1087 20.2229 37.7585 20.2229 38.5983C20.2229 39.438 19.4031 40.1478 18.5234 40.0978C17.6437 40.0578 16.9639 39.418 17.0039 38.5783C17.0439 37.7386 17.5237 37.2187 18.5034 37.1587V37.1687ZM18.8433 37.4986C19.1432 37.7985 18.9833 38.3084 18.5834 38.7183C18.1735 39.1281 17.6737 39.2681 17.3738 38.9682C17.0738 38.6683 17.1838 38.0784 17.4837 37.7286C17.7836 37.3787 18.5434 37.1987 18.8433 37.4986ZM19.983 38.2384C20.1329 38.2684 20.2029 38.9682 19.733 39.488C19.2632 40.0079 18.5234 39.9979 18.5034 39.7979C18.4834 39.598 19.0432 39.628 19.4531 39.2181C19.863 38.8082 19.823 38.1984 19.983 38.2384Z" fill="url(#paint7_linear_75_1684)"/>
<path style="mix-blend-mode:screen" opacity="0.4" fill-rule="evenodd" clip-rule="evenodd" d="M7.30691 43.6565C8.50655 43.5865 9.39628 44.3763 9.39628 45.3959C9.39628 46.4156 8.39658 47.2754 7.31691 47.2254C6.24724 47.1754 5.41749 46.3956 5.46748 45.376C5.51746 44.3563 6.10728 43.7165 7.29692 43.6465L7.30691 43.6565ZM7.14696 43.8164C8.12666 43.7564 8.86644 44.4063 8.86644 45.246C8.86644 46.0857 8.04669 46.7955 7.16696 46.7455C6.28723 46.7055 5.60743 46.0657 5.64742 45.226C5.68741 44.3863 6.16726 43.8664 7.14696 43.8064V43.8164ZM7.48686 44.1463C7.78677 44.4462 7.62682 44.9561 7.22694 45.366C6.82706 45.7758 6.31722 45.9158 6.01731 45.6159C5.7174 45.316 5.82737 44.7262 6.12728 44.3763C6.42718 44.0264 7.18695 43.8464 7.48686 44.1463ZM8.62651 44.8861C8.77647 44.9161 8.84644 45.6159 8.37659 46.1357C7.90673 46.6556 7.16696 46.6456 7.14696 46.4456C7.12697 46.2457 7.6868 46.2757 8.09667 45.8658C8.50655 45.4559 8.46656 44.8461 8.62651 44.8861Z" fill="url(#paint8_linear_75_1684)"/>
<path style="mix-blend-mode:screen" opacity="0.4" fill-rule="evenodd" clip-rule="evenodd" d="M29.0507 36.9987C29.7807 36.9587 30.3207 37.4387 30.3207 38.0587C30.3207 38.6787 29.7107 39.1987 29.0607 39.1687C28.4107 39.1387 27.9107 38.6687 27.9407 38.0487C27.9707 37.4287 28.3307 37.0487 29.0507 36.9987ZM28.9507 37.0987C29.5507 37.0687 29.9907 37.4587 29.9907 37.9687C29.9907 38.4787 29.4907 38.9087 28.9607 38.8787C28.4307 38.8487 28.0107 38.4687 28.0407 37.9587C28.0707 37.4487 28.3607 37.1387 28.9507 37.0987ZM29.1507 37.2987C29.3307 37.4787 29.2407 37.7887 28.9907 38.0387C28.7407 38.2887 28.4407 38.3687 28.2607 38.1887C28.0807 38.0087 28.1407 37.6487 28.3307 37.4387C28.5107 37.2287 28.9707 37.1187 29.1507 37.2987ZM29.8407 37.7487C29.9307 37.7687 29.9707 38.1987 29.6907 38.5087C29.4007 38.8187 28.9607 38.8187 28.9407 38.6987C28.9207 38.5787 29.2707 38.5987 29.5207 38.3487C29.7707 38.0987 29.7507 37.7287 29.8407 37.7487Z" fill="url(#paint9_linear_75_1684)"/>
<path style="mix-blend-mode:screen" opacity="0.4" fill-rule="evenodd" clip-rule="evenodd" d="M34.5491 42.4771C35.2291 42.4371 35.7291 42.8871 35.7291 43.4671C35.7291 44.0471 35.1591 44.5371 34.5591 44.5071C33.9591 44.4771 33.4791 44.0371 33.5091 43.4571C33.5391 42.8771 33.8691 42.5171 34.5491 42.4771ZM34.4591 42.5671C35.0091 42.5371 35.4291 42.9071 35.4291 43.3771C35.4291 43.8471 34.9591 44.2471 34.4691 44.2271C33.9691 44.2071 33.5891 43.8471 33.6091 43.3671C33.6291 42.8971 33.9091 42.5971 34.4591 42.5671ZM34.6491 42.7571C34.8191 42.9271 34.7291 43.2171 34.4991 43.4471C34.2691 43.6771 33.9891 43.7571 33.8191 43.5871C33.6491 43.4171 33.7091 43.0871 33.8791 42.8871C34.0491 42.6871 34.4791 42.5871 34.6491 42.7571ZM35.2991 43.1771C35.3891 43.1971 35.4291 43.5971 35.1591 43.8871C34.8891 44.1771 34.4791 44.1771 34.4591 44.0671C34.4491 43.9571 34.7691 43.9671 34.9991 43.7371C35.2291 43.5071 35.2091 43.1571 35.2991 43.1771Z" fill="url(#paint10_linear_75_1684)"/>
<path style="mix-blend-mode:screen" fill-rule="evenodd" clip-rule="evenodd" d="M22.7926 8.71722C23.7726 8.65722 24.5026 9.30722 24.5026 10.1472C24.5026 10.9872 23.6826 11.6872 22.8026 11.6472C21.9226 11.6072 21.2426 10.9672 21.2926 10.1372C21.3426 9.30722 21.8126 8.77722 22.7926 8.72722V8.71722ZM22.6626 8.84722C23.4626 8.79722 24.0626 9.33722 24.0626 10.0172C24.0626 10.6972 23.3926 11.2772 22.6726 11.2472C21.9526 11.2172 21.3926 10.6872 21.4326 10.0072C21.4626 9.31722 21.8626 8.89722 22.6626 8.84722ZM22.9326 9.11722C23.1726 9.35722 23.0526 9.77722 22.7226 10.1072C22.3926 10.4372 21.9826 10.5572 21.7326 10.3172C21.4926 10.0772 21.5726 9.58722 21.8226 9.30722C22.0726 9.01722 22.6926 8.87722 22.9326 9.11722ZM23.8626 9.71722C23.9826 9.74722 24.0426 10.3172 23.6626 10.7372C23.2726 11.1572 22.6726 11.1572 22.6526 10.9872C22.6326 10.8272 23.1026 10.8472 23.4326 10.5172C23.7626 10.1872 23.7426 9.68722 23.8626 9.71722Z" fill="url(#paint11_linear_75_1684)"/>
<path style="mix-blend-mode:screen" opacity="0.4" fill-rule="evenodd" clip-rule="evenodd" d="M22.7422 15.8152C23.4422 15.7752 23.9622 16.2352 23.9622 16.8352C23.9622 17.4352 23.3722 17.9352 22.7522 17.9052C22.1222 17.8752 21.6422 17.4252 21.6722 16.8252C21.7022 16.2252 22.0422 15.8552 22.7422 15.8152ZM22.6422 15.9052C23.2122 15.8752 23.6422 16.2552 23.6422 16.7452C23.6422 17.2352 23.1622 17.6452 22.6522 17.6252C22.1422 17.6052 21.7422 17.2252 21.7622 16.7352C21.7922 16.2452 22.0622 15.9452 22.6422 15.9052ZM22.8422 16.0952C23.0122 16.2652 22.9222 16.5652 22.6922 16.8052C22.4522 17.0452 22.1622 17.1252 21.9922 16.9552C21.8222 16.7852 21.8822 16.4352 22.0522 16.2352C22.2322 16.0252 22.6722 15.9252 22.8422 16.1052V16.0952ZM23.5122 16.5252C23.6022 16.5452 23.6422 16.9552 23.3622 17.2552C23.0922 17.5552 22.6522 17.5552 22.6422 17.4352C22.6322 17.3152 22.9622 17.3352 23.2022 17.0952C23.4422 16.8552 23.4222 16.5052 23.5122 16.5252Z" fill="url(#paint12_linear_75_1684)"/>
<path style="mix-blend-mode:screen" fill-rule="evenodd" clip-rule="evenodd" d="M11.4464 34.7592C12.1764 34.7692 12.8464 35.4792 12.8464 36.2892C12.8464 37.0992 12.3064 37.4392 11.4964 37.4392C10.6864 37.4392 10.0464 37.1092 10.0464 36.2992C10.0464 35.4892 10.7164 34.7392 11.4464 34.7592ZM11.3364 34.8892C11.9464 34.8992 12.4964 35.4892 12.4964 36.1592C12.4964 36.8292 12.0464 37.1192 11.3764 37.1192C10.7064 37.1192 10.1764 36.8492 10.1764 36.1692C10.1764 35.4892 10.7264 34.8792 11.3364 34.8892ZM11.6164 35.1192C11.8364 35.3392 11.7464 35.7992 11.4464 36.0992C11.1464 36.3992 10.7164 36.4692 10.4964 36.2392C10.2764 36.0192 10.3464 35.5492 10.6564 35.2492C10.9564 34.9492 11.3964 34.8892 11.6164 35.1192ZM12.2764 35.7792C12.3864 35.7992 12.5164 36.3592 12.1764 36.7192C11.8464 37.0792 11.2464 37.0192 11.2364 36.8792C11.2264 36.7392 11.6964 36.8192 11.9864 36.5292C12.2764 36.2392 12.1664 35.7492 12.2764 35.7792Z" fill="url(#paint13_linear_75_1684)"/>
<path style="mix-blend-mode:screen" fill-rule="evenodd" clip-rule="evenodd" d="M8.70664 7.75747C9.43664 7.76747 10.1066 8.47747 10.1066 9.28747C10.1066 10.0975 9.56664 10.4375 8.75664 10.4375C7.94664 10.4375 7.30664 10.1075 7.30664 9.29747C7.30664 8.48747 7.97664 7.73747 8.70664 7.75747ZM8.59664 7.88747C9.20664 7.89747 9.75664 8.48747 9.75664 9.15747C9.75664 9.82747 9.30664 10.1175 8.63664 10.1175C7.96664 10.1175 7.43664 9.84747 7.43664 9.16747C7.43664 8.48747 7.98664 7.87747 8.59664 7.88747ZM8.87664 8.11747C9.09664 8.33747 9.00664 8.79747 8.70664 9.09747C8.40664 9.39747 7.97664 9.46747 7.75664 9.24747C7.53664 9.02747 7.60664 8.55747 7.91664 8.24747C8.22664 7.93747 8.65664 7.88747 8.87664 8.11747ZM9.53664 8.77747C9.64664 8.79747 9.77664 9.35747 9.43664 9.71747C9.10664 10.0775 8.50664 10.0175 8.49664 9.87747C8.48664 9.73747 8.95664 9.81747 9.24664 9.52747C9.53664 9.23747 9.42664 8.74747 9.53664 8.77747Z" fill="url(#paint14_linear_75_1684)"/>
<path style="mix-blend-mode:screen" fill-rule="evenodd" clip-rule="evenodd" d="M27.6311 3.49897C28.2911 3.50897 28.9011 4.14897 28.9011 4.87897C28.9011 5.60897 28.4111 5.91897 27.6811 5.91897C26.9511 5.91897 26.3711 5.61897 26.3711 4.88897C26.3711 4.15897 26.9711 3.47897 27.6411 3.49897H27.6311ZM27.5311 3.61897C28.0811 3.61897 28.5811 4.15897 28.5811 4.76897C28.5811 5.37897 28.1811 5.62897 27.5711 5.62897C26.9611 5.62897 26.4811 5.37897 26.4811 4.77897C26.4811 4.17897 26.9811 3.60897 27.5311 3.61897ZM27.7811 3.82897C27.9811 4.02897 27.9011 4.43897 27.6311 4.71897C27.3511 4.99897 26.9711 5.04897 26.7711 4.84897C26.5711 4.64897 26.6411 4.22897 26.9111 3.94897C27.1911 3.66897 27.5811 3.62897 27.7811 3.82897ZM28.3811 4.42897C28.4811 4.44897 28.5911 4.94897 28.2911 5.27897C27.9911 5.60897 27.4511 5.54897 27.4411 5.41897C27.4311 5.28897 27.8611 5.36897 28.1211 5.10897C28.3811 4.84897 28.2911 4.40897 28.3811 4.42897Z" fill="url(#paint15_linear_75_1684)"/>
</g>
<g style="mix-blend-mode:multiply" opacity="0.8">
<path fill-rule="evenodd" clip-rule="evenodd" d="M42.9658 43.6467C39.2069 48.2553 13.6547 47.5055 6.19702 44.2665C2.44817 42.637 1.33851 39.288 0.48877 36.3789C0.48877 36.4689 0.48877 36.5488 0.498766 36.6388C0.688708 40.0778 0.938632 43.2668 1.21855 46.1359C1.38849 47.8554 2.77807 49.195 4.52753 49.3249C7.41665 49.5449 10.6357 49.7148 14.0746 49.8248C17.5036 49.9347 21.1724 50.0047 24.9913 50.0047C28.8101 50.0047 32.449 49.9447 35.8879 49.8248C39.3269 49.7148 42.5359 49.5349 45.425 49.3149C47.1745 49.185 48.5741 47.8454 48.744 46.1259C49.0239 43.2668 49.2739 40.0678 49.4638 36.6288C49.6537 33.1699 49.8137 29.441 49.9037 25.5622C49.9936 21.6534 49.9936 17.8646 49.9436 14.2956C49.9037 10.6967 49.7937 7.30778 49.6237 4.23872C49.5238 2.37929 48.1342 0.919732 46.3048 0.769777C43.2957 0.539848 39.9467 0.349906 36.3578 0.219946C33.1688 0.0999823 29.7698 0.0300037 26.2609 0.0100098C31.8692 0.299921 39.9967 1.25963 43.3457 4.51863C49.3238 10.3369 46.7346 39.0081 42.9658 43.6367V43.6467Z" fill="#EDEDED"/>
</g>
<defs>
<radialGradient id="paint0_radial_75_1684" cx="0" cy="0" r="1" gradientUnits="userSpaceOnUse" gradientTransform="translate(-5.17939 -10.037) scale(50.7245 50.7245)">
<stop stop-color="#FFFF6D"/>
<stop offset="1"/>
</radialGradient>
<radialGradient id="paint1_radial_75_1684" cx="0" cy="0" r="1" gradientUnits="userSpaceOnUse" gradientTransform="translate(-2.51017 -7.61774) scale(33.8297 33.8297)">
<stop stop-color="white"/>
<stop offset="1"/>
</radialGradient>
<radialGradient id="paint2_radial_75_1684" cx="0" cy="0" r="1" gradientUnits="userSpaceOnUse" gradientTransform="translate(23.9917 22.953) scale(33.0399 33.0399)">
<stop stop-color="#FFFF6D"/>
<stop offset="1"/>
</radialGradient>
<linearGradient id="paint3_linear_75_1684" x1="35.3586" y1="28.5015" x2="38.2986" y2="28.5015" gradientUnits="userSpaceOnUse">
<stop stop-color="#F7E984"/>
<stop offset="1"/>
</linearGradient>
<linearGradient id="paint4_linear_75_1684" x1="4.48771" y1="15.4256" x2="7.42771" y2="15.4256" gradientUnits="userSpaceOnUse">
<stop stop-color="#F7E984"/>
<stop offset="1"/>
</linearGradient>
<linearGradient id="paint5_linear_75_1684" x1="39.2971" y1="10.5272" x2="42.2271" y2="10.5272" gradientUnits="userSpaceOnUse">
<stop stop-color="#F7E984"/>
<stop offset="1"/>
</linearGradient>
<linearGradient id="paint6_linear_75_1684" x1="8.70671" y1="22.293" x2="12.5955" y2="22.293" gradientUnits="userSpaceOnUse">
<stop stop-color="#F7E984"/>
<stop offset="1"/>
</linearGradient>
<linearGradient id="paint7_linear_75_1684" x1="16.8239" y1="38.7882" x2="20.7527" y2="38.7882" gradientUnits="userSpaceOnUse">
<stop stop-color="#F7E984"/>
<stop offset="1"/>
</linearGradient>
<linearGradient id="paint8_linear_75_1684" x1="5.46748" y1="45.4459" x2="9.39628" y2="45.4459" gradientUnits="userSpaceOnUse">
<stop stop-color="#F7E984"/>
<stop offset="1"/>
</linearGradient>
<linearGradient id="paint9_linear_75_1684" x1="27.9307" y1="38.0887" x2="30.3207" y2="38.0887" gradientUnits="userSpaceOnUse">
<stop stop-color="#F7E984"/>
<stop offset="1"/>
</linearGradient>
<linearGradient id="paint10_linear_75_1684" x1="33.5091" y1="43.4871" x2="35.7291" y2="43.4871" gradientUnits="userSpaceOnUse">
<stop stop-color="#F7E984"/>
<stop offset="1"/>
</linearGradient>
<linearGradient id="paint11_linear_75_1684" x1="21.2926" y1="10.1772" x2="24.5126" y2="10.1772" gradientUnits="userSpaceOnUse">
<stop stop-color="#F7E984"/>
<stop offset="1"/>
</linearGradient>
<linearGradient id="paint12_linear_75_1684" x1="21.6722" y1="16.8552" x2="23.9622" y2="16.8552" gradientUnits="userSpaceOnUse">
<stop stop-color="#F7E984"/>
<stop offset="1"/>
</linearGradient>
<linearGradient id="paint13_linear_75_1684" x1="10.0464" y1="36.0992" x2="12.8464" y2="36.0992" gradientUnits="userSpaceOnUse">
<stop stop-color="#F7E984"/>
<stop offset="1"/>
</linearGradient>
<linearGradient id="paint14_linear_75_1684" x1="7.30664" y1="9.09747" x2="10.1066" y2="9.09747" gradientUnits="userSpaceOnUse">
<stop stop-color="#F7E984"/>
<stop offset="1"/>
</linearGradient>
<linearGradient id="paint15_linear_75_1684" x1="26.3611" y1="4.70897" x2="28.8911" y2="4.70897" gradientUnits="userSpaceOnUse">
<stop stop-color="#F7E984"/>
<stop offset="1"/>
</linearGradient>
</defs>
</svg>
