<svg width="183" height="159" viewBox="0 0 183 159" fill="none" xmlns="http://www.w3.org/2000/svg">
<g clip-path="url(#clip0_243_216)">
<path d="M179.67 57.4401V38.6901L136.34 48.3001L103.07 38.6901C103.07 38.6901 51.57 46.5801 48.61 46.5801C45.65 46.5801 10.66 39.1901 10.66 39.1901C10.66 39.1901 7.20998 38.2001 5.48998 38.4501C3.76998 38.7001 1.78998 43.6201 1.78998 43.6201L2.77998 57.9101L179.67 57.4401Z" fill="#E3F1F9"/>
<path d="M178.92 57.6602H2.28998V154.85H178.92V57.6602Z" fill="#6E7BB6"/>
<path d="M178.93 68.4099V155.47H2.62V57.4399H179.67V38.4199L136.14 47.9299C136.14 47.9299 109.8 38.7799 102.49 38.7799C95.18 38.7799 62.25 46.4599 48.35 46.4599C34.45 46.4599 7.54 36.1599 2.79 37.6299C2.98 36.8799 2.79 49.8499 2.79 49.8499" stroke="#1D1D1B" stroke-width="5.24" stroke-linecap="round" stroke-linejoin="round"/>
<path d="M165.42 40.9V14.29" stroke="#1D1D1B" stroke-width="5.24" stroke-linecap="round" stroke-linejoin="round"/>
<path d="M158.03 18.9702L165.17 26.8602L173.8 21.4302" stroke="#1D1D1B" stroke-width="5.24" stroke-linecap="round" stroke-linejoin="round"/>
<path d="M71.53 2.9502V43.3702" stroke="#1D1D1B" stroke-width="5.24" stroke-linecap="round" stroke-linejoin="round"/>
<path d="M83.61 9.8501C83.61 9.8501 84.84 15.5201 83.12 18.9701C81.4 22.4201 71.37 33.0501 71.37 33.0501" stroke="#1D1D1B" stroke-width="5.24" stroke-linecap="round" stroke-linejoin="round"/>
<path d="M71.78 26.6099L63.4 22.1699" stroke="#1D1D1B" stroke-width="5.24" stroke-linecap="round" stroke-linejoin="round"/>
<path d="M24.33 2.62012L24.23 41.3901" stroke="#1D1D1B" stroke-width="5.24" stroke-linecap="round" stroke-linejoin="round"/>
<path d="M24.33 32.19L36.81 17.21" stroke="#1D1D1B" stroke-width="5.24" stroke-linecap="round" stroke-linejoin="round"/>
<path d="M24.23 27.6698L15.4 20.7598" stroke="#1D1D1B" stroke-width="5.24" stroke-linecap="round" stroke-linejoin="round"/>
<path d="M144.48 45.9899V14.3799" stroke="#1D1D1B" stroke-width="5.24" stroke-linecap="round" stroke-linejoin="round"/>
<path d="M152.9 5.73002C152.9 5.73002 150.36 4.81002 149.21 6.88002C148.06 8.95002 144.94 16.22 144.48 16.34C144.02 16.46 137.67 5.84002 136.06 5.27002" stroke="#1D1D1B" stroke-width="5.24" stroke-linecap="round" stroke-linejoin="round"/>
<path d="M128.91 18.1899L144.48 33.6499" stroke="#1D1D1B" stroke-width="5.24" stroke-linecap="round" stroke-linejoin="round"/>
<path d="M126.56 78.9801H165.85C165.85 78.9801 153.04 68.8301 152.4 68.8301C151.76 68.8301 131.26 69.0501 131.26 69.0501L126.56 78.9901V78.9801Z" fill="white" stroke="#1D1D1B" stroke-width="5.21" stroke-linecap="round" stroke-linejoin="round"/>
<path d="M72.97 57.6001L67.63 67.1001H100.72V57.6001C100.72 57.6001 72.64 57.9201 72.96 57.6001H72.97Z" fill="white" stroke="#1D1D1B" stroke-width="5.21" stroke-linecap="round" stroke-linejoin="round"/>
<path d="M3.79002 68.8301H26.63L17.03 78.5501H3.15002L3.79002 68.8301Z" fill="white" stroke="#1D1D1B" stroke-width="5.21" stroke-linecap="round" stroke-linejoin="round"/>
<path d="M38.8 88.4899L46.7 77.8999H79.16L86.63 88.2699L38.8 88.4899Z" fill="white" stroke="#1D1D1B" stroke-width="5.21" stroke-linecap="round" stroke-linejoin="round"/>
<path d="M74.67 103.18L98.37 103.82" stroke="#1D1D1B" stroke-width="5.21" stroke-linecap="round" stroke-linejoin="round"/>
<path d="M124.85 87.4102C124.85 87.4102 112.47 91.7302 112.25 97.5602C112.04 103.39 116.73 110.52 126.77 115.06C136.8 119.6 144.7 121.97 148.12 121.32C151.54 120.67 162.64 113.76 164.77 110.74C166.9 107.72 174.8 95.1902 161.99 93.0302C149.18 90.8702 142.77 91.9502 135.3 90.6502C127.83 89.3502 124.84 87.4102 124.84 87.4102H124.85Z" fill="white" stroke="#1D1D1B" stroke-width="5.21" stroke-linecap="round" stroke-linejoin="round"/>
<path d="M86.63 154.37C86.63 154.37 87.27 148.75 81.29 141.63C75.31 134.5 72.75 129.97 72.75 127.37C72.75 124.77 74.89 120.03 77.45 118.73C80.01 117.43 90.47 116.57 93.25 116.57C96.03 116.57 109.05 118.95 109.05 118.95C109.05 118.95 125.7 126.73 126.77 126.94C127.84 127.15 134.88 131.69 134.88 131.69L137.44 136.66L138.29 154.81L86.62 154.38L86.63 154.37Z" fill="white" stroke="#1D1D1B" stroke-width="5.21" stroke-linecap="round" stroke-linejoin="round"/>
<path d="M178.87 119.38C178.87 119.38 154.96 132.34 153.46 134.93C151.97 137.52 152.82 155.45 152.82 155.45H178.87V119.59" fill="white"/>
<path d="M178.87 119.38C178.87 119.38 154.96 132.34 153.46 134.93C151.97 137.52 152.82 155.45 152.82 155.45H178.87V119.59" stroke="#1D1D1B" stroke-width="5.21" stroke-linecap="round" stroke-linejoin="round"/>
<path d="M58.87 154.59C58.87 154.59 61.43 137.74 51.82 132.12C42.21 126.5 36.02 123.48 36.02 123.48L3.34998 133.85V155.02L58.86 154.59H58.87Z" fill="white" stroke="#1D1D1B" stroke-width="5.21" stroke-linecap="round" stroke-linejoin="round"/>
<path d="M3.35998 123.05C4.42998 122.62 50.97 106.2 50.97 106.2C50.97 106.2 53.96 102.96 50.33 101.02C46.7 99.0798 21.51 96.0498 17.02 96.0498C12.53 96.0498 3.77998 99.0698 3.77998 99.0698L3.34998 123.05H3.35998Z" fill="white" stroke="#1D1D1B" stroke-width="5.21" stroke-linecap="round" stroke-linejoin="round"/>
</g>
<defs>
<clipPath id="clip0_243_216">
<rect width="182.28" height="158.09" fill="white"/>
</clipPath>
</defs>
</svg>
