<svg width="163" height="163" viewBox="0 0 163 163" fill="none" xmlns="http://www.w3.org/2000/svg">
<g clip-path="url(#clip0_243_84)">
<path d="M127.7 38.4299C124.19 27.4599 113.91 19.5199 101.77 19.5199C100.15 19.5199 98.57 19.6699 97.03 19.9399C89.83 9.90988 78.07 3.37988 64.78 3.37988C45.93 3.37988 30.15 16.5299 26.1 34.1499C12.07 36.9199 1.48999 49.2899 1.48999 64.1299C1.48999 81.0099 15.17 94.6899 32.05 94.6899C39.38 94.6899 61.27 95.8899 66.54 91.5899C69.2 89.4199 69.2 86.2399 68.22 82.6099C77.32 81.8299 85.54 77.9799 91.84 72.0899C92.88 72.4999 93.94 72.8399 95.03 73.1199C98.54 84.0899 108.82 92.0299 120.96 92.0299C135.99 92.0299 148.18 79.8399 148.18 64.8099C148.18 52.0999 139.46 41.4199 127.68 38.4299H127.7Z" fill="#EDF0F5"/>
<path d="M141.3 66.6299C138.27 66.6299 135.41 67.3899 132.91 68.7299C130.29 56.4299 119.37 47.1899 106.29 47.1899C94.11 47.1899 83.8 55.1899 80.32 66.2199C79.58 66.1299 78.82 66.0599 78.05 66.0599C68.23 66.0599 60.26 74.0199 60.26 83.8499C60.26 93.6799 68.22 101.64 78.05 101.64C82.89 101.64 87.27 99.6999 90.47 96.5699C94.93 99.7599 100.38 101.64 106.28 101.64C113.99 101.64 120.94 98.4299 125.89 93.2899C128.96 98.6099 134.7 102.21 141.29 102.21C151.11 102.21 159.08 94.2499 159.08 84.4199C159.08 74.5899 151.12 66.6299 141.29 66.6299H141.3Z" fill="#DBE0E8"/>
<path d="M81.15 129.42C85.9 134.55 90.01 139.85 91.46 146.8C93.29 155.6 87.25 160.64 78.68 159.32C71.74 158.24 68.86 153.09 70.68 145.72C71.98 140.45 76.53 133.31 81.15 129.41V129.42Z" fill="#9FCFD9"/>
<path d="M125.05 98.1698C120.79 101.64 116.28 103.9 111.15 104.89C104.46 106.19 98.05 105.38 91.91 102.46C91.14 102.09 90.57 102.01 89.75 102.46C79.81 107.87 68.16 105.95 60.46 97.6298C59.74 96.8498 59.04 96.5698 58.02 96.5798C49.1 96.6098 40.19 96.6298 31.27 96.5798C24.93 96.5498 19.15 94.6398 13.91 91.0998C12.27 89.9898 11.85 88.6698 12.7 87.3998C13.53 86.1598 14.95 86.0298 16.59 87.1298C21.41 90.3798 26.73 91.8798 32.54 91.8398C39.87 91.7898 47.21 91.8298 54.54 91.8298H56.14C55.54 89.1998 54.76 86.6898 54.41 84.1198C52.75 71.9998 61.76 59.9398 73.83 57.9698C74.45 57.8698 75.12 57.5998 75.7 57.7098C79.03 58.3598 80.79 56.3998 82.81 54.1498C92.27 43.6198 108.18 41.2598 120.34 48.4298C121.12 48.8898 121.92 49.9598 122.01 50.8298C122.22 52.7198 120.21 53.5598 118.26 52.7398C115.61 51.6198 112.96 50.3498 110.17 49.7198C100.31 47.4798 89.7 51.7798 84.03 60.1898C82.87 61.9098 81.71 62.6198 79.53 62.4898C68.26 61.7898 58.87 70.4798 59 81.5398C59.09 88.9098 62.43 94.6498 68.89 98.2498C75.29 101.82 81.84 101.63 88.12 97.8398C89.94 96.7398 91.31 96.6898 93.18 97.6998C102.53 102.78 114.27 101.32 122.21 94.2498C122.49 93.9998 122.75 93.7498 123.03 93.4998C124.88 91.8198 126.13 91.8998 127.61 93.8898C130.32 97.5298 133.89 99.6998 138.37 100.49C146.87 102 155.66 95.8298 157.02 87.3098C158.06 80.8098 156.06 75.3698 150.87 71.3598C145.73 67.3898 140 66.8998 134.02 69.4398C131.82 70.3798 130.75 69.8298 129.87 67.6898C128.84 65.1698 127.64 62.7098 126.37 60.3098C125.49 58.6398 125.5 57.3798 126.75 56.5598C128.07 55.6798 129.4 56.0298 130.43 57.7198C131.71 59.8198 132.85 61.9998 134.1 64.2298C137.84 62.9898 141.73 62.6898 146.01 63.7198C145.74 61.9198 145.64 60.2598 145.24 58.6798C142.78 49.1598 136.92 42.6498 127.66 39.2998C126.09 38.7298 125.16 37.9098 124.63 36.2498C121.1 25.1998 109.59 18.9898 98.35 21.9798C95.89 22.6298 95.5 22.4898 94.01 20.3698C81.23 2.21978 55.62 -0.500225 39.35 14.5598C39 14.8798 38.67 15.2198 38.3 15.5198C37.15 16.4598 35.8 16.4298 34.9 15.4598C33.97 14.4498 33.96 13.1598 35.05 12.0698C36.13 10.9898 37.26 9.94977 38.46 9.00978C56.87 -5.39022 82.48 -2.23023 96.84 16.2198C97.38 16.9198 97.87 17.1698 98.82 16.9698C111.31 14.3598 124.03 21.3698 128.69 33.3098C128.97 34.0298 129.67 34.8398 130.37 35.1198C142.59 40.0098 150.44 51.2198 150.67 64.3398C150.69 65.2798 151.04 65.7198 151.79 66.1798C159.04 70.6098 163.2 79.1098 161.95 86.8298C160.44 96.1998 154.55 102.86 145.7 104.91C138.47 106.58 132.04 104.79 126.51 99.8398C126 99.3898 125.61 98.8098 125.06 98.1698H125.05Z" fill="black"/>
<path d="M8.37136e-06 67.45C-0.00999163 51.03 8.94001 38.77 22.08 34.56C23.16 34.21 23.55 33.7 23.89 32.59C24.97 29.09 26.25 25.63 27.61 22.23C28.32 20.46 29.81 19.97 31.15 20.71C32.42 21.41 32.67 22.74 31.8 24.44C29.97 28.03 28.66 31.79 28.15 35.8C27.94 37.47 26.95 38.18 25.41 38.6C14.99 41.39 8.36001 48.09 5.57001 58.44C3.76001 65.14 4.82001 71.6 8.04001 77.71C8.24001 78.08 8.47001 78.44 8.66001 78.81C9.38001 80.22 9.09001 81.57 7.93001 82.25C6.68001 82.99 5.36001 82.57 4.48001 81.09C1.48001 76.06 0.0300084 70.58 8.37136e-06 67.45Z" fill="black"/>
<path d="M80.95 132.7C79.33 134.71 77.86 136.55 76.39 138.39C76.03 138.84 75.75 139.36 75.38 139.8C74.49 140.84 73.16 141.03 72.14 140.32C71.13 139.61 70.7 138.16 71.55 137.11C74.15 133.88 76.85 130.73 79.62 127.64C80.4 126.76 81.62 126.82 82.49 127.64C88.21 133.02 93.1 138.94 94.45 147.02C95.8 155.07 90.44 161.74 82.26 162.1C76.64 162.35 71.83 160.77 68.9 155.51C67.69 153.34 67.32 150.95 67.46 148.49C67.55 146.9 68.52 145.96 69.93 145.98C71.33 146 72.22 146.98 72.2 148.61C72.15 151.95 73.07 154.85 76.31 156.33C79.94 157.99 83.69 157.95 86.97 155.57C90.23 153.21 90.3 149.69 89.39 146.12C88.06 140.89 84.84 136.83 80.95 132.71V132.7Z" fill="black"/>
<path d="M140.49 162.12C132.15 162.1 127.03 155.67 128.96 147.48C130.46 141.13 134.42 136.29 139.08 131.97C140.02 131.1 141.19 131.12 142.1 131.97C146.88 136.47 151.04 141.42 152.28 148.12C153.78 156.24 148.75 162.12 140.49 162.1V162.12ZM140.69 137.26C137.61 139.86 134.58 144.62 133.71 148.14C132.49 153.06 134.41 156.49 139.05 157.21C144.77 158.1 148.8 154.73 147.58 148.86C146.62 144.22 143.87 140.69 140.7 137.26H140.69Z" fill="black"/>
<path d="M21.41 162.12C13.01 162.1 7.90003 155.62 9.91003 147.34C11.43 141.06 15.37 136.27 19.99 131.98C20.85 131.18 22.01 131.09 22.88 131.9C27.83 136.47 32.11 141.55 33.24 148.45C34.55 156.5 29.56 162.15 21.41 162.13V162.12ZM21.58 137.28C18.59 139.79 15.53 144.55 14.66 147.97C13.36 153.06 15.35 156.47 20.09 157.27C25.2 158.14 29.27 154.78 28.69 150.12C28.05 144.88 25.09 140.93 21.58 137.28Z" fill="black"/>
<path d="M113.01 136.78C106.4 136.78 102.32 131.51 103.98 125.05C105.16 120.44 108.01 116.89 111.4 113.72C112.38 112.81 113.57 112.73 114.55 113.64C118.22 117.06 121.37 120.87 122.22 126.01C123.25 132.21 119.29 136.78 113.01 136.78ZM113.02 118.94C110.79 121.47 108.86 123.97 108.48 127.32C108.3 128.94 108.72 130.43 110.23 131.25C112.1 132.27 114.08 132.27 115.94 131.16C117.37 130.31 117.77 128.86 117.59 127.33C117.18 124.01 115.29 121.46 113.03 118.93L113.02 118.94Z" fill="black"/>
<path d="M57.74 121.48C57.93 126.83 54.2 130.34 49.34 130.07C44.32 129.8 41.06 126.14 41.66 121.45C42.25 116.83 44.94 113.45 48.2 110.44C49.07 109.63 50.2 109.58 51.09 110.38C54.61 113.55 57.36 117.19 57.74 121.48ZM49.7 115.73C47.95 117.86 46.43 119.85 46.5 122.57C46.54 124.3 47.72 125.26 49.71 125.25C51.69 125.25 52.84 124.28 52.88 122.53C52.94 119.85 51.42 117.9 49.7 115.72V115.73Z" fill="black"/>
<path d="M30.68 87.0999C20.67 86.9099 11.23 78.5299 9.81002 68.5799C9.65002 67.4399 9.52002 66.2799 9.50002 65.1199C9.47002 63.5299 10.42 62.4799 11.77 62.4199C13.17 62.3599 14.16 63.4299 14.25 65.0999C14.58 71.7099 17.47 76.8799 23.29 80.0299C25.53 81.2399 28.21 81.8099 30.76 82.2599C33.1 82.6699 34.25 83.2499 34.18 84.8599C34.1 86.4099 32.97 87.1399 30.68 87.0999Z" fill="black"/>
<path d="M140.69 137.26C143.86 140.68 146.6 144.22 147.57 148.86C148.79 154.73 144.76 158.1 139.04 157.21C134.41 156.49 132.49 153.06 133.7 148.14C134.57 144.63 137.6 139.86 140.68 137.26H140.69Z" fill="#9FCFD9"/>
<path d="M21.59 137.28C25.1 140.94 28.06 144.89 28.7 150.12C29.27 154.78 25.21 158.14 20.1 157.27C15.36 156.46 13.37 153.06 14.67 147.97C15.54 144.55 18.6 139.8 21.59 137.28Z" fill="#9FCFD9"/>
<path d="M113.02 118.94C115.28 121.46 117.18 124.01 117.58 127.34C117.77 128.87 117.36 130.32 115.93 131.17C114.07 132.28 112.09 132.27 110.22 131.26C108.71 130.44 108.29 128.95 108.47 127.33C108.85 123.98 110.78 121.47 113.01 118.95L113.02 118.94Z" fill="#66B7BA"/>
<path d="M49.7 115.73C51.42 117.9 52.94 119.86 52.88 122.54C52.84 124.28 51.69 125.25 49.71 125.26C47.72 125.26 46.54 124.31 46.5 122.58C46.43 119.85 47.96 117.87 49.7 115.74V115.73Z" fill="#66B7BA"/>
</g>
<defs>
<clipPath id="clip0_243_84">
<rect width="162.16" height="162.12" fill="white"/>
</clipPath>
</defs>
</svg>
