<svg width="179" height="156" viewBox="0 0 179 156" fill="none" xmlns="http://www.w3.org/2000/svg">
<g clip-path="url(#clip0_243_148)">
<path d="M170.56 121.1C170.56 121.1 170.94 97.3799 157.38 80.4399C143.82 63.4999 125.38 43.5499 89.99 43.1699C54.6 42.7899 27.5 64.6299 17.33 86.4599C7.16002 108.29 9.05003 121.1 9.05003 121.1L28.64 115.29L27.5 110.18C27.5 110.18 29.38 83.4499 53.85 71.3999C78.32 59.3499 83.59 58.9799 101.66 61.2399C119.73 63.4999 142.32 82.3199 147.59 97.3799C152.86 112.44 154.37 116.58 154.37 116.58L164.16 118.84L170.56 121.1Z" fill="#E0838A"/>
<path d="M27.06 117.19C33.28 119.97 37.39 124.32 39.08 130.71C39.49 132.26 39.62 133.91 39.71 135.53C39.8 137.19 38.9 138.21 37.5 138.34C36.02 138.48 34.98 137.58 34.71 135.87C34.5 134.55 34.48 133.19 34.14 131.91C32.27 124.75 25.42 120.32 17.71 121.23C10.94 122.02 5.3 128.37 5.12 135.42C4.93 142.67 10.17 149.13 17.23 150.34C18.31 150.53 19.42 150.65 20.52 150.65C36.53 150.67 52.54 150.67 68.55 150.65C74.96 150.65 79.65 146.71 80.8 140.45C82.2 132.83 74.99 125.58 67.36 126.93C64.15 127.5 63.67 127.2 62.73 124.1C58.22 109.12 39.38 104.44 28.47 115.59C28.03 116.04 27.64 116.54 27.07 117.2L27.06 117.19Z" fill="#EDF4FB"/>
<path d="M11.48 116.89C14.8 116.46 18.12 116.43 21.14 115.45C22.51 115.01 23.87 112.82 24.23 111.21C25.92 103.52 28.58 96.2302 32.77 89.5702C43.69 72.2502 59.23 61.6002 79.52 58.5902C114.49 53.4002 146.54 75.6602 154.26 110.1C154.5 111.15 154.83 112.22 155.32 113.17C156.23 114.92 157.55 115.74 159.75 115.73C162.13 115.72 164.52 116.48 167.25 116.97C167.12 115.6 167.06 114.14 166.85 112.7C162.05 79.5002 135.42 52.2302 102.19 46.8202C81.72 43.4902 62.76 47.6902 45.46 59.2102C44.98 59.5302 44.51 59.8802 44.01 60.1802C42.56 61.0402 41.08 60.8202 40.3 59.6302C39.43 58.3102 39.66 56.7602 41.16 55.8602C45.54 53.2302 49.84 50.4102 54.44 48.2102C65.79 42.7802 77.88 40.3202 90.45 40.5102C129.33 41.1002 162.37 67.8702 170.93 105.8C172 110.54 172.21 115.46 172.88 120.29C172.98 121.04 173.25 121.89 173.72 122.46C178.77 128.59 180.23 135.44 177.32 142.84C174.51 150 169.09 154.21 161.4 155.35C160.42 155.49 159.43 155.61 158.45 155.61C142.38 155.63 126.31 155.64 110.23 155.61C101.83 155.6 95.19 150.47 93.2 142.56C90.57 132.11 98.48 121.68 109.25 121.58C110.94 121.56 111.82 121.11 112.21 119.51C112.34 118.96 112.58 118.36 112.96 117.95C114.7 116.02 114.03 114.18 112.96 112.25C107.6 102.57 99.38 97.3702 88.34 97.8102C77.39 98.2502 69.61 104.02 65.01 114C64.56 114.97 64.54 115.77 65.15 116.75C66.06 118.22 66.35 120.36 67.59 121.27C68.76 122.12 70.85 121.61 72.5 121.9C80.28 123.26 86.37 130.85 86.15 138.8C85.91 147.09 79.75 154.23 71.83 155.31C70.45 155.5 69.05 155.61 67.66 155.61C56.13 155.63 44.6 155.63 33.07 155.61C32.38 155.61 31.66 155.59 31.01 155.39C29.73 154.99 29.18 154.01 29.34 152.68C29.49 151.41 30.29 150.73 31.5 150.53C32.01 150.44 32.55 150.5 33.07 150.5C44.95 150.5 56.83 150.52 68.71 150.5C75 150.49 79.7 146.51 80.83 140.35C82.22 132.76 75.24 125.57 67.62 126.74C63.99 127.29 63.77 127.16 62.66 123.65C58 108.93 39.57 104.4 28.66 115.29C28.17 115.77 27.75 116.32 27.16 116.98C27.9 117.38 28.5 117.68 29.08 118C35.64 121.64 39.31 127.13 39.77 134.67C39.91 137.01 39.08 138.14 37.39 138.19C35.71 138.24 34.82 137.2 34.68 134.85C34.4 130.19 32.35 126.51 28.65 123.74C23.86 120.15 17.18 119.95 12.08 123.18C6.87002 126.48 4.31002 132.52 5.50002 138.73C6.59002 144.42 11.48 149.21 17.28 150.19C18.48 150.39 19.7 150.45 20.92 150.51C22.75 150.6 23.83 151.51 23.84 153.04C23.84 154.54 22.71 155.63 20.93 155.62C12.66 155.61 6.30002 152.16 2.35002 144.82C-1.58998 137.49 -0.419976 128.88 5.03002 122.52C5.51002 121.96 5.86002 121.11 5.90002 120.37C7.10002 98.1002 15.72 79.2202 31.69 63.6802C33.22 62.1902 34.75 62.1102 35.95 63.4102C36.99 64.5302 36.82 65.9602 35.32 67.3902C25.87 76.4802 18.83 87.1402 14.99 99.6902C13.38 104.94 12.63 110.45 11.5 115.84C11.41 116.27 11.49 116.74 11.49 116.9L11.48 116.89ZM151.66 117.04C151.09 116.38 150.7 115.88 150.26 115.43C139.35 104.28 120.51 108.96 116 123.94C115.07 127.04 114.58 127.34 111.37 126.77C103.74 125.42 96.53 132.67 97.93 140.29C99.08 146.55 103.77 150.48 110.18 150.49C126.19 150.51 142.2 150.5 158.21 150.49C159.31 150.49 160.42 150.36 161.5 150.18C168.57 148.97 173.8 142.5 173.61 135.26C173.43 128.21 167.79 121.87 161.02 121.07C153.31 120.17 146.46 124.59 144.59 131.75C144.25 133.03 144.23 134.39 144.02 135.71C143.75 137.43 142.71 138.32 141.23 138.18C139.83 138.05 138.93 137.03 139.02 135.37C139.11 133.76 139.24 132.11 139.65 130.55C141.34 124.16 145.45 119.82 151.67 117.03L151.66 117.04ZM30.93 107.2C34.84 105.18 38.76 104.16 42.89 104.14C44.25 104.14 44.89 103.71 45.53 102.5C54.28 85.9102 67.96 76.3502 86.76 75.4202C106.89 74.4302 122.08 83.3002 132.22 100.65C133.56 102.94 134.7 104.19 137.58 104.37C141.03 104.58 144.41 105.82 147.67 106.58C143.07 86.8702 121.77 63.3002 89.83 63.0702C57.87 62.8402 35.93 86.1602 30.94 107.2H30.93ZM60.72 110.52C71.77 86.4802 107.24 86.6202 118.03 110.51C121.47 108.58 124.93 106.64 128.4 104.7C122.84 92.1902 107.25 78.5702 84.92 80.6202C67.13 82.2602 54.13 94.9302 50.48 104.75C53.93 106.7 57.34 108.62 60.72 110.53V110.52Z" fill="black"/>
<path d="M8.36999 68.72C3.73999 68.72 0.0299902 65.08 -9.84604e-06 60.5C-0.0300098 55.9 3.83999 52.01 8.40999 52.07C12.97 52.13 16.67 55.88 16.66 60.45C16.66 65.09 13.02 68.7 8.36999 68.71V68.72ZM8.32999 57.2C6.60999 57.2 5.12999 58.71 5.12999 60.45C5.12999 62.22 6.54999 63.62 8.35999 63.61C10.19 63.61 11.55 62.25 11.53 60.43C11.52 58.67 10.06 57.2 8.32999 57.21V57.2Z" fill="black"/>
<path d="M170.31 68.7199C165.69 68.6899 162.09 65.0199 162.11 60.3699C162.13 55.8299 165.93 52.0499 170.45 52.0699C175.06 52.0999 178.85 55.9799 178.77 60.5899C178.69 65.1799 174.97 68.7499 170.31 68.7199ZM170.47 63.5999C172.26 63.5799 173.67 62.1499 173.63 60.3799C173.6 58.6499 172.08 57.1599 170.37 57.1999C168.64 57.2299 167.22 58.7199 167.23 60.4899C167.25 62.2999 168.62 63.6299 170.46 63.6099L170.47 63.5999Z" fill="black"/>
<path d="M115.74 10.9C114.43 10.9 113.44 10.98 112.47 10.88C110.87 10.71 109.99 9.69 110.05 8.24C110.11 6.82 111.08 5.94 112.7 5.85C112.82 5.85 112.93 5.85 113.05 5.85C114.763 5.80333 115.663 4.89667 115.75 3.13C115.83 1.2 116.82 0 118.32 0C119.84 0 120.79 1.18 120.83 3.11C120.83 3.52 120.87 3.93 120.83 4.33C120.71 5.46 121.18 5.93 122.33 5.84C123.02 5.79 123.73 5.81 124.42 5.88C125.78 6.01 126.7 6.95 126.58 8.15C126.49 9.05 125.62 9.95 124.91 10.67C124.59 10.99 123.81 10.92 123.24 10.92C120.59 10.95 120.87 10.77 120.84 13.42C120.82 15.61 119.99 16.64 118.31 16.63C116.66 16.62 115.81 15.54 115.75 13.38C115.73 12.64 115.75 11.9 115.75 10.9H115.74Z" fill="black"/>
<path d="M63.17 5.64012C65.31 6.27012 68.61 4.75012 68.64 8.30012C68.68 11.9501 65.33 10.5501 63.03 11.1401C63.03 11.9901 63.08 12.9001 63.03 13.8001C62.92 15.6701 61.98 16.6601 60.42 16.6401C58.85 16.6201 58 15.6101 57.95 13.7201C57.94 13.2601 57.91 12.7901 57.95 12.3301C58.05 11.2601 57.58 10.8901 56.53 10.9301C55.67 10.9601 54.77 10.9301 53.95 10.7301C52.65 10.4101 52 9.40012 52.15 8.12012C52.29 6.87012 53.05 6.00012 54.43 5.88012C55.51 5.78012 56.98 6.09012 57.58 5.50012C58.17 4.92012 57.89 3.45012 57.98 2.37012C58.11 0.920121 59.02 0.130121 60.35 0.0501209C61.63 -0.0298791 62.62 0.670121 62.86 1.99012C63.07 3.17012 63.08 4.39012 63.18 5.65012L63.17 5.64012Z" fill="black"/>
<path d="M34.94 26.3799C35.27 26.6399 36.2 27.0399 36.62 27.7399C39.54 32.6299 42.38 37.5699 45.2 42.5199C45.99 43.8999 45.62 45.2699 44.42 46.0299C43.21 46.7899 41.64 46.4599 40.82 45.0599C37.9 40.0999 35 35.1299 32.19 30.1099C31.21 28.3499 32.43 26.4099 34.93 26.3899L34.94 26.3799Z" fill="black"/>
<path d="M147.19 28.5302C146.79 29.4702 146.61 30.0902 146.29 30.6302C143.6 35.3202 140.92 40.0102 138.18 44.6802C136.98 46.7402 134.52 47.0402 133.6 45.2002C133.23 44.4602 133.24 43.1902 133.64 42.4602C136.36 37.5202 139.23 32.6702 142.05 27.7802C142.76 26.5502 143.89 25.9902 145.13 26.5402C145.96 26.9102 146.53 27.8602 147.18 28.5202L147.19 28.5302Z" fill="black"/>
<path d="M91.9 22.8599C91.9 25.5399 91.92 28.2099 91.9 30.8899C91.88 32.8799 90.96 34.0299 89.44 34.0599C87.92 34.0899 86.9 32.9199 86.89 30.9899C86.86 25.5199 86.86 20.0599 86.89 14.5899C86.9 12.7399 87.88 11.6299 89.35 11.5899C90.87 11.5499 91.88 12.7199 91.91 14.6699C91.94 17.3999 91.91 20.1399 91.92 22.8699L91.9 22.8599Z" fill="black"/>
<path d="M151.67 117.04C145.45 119.82 141.34 124.17 139.65 130.56C139.24 132.11 139.11 133.76 139.02 135.38C138.93 137.04 139.83 138.06 141.23 138.19C142.71 138.33 143.75 137.43 144.02 135.72C144.23 134.4 144.25 133.04 144.59 131.76C146.46 124.6 153.31 120.17 161.02 121.08C167.79 121.87 173.43 128.22 173.61 135.27C173.8 142.52 168.56 148.98 161.5 150.19C160.42 150.38 159.31 150.5 158.21 150.5C142.2 150.52 126.19 150.52 110.18 150.5C103.77 150.5 99.08 146.56 97.93 140.3C96.53 132.68 103.74 125.43 111.37 126.78C114.58 127.35 115.06 127.05 116 123.95C120.51 108.97 139.35 104.29 150.26 115.44C150.7 115.89 151.09 116.39 151.66 117.05L151.67 117.04Z" fill="#EDF4FB"/>
<path d="M30.94 107.2C35.93 86.1599 57.87 62.8499 89.83 63.0699C121.77 63.2899 143.07 86.8699 147.67 106.58C144.42 105.82 141.03 104.58 137.58 104.37C134.69 104.19 133.55 102.94 132.22 100.65C122.09 83.2999 106.89 74.4299 86.76 75.4199C67.96 76.3499 54.29 85.9099 45.53 102.5C44.89 103.71 44.26 104.14 42.89 104.14C38.77 104.16 34.84 105.18 30.93 107.2H30.94Z" fill="#FAE18C"/>
<path d="M60.73 110.52C57.34 108.61 53.94 106.69 50.49 104.74C54.15 94.92 67.14 82.25 84.93 80.61C107.26 78.56 122.86 92.17 128.41 104.69C124.94 106.64 121.48 108.58 118.04 110.5C107.25 86.61 71.78 86.47 60.73 110.51V110.52Z" fill="#BBD5A2"/>
<path d="M8.33 57.1999C10.06 57.1999 11.52 58.6599 11.53 60.4199C11.54 62.2399 10.19 63.5899 8.36 63.5999C6.56 63.5999 5.14 62.2099 5.13 60.4399C5.13 58.6999 6.61 57.1999 8.33 57.1899V57.1999Z" fill="white"/>
<path d="M170.47 63.5999C168.63 63.6199 167.25 62.2999 167.24 60.4799C167.22 58.7099 168.64 57.2299 170.38 57.1899C172.09 57.1599 173.61 58.6399 173.64 60.3699C173.67 62.1399 172.27 63.5699 170.48 63.5899L170.47 63.5999Z" fill="white"/>
</g>
<defs>
<clipPath id="clip0_243_148">
<rect width="178.79" height="155.64" fill="white"/>
</clipPath>
</defs>
</svg>
