<svg width="154" height="176" viewBox="0 0 154 176" fill="none" xmlns="http://www.w3.org/2000/svg">
<g clip-path="url(#clip0_243_140)">
<path d="M133.671 112.584C138.151 109.969 142.645 107.374 147.139 104.773C148.223 104.146 149.074 103.196 148.628 102.006C148.299 101.139 147.372 100.258 146.508 99.9066C145.911 99.6657 144.882 100.182 144.168 100.588C138.179 104.009 132.196 107.45 126.261 110.974C124.642 111.937 123.263 111.979 121.658 110.981C118.797 109.212 115.84 107.601 112.944 105.881C110.406 104.373 110.44 102.274 112.985 100.739C113.521 100.416 114.076 100.12 114.612 99.7896C116.217 98.7779 116.663 97.4014 115.84 96.0455C115.064 94.7723 113.637 94.4763 112.094 95.3435C109.905 96.5686 107.703 97.7799 105.583 99.1289C104.107 100.072 102.818 100.106 101.308 99.184C98.1453 97.25 94.9344 95.3986 91.6892 93.6022C90.2553 92.8107 89.6721 91.7164 89.6927 90.1266C89.7887 82.2874 88.8762 84.1801 95.1402 80.4291C97.2946 79.1421 99.4969 77.9445 101.644 76.6368C102.852 75.9004 103.957 75.9141 105.164 76.6368C107.414 77.9927 109.685 79.2935 111.97 80.5874C113.63 81.5234 115.078 81.2481 115.853 79.9129C116.649 78.5502 116.183 77.1874 114.57 76.1894C113.843 75.7421 113.061 75.3704 112.368 74.8749C110.708 73.698 110.577 71.6401 112.272 70.5802C115.702 68.4328 119.195 66.375 122.79 64.5236C123.579 64.1175 125.068 64.4547 125.953 64.9503C132.024 68.3502 138.014 71.8879 144.052 75.3498C144.772 75.7627 145.767 76.334 146.384 76.1137C147.269 75.804 148.216 74.9712 148.6 74.1178C149.122 72.9409 148.333 71.936 147.249 71.3028C143.407 69.066 139.551 66.843 135.702 64.613C134.865 64.1244 134.007 63.6701 133.191 63.1471C131.091 61.7912 131.091 59.6439 133.253 58.3637C137.52 55.8309 141.829 53.3739 146.124 50.8824C146.57 50.6277 147.029 50.3868 147.448 50.0978C148.779 49.1618 149.115 47.7715 148.34 46.5189C147.626 45.3626 146.233 44.9772 144.889 45.7136C142.192 47.2002 139.544 48.7695 136.875 50.3111C134.851 51.4812 132.848 52.6856 130.803 53.8212C128.45 55.1289 126.577 54.0277 126.556 51.3229C126.529 46.0509 126.57 40.7857 126.536 35.5137C126.515 33.0704 124.471 31.5769 122.755 32.8295C122.035 33.3526 121.5 34.619 121.486 35.555C121.383 42.5408 121.383 49.5265 121.459 56.5123C121.479 58.4669 120.8 59.7196 119.078 60.6418C116.114 62.2317 113.253 64.0143 110.323 65.6661C107.84 67.0701 106.049 66.0102 105.994 63.1677C105.98 62.3074 106.049 61.4402 105.946 60.5936C105.768 59.1414 104.581 58.1159 103.291 58.1848C101.933 58.2605 100.924 59.2997 100.903 60.8139C100.855 63.4499 100.842 66.0859 100.903 68.715C100.945 70.3737 100.361 71.5162 98.8726 72.3421C95.5793 74.166 92.3341 76.0656 89.1026 78.0064C87.7785 78.7979 86.5847 78.8461 85.2743 78.0064C83.9844 77.1736 82.6465 76.4028 81.2812 75.687C80.0119 75.0263 79.4836 74.0146 79.4836 72.6312C79.4905 68.6806 79.4974 64.73 79.4836 60.7795C79.4836 59.3754 80.0943 58.4188 81.3155 57.7374C83.559 56.4916 85.7751 55.2046 87.9843 53.8969C89.6721 52.899 90.1729 51.4192 89.3496 50.0496C88.5332 48.7006 87.1953 48.4804 85.4732 49.4233C84.7254 49.8362 84.0118 50.3249 83.2297 50.6622C81.4596 51.4399 79.662 50.552 79.5934 48.6318C79.4493 44.5161 79.4425 40.3865 79.6346 36.2777C79.6758 35.4449 80.6706 34.3919 81.5008 33.8963C87.0787 30.5583 92.7252 27.3373 98.3512 24.0749C98.9412 23.7308 99.5449 23.4005 100.121 23.0357C101.658 22.079 102.125 20.5924 101.322 19.2778C100.574 18.0458 99.0784 17.743 97.5553 18.6171C92.9516 21.2531 88.3891 23.9511 83.7854 26.5802C81.5008 27.8879 79.6689 26.8624 79.4974 24.2608C79.4699 23.8065 79.4836 23.3454 79.4836 22.8843C79.4836 18.3005 79.4836 13.7236 79.4836 9.13986C79.4836 6.42126 78.7358 5.23058 77.0069 5.17552C75.2436 5.12046 74.3997 6.40749 74.3928 9.16739C74.3928 13.9783 74.4066 18.7892 74.386 23.6C74.3654 27 72.5747 28.0049 69.6177 26.3049C65.1718 23.7446 60.7328 21.1636 56.2869 18.5896C55.148 17.9288 53.8444 17.743 53.0142 18.8098C52.4791 19.4981 52.2527 20.73 52.4379 21.5972C52.582 22.2648 53.5082 22.8774 54.2149 23.2903C60.1633 26.7798 66.1255 30.2623 72.1356 33.6554C73.7205 34.5502 74.4477 35.672 74.4066 37.489C74.3311 40.8683 74.4203 44.2476 74.3723 47.627C74.3311 50.6828 72.5061 51.7152 69.8509 50.2354C69.501 50.0427 69.158 49.8431 68.8081 49.6435C66.7292 48.4597 65.3502 48.5905 64.4926 50.0496C63.6349 51.5018 64.2181 52.8852 66.2009 54.0415C68.17 55.1977 70.1116 56.4022 72.1287 57.4552C73.7342 58.2949 74.4409 59.4649 74.4066 61.2957C74.3311 64.9572 74.3585 68.6255 74.3928 72.2939C74.4066 73.8769 73.892 75.0401 72.4169 75.7765C71.1408 76.4097 69.9058 77.1324 68.7189 77.9238C67.2987 78.8668 66.0225 78.7635 64.5886 77.8963C61.4189 75.9761 58.208 74.1178 54.9696 72.3146C53.5631 71.53 52.9251 70.4563 52.9662 68.8458C53.0211 66.2717 53.0005 63.6908 52.9731 61.1167C52.9594 59.3479 52.0057 58.226 50.5443 58.1641C49.0555 58.1022 47.9509 59.3066 47.8754 61.1098C47.8343 62.0252 47.9097 62.9475 47.8343 63.856C47.6765 65.7418 45.9338 66.8843 44.2872 65.9964C40.6783 64.0418 37.0969 62.0183 33.6596 59.7884C32.9186 59.3066 32.5001 57.8337 32.4864 56.8082C32.3835 50.1115 32.4315 43.408 32.4315 36.7044C32.4315 36.2433 32.4384 35.789 32.4315 35.3279C32.3904 33.5591 31.4573 32.4441 29.9959 32.3822C28.5071 32.3271 27.375 33.5247 27.3407 35.3348C27.2927 37.5647 27.327 39.8015 27.327 42.0383C27.327 45.1286 27.3544 48.2257 27.3201 51.316C27.2927 54.0071 25.3991 55.1083 23.0527 53.7662C18.6891 51.2885 14.3599 48.7488 10.0169 46.2367C9.57096 45.982 9.14559 45.6586 8.67218 45.5003C7.40978 45.0804 6.25714 45.3075 5.53675 46.512C4.78205 47.7715 5.04962 48.9415 6.18167 49.8638C6.62077 50.2217 7.12848 50.497 7.62246 50.7792C11.8145 53.2087 16.0202 55.6245 20.2122 58.0609C22.9566 59.6576 22.9635 61.7912 20.2328 63.3879C15.7526 66.0033 11.2519 68.5911 6.75799 71.179C5.67397 71.8053 4.81635 72.7551 5.24173 73.9389C5.55733 74.8129 6.48355 75.687 7.35489 76.0449C7.95179 76.2927 8.98779 75.7834 9.69446 75.3773C15.4919 72.0737 21.2963 68.7838 27.0045 65.3219C29.0628 64.0762 30.7643 63.9317 32.8157 65.2944C35.4297 67.0219 38.2358 68.4535 40.9253 70.064C43.4707 71.5782 43.4501 73.6842 40.9116 75.2121C40.4245 75.5081 39.9168 75.7765 39.4296 76.0724C37.7007 77.1186 37.1998 78.502 38.03 79.8991C38.819 81.2275 40.2461 81.4821 41.9202 80.5461C44.0539 79.3416 46.222 78.1785 48.2802 76.8502C49.8308 75.8453 51.1549 75.9073 52.6986 76.857C55.8547 78.7979 59.0862 80.6218 62.3176 82.4388C63.6144 83.1683 64.1907 84.1938 64.177 85.646C64.0878 93.6917 65.0551 91.7715 58.7568 95.5294C56.6505 96.7888 54.4962 97.9589 52.4036 99.239C51.0932 100.044 49.8994 100.065 48.5752 99.2528C46.3866 97.9107 44.1568 96.6443 41.9202 95.3848C40.253 94.4419 38.819 94.6966 38.03 96.0249C37.1998 97.422 37.6938 98.8054 39.4228 99.8516C40.102 100.265 40.8361 100.609 41.4879 101.07C43.162 102.247 43.3198 104.298 41.6251 105.364C38.1467 107.546 34.579 109.583 30.9701 111.531C30.3595 111.862 29.2343 111.69 28.5482 111.345C26.4625 110.299 24.4523 109.095 22.4558 107.877C22.4214 107.856 22.394 107.835 22.3666 107.808C20.7748 106.954 10.9088 101.187 9.69446 100.499C7.83515 99.4386 6.33261 99.6313 5.51617 101.001C4.67913 102.412 5.23487 103.823 7.08731 104.903C11.2725 107.347 15.4713 109.769 19.6634 112.199C20.8434 112.88 22.147 113.438 22.1882 115.138C22.2293 116.858 20.9464 117.443 19.7594 118.132C15.5125 120.589 11.2725 123.053 7.0187 125.489C5.9141 126.122 5.04276 126.921 5.15254 128.304C5.31034 130.286 7.36861 131.195 9.30339 130.093C13.516 127.691 17.6943 125.241 21.8932 122.812C22.3391 122.557 22.7714 122.282 23.2242 122.041C25.4197 120.898 27.3064 121.972 27.327 124.45C27.3682 129.488 27.3407 134.533 27.3407 139.571C27.3407 140.087 27.3064 140.61 27.375 141.112C27.5809 142.558 28.7472 143.59 30.0371 143.528C31.3955 143.459 32.3972 142.42 32.4315 140.899C32.4795 139.068 32.4521 137.231 32.4521 135.4C32.4521 129.956 32.4864 124.519 32.4315 119.074C32.4178 117.388 33.049 116.28 34.5104 115.468C37.5498 113.782 40.5274 111.979 43.5599 110.265C46.0436 108.861 47.8343 109.921 47.8891 112.77C47.9029 113.63 47.8343 114.498 47.9372 115.344C48.1087 116.789 49.3094 117.822 50.5992 117.746C51.9577 117.67 52.9662 116.631 52.9868 115.11C53.0348 112.474 53.0486 109.838 52.9868 107.209C52.9456 105.543 53.5357 104.408 55.0245 103.582C58.3177 101.758 61.5629 99.8585 64.7876 97.9245C66.1117 97.133 67.3055 97.0779 68.6091 97.9245C69.8989 98.7572 71.2368 99.535 72.6021 100.244C73.8714 100.905 74.3997 101.916 74.3997 103.3C74.3997 107.25 74.3929 111.201 74.3997 115.151C74.3997 116.555 73.7891 117.512 72.5678 118.194C70.3243 119.439 68.1083 120.733 65.899 122.034C64.2113 123.032 63.7035 124.512 64.5337 125.874C65.3502 127.23 66.6812 127.451 68.4101 126.501C69.158 126.088 69.8784 125.606 70.6537 125.262C72.4238 124.484 74.2213 125.372 74.2899 127.285C74.434 131.401 74.4409 135.531 74.2488 139.639C74.2076 140.479 73.2128 141.532 72.3895 142.028C66.3656 145.62 60.2594 149.075 54.2149 152.641C53.4739 153.074 52.5477 153.783 52.4105 154.506C52.2458 155.352 52.582 156.804 53.1926 157.169C53.9885 157.644 55.4705 157.692 56.3006 157.252C60.4721 155.022 64.5063 152.537 68.6297 150.211C69.9607 149.461 71.2162 148.105 73.0001 149.096C74.8457 150.128 74.3791 151.945 74.3928 153.549C74.434 157.961 74.4066 162.366 74.4066 166.777C74.4066 167.293 74.3997 167.81 74.4477 168.319C74.5918 169.785 75.4426 170.611 76.8765 170.721C78.2144 170.831 79.367 169.778 79.4288 168.285C79.5248 166.055 79.4836 163.818 79.4905 161.588C79.4974 158.326 79.4425 155.056 79.518 151.794C79.5797 149.062 81.4664 148.002 83.8266 149.351C88.4303 151.98 92.9722 154.733 97.6308 157.259C98.4472 157.699 99.9429 157.63 100.732 157.142C101.336 156.77 101.617 155.339 101.48 154.464C101.377 153.804 100.492 153.115 99.7988 152.709C93.8573 149.206 87.9088 145.703 81.885 142.344C80.0805 141.339 79.4082 140.059 79.4699 138.07C79.566 134.808 79.4699 131.539 79.5042 128.276C79.5454 125.221 81.3773 124.188 84.0256 125.675C84.6225 126.012 85.1988 126.377 85.8094 126.687C87.2914 127.437 88.643 127.106 89.3839 125.84C90.0975 124.622 89.7407 123.121 88.396 122.289C86.2554 120.974 84.1079 119.673 81.8781 118.524C80.1423 117.629 79.4013 116.383 79.4562 114.422C79.5591 110.815 79.5111 107.209 79.4768 103.596C79.4631 102.013 79.9845 100.856 81.4596 100.12C82.7357 99.4868 83.9638 98.7573 85.1576 97.9726C86.5024 97.0917 87.7373 97.0848 89.1369 97.9245C92.3616 99.8722 95.6136 101.758 98.9 103.589C100.313 104.38 100.931 105.454 100.897 107.058C100.842 109.632 100.869 112.213 100.897 114.787C100.91 116.555 101.871 117.67 103.332 117.726C104.821 117.781 105.919 116.576 105.994 114.766C106.035 113.851 105.96 112.928 106.035 112.02C106.193 110.134 107.943 109.005 109.589 109.9C113.15 111.82 116.69 113.802 120.08 116.005C120.869 116.514 121.363 118.028 121.376 119.088C121.486 126.191 121.39 133.294 121.493 140.39C121.507 141.319 122.062 142.578 122.79 143.094C124.512 144.313 126.522 142.799 126.536 140.355C126.57 135.145 126.536 129.935 126.556 124.718C126.57 121.807 128.423 120.768 130.988 122.199C131.187 122.309 131.38 122.433 131.579 122.543C135.674 124.911 139.777 127.278 143.873 129.646C144.319 129.901 144.745 130.224 145.225 130.382C146.494 130.795 147.64 130.561 148.353 129.35C149.094 128.084 148.82 126.921 147.688 126.005C147.249 125.647 146.734 125.379 146.24 125.09C142.048 122.66 137.843 120.244 133.651 117.808C130.906 116.211 130.913 114.105 133.671 112.495V112.584Z" fill="white"/>
<path d="M34.9289 72.9685C31.814 69.424 28.7952 69.9402 25.2482 72.3698C20.9326 75.3293 16.2535 77.7657 11.6704 80.3191C6.66881 83.1065 1.07031 80.3466 0.096059 74.7098C-0.404787 71.7916 1.04286 68.7289 3.8627 67.022C6.88836 65.1913 9.96891 63.45 13.022 61.6674C13.4543 61.4128 13.8659 61.1375 14.4697 60.7521C10.8677 58.6598 7.40979 56.7051 3.99992 54.6679C0.912507 52.8234 -0.487118 49.6643 0.212694 46.3745C1.30358 41.2401 6.73742 38.6316 11.3823 41.1024C14.4011 42.713 17.3169 44.5024 20.2877 46.2093C20.8229 46.519 21.3649 46.8149 22.1059 47.2279C22.1607 46.6016 22.2362 46.1267 22.2362 45.6587C22.2499 42.1073 22.1813 38.5559 22.2637 35.0045C22.3597 30.8612 25.2619 27.7503 29.3373 27.2686C32.8775 26.8487 36.4726 29.3677 37.4194 33.0361C37.6595 33.9584 37.6664 34.9632 37.6664 35.9268C37.687 42.1692 37.7144 48.4117 37.6458 54.6541C37.6321 55.9274 38.0163 56.6363 39.1484 57.1663C40.4245 57.765 41.6114 58.5428 42.9081 59.2861C43.9373 55.9205 45.9338 53.8007 49.3162 53.1606C53.5768 52.3485 57.961 55.7209 58.1805 60.0913C58.2903 62.3213 58.2766 64.5581 58.208 66.788C58.1737 67.8548 58.5579 68.4398 59.4704 68.9354C61.5767 70.0779 63.6144 71.3374 65.7001 72.5212C67.2918 73.4297 69.254 72.3147 69.2746 70.484C69.3021 68.02 69.2334 65.5561 69.3089 63.099C69.3432 62.0735 68.911 61.5573 68.074 61.11C66.5165 60.2772 65.0003 59.3618 63.4771 58.4671C59.6419 56.2165 58.1256 52.5068 59.5115 48.7696C60.9112 44.9842 64.3622 43.1878 68.76 43.9518C68.8561 43.9656 68.9659 43.9105 69.2678 43.8417C69.2678 42.1279 69.3638 40.3591 69.206 38.611C69.158 38.1085 68.4513 37.5442 67.9162 37.2276C62.3039 33.9446 56.6368 30.7511 51.0452 27.4337C46.2631 24.5981 45.6799 18.3488 49.7759 14.7905C52.239 12.6501 55.6488 12.3197 58.7088 14.0335C62.1324 15.9537 65.5148 17.9427 69.1786 20.0557C69.2197 19.2711 69.2815 18.686 69.2815 18.101C69.2952 14.6667 69.2472 11.2254 69.3158 7.79101C69.3844 4.59752 70.8458 2.18175 73.7342 0.798361C76.4923 -0.523084 79.1886 -0.192723 81.6448 1.6105C83.8952 3.26231 84.7528 5.61613 84.746 8.34849C84.746 11.6108 84.746 14.88 84.746 18.1423C84.746 18.6929 84.746 19.2435 84.746 20.1245C88.3205 18.0529 91.5588 16.05 94.9276 14.3019C96.3409 13.5654 98.0355 13.0424 99.6067 13.0286C102.996 12.9942 105.884 15.4719 106.728 18.6723C107.6 21.9965 106.282 25.4516 103.236 27.2686C97.6033 30.6272 91.9225 33.9033 86.2211 37.145C85.1508 37.7575 84.6225 38.4045 84.7254 39.6846C84.842 41.0887 84.7528 42.5065 84.7528 43.5939C86.6945 43.8073 88.4509 43.7178 90.0014 44.2409C92.8075 45.1838 94.4679 47.3311 94.8795 50.3113C95.298 53.3465 94.3101 55.8999 91.799 57.6549C89.8848 58.9901 87.7579 60.0019 85.8025 61.282C85.2948 61.6124 84.8214 62.3901 84.8008 62.9889C84.6911 65.501 84.7322 68.0269 84.7597 70.5459C84.7803 72.2734 86.7288 73.4228 88.2244 72.5831C90.4611 71.3305 92.7046 70.0779 94.8795 68.7083C95.3392 68.4192 95.7303 67.6552 95.7577 67.0909C95.8675 65.0949 95.7783 63.0852 95.8057 61.0824C95.8538 56.8221 98.3031 53.8833 102.379 53.14C105.898 52.4999 109.342 54.6404 110.811 58.3776C110.913 58.6322 110.996 58.8938 111.14 59.2999C112.752 58.3707 114.316 57.5654 115.764 56.5812C116.148 56.3197 116.32 55.5213 116.32 54.9707C116.361 48.2672 116.32 41.5705 116.368 34.8669C116.395 31.1985 118.831 28.2941 122.357 27.5026C125.809 26.7248 129.301 28.2596 130.796 31.4669C131.4 32.7677 131.688 34.3094 131.736 35.7547C131.867 39.5057 131.778 43.2636 131.778 47.3587C135.194 45.3765 138.295 43.4907 141.486 41.7769C142.81 41.068 144.306 40.4211 145.767 40.2903C149.451 39.9531 152.587 42.2036 153.63 45.5899C154.686 49.0105 153.403 52.5894 150.254 54.5096C146.803 56.6225 143.263 58.5909 139.571 60.7383C140.093 61.0824 140.477 61.3715 140.889 61.6124C143.798 63.3055 146.714 64.9848 149.616 66.6848C153.787 69.1281 155.173 73.6224 152.964 77.5179C150.782 81.3721 146.117 82.5077 141.98 80.1401C136.388 76.9329 130.81 73.7119 125.26 70.4358C124.354 69.8989 123.688 69.8301 122.803 70.422C121.575 71.2479 120.251 71.9293 118.893 72.7208C120.752 74.9163 121.946 77.2701 121.267 80.2434C120.114 85.2952 114.804 87.8761 110.2 85.5154C108.272 84.5243 106.474 83.2855 104.54 82.3219C103.957 82.0328 102.982 82.0191 102.413 82.3081C100.183 83.4575 98.0355 84.7583 95.8812 86.0453C94.5228 86.8575 94.4884 89.1907 95.8332 89.9959C98.0355 91.3105 100.245 92.6319 102.516 93.8157C103.037 94.091 103.943 94.0497 104.492 93.7744C106.173 92.9416 107.764 91.9161 109.397 90.987C113.198 88.8259 117.157 89.4247 119.723 92.5425C122.186 95.5364 122.035 99.4112 119.332 102.742C119.188 102.914 119.064 103.1 118.934 103.272C119.002 103.341 119.03 103.389 119.078 103.417C122.207 105.436 125.381 105.516 128.601 103.658C133.143 101.029 137.657 98.3582 142.234 95.7841C147.304 92.9279 152.964 95.674 153.918 101.386C154.398 104.277 152.909 107.367 150.103 109.054C147.173 110.816 144.189 112.495 141.232 114.216C140.704 114.525 140.196 114.876 139.551 115.296C143.215 117.423 146.741 119.412 150.206 121.504C152.943 123.163 154.268 125.723 153.925 128.882C153.561 132.248 151.66 134.574 148.36 135.551C146.24 136.178 144.189 135.875 142.268 134.76C139.407 133.101 136.546 131.442 133.678 129.791C133.15 129.488 132.601 129.206 131.784 128.765C131.784 132.585 131.805 136.157 131.771 139.729C131.757 140.81 131.702 141.918 131.462 142.957C130.625 146.557 126.961 149.165 123.421 148.766C119.455 148.325 116.437 145.263 116.388 141.408C116.306 134.712 116.327 128.008 116.382 121.305C116.388 120.107 116.032 119.426 114.968 118.916C113.692 118.304 112.505 117.526 111.147 116.748C110.111 120.024 108.176 122.206 104.807 122.86C100.451 123.707 96.0459 120.334 95.8469 115.874C95.744 113.644 95.7646 111.407 95.8263 109.178C95.8538 108.186 95.5176 107.629 94.6463 107.154C92.4919 105.991 90.3994 104.697 88.2656 103.493C86.7699 102.653 84.7871 103.768 84.7665 105.468C84.7322 107.987 84.6842 110.513 84.8077 113.025C84.842 113.658 85.384 114.443 85.926 114.828C87.2776 115.778 88.7596 116.535 90.1867 117.361C94.3307 119.763 95.9155 123.349 94.5502 127.196C93.1712 131.078 89.6652 132.888 84.7803 132.069C84.7803 133.913 84.6979 135.73 84.842 137.527C84.8763 137.974 85.5693 138.47 86.0701 138.759C91.7784 142.104 97.5278 145.373 103.216 148.752C106.097 150.466 107.305 153.15 106.852 156.481C106.426 159.599 104.615 161.684 101.658 162.689C99.3734 163.467 97.1711 163.116 95.0854 161.898C91.751 159.95 88.4028 158.023 84.7528 155.917C84.7528 158.264 84.7597 160.301 84.7528 162.338C84.746 164.458 84.8352 166.585 84.6774 168.691C84.348 173.034 81.0754 176.041 76.9039 175.993C72.8354 175.945 69.6039 172.91 69.3707 168.615C69.1854 165.132 69.3089 161.629 69.2952 158.14C69.2952 157.514 69.2952 156.894 69.2952 155.917C66.5028 157.534 63.9986 159.076 61.412 160.459C59.6213 161.416 57.7895 162.517 55.8478 162.916C52.1429 163.666 48.7605 161.437 47.5187 157.913C46.2906 154.409 47.5941 150.672 50.8942 148.718C56.4379 145.435 62.0158 142.2 67.628 139.041C68.8904 138.332 69.4667 137.554 69.3226 136.095C69.1923 134.808 69.2952 133.493 69.2952 132.351C67.6349 132.255 66.146 132.372 64.7533 132.034C61.7002 131.305 59.8134 129.219 59.2302 126.15C58.6059 122.874 59.6556 120.121 62.4686 118.249C64.3142 117.017 66.3313 116.039 68.1837 114.807C68.7257 114.45 69.2197 113.61 69.2472 112.97C69.3707 110.513 69.3158 108.049 69.2883 105.585C69.2678 103.747 67.3193 102.618 65.7275 103.52C63.5938 104.731 61.5081 106.025 59.3469 107.182C58.4412 107.663 58.1942 108.276 58.2217 109.233C58.2834 111.18 58.2629 113.128 58.2285 115.076C58.1668 119.226 55.7243 122.144 51.7175 122.894C48.2253 123.548 44.7743 121.49 43.3198 117.884C43.1963 117.567 43.0728 117.251 42.8738 116.741C41.2684 117.671 39.6629 118.51 38.1741 119.529C37.8036 119.783 37.7007 120.616 37.7007 121.181C37.6664 127.822 37.6938 134.471 37.6595 141.112C37.6458 144.278 36.109 146.584 33.3303 147.967C30.5173 149.365 27.773 148.986 25.2825 147.114C23.1762 145.524 22.2637 143.287 22.2499 140.693C22.2225 136.811 22.2499 132.929 22.2499 128.738C21.4952 129.151 20.9669 129.426 20.4455 129.729C17.4816 131.436 14.552 133.211 11.5538 134.849C7.7597 136.928 3.23836 135.682 1.11833 132.069C-1.06343 128.352 0.0754764 123.775 3.8627 121.477C7.30688 119.384 10.8265 117.416 14.552 115.255C10.998 113.19 7.65678 111.256 4.30866 109.322C2.24352 108.124 0.78215 106.473 0.25386 104.071C-0.411648 101.035 0.48027 98.4752 2.76495 96.5068C5.11138 94.4902 7.88319 93.974 10.7442 95.2817C12.6035 96.1283 14.3668 97.2157 16.1026 98.31C17.413 99.129 17.7012 100.512 17.0013 101.744C16.3015 102.983 14.8402 103.417 13.4543 102.694C12.1438 102.006 10.8883 101.201 9.59842 100.478C7.87633 99.5076 6.35321 99.7553 5.57106 101.091C4.76148 102.467 5.27605 103.885 7.01186 104.897C11.348 107.422 15.6909 109.935 20.0339 112.447C23.1007 114.222 23.1281 116.267 20.1025 118.028C15.7595 120.547 11.4234 123.066 7.0736 125.572C5.91411 126.239 5.01533 127.079 5.25546 128.559C5.5642 130.465 7.49898 131.236 9.37887 130.162C13.5915 127.76 17.7698 125.31 21.9686 122.881C22.4146 122.626 22.8468 122.351 23.2997 122.11C25.4951 120.974 27.3682 122.055 27.3888 124.539C27.4299 129.467 27.4025 134.388 27.4025 139.316C27.4025 139.777 27.3819 140.231 27.4025 140.693C27.4985 142.482 28.6237 143.693 30.1057 143.611C31.5671 143.528 32.5001 142.413 32.5001 140.631C32.5139 133.583 32.555 126.542 32.4727 119.501C32.4521 117.54 33.1451 116.301 34.8672 115.379C37.8311 113.789 40.6921 112.006 43.6217 110.354C46.0985 108.957 47.8823 110.017 47.9372 112.873C47.9509 113.734 47.8823 114.601 47.9852 115.448C48.1636 116.893 49.3643 117.918 50.6541 117.843C52.0126 117.76 53.0074 116.721 53.0348 115.2C53.076 112.509 53.0829 109.818 53.0348 107.127C53.0143 105.599 53.57 104.532 54.9284 103.775C58.2629 101.91 61.563 99.9893 64.8425 98.0209C66.1735 97.2226 67.3604 97.195 68.664 98.0347C69.9538 98.8675 71.2917 99.6452 72.657 100.354C73.9263 101.015 74.4409 102.04 74.4409 103.417C74.4409 107.312 74.4272 111.208 74.4409 115.103C74.4477 116.562 73.8851 117.595 72.5884 118.311C70.3381 119.549 68.1288 120.843 65.9196 122.151C64.2387 123.142 63.7379 124.636 64.5749 125.998C65.4051 127.347 66.7224 127.554 68.4582 126.604C69.206 126.191 69.9195 125.702 70.7017 125.365C72.4718 124.594 74.2625 125.489 74.3311 127.409C74.4683 131.525 74.4752 135.655 74.2831 139.763C74.2419 140.596 73.2402 141.649 72.41 142.145C66.3862 145.738 60.28 149.193 54.2355 152.758C53.4945 153.191 52.5752 153.907 52.4379 154.63C52.2801 155.476 52.6232 156.928 53.2338 157.286C54.0365 157.754 55.5116 157.796 56.3418 157.355C60.6093 155.063 64.767 152.565 68.959 150.135C69.3021 149.936 69.6451 149.729 69.995 149.537C72.5678 148.119 74.386 149.151 74.4134 152.131C74.4615 157.059 74.4272 161.98 74.434 166.908C74.434 169.599 75.2093 170.817 76.9177 170.859C78.6809 170.9 79.5111 169.62 79.518 166.846C79.518 162.152 79.518 157.452 79.518 152.758C79.5248 148.965 81.2263 147.961 84.4509 149.826C88.8419 152.365 93.1986 154.981 97.6651 157.383C98.4815 157.823 99.9772 157.741 100.766 157.252C101.37 156.88 101.638 155.442 101.5 154.568C101.397 153.907 100.505 153.226 99.8057 152.82C93.8092 149.289 87.7991 145.786 81.7409 142.365C80.1492 141.463 79.4493 140.328 79.4905 138.518C79.5591 135.138 79.4768 131.759 79.5248 128.38C79.566 125.338 81.4116 124.312 84.0599 125.799C84.7048 126.164 85.336 126.556 86.0015 126.879C87.3943 127.547 88.7047 127.175 89.4114 125.957C90.0838 124.794 89.7819 123.28 88.5469 122.509C86.372 121.153 84.1628 119.825 81.8918 118.648C80.156 117.746 79.4356 116.494 79.4836 114.532C79.5797 110.926 79.5385 107.319 79.5042 103.706C79.4905 102.116 80.06 101.022 81.5008 100.237C88.4989 96.4035 85.9604 96.3898 92.8624 100.23C94.955 101.393 96.9858 102.667 99.0853 103.823C100.389 104.539 100.938 105.578 100.924 107.037C100.897 109.673 100.897 112.309 100.924 114.938C100.938 116.7 101.912 117.822 103.373 117.863C104.8 117.905 105.919 116.748 106.015 115.062C106.07 114.092 105.98 113.107 106.063 112.144C106.221 110.258 107.97 109.15 109.63 110.045C113.191 111.972 116.732 113.947 120.121 116.156C120.903 116.666 121.39 118.187 121.411 119.247C121.52 126.404 121.459 133.562 121.479 140.72C121.479 142.475 122.467 143.604 123.935 143.638C125.363 143.673 126.46 142.516 126.57 140.823C126.604 140.369 126.577 139.908 126.577 139.447C126.577 134.464 126.549 129.481 126.598 124.498C126.618 122.11 128.464 121.036 130.584 122.089C130.892 122.241 131.181 122.419 131.476 122.592C135.476 124.911 139.469 127.224 143.462 129.543C143.757 129.715 144.059 129.88 144.354 130.052C146.151 131.057 147.592 130.857 148.395 129.488C149.239 128.056 148.703 126.659 146.844 125.572C144.038 123.927 141.218 122.316 138.405 120.685C136.724 119.715 135.036 118.765 133.376 117.76C131.057 116.349 131.057 114.188 133.417 112.798C137.939 110.134 142.487 107.512 147.036 104.903C148.175 104.25 148.937 103.403 148.724 102.02C148.429 100.099 146.528 99.3217 144.635 100.395C140.909 102.501 137.225 104.663 133.52 106.81C131.002 108.269 128.471 109.701 125.98 111.194C124.615 112.013 123.38 112.027 121.987 111.18C119.064 109.405 116.066 107.753 113.116 106.018C110.378 104.408 110.419 102.343 113.178 100.705C113.72 100.389 114.275 100.093 114.797 99.7485C116.265 98.7849 116.656 97.3946 115.853 96.0938C115.105 94.8825 113.685 94.5315 112.251 95.3299C110.008 96.5756 107.757 97.8213 105.596 99.191C104.114 100.134 102.824 100.148 101.322 99.2323C98.159 97.2983 94.9481 95.4469 91.7029 93.6505C90.269 92.859 89.6995 91.751 89.7201 90.168C89.8162 82.3357 88.9037 84.2352 95.1814 80.4774C97.2877 79.2179 99.442 78.041 101.528 76.7608C102.845 75.9487 104.039 75.9762 105.356 76.7815C107.497 78.096 109.679 79.328 111.86 80.5669C113.644 81.5786 115.092 81.3446 115.888 79.9612C116.697 78.564 116.183 77.1875 114.447 76.1414C113.761 75.7284 113.033 75.3843 112.389 74.9232C110.735 73.7394 110.612 71.6953 112.313 70.6285C115.744 68.4811 119.243 66.4233 122.838 64.5787C123.627 64.1727 125.109 64.5168 126.001 65.0123C132.073 68.4123 138.062 71.9499 144.1 75.4118C144.813 75.8248 145.815 76.3892 146.432 76.1689C147.311 75.8523 148.264 75.0127 148.635 74.1592C149.149 72.9823 148.353 71.9775 147.269 71.3512C143.42 69.1143 139.572 66.8913 135.723 64.6682C134.885 64.1796 134.028 63.7253 133.211 63.2022C131.119 61.8464 131.133 59.699 133.294 58.4189C137.561 55.893 141.87 53.4291 146.165 50.9376C146.611 50.6829 147.07 50.442 147.489 50.1461C148.813 49.2101 149.142 47.8129 148.36 46.5672C147.64 45.4178 146.247 45.0324 144.902 45.7826C142.007 47.3862 139.16 49.0655 136.299 50.7242C134.474 51.7772 132.663 52.8716 130.817 53.8902C128.471 55.1841 126.598 54.0829 126.584 51.3712C126.556 46.5052 126.577 41.6324 126.577 36.7664C126.577 36.3053 126.598 35.8511 126.57 35.3899C126.474 33.5936 125.349 32.3892 123.867 32.4786C122.399 32.5612 121.472 33.6693 121.472 35.4588C121.459 42.5065 121.418 49.5473 121.493 56.5881C121.514 58.5497 120.821 59.7885 119.099 60.7108C116.135 62.3006 113.274 64.0832 110.344 65.735C107.86 67.1322 106.077 66.0654 106.029 63.216C106.015 62.3557 106.083 61.4885 105.98 60.6419C105.802 59.1897 104.601 58.1711 103.312 58.2468C101.96 58.3294 100.958 59.3756 100.931 60.8897C100.89 63.5257 100.869 66.1617 100.931 68.7908C100.972 70.4564 100.375 71.592 98.8863 72.4111C95.5931 74.2349 92.3479 76.1345 89.1164 78.0754C87.7922 78.8738 86.5984 78.9013 85.288 78.0616C83.9913 77.2288 82.6602 76.458 81.2949 75.7422C80.0257 75.0815 79.5111 74.056 79.5111 72.6795C79.5111 68.784 79.5317 64.8885 79.5042 60.993C79.4905 59.4513 80.1492 58.4395 81.5076 57.7031C83.7168 56.5193 85.8712 55.2254 88.0323 53.9452C89.7133 52.9473 90.2073 51.4538 89.3771 50.0979C88.5538 48.7489 87.2296 48.5425 85.4938 49.4922C84.746 49.9052 84.0324 50.3939 83.2503 50.7311C81.4802 51.5019 79.6895 50.6072 79.6209 48.687C79.4837 44.5712 79.4768 40.4417 79.6689 36.3329C79.7101 35.5001 80.7117 34.447 81.5419 33.9515C86.9758 30.7029 92.4782 27.5783 97.9601 24.4054C98.7011 23.9787 99.442 23.5451 100.169 23.0909C101.699 22.1342 102.166 20.6407 101.356 19.3261C100.602 18.101 99.1127 17.8051 97.5827 18.6792C92.9859 21.3221 88.4166 24.02 83.8129 26.6491C81.5282 27.9499 79.7032 26.9244 79.5317 24.3091C79.5042 23.8548 79.518 23.3937 79.518 22.9326C79.518 18.3488 79.518 13.7719 79.518 9.18816C79.518 6.49709 78.7495 5.27889 77.0343 5.23759C75.2573 5.1963 74.434 6.4558 74.434 9.24322C74.434 13.827 74.4409 18.4039 74.434 22.9876C74.434 24.4054 74.6398 25.9127 73.151 26.835C71.5456 27.826 70.3243 26.7386 69.0619 26.0159C64.8082 23.5726 60.575 21.1018 56.3281 18.6516C55.1823 17.9909 53.8856 17.812 53.0554 18.8856C52.5203 19.5808 52.3076 20.8127 52.4928 21.6799C52.6369 22.3476 53.57 22.9532 54.2767 23.3731C60.177 26.8418 66.0774 30.3106 72.0464 33.6487C73.7685 34.6122 74.5163 35.796 74.4615 37.7506C74.3723 41.068 74.4683 44.3923 74.4272 47.7166C74.386 50.7655 72.5473 51.791 69.899 50.3113C69.254 49.9465 68.6228 49.5542 67.9573 49.2307C66.5714 48.5631 65.2541 48.9348 64.5474 50.1461C63.8682 51.3092 64.1632 52.8234 65.3982 53.5942C67.5731 54.9501 69.7823 56.2784 72.0533 57.4622C73.7822 58.3638 74.5232 59.6027 74.4683 61.5711C74.3654 65.1775 74.4134 68.784 74.4477 72.3973C74.4615 73.9803 73.9332 75.1365 72.4581 75.873C71.1819 76.5062 69.9538 77.2426 68.76 78.0203C67.4153 78.9013 66.1735 78.9082 64.7807 78.0685C61.5561 76.1207 58.304 74.2349 55.0176 72.4042C53.6043 71.6127 52.9868 70.539 53.0211 68.9285C53.076 66.3544 53.0554 63.7735 53.028 61.1994C53.0143 59.4306 52.0537 58.3156 50.5855 58.2606C49.0967 58.2055 48.0058 59.41 47.9303 61.2201C47.8892 62.1354 47.9646 63.0577 47.8892 63.9662C47.7245 65.852 45.9818 66.9807 44.3352 66.086C40.7744 64.1658 37.2342 62.1836 33.8449 59.9812C33.0559 59.4719 32.5619 57.9578 32.5482 56.8978C32.4384 49.7951 32.5344 42.6923 32.4315 35.5964C32.4178 34.6673 31.8621 33.4009 31.1348 32.8916C29.4127 31.6734 27.4025 33.1875 27.3888 35.6308C27.3545 40.8409 27.3888 46.051 27.3682 51.2679C27.3545 54.1792 25.502 55.2185 22.936 53.7938C22.7371 53.6837 22.545 53.5598 22.346 53.4497C18.25 51.0821 14.1472 48.7145 10.0512 46.3469C9.60528 46.0923 9.1799 45.7688 8.69964 45.6105C7.43037 45.1975 6.2846 45.4247 5.57106 46.636C4.82323 47.9024 5.09766 49.0655 6.22971 49.9809C6.66881 50.3388 7.18338 50.6072 7.6705 50.8963C11.8625 53.3258 16.0683 55.7416 20.2603 58.178C22.9978 59.7747 23.0046 61.9083 20.2603 63.5051C15.7801 66.1204 11.2793 68.7083 6.78545 71.2961C5.70142 71.9224 4.84381 72.8722 5.28291 74.056C5.60537 74.9232 6.53159 75.8041 7.40293 76.1552C7.99983 76.396 9.03582 75.8867 9.7425 75.4807C15.684 72.0876 21.6256 68.6945 27.5054 65.1844C29.2343 64.152 30.682 64.0626 32.4109 65.1569C35.2033 66.9257 38.1329 68.4811 40.9734 70.1742C43.5119 71.6884 43.4845 73.7944 40.9391 75.3224C40.3559 75.6734 39.7453 75.99 39.1689 76.3616C37.6938 77.3114 37.2891 78.7017 38.0781 80.0094C38.8122 81.2345 40.2324 81.5924 41.6732 80.8009C43.9236 79.562 46.1808 78.33 48.3283 76.9398C49.8857 75.9349 51.2098 76.0175 52.7535 76.9604C55.9164 78.8944 59.1685 80.6701 62.3588 82.5628C65.1375 84.2077 65.1238 91.9299 62.3451 93.5748C59.0038 95.5501 55.6214 97.4428 52.287 99.4181C51.0726 100.134 49.9749 100.155 48.7674 99.425C46.517 98.076 44.246 96.7683 41.9613 95.4744C40.301 94.5315 38.8602 94.7999 38.0712 96.1282C37.2685 97.4841 37.7282 98.8606 39.3336 99.8586C40.0128 100.278 40.7332 100.636 41.3919 101.084C43.258 102.336 43.3953 104.415 41.5222 105.578C38.1329 107.684 34.6682 109.673 31.1485 111.552C30.483 111.91 29.303 111.786 28.5757 111.435C26.4831 110.409 24.4729 109.191 22.4763 107.973C21.0973 107.133 20.72 105.702 21.4198 104.435C22.1264 103.169 23.5192 102.791 24.9737 103.479C25.1247 103.554 25.2962 103.623 25.4197 103.733C28.6923 106.603 31.8621 106.507 34.8946 103.148C34.6888 102.873 34.3251 102.405 33.9821 101.923C31.9375 98.9914 32.061 95.1922 34.2908 92.5356C36.6441 89.7275 40.4794 88.8741 43.7314 90.5603C45.6525 91.5514 47.4569 92.7833 49.3917 93.7538C49.9817 94.0497 50.9491 94.1117 51.5186 93.8226C53.7484 92.6801 55.8958 91.3724 58.0502 90.0923C59.5047 89.2319 59.5047 86.9125 58.0502 86.0522C55.889 84.7721 53.7415 83.4782 51.5186 82.315C50.9903 82.0397 50.0778 82.0328 49.5426 82.3013C47.8068 83.1616 46.1739 84.2215 44.4861 85.1713C40.7812 87.2636 36.8431 86.651 34.284 83.5952C31.7935 80.6219 31.917 76.692 34.5996 73.3953C34.7437 73.2232 34.8809 73.0443 34.9015 73.0167L34.9289 72.9685Z" fill="black"/>
<path d="M69.4942 87.9311C68.5268 84.5724 70.3312 82.9688 73.0138 81.3032C75.9503 79.4794 78.3653 79.211 81.0205 81.434C81.4527 81.7919 81.9879 82.0397 82.5025 82.2806C84.0736 83.017 84.7323 84.1939 84.6842 85.9696C84.499 93.8226 85.7751 91.7234 78.6398 95.9768C77.4871 96.665 76.4031 96.6444 75.2779 95.9286C74.6056 95.5019 73.94 95.0339 73.2059 94.7379C70.1185 93.4784 68.5062 91.4137 69.4942 87.9242V87.9311ZM74.5095 87.938C74.5026 89.3489 75.6896 90.7323 76.9588 90.7874C78.0978 90.8355 79.4699 89.4246 79.4837 88.1926C79.5042 86.6716 78.2418 85.2056 76.952 85.2607C75.7513 85.3089 74.5095 86.6716 74.5026 87.938H74.5095Z" fill="black"/>
</g>
<defs>
<clipPath id="clip0_243_140">
<rect width="154" height="176" fill="white"/>
</clipPath>
</defs>
</svg>
