<svg width="184" height="179" viewBox="0 0 184 179" fill="none" xmlns="http://www.w3.org/2000/svg">
<g clip-path="url(#clip0_243_180)">
<path d="M78.51 107.4C97.2104 107.4 112.37 92.2405 112.37 73.5402C112.37 54.8398 97.2104 39.6802 78.51 39.6802C59.8096 39.6802 44.65 54.8398 44.65 73.5402C44.65 92.2405 59.8096 107.4 78.51 107.4Z" fill="#81807F"/>
<path d="M159.69 22.8501C158.76 22.8501 157.84 22.9301 156.94 23.0501C152.72 11.3901 141.55 3.06006 128.44 3.06006C117.07 3.06006 107.18 9.32006 101.99 18.5801C99.73 18.0401 97.36 17.7501 94.93 17.7501C78.19 17.7501 64.62 31.3201 64.62 48.0601C64.62 64.8001 78.19 78.3701 94.93 78.3701C101.82 78.3701 108.18 76.0601 113.27 72.1901C118.37 76.0801 124.73 78.3901 131.63 78.3901C142.18 78.3901 151.47 72.9901 156.9 64.8101C157.81 64.9301 158.74 65.0201 159.69 65.0201C171.33 65.0201 180.77 55.5801 180.77 43.9401C180.77 32.3001 171.33 22.8601 159.69 22.8601V22.8501Z" fill="#81807F"/>
<path d="M112.44 99.4598C129.18 99.4598 142.75 85.8896 142.75 69.1498C142.75 52.4101 129.18 38.8398 112.44 38.8398C95.7003 38.8398 82.13 52.4101 82.13 69.1498C82.13 85.8896 95.7003 99.4598 112.44 99.4598Z" fill="#81807F"/>
<path d="M117.28 58.9902C108.41 58.9902 100.86 64.5402 97.86 72.3602C100.93 68.0302 105.97 65.1902 111.68 65.1902C121.03 65.1902 128.61 72.7702 128.61 82.1202C128.61 91.4702 121.03 99.0502 111.68 99.0502C110.69 99.0502 109.73 98.9502 108.79 98.7902C111.39 99.9502 114.25 100.61 117.28 100.61C128.78 100.61 138.09 91.2902 138.09 79.8002C138.09 68.3102 128.77 58.9902 117.28 58.9902Z" fill="#6E6E6F"/>
<path d="M129.92 2.8999C117.94 2.8999 107.73 10.4099 103.68 20.9599C107.83 15.1099 114.64 11.2799 122.35 11.2799C134.99 11.2799 145.24 21.5299 145.24 34.1699C145.24 46.8099 134.99 57.0599 122.35 57.0599C121.02 57.0599 119.72 56.9199 118.44 56.6999C121.95 58.2699 125.82 59.1599 129.92 59.1599C145.46 59.1599 158.05 46.5699 158.05 31.0299C158.05 15.4899 145.46 2.8999 129.92 2.8999Z" fill="#6E6E6F"/>
<path d="M60.3 94.6002C74.7643 94.6002 86.49 82.8746 86.49 68.4102C86.49 53.9459 74.7643 42.2202 60.3 42.2202C45.8357 42.2202 34.11 53.9459 34.11 68.4102C34.11 82.8746 45.8357 94.6002 60.3 94.6002Z" fill="#81807F"/>
<path d="M65.57 83.2601C82.3097 83.2601 95.88 69.6899 95.88 52.9501C95.88 36.2104 82.3097 22.6401 65.57 22.6401C48.8302 22.6401 35.26 36.2104 35.26 52.9501C35.26 69.6899 48.8302 83.2601 65.57 83.2601Z" fill="#81807F"/>
<path d="M30.18 103.26C44.6443 103.26 56.37 91.5342 56.37 77.0699C56.37 62.6055 44.6443 50.8799 30.18 50.8799C15.7157 50.8799 3.99001 62.6055 3.99001 77.0699C3.99001 91.5342 15.7157 103.26 30.18 103.26Z" fill="#81807F"/>
<path d="M64.09 95.2599C62.17 102.05 60.6 107.07 58.88 113.2C57.26 118.99 58.09 118.9 63.2 118.96C67.73 119.02 70.41 118.74 74.94 118.85C77.22 118.91 79.07 123.4 77.71 125.61C70.07 137.94 56.89 154.3 48.36 165.37C46.14 166.59 42.93 169.14 43.15 164.93C44.69 157.08 48.56 147.9 50.02 140.45C51.09 135 52.26 132.51 47.59 132.47C43.35 132.43 39.1 132.47 34.5 132.47C34.78 131.15 34.92 130.22 35.17 129.34C38.16 118.71 41.22 108.11 44.11 97.4399C44.74 95.1099 45.71 94.3899 47.63 94.4899C50.79 94.6599 60.38 95.2799 64.09 95.2799V95.2599Z" fill="#F7D26D"/>
<path d="M161.72 63.18C168.13 62.52 175.19 56.09 177.06 49.42C178.32 44.9 177.78 40.59 175.71 36.4C174.55 34.05 175.41 32.21 177.69 32.02C179.16 31.9 179.99 32.76 180.59 33.97C184.03 40.94 184.26 48.01 180.7 54.94C176.34 63.43 169.03 67.85 159.76 69.36C158.75 69.52 157.6 70.06 156.92 70.8C153.12 74.98 148.59 77.91 143.11 79.29C141.95 79.58 141.64 80.09 141.57 81.22C140.71 94.91 129.3 104.44 116.17 104.69C114.66 104.72 114.16 105.29 113.71 106.58C107.55 123.97 101.34 141.34 95.14 158.72C95.1 158.83 95.08 158.95 95.03 159.06C94.23 161.22 92.95 162.1 91.39 161.54C89.77 160.96 89.3 159.52 90.06 157.37C91.95 152.04 93.85 146.72 95.75 141.39C99.97 129.56 104.2 117.74 108.41 105.91C108.62 105.31 108.76 104.68 108.94 104.06C107.02 103.26 105.23 102.47 103.41 101.78C103.06 101.65 102.45 101.74 102.16 101.97C90.7 111.08 77.9 112.49 64.17 108.63C64 108.58 63.82 108.56 63.42 108.49C62.61 110.73 61.79 112.99 60.9 115.46C61.6 115.52 62.1 115.6 62.6 115.6C66.12 115.61 69.64 115.6 73.16 115.61C76.54 115.63 79.22 116.98 80.73 120.07C82.24 123.15 81.7 126.08 79.63 128.78C76.48 132.9 73.35 137.05 70.21 141.17C68.93 142.84 67.27 143.19 65.91 142.11C64.75 141.18 64.72 139.55 65.92 137.96C68.97 133.91 72.04 129.87 75.11 125.84C75.9 124.81 76.59 123.78 75.87 122.43C75.17 121.1 73.93 120.99 72.65 120.98C67.7 120.97 62.74 120.98 57.79 120.94C54.9 120.92 53.8 119.36 54.77 116.62C56.96 110.44 59.18 104.28 61.38 98.1C61.61 97.4399 61.79 96.76 61.92 96.3C57.15 95.73 52.5 95.18 47.48 94.59C43.31 106.69 39.01 119.2 34.58 132.05C36.71 132.05 38.42 132.05 40.13 132.05C43.41 132.05 46.69 132.04 49.98 132.05C53.25 132.07 54.25 133.39 53.47 136.61C51.56 144.48 49.65 152.35 47.74 160.23C47.62 160.73 47.55 161.25 47.71 161.88C50.66 158 53.61 154.13 56.56 150.25C56.96 149.73 57.34 149.19 57.76 148.69C58.92 147.32 60.37 147 61.52 147.84C62.83 148.8 63.08 150.51 61.99 151.97C59.32 155.55 56.58 159.1 53.88 162.66C52.54 164.42 51.22 166.18 49.87 167.92C48.26 169.98 45.97 170.58 43.85 169.55C41.7 168.51 40.74 166.38 41.35 163.85C43.35 155.58 45.36 147.31 47.37 139.04C47.48 138.59 47.53 138.13 47.66 137.38C45.66 137.38 43.84 137.38 42.01 137.38C39.92 137.38 37.83 137.4 35.74 137.38C30.92 137.33 28.38 133.77 29.94 129.16C32.18 122.57 34.47 115.99 36.73 109.4C36.95 108.75 37.12 108.08 37.39 107.17C31.06 107.59 25.13 106.93 19.3 104.49C19.01 105.17 18.74 105.74 18.53 106.33C14.93 116.42 11.34 126.51 7.74 136.6C7.6 136.99 7.49 137.4 7.32 137.78C6.63 139.32 5.26 139.95 3.82 139.4C2.53 138.91 1.9 137.5 2.43 135.99C4.51 130.04 6.64 124.1 8.76 118.15C10.46 113.38 12.13 108.61 13.89 103.87C14.38 102.55 14.24 101.85 12.99 100.96C4.59 94.99 -0.110004 86.93 -3.73274e-06 76.44C0.0699963 69.93 2.5 64.25 6.66 59.29C7.95 57.76 9.61 57.54 10.9 58.62C12.07 59.6 12.09 61.17 10.82 62.77C8.18 66.1 6.25 69.74 5.69 74.01C4.53 82.94 7.89 90.06 14.75 95.52C21.59 100.97 29.53 102.73 38.14 101.47C38.66 101.39 39.36 100.88 39.54 100.4C40.48 97.96 41.34 95.47 42.08 92.96C42.21 92.52 41.76 91.7 41.34 91.34C39.89 90.11 38.26 89.09 36.83 87.83C35.38 86.56 35.28 84.98 36.36 83.73C37.46 82.46 39.13 82.47 40.65 83.72C50.17 91.56 60.6 92.16 71.68 87.64C72.12 87.46 72.53 87.21 72.97 87.02C74.67 86.28 76.19 86.73 76.95 88.18C77.7 89.62 77.2 91.15 75.46 92.03C73.65 92.94 71.71 93.56 69.9 94.47C69.14 94.85 68.33 95.52 68 96.26C67.15 98.16 66.49 100.15 65.89 102.14C65.77 102.54 66.15 103.47 66.49 103.57C79.14 107.67 96.28 103.91 103.3 91.89C104.34 90.11 105.05 88.11 105.74 86.16C106.45 84.18 107.69 83.2 109.4 83.59C111.07 83.97 112.06 85.58 111.37 87.52C110.38 90.31 109.14 93.01 107.83 95.67C107.27 96.82 107.08 97.43 108.51 97.92C120.34 101.96 133.18 95.38 135.65 83.56C137.42 75.11 132.45 66.06 123.95 62.68C118.1 60.35 112.23 60.35 106.36 62.74C105.61 63.05 104.74 63.34 103.97 63.24C102.61 63.08 101.71 62.14 101.53 60.75C101.35 59.33 102.06 58.2 103.33 57.77C106.14 56.83 109.01 56.07 111.86 55.27C112.37 55.13 112.93 55.17 113.46 55.09C115.96 54.73 116.13 54.48 114.81 52.23C114 50.85 112.97 49.6 112 48.32C110.83 46.79 110.83 45.53 112.07 44.35C113.31 43.18 114.87 43.22 116.18 44.56C118.96 47.39 120.82 50.75 121.76 54.6C122 55.6 122.39 56.17 123.5 56.52C131.62 59.07 137.41 64.21 140.29 72.32C140.9 74.04 141.71 74.13 143.21 73.62C152.14 70.59 157.46 62.22 157.46 55.25C157.46 54.84 157.53 54.42 157.6 54.01C157.91 52.35 159.05 51.33 160.49 51.4C162.02 51.48 163.27 52.68 163.16 54.41C163.03 56.6 162.59 58.76 162.25 60.93C162.14 61.63 161.9 62.3 161.67 63.16L161.72 63.18Z" fill="black"/>
<path d="M82.71 23.4802C85.76 26.4902 88.77 29.2602 91.54 32.2602C92.81 33.6402 93.67 35.4202 94.54 37.1102C95.04 38.0902 95.59 38.3302 96.63 38.2002C98.4 37.9902 100.19 37.8602 101.97 37.9002C103.95 37.9402 105.15 39.1802 105.11 40.8502C105.07 42.5502 103.84 43.5002 101.83 43.6502C99.47 43.8202 97.1 44.0702 94.77 44.4502C92.6 44.8002 91.53 44.3502 90.73 42.2702C87.15 32.9602 80.34 27.5402 70.66 25.5802C56.72 22.7602 42.75 31.8602 39.92 45.5302C39.62 46.9802 39.97 47.5202 41.42 47.8602C43.56 48.3502 45.66 49.0602 47.71 49.8402C49.57 50.5502 50.24 52.1102 49.59 53.6802C48.99 55.1102 47.41 55.7302 45.68 55.0502C41.64 53.4702 37.49 52.5802 33.13 52.5802C29.2 52.5802 25.45 53.3902 21.81 54.8402C21.42 54.9902 21.05 55.1902 20.66 55.3402C18.96 55.9602 17.32 55.4402 16.83 54.1402C16.25 52.6002 16.9 51.1002 18.56 50.3402C22.77 48.4002 27.2 47.2402 31.85 47.2102C33.52 47.2102 34.2 46.8902 34.54 44.9802C36.76 32.5302 46.7 22.7302 59.11 20.3302C64.61 19.2602 70 19.5302 75.38 21.0402C75.98 21.2102 76.92 21.0402 77.4 20.6602C84.07 15.3502 91.53 13.8102 99.76 15.8802C100.63 16.1002 101.24 16.2502 101.84 15.2702C107.32 6.21019 115.52 1.38018 125.91 0.240185C136.34 -0.909815 145.58 2.00018 152.94 9.57018C155.37 12.0702 157.01 15.3702 158.85 18.4102C159.42 19.3502 159.89 19.8402 161.01 20.1402C163.81 20.8902 166.59 21.8202 169.26 22.9302C171.62 23.9102 172.12 25.3302 171.19 27.1102C170.36 28.7002 169.16 28.8602 166.89 27.8302C165.13 27.0302 163.3 26.3702 161.32 25.5802C160.98 27.9202 160.74 29.9102 160.39 31.8802C160.21 32.8702 159.89 33.8502 159.51 34.7802C158.84 36.4402 157.39 37.1502 155.95 36.6402C154.45 36.1002 153.8 34.7602 154.18 33.0102C154.53 31.3902 155.13 29.7702 155.19 28.1402C155.44 20.8602 152.02 15.3102 146.46 11.0002C134.23 1.52019 115.35 4.33019 107.15 16.7802C106.47 17.8202 105.91 18.9502 105.36 20.0702C104.22 22.4002 103.19 22.8402 100.79 21.8802C95.15 19.6102 89.62 19.8302 84.19 22.5402C83.56 22.8502 82.99 23.2702 82.68 23.4602L82.71 23.4802Z" fill="black"/>
<path d="M158.57 110.21C156.23 110.21 154.1 110.23 151.97 110.21C147.7 110.17 145.71 107.35 147.1 103.26C149.41 96.4399 151.76 89.6399 154.12 82.8399C155.1 80.0299 156.49 79.0499 159.44 79.0399C162.36 79.0199 165.29 79.0099 168.21 79.0399C171.88 79.0899 173.96 81.9899 172.84 85.4999C171.98 88.2099 171.02 90.8899 169.97 94.0099C172.53 94.0099 174.81 93.9599 177.1 94.0199C180.16 94.1099 182.27 95.8499 183.02 98.7699C183.48 100.58 183.08 102.25 182 103.68C176.3 111.25 170.57 118.81 164.8 126.32C163.13 128.49 160.69 128.94 158.42 127.77C156.16 126.61 155.19 124.33 155.84 121.53C156.55 118.52 157.32 115.52 158.06 112.52C158.23 111.84 158.36 111.16 158.57 110.21ZM167.58 84.3599C165.13 84.3599 163.05 84.4299 160.97 84.3399C159.71 84.2799 159.07 84.6699 158.65 85.9399C156.75 91.7099 154.73 97.4399 152.76 103.19C152.6 103.67 152.5 104.17 152.32 104.88C155.35 104.88 158.15 104.86 160.94 104.88C164.01 104.9 165.05 106.23 164.35 109.17C163.39 113.2 162.42 117.22 161.41 121.47C161.79 121.24 161.98 121.18 162.08 121.05C167.14 114.41 172.2 107.77 177.22 101.1C178.12 99.9099 177.86 99.4199 176.36 99.3899C173.38 99.3299 170.39 99.3599 167.41 99.3299C164.05 99.2999 162.96 97.7899 164.02 94.6599C165.15 91.3499 166.3 88.0399 167.56 84.3699L167.58 84.3599Z" fill="black"/>
<path d="M136.33 111.65C136.23 112.01 136.07 112.7 135.84 113.37C128.47 134.05 121.09 154.72 113.71 175.4C113.53 175.9 113.36 176.43 113.07 176.86C112.33 177.95 111.31 178.47 109.99 177.95C108.72 177.45 108.15 176.47 108.34 175.12C108.41 174.6 108.61 174.09 108.79 173.58C116.18 152.85 123.58 132.12 130.97 111.38C131.45 110.02 131.99 108.8 133.7 108.77C135.2 108.74 136.3 109.8 136.33 111.66V111.65Z" fill="black"/>
<path d="M29.61 144.85C29.51 145.22 29.39 145.74 29.22 146.24C25.73 156.04 22.27 165.85 18.71 175.63C18.38 176.54 17.57 177.54 16.72 177.91C16.07 178.2 14.61 177.83 14.24 177.27C13.71 176.46 13.45 175.1 13.74 174.18C15.12 169.88 16.72 165.65 18.24 161.4C20.28 155.69 22.31 149.98 24.35 144.26C24.87 142.81 25.83 141.89 27.44 142.18C28.74 142.42 29.47 143.34 29.62 144.85H29.61Z" fill="black"/>
<path d="M139.9 161.69C137.66 161.62 136.63 159.87 137.37 157.76C139.21 152.48 141.1 147.21 142.98 141.94C143.98 139.14 144.98 136.34 146 133.54C146.74 131.54 148.04 130.79 149.65 131.38C151.08 131.91 151.6 133.42 150.94 135.29C148.09 143.31 145.22 151.32 142.37 159.34C141.89 160.69 141.14 161.64 139.9 161.68V161.69Z" fill="black"/>
<path d="M64.07 178.13C61.75 178.2 60.35 176.48 60.96 174.72C62.87 169.17 64.86 163.64 66.91 158.14C67.43 156.75 68.59 156.15 70.08 156.62C71.48 157.06 72.27 158.43 71.76 159.9C69.84 165.45 67.87 170.98 65.78 176.47C65.48 177.27 64.45 177.78 64.07 178.14V178.13Z" fill="black"/>
<path d="M167.58 84.3701C166.32 88.0401 165.17 91.3501 164.04 94.6601C162.97 97.7901 164.06 99.3001 167.43 99.3301C170.41 99.3601 173.4 99.3301 176.38 99.3901C177.88 99.4201 178.13 99.9101 177.24 101.1C172.21 107.77 167.15 114.41 162.1 121.05C162 121.18 161.81 121.23 161.43 121.47C162.45 117.23 163.41 113.2 164.37 109.17C165.07 106.22 164.03 104.9 160.96 104.88C158.17 104.86 155.37 104.88 152.34 104.88C152.52 104.16 152.62 103.66 152.78 103.19C154.75 97.4401 156.76 91.7101 158.67 85.9401C159.09 84.6801 159.73 84.2901 160.99 84.3401C163.07 84.4301 165.15 84.3601 167.6 84.3601L167.58 84.3701Z" fill="#F7D26D"/>
</g>
<defs>
<clipPath id="clip0_243_180">
<rect width="183.26" height="178.15" fill="white"/>
</clipPath>
</defs>
</svg>
