<svg width="50" height="50" viewBox="0 0 50 50" fill="none" xmlns="http://www.w3.org/2000/svg">
<g clip-path="url(#clip0_9_3742)">
<path fill-rule="evenodd" clip-rule="evenodd" d="M24.975 50C38.0719 49.98 50.8091 38.29 49.95 25C49.0909 11.71 38.7712 0 24.975 0C11.1788 0 -0.259797 9.88 -5.63581e-05 25C0.269674 40.12 11.8781 50.02 24.975 50Z" fill="url(#paint0_radial_9_3742)"/>
<path style="mix-blend-mode:screen" fill-rule="evenodd" clip-rule="evenodd" d="M42.8273 25.9399C43.5865 25.9399 44.4357 26.6199 44.4357 27.3799C44.4357 28.1399 43.6964 28.7699 42.9372 28.7699C42.1779 28.7699 41.5086 28.1299 41.5486 27.3799C41.5985 26.6399 42.0681 25.9399 42.8273 25.9399ZM42.7574 26.0299C43.3867 26.0299 44.086 26.5899 44.086 27.2199C44.086 27.8499 43.4766 28.3699 42.8473 28.3699C42.2179 28.3699 41.6685 27.8399 41.7084 27.2199C41.7484 26.6099 42.138 26.0299 42.7674 26.0299H42.7574ZM43.077 26.2999C43.2968 26.5199 43.1869 26.8599 42.8772 27.1699C42.5676 27.4799 42.1979 27.6299 41.9781 27.3999C41.7584 27.1699 41.8283 26.6999 42.128 26.3899C42.4277 26.0899 42.8573 26.0699 43.077 26.2999ZM43.9062 27.0099C44.0161 27.0399 44.0661 27.5399 43.7264 27.9099C43.3867 28.2799 42.8573 28.2799 42.8473 28.1299C42.8373 27.9899 43.2369 28.0099 43.5266 27.7099C43.8163 27.4199 43.7963 26.9799 43.9062 26.9999V27.0099Z" fill="url(#paint1_radial_9_3742)"/>
<path style="mix-blend-mode:screen" opacity="0.7" fill-rule="evenodd" clip-rule="evenodd" d="M21.4784 37.5601C22.1277 37.5601 22.837 38.1301 22.837 38.7801C22.837 39.4301 22.2177 39.9501 21.5683 39.9501C20.919 39.9501 20.3595 39.4101 20.3995 38.7801C20.4394 38.1501 20.839 37.5601 21.4784 37.5601ZM21.4185 37.6401C21.9479 37.6401 22.5373 38.1101 22.5373 38.6501C22.5373 39.1901 22.0279 39.6201 21.4884 39.6201C20.9489 39.6201 20.4894 39.1701 20.5194 38.6501C20.5493 38.1301 20.879 37.6401 21.4085 37.6401H21.4185ZM21.6882 37.8701C21.878 38.0601 21.7781 38.3501 21.5184 38.6001C21.2586 38.8501 20.9489 38.9901 20.7591 38.8001C20.5693 38.6101 20.6292 38.2001 20.889 37.9501C21.1487 37.7001 21.4984 37.6801 21.6882 37.8701ZM22.3975 38.4701C22.4874 38.4901 22.5274 38.9201 22.2476 39.2301C21.9579 39.5401 21.5184 39.5401 21.4984 39.4201C21.4884 39.3001 21.8281 39.3201 22.0778 39.0701C22.3276 38.8201 22.3076 38.4501 22.3975 38.4701Z" fill="url(#paint2_radial_9_3742)"/>
<path style="mix-blend-mode:screen" opacity="0.6" fill-rule="evenodd" clip-rule="evenodd" d="M17.3428 42.9502C18.0521 42.9502 18.8213 43.5802 18.8213 44.2802C18.8213 44.9802 18.142 45.5602 17.4427 45.5602C16.7434 45.5602 16.124 44.9702 16.1639 44.2802C16.2039 43.6002 16.6435 42.9502 17.3428 42.9502ZM17.2828 43.0402C17.8622 43.0402 18.5016 43.5602 18.5016 44.1402C18.5016 44.7202 17.9422 45.2002 17.3627 45.2002C16.7833 45.2002 16.2738 44.7102 16.3038 44.1402C16.3438 43.5702 16.6934 43.0402 17.2828 43.0402ZM17.5725 43.2902C17.7823 43.5002 17.6724 43.8102 17.3927 44.0902C17.113 44.3702 16.7633 44.5102 16.5635 44.3002C16.3637 44.0902 16.4237 43.6502 16.7034 43.3702C16.9831 43.0902 17.3727 43.0802 17.5825 43.2802L17.5725 43.2902ZM18.3418 43.9502C18.4417 43.9702 18.4916 44.4402 18.1719 44.7802C17.8523 45.1202 17.3727 45.1202 17.3627 44.9902C17.3528 44.8602 17.7224 44.8802 17.9921 44.6102C18.2618 44.3402 18.2419 43.9402 18.3418 43.9602V43.9502Z" fill="url(#paint3_radial_9_3742)"/>
<path style="mix-blend-mode:screen" fill-rule="evenodd" clip-rule="evenodd" d="M9.44071 15.6899C10.4497 15.6899 11.5686 16.5899 11.5686 17.5999C11.5686 18.6099 10.5896 19.4299 9.58057 19.4299C8.57158 19.4299 7.68247 18.5799 7.7524 17.5999C7.81234 16.6199 8.43172 15.6899 9.4507 15.6899H9.44071ZM9.3508 15.8099C10.19 15.8099 11.109 16.5499 11.109 17.3899C11.109 18.2299 10.2999 18.9099 9.47068 18.9099C8.64151 18.9099 7.90225 18.2099 7.9522 17.3899C8.00215 16.5799 8.51164 15.8099 9.3508 15.8099ZM9.77038 16.1599C10.0701 16.4599 9.91024 16.9099 9.51064 17.3099C9.11104 17.7099 8.61154 17.9099 8.31184 17.6199C8.01214 17.3199 8.11204 16.6899 8.51164 16.2799C8.91124 15.8799 9.47068 15.8599 9.77038 16.1599ZM10.8693 17.1099C11.0091 17.1399 11.0791 17.8099 10.6295 18.2999C10.18 18.7899 9.48067 18.7899 9.46069 18.5999C9.44071 18.4099 9.98017 18.4399 10.3698 18.0499C10.7594 17.6599 10.7294 17.0799 10.8693 17.1099Z" fill="url(#paint4_radial_9_3742)"/>
<path style="mix-blend-mode:screen" opacity="0.6" fill-rule="evenodd" clip-rule="evenodd" d="M38.2316 16.0802C38.871 16.0402 39.3605 16.4702 39.3605 17.0202C39.3605 17.5702 38.821 18.0402 38.2416 18.0102C37.6622 17.9802 37.2127 17.5602 37.2426 17.0102C37.2726 16.4602 37.5823 16.1202 38.2316 16.0802ZM38.1417 16.1702C38.6712 16.1402 39.0708 16.4902 39.0708 16.9402C39.0708 17.3902 38.6312 17.7702 38.1517 17.7502C37.6722 17.7302 37.3126 17.3802 37.3325 16.9302C37.3525 16.4802 37.6123 16.2002 38.1417 16.1702ZM38.3215 16.3502C38.4814 16.5102 38.4015 16.7902 38.1817 17.0102C37.9619 17.2302 37.6922 17.3102 37.5323 17.1502C37.3725 16.9902 37.4324 16.6702 37.5923 16.4802C37.7521 16.2902 38.1617 16.2002 38.3215 16.3602V16.3502ZM38.9409 16.7502C39.0208 16.7702 39.0608 17.1502 38.8111 17.4302C38.5613 17.7102 38.1617 17.7102 38.1517 17.6002C38.1417 17.4902 38.4414 17.5102 38.6612 17.2902C38.881 17.0702 38.861 16.7402 38.9409 16.7602V16.7502Z" fill="url(#paint5_radial_9_3742)"/>
<path style="mix-blend-mode:screen" opacity="0.6" fill-rule="evenodd" clip-rule="evenodd" d="M3.12668 28.2299C4.04576 28.1799 4.74506 28.7899 4.74506 29.5799C4.74506 30.3699 3.97583 31.0399 3.14666 30.9999C2.31748 30.9599 1.67812 30.3599 1.71808 29.5699C1.75804 28.7799 2.20759 28.2899 3.13667 28.2299H3.12668ZM2.99681 28.3499C3.75605 28.3099 4.32548 28.8099 4.32548 29.4599C4.32548 30.1099 3.68612 30.6499 3.0068 30.6199C2.32747 30.5899 1.798 30.0999 1.83796 29.4499C1.86793 28.7999 2.23756 28.3999 2.99681 28.3499ZM3.25655 28.5999C3.48632 28.8299 3.36644 29.2299 3.05675 29.5399C2.74706 29.8499 2.35744 29.9699 2.12767 29.7399C1.8979 29.5099 1.97782 29.0499 2.20759 28.7799C2.43736 28.5099 3.02678 28.3699 3.25655 28.5999ZM4.13567 29.1699C4.25555 29.1999 4.3055 29.7399 3.94586 30.1399C3.58622 30.5399 3.01679 30.5299 2.99681 30.3799C2.97683 30.2299 3.41639 30.2499 3.73607 29.9299C4.05575 29.6099 4.02578 29.1399 4.14566 29.1699H4.13567Z" fill="url(#paint6_radial_9_3742)"/>
<path style="mix-blend-mode:screen" opacity="0.4" fill-rule="evenodd" clip-rule="evenodd" d="M10.839 38.55C11.7781 38.5 12.4774 39.12 12.4774 39.91C12.4774 40.7 11.6982 41.38 10.859 41.34C10.0198 41.3 9.37048 40.69 9.41044 39.89C9.4504 39.09 9.90994 38.59 10.839 38.54V38.55ZM10.7091 38.68C11.4784 38.64 12.0478 39.14 12.0478 39.8C12.0478 40.46 11.4084 41.01 10.7191 40.98C10.0298 40.95 9.50035 40.45 9.53032 39.79C9.56029 39.13 9.93991 38.73 10.7091 38.68ZM10.9689 38.94C11.1987 39.17 11.0788 39.57 10.7691 39.89C10.4594 40.21 10.0598 40.32 9.83002 40.09C9.60025 39.86 9.68017 39.4 9.90994 39.12C10.1497 38.84 10.7391 38.71 10.9689 38.94ZM11.858 39.52C11.9779 39.55 12.0278 40.09 11.6682 40.5C11.2986 40.9 10.7191 40.9 10.7091 40.74C10.6992 40.58 11.1387 40.61 11.4584 40.29C11.7781 39.97 11.7481 39.49 11.868 39.52H11.858Z" fill="url(#paint7_radial_9_3742)"/>
<path style="mix-blend-mode:screen" opacity="0.4" fill-rule="evenodd" clip-rule="evenodd" d="M27.0429 2.08978C27.7521 2.04978 28.2916 2.51978 28.2916 3.12978C28.2916 3.73978 27.6922 4.24978 27.0528 4.21978C26.4135 4.18978 25.924 3.72978 25.9539 3.11978C25.9839 2.50978 26.3336 2.12978 27.0429 2.08978ZM26.943 2.18978C27.5224 2.15978 27.9619 2.53978 27.9619 3.03978C27.9619 3.53978 27.4724 3.95978 26.9529 3.93978C26.4335 3.91978 26.0239 3.53978 26.0538 3.03978C26.0838 2.53978 26.3635 2.22978 26.9529 2.19978L26.943 2.18978ZM27.1428 2.38978C27.3226 2.56978 27.2327 2.86978 26.9829 3.10978C26.7332 3.34978 26.4435 3.43978 26.2636 3.25978C26.0838 3.07978 26.1537 2.72978 26.3236 2.51978C26.5034 2.30978 26.9529 2.20978 27.1328 2.37978L27.1428 2.38978ZM27.8221 2.82978C27.912 2.84978 27.9519 3.26978 27.6722 3.57978C27.3925 3.88978 26.9529 3.87978 26.943 3.76978C26.933 3.64978 27.2626 3.66978 27.5124 3.41978C27.7521 3.17978 27.7322 2.80978 27.8221 2.82978Z" fill="url(#paint8_radial_9_3742)"/>
<path style="mix-blend-mode:screen" opacity="0.4" fill-rule="evenodd" clip-rule="evenodd" d="M33.117 37.4C33.7764 37.36 34.2759 37.8 34.2759 38.37C34.2759 38.94 33.7164 39.42 33.127 39.39C32.5276 39.36 32.0681 38.93 32.0981 38.36C32.128 37.79 32.4477 37.44 33.117 37.4ZM33.0271 37.49C33.5766 37.46 33.9762 37.82 33.9762 38.29C33.9762 38.76 33.5166 39.15 33.0271 39.13C32.5376 39.11 32.158 38.75 32.188 38.29C32.208 37.82 32.4777 37.53 33.0271 37.5V37.49ZM33.2169 37.67C33.3868 37.84 33.2969 38.12 33.0771 38.35C32.8573 38.58 32.5776 38.66 32.4078 38.49C32.2379 38.32 32.2979 38 32.4677 37.8C32.6375 37.6 33.0571 37.51 33.2269 37.67H33.2169ZM33.8463 38.08C33.9262 38.1 33.9662 38.49 33.7065 38.78C33.4467 39.07 33.0371 39.06 33.0271 38.95C33.0171 38.84 33.3268 38.85 33.5566 38.63C33.7864 38.4 33.7664 38.06 33.8463 38.08Z" fill="url(#paint9_radial_9_3742)"/>
<path style="mix-blend-mode:screen" fill-rule="evenodd" clip-rule="evenodd" d="M21.5784 4.21996C22.5374 4.15996 23.2567 4.79996 23.2567 5.61996C23.2567 6.43996 22.4475 7.12996 21.5884 7.08996C20.7292 7.04996 20.0599 6.41996 20.0998 5.59996C20.1398 4.77996 20.6093 4.26996 21.5684 4.20996L21.5784 4.21996ZM21.4485 4.34996C22.2377 4.29996 22.8271 4.82996 22.8271 5.49996C22.8271 6.16996 22.1678 6.73996 21.4585 6.70996C20.7492 6.67996 20.2097 6.15996 20.2397 5.48996C20.2697 4.81996 20.6593 4.39996 21.4485 4.34996ZM21.7182 4.60996C21.958 4.84996 21.8381 5.25996 21.5084 5.58996C21.1788 5.91996 20.7792 6.02996 20.5394 5.78996C20.2996 5.54996 20.3896 5.07996 20.6293 4.78996C20.8691 4.50996 21.4785 4.36996 21.7182 4.60996ZM22.6373 5.19996C22.7572 5.22996 22.8171 5.78996 22.4375 6.20996C22.0579 6.62996 21.4685 6.61996 21.4485 6.45996C21.4285 6.29996 21.8881 6.31996 22.2177 5.98996C22.5474 5.65996 22.5174 5.16996 22.6373 5.19996Z" fill="url(#paint10_radial_9_3742)"/>
<path style="mix-blend-mode:screen" opacity="0.4" fill-rule="evenodd" clip-rule="evenodd" d="M21.5283 11.2002C22.2176 11.1602 22.7271 11.6102 22.7271 12.2002C22.7271 12.7902 22.1577 13.2802 21.5383 13.2502C20.9189 13.2202 20.4494 12.7802 20.4794 12.1902C20.5094 11.6002 20.839 11.2402 21.5283 11.2002ZM21.4384 11.2902C21.9979 11.2602 22.4174 11.6302 22.4174 12.1102C22.4174 12.5902 21.9479 13.0002 21.4384 12.9702C20.9289 12.9402 20.5493 12.5802 20.5693 12.1002C20.5893 11.6202 20.869 11.3202 21.4284 11.2902H21.4384ZM21.6282 11.4802C21.7981 11.6502 21.7082 11.9402 21.4784 12.1802C21.2486 12.4102 20.9589 12.5002 20.7891 12.3202C20.6192 12.1502 20.6792 11.8102 20.849 11.6102C21.0188 11.4102 21.4584 11.3102 21.6282 11.4802ZM22.2776 11.9002C22.3675 11.9202 22.4075 12.3202 22.1377 12.6202C21.868 12.9202 21.4484 12.9102 21.4384 12.8002C21.4284 12.6902 21.7481 12.7002 21.9879 12.4702C22.2276 12.2402 22.1977 11.8902 22.2876 11.9102L22.2776 11.9002Z" fill="url(#paint11_radial_9_3742)"/>
<path style="mix-blend-mode:screen" opacity="0.6" fill-rule="evenodd" clip-rule="evenodd" d="M42.5974 20.1499C43.5664 20.1699 44.4456 21.0999 44.4456 22.1799C44.4456 23.2599 43.7363 23.7099 42.6573 23.7099C41.5784 23.7099 40.7393 23.2699 40.7393 22.1999C40.7393 21.1299 41.6284 20.1399 42.5874 20.1599L42.5974 20.1499ZM42.4476 20.3199C43.2468 20.3299 43.986 21.1099 43.986 21.9999C43.986 22.8899 43.3966 23.2699 42.5075 23.2699C41.6184 23.2699 40.9191 22.9099 40.9191 22.0199C40.9191 21.1299 41.6483 20.3099 42.4575 20.3299L42.4476 20.3199ZM42.8172 20.6299C43.1169 20.9299 42.997 21.5299 42.5874 21.9299C42.1878 22.3299 41.6284 22.4199 41.3287 22.1199C41.029 21.8199 41.1389 21.2099 41.5385 20.7999C41.9381 20.3999 42.5175 20.3299 42.8172 20.6199V20.6299ZM43.6863 21.5099C43.8262 21.5399 43.996 22.2799 43.5564 22.7599C43.1169 23.2399 42.3277 23.1499 42.3077 22.9699C42.2877 22.7799 42.9171 22.8899 43.2967 22.5099C43.6763 22.1299 43.5365 21.4799 43.6763 21.5099H43.6863Z" fill="url(#paint12_radial_9_3742)"/>
<path style="mix-blend-mode:screen" fill-rule="evenodd" clip-rule="evenodd" d="M6.06394 18.12C6.78322 18.13 7.44257 18.83 7.44257 19.62C7.44257 20.41 6.91309 20.75 6.12388 20.75C5.33467 20.75 4.69531 20.42 4.69531 19.63C4.69531 18.84 5.35465 18.1 6.07393 18.11L6.06394 18.12ZM5.95405 18.25C6.55345 18.26 7.09291 18.84 7.09291 19.5C7.09291 20.16 6.65335 20.44 5.99401 20.44C5.33467 20.44 4.81519 20.17 4.81519 19.51C4.81519 18.85 5.35465 18.24 5.95405 18.25ZM6.23377 18.48C6.45355 18.7 6.36364 19.15 6.06394 19.45C5.76424 19.75 5.35465 19.81 5.13487 19.59C4.91509 19.37 4.99501 18.91 5.28472 18.61C5.57443 18.31 6.01399 18.26 6.23377 18.48ZM6.88312 19.13C6.99301 19.15 7.1129 19.7 6.79321 20.06C6.46354 20.42 5.88412 20.35 5.86414 20.22C5.84416 20.09 6.31369 20.16 6.6034 19.88C6.89312 19.6 6.78322 19.12 6.88312 19.14V19.13Z" fill="url(#paint13_radial_9_3742)"/>
<path style="mix-blend-mode:screen" fill-rule="evenodd" clip-rule="evenodd" d="M30.0099 4.6001C30.9989 4.6201 31.908 5.5801 31.908 6.6801C31.908 7.7801 31.1788 8.2501 30.0798 8.2501C28.9809 8.2501 28.1118 7.8001 28.1118 6.7001C28.1118 5.6001 29.0209 4.5901 30.0099 4.6101V4.6001ZM29.8601 4.7801C30.6792 4.7901 31.4285 5.5901 31.4285 6.5001C31.4285 7.4101 30.8191 7.8001 29.91 7.8001C29.0009 7.8001 28.2816 7.4301 28.2816 6.5201C28.2816 5.6101 29.0309 4.7701 29.8501 4.7901L29.8601 4.7801ZM30.2397 5.1001C30.5394 5.4001 30.4195 6.0201 30.0099 6.4301C29.6003 6.8401 29.0209 6.9301 28.7212 6.6301C28.4215 6.3301 28.5214 5.6901 28.931 5.2801C29.3406 4.8701 29.93 4.8001 30.2397 5.1001ZM31.1288 6.0001C31.2787 6.0301 31.4485 6.7801 30.9989 7.2801C30.5494 7.7701 29.7402 7.6801 29.7202 7.4901C29.7002 7.3001 30.3496 7.4101 30.7392 7.0201C31.1288 6.6301 30.9889 5.9601 31.1288 6.0001Z" fill="url(#paint14_radial_9_3742)"/>
<path style="mix-blend-mode:multiply" fill-rule="evenodd" clip-rule="evenodd" d="M44.5456 22.69C45.3048 34.45 34.0361 44.79 22.4477 44.81C10.8593 44.83 0.579556 36.07 0.349786 22.69C0.329806 21.39 0.399736 20.13 0.569566 18.92C0.159976 20.83 -0.0298346 22.86 0.000135429 25C0.269866 40.12 11.8783 50.02 24.9752 50C38.0721 49.98 50.8093 38.29 49.9502 25C49.091 11.71 38.7714 0 24.9752 0C22.138 0 19.4107 0.42 16.8533 1.21C18.6415 0.79 20.5196 0.57 22.4377 0.57C34.6455 0.57 43.7764 10.93 44.5356 22.69H44.5456Z" fill="url(#paint15_radial_9_3742)"/>
<path style="mix-blend-mode:screen" fill-rule="evenodd" clip-rule="evenodd" d="M2.91727 14.0599C1.11907 17.6299 0.100089 25.0099 1.89829 29.7999C2.64754 31.7999 5.89429 35.5099 8.07212 34.1399C13.8164 30.5399 17.5826 24.1099 25.7844 19.9099C28.6216 18.4599 32.5876 17.1799 35.6246 16.3499C38.9912 15.4199 39.7804 13.1799 37.9922 9.66989C35.3948 4.57989 30.16 1.31989 22.6875 1.03989C14.0362 0.699891 6.68351 6.58989 2.91727 14.0599Z" fill="url(#paint16_radial_9_3742)"/>
<path style="mix-blend-mode:screen" fill-rule="evenodd" clip-rule="evenodd" d="M17.9619 3.0001C13.4565 3.9001 9.43048 6.6401 6.95295 10.7201C6.36354 11.6901 6.22368 12.6401 6.55335 13.0301C6.87303 13.4001 7.61229 13.2401 8.70121 12.6701C10.2896 11.8301 12.7771 10.3301 15.0748 9.1701C17.0628 8.1701 18.891 7.4801 19.87 7.2201C24.3156 6.0201 24.5454 1.6801 17.9619 3.0001ZM2.75715 17.7901C2.24766 19.5601 2.8071 22.8501 4.63527 20.4101C5.31459 19.5001 5.89401 18.4701 6.37353 17.4401C6.75315 16.6201 6.72318 15.2801 5.95395 14.8901C4.26564 14.0201 3.1068 16.5601 2.75715 17.7901Z" fill="url(#paint17_radial_9_3742)"/>
<path style="mix-blend-mode:screen" fill-rule="evenodd" clip-rule="evenodd" d="M29.071 42.6598C33.5765 41.5398 37.6224 38.5398 40.1099 34.3498C40.5395 33.6298 40.7893 32.8598 40.4896 32.7298C40.2997 32.6498 40.1199 32.5998 38.8812 33.4898C35.4046 36.0198 32.038 38.2398 27.7123 39.6298C25.6544 40.2898 24.3557 41.0498 24.2358 41.8198C24.096 42.7198 25.5345 43.5398 29.071 42.6598Z" fill="url(#paint18_radial_9_3742)"/>
</g>
<defs>
<radialGradient id="paint0_radial_9_3742" cx="0" cy="0" r="1" gradientUnits="userSpaceOnUse" gradientTransform="translate(15.974 12.77) scale(44.2857 44.33)">
<stop stop-color="#B3D7AB"/>
<stop offset="0.93" stop-color="#95C11F"/>
</radialGradient>
<radialGradient id="paint1_radial_9_3742" cx="0" cy="0" r="1" gradientUnits="userSpaceOnUse" gradientTransform="translate(40.4297 23.5299) scale(5.84415 5.85)">
<stop stop-color="#95C11F"/>
<stop offset="0.93" stop-color="#3AAA35"/>
</radialGradient>
<radialGradient id="paint2_radial_9_3742" cx="0" cy="0" r="1" gradientUnits="userSpaceOnUse" gradientTransform="translate(19.4504 35.5201) scale(4.93507 4.94)">
<stop stop-color="#95C11F"/>
<stop offset="0.93" stop-color="#3AAA35"/>
</radialGradient>
<radialGradient id="paint3_radial_9_3742" cx="0" cy="0" r="1" gradientUnits="userSpaceOnUse" gradientTransform="translate(15.135 40.7402) scale(5.38462 5.39)">
<stop stop-color="#95C11F"/>
<stop offset="0.93" stop-color="#3AAA35"/>
</radialGradient>
<radialGradient id="paint4_radial_9_3742" cx="0" cy="0" r="1" gradientUnits="userSpaceOnUse" gradientTransform="translate(6.27388 12.5099) scale(7.74226 7.75)">
<stop stop-color="#95C11F"/>
<stop offset="0.93" stop-color="#3AAA35"/>
</radialGradient>
<radialGradient id="paint5_radial_9_3742" cx="0" cy="0" r="1" gradientUnits="userSpaceOnUse" gradientTransform="translate(37.6123 15.5802) scale(2.98702 2.99)">
<stop stop-color="#95C11F"/>
<stop offset="0.93" stop-color="#3AAA35"/>
</radialGradient>
<radialGradient id="paint6_radial_9_3742" cx="0" cy="0" r="1" gradientUnits="userSpaceOnUse" gradientTransform="translate(2.23756 27.5099) scale(4.28571 4.29)">
<stop stop-color="#95C11F"/>
<stop offset="0.93" stop-color="#3AAA35"/>
</radialGradient>
<radialGradient id="paint7_radial_9_3742" cx="0" cy="0" r="1" gradientUnits="userSpaceOnUse" gradientTransform="translate(9.9499 37.82) scale(4.33566 4.34)">
<stop stop-color="#95C11F"/>
<stop offset="0.93" stop-color="#3AAA35"/>
</radialGradient>
<radialGradient id="paint8_radial_9_3742" cx="0" cy="0" r="1" gradientUnits="userSpaceOnUse" gradientTransform="translate(26.3535 1.52978) scale(3.30669 3.31)">
<stop stop-color="#95C11F"/>
<stop offset="0.93" stop-color="#3AAA35"/>
</radialGradient>
<radialGradient id="paint9_radial_9_3742" cx="0" cy="0" r="1" gradientUnits="userSpaceOnUse" gradientTransform="translate(32.4777 36.88) scale(3.07692 3.08)">
<stop stop-color="#95C11F"/>
<stop offset="0.93" stop-color="#3AAA35"/>
</radialGradient>
<radialGradient id="paint10_radial_9_3742" cx="0" cy="0" r="1" gradientUnits="userSpaceOnUse" gradientTransform="translate(20.6593 3.46996) scale(4.45554 4.46)">
<stop stop-color="#95C11F"/>
<stop offset="0.93" stop-color="#3AAA35"/>
</radialGradient>
<radialGradient id="paint11_radial_9_3742" cx="0" cy="0" r="1" gradientUnits="userSpaceOnUse" gradientTransform="translate(20.869 10.6602) scale(3.17682 3.18)">
<stop stop-color="#95C11F"/>
<stop offset="0.93" stop-color="#3AAA35"/>
</radialGradient>
<radialGradient id="paint12_radial_9_3742" cx="0" cy="0" r="1" gradientUnits="userSpaceOnUse" gradientTransform="translate(41.7183 19.1399) scale(5.95405 5.96)">
<stop stop-color="#95C11F"/>
<stop offset="0.93" stop-color="#3AAA35"/>
</radialGradient>
<radialGradient id="paint13_radial_9_3742" cx="0" cy="0" r="1" gradientUnits="userSpaceOnUse" gradientTransform="translate(5.41459 17.37) scale(4.41558 4.42)">
<stop stop-color="#95C11F"/>
<stop offset="0.93" stop-color="#3AAA35"/>
</radialGradient>
<radialGradient id="paint14_radial_9_3742" cx="0" cy="0" r="1" gradientUnits="userSpaceOnUse" gradientTransform="translate(29.1108 3.5601) scale(6.1039 6.11)">
<stop stop-color="#95C11F"/>
<stop offset="0.93" stop-color="#3AAA35"/>
</radialGradient>
<radialGradient id="paint15_radial_9_3742" cx="0" cy="0" r="1" gradientUnits="userSpaceOnUse" gradientTransform="translate(22.5076 20.6) scale(36.7133 36.75)">
<stop offset="0.53" stop-color="#FFFF6B"/>
<stop offset="0.81" stop-color="#C3CA6B"/>
<stop offset="1" stop-color="#97A36B"/>
</radialGradient>
<radialGradient id="paint16_radial_9_3742" cx="0" cy="0" r="1" gradientUnits="userSpaceOnUse" gradientTransform="translate(9.18101 3.74989) scale(40.989 41.03)">
<stop stop-color="#62C706"/>
<stop offset="1"/>
</radialGradient>
<radialGradient id="paint17_radial_9_3742" cx="0" cy="0" r="1" gradientUnits="userSpaceOnUse" gradientTransform="translate(11.1288 5.4301) scale(45.8941 45.94)">
<stop stop-color="white"/>
<stop offset="1"/>
</radialGradient>
<radialGradient id="paint18_radial_9_3742" cx="0" cy="0" r="1" gradientUnits="userSpaceOnUse" gradientTransform="translate(29.5505 29.3698) scale(19.021 19.04)">
<stop stop-color="#CCFF6B"/>
<stop offset="1" stop-color="#171F00"/>
</radialGradient>
<clipPath id="clip0_9_3742">
<rect width="50" height="50" fill="white"/>
</clipPath>
</defs>
</svg>
