<svg width="768" height="82" viewBox="0 0 768 82" fill="none" xmlns="http://www.w3.org/2000/svg">
<g clip-path="url(#clip0_9_3697)">
<path fill-rule="evenodd" clip-rule="evenodd" d="M8.14023 2.64994C24.2602 1.33994 44.2402 0.749945 65.2302 0.489945C86.1202 0.229945 108.05 0.289944 128.09 0.309944C148.03 0.319944 679.11 0.539944 699.14 0.939945C719.1 1.32994 739.05 1.93994 759.07 2.68994C763.11 2.83994 765.9 6.10994 766.24 10.2099C766.66 15.3399 766.97 20.4599 767.11 25.5499C767.24 30.6299 767.25 35.6999 767.13 40.7699C767.01 45.8299 766.73 50.8799 766.36 55.9199C765.98 60.9399 765.46 65.9799 764.8 70.9899C764.28 74.9999 761.38 78.0799 757.38 78.3299C741.22 79.31 721.49 79.7999 700.93 80.0499C680.32 80.2999 147.73 80.2999 128.09 80.2999C108.45 80.2999 87.0802 80.16 66.6402 79.8599C46.1502 79.5499 26.4202 79.0499 9.83023 78.3599C5.89023 78.1899 3.21023 75.0299 2.46023 71.0899C1.75023 67.3299 1.21023 62.4599 0.860234 57.2599C0.510234 52.0599 0.260234 46.5099 0.120234 41.4399C-0.0197658 36.3599 -0.0597658 30.8699 0.0702342 25.4799C0.200234 20.0799 0.490234 14.7799 1.01023 10.1299C1.47023 6.04994 4.14023 2.96994 8.13023 2.64994H8.14023Z" fill="url(#paint0_radial_9_3697)"/>
<path style="mix-blend-mode:screen" opacity="0.75" fill-rule="evenodd" clip-rule="evenodd" d="M8.14023 2.64994C24.2602 1.33994 44.2402 0.749945 65.2302 0.489945C86.1202 0.229945 108.05 0.289944 128.09 0.309944C148.03 0.319944 679.11 0.539944 699.14 0.939945C719.1 1.32994 739.05 1.93994 759.07 2.68994C763.11 2.83994 765.9 6.10994 766.24 10.2099C766.66 15.3399 766.97 20.4599 767.11 25.5499C767.24 30.6299 767.25 35.6999 767.13 40.7699C767.01 45.8299 766.73 50.8799 766.36 55.9199C765.98 60.9399 765.46 65.9799 764.8 70.9899C764.28 74.9999 761.38 78.0799 757.38 78.3299C741.22 79.31 721.49 79.7999 700.93 80.0499C680.32 80.2999 147.73 80.2999 128.09 80.2999C108.45 80.2999 87.0802 80.16 66.6402 79.8599C46.1502 79.5499 26.4202 79.0499 9.83023 78.3599C5.89023 78.1899 3.21023 75.0299 2.46023 71.0899C1.75023 67.3299 1.21023 62.4599 0.860234 57.2599C0.510234 52.0599 0.260234 46.5099 0.120234 41.4399C-0.0197658 36.3599 -0.0597658 30.8699 0.0702342 25.4799C0.200234 20.0799 0.490234 14.7799 1.01023 10.1299C1.47023 6.04994 4.14023 2.96994 8.13023 2.64994H8.14023Z" fill="url(#paint1_radial_9_3697)"/>
<path style="mix-blend-mode:screen" fill-rule="evenodd" clip-rule="evenodd" d="M2.09009 14.1399C1.79009 20.0299 1.10009 36.4999 2.17009 46.9099C3.18009 56.7399 6.00009 59.2399 17.0901 55.6799C85.2001 33.7999 672.39 22.1999 746.26 15.2999C760.04 14.0099 757.05 7.70994 743.94 5.34994C711.54 -0.470061 146.39 0.849939 113.01 1.03994C90.9001 1.16994 69.4601 1.03994 47.3601 1.53994C37.8401 1.75994 28.3301 2.25994 18.8401 3.02994C9.23009 3.80994 2.67009 2.91994 2.10009 14.1399H2.09009Z" fill="url(#paint2_radial_9_3697)"/>
<path style="mix-blend-mode:multiply" fill-rule="evenodd" clip-rule="evenodd" d="M8.23033 69.0201C3.40033 67.4901 2.01033 61.4101 0.840332 56.8101C0.850332 56.9601 0.860332 57.1101 0.870332 57.2501C1.22033 62.4501 1.76033 67.3201 2.47033 71.0801C3.22033 75.0301 5.89033 78.1901 9.84033 78.3501C26.4303 79.0401 46.1603 79.5501 66.6503 79.8501C87.0803 80.1501 108.35 80.2901 128.1 80.2901C147.85 80.2901 680.33 80.2901 700.94 80.0401C721.5 79.7901 741.23 79.3001 757.39 78.3201C761.39 78.0801 764.28 74.9901 764.81 70.9801C765.47 65.9601 765.99 60.9301 766.37 55.9101C766.75 50.8701 767.02 45.8101 767.14 40.7601C767.26 35.7001 767.26 30.6201 767.12 25.5401C766.98 20.4401 766.67 15.3201 766.25 10.2001C765.91 6.10006 763.12 2.83006 759.08 2.68006C750.62 2.36006 742.18 2.07006 733.74 1.81006C746.08 2.95006 757.42 5.22006 760.36 9.99006C768.73 23.5601 761.03 59.2801 751.43 67.3401C742.74 74.6501 707.46 74.8301 688.74 75.6401C653.6 77.1701 39.4203 78.8601 8.24033 69.0101L8.23033 69.0201Z" fill="url(#paint3_radial_9_3697)"/>
<path style="mix-blend-mode:multiply" opacity="0.5" d="M383.87 81.94C595.395 81.94 766.87 63.5971 766.87 40.97C766.87 18.3429 595.395 0 383.87 0C172.345 0 0.870117 18.3429 0.870117 40.97C0.870117 63.5971 172.345 81.94 383.87 81.94Z" fill="url(#paint4_radial_9_3697)"/>
<path style="mix-blend-mode:screen" fill-rule="evenodd" clip-rule="evenodd" d="M34.2201 4.23986C27.3401 4.64986 29.6701 8.37986 32.5801 8.35986C78.9701 7.98986 663.5 8.08986 678.56 7.38986C679.95 7.32986 683.29 6.89986 683.17 5.66986C683.07 4.71986 680.46 3.70986 678.56 3.64986C640.7 2.45986 71.6501 2.00986 34.2201 4.22986V4.23986ZM9.61008 9.00986C13.7101 9.36986 23.9801 9.50986 25.2701 8.53986C26.9401 7.27986 25.6901 4.43986 22.1501 4.44986C20.3001 4.44986 12.2601 4.96986 9.28008 5.78986C5.32008 6.87986 4.62008 8.57986 9.61008 9.00986Z" fill="url(#paint5_radial_9_3697)"/>
<path style="mix-blend-mode:screen" fill-rule="evenodd" clip-rule="evenodd" d="M660.33 72.7198C657.22 73.1298 657.53 74.9298 661.45 75.1198C678.14 75.9298 741.63 75.7798 751.26 66.1898C755.44 62.0298 760.66 49.7398 759.1 46.4998C758.22 44.6698 752.22 57.5198 745.88 60.7198C726.24 70.6198 672.44 71.1498 660.33 72.7298V72.7198Z" fill="url(#paint6_radial_9_3697)"/>
<g opacity="0.75">
<path style="mix-blend-mode:screen" fill-rule="evenodd" clip-rule="evenodd" d="M11.8103 23.2197C13.0403 23.2197 14.4003 24.3097 14.4003 25.5497C14.4003 26.7897 13.2103 27.7797 11.9803 27.7797C10.7503 27.7797 9.67027 26.7397 9.75027 25.5497C9.82027 24.3497 10.5803 23.2197 11.8103 23.2197ZM11.7103 23.3697C12.7303 23.3697 13.8503 24.2697 13.8503 25.2897C13.8503 26.3097 12.8703 27.1397 11.8503 27.1397C10.8303 27.1397 9.94027 26.2797 10.0003 25.2897C10.0603 24.2997 10.6903 23.3697 11.7103 23.3697ZM12.2203 23.7997C12.5803 24.1597 12.3903 24.7097 11.9003 25.1997C11.4103 25.6897 10.8003 25.9297 10.4403 25.5697C10.0803 25.2097 10.1903 24.4397 10.6803 23.9497C11.1703 23.4597 11.8503 23.4397 12.2103 23.7997H12.2203ZM13.5603 24.9497C13.7403 24.9897 13.8203 25.7997 13.2703 26.3997C12.7303 26.9997 11.8703 26.9897 11.8503 26.7597C11.8303 26.5297 12.4803 26.5597 12.9503 26.0897C13.4203 25.6197 13.3803 24.9097 13.5603 24.9497Z" fill="url(#paint7_radial_9_3697)"/>
<path style="mix-blend-mode:screen" opacity="0.7" fill-rule="evenodd" clip-rule="evenodd" d="M32.1301 45.27C33.3601 45.27 34.7101 46.36 34.7101 47.59C34.7101 48.82 33.5301 49.82 32.3001 49.82C31.0701 49.82 30.0001 48.79 30.0701 47.59C30.1401 46.4 30.9001 45.27 32.1301 45.27ZM32.0301 45.42C33.0501 45.42 34.1601 46.32 34.1601 47.34C34.1601 48.36 33.1801 49.18 32.1701 49.18C31.1601 49.18 30.2701 48.33 30.3301 47.34C30.3901 46.35 31.0101 45.42 32.0301 45.42ZM32.5401 45.85C32.9001 46.21 32.7101 46.76 32.2201 47.25C31.7301 47.74 31.1301 47.98 30.7701 47.62C30.4101 47.26 30.5201 46.49 31.0101 46C31.5001 45.51 32.1801 45.49 32.5401 45.85ZM33.8801 47C34.0601 47.04 34.1401 47.85 33.5901 48.45C33.0501 49.05 32.1901 49.04 32.1701 48.81C32.1501 48.58 32.8001 48.61 33.2701 48.14C33.7401 47.67 33.7001 46.96 33.8801 47Z" fill="url(#paint8_radial_9_3697)"/>
<path style="mix-blend-mode:screen" opacity="0.7" fill-rule="evenodd" clip-rule="evenodd" d="M66.9202 15.4697C68.1502 15.4697 69.5002 16.5597 69.5002 17.7897C69.5002 19.0197 68.3202 20.0197 67.0902 20.0197C65.8602 20.0197 64.7902 18.9897 64.8602 17.7897C64.9302 16.5997 65.6902 15.4697 66.9202 15.4697ZM66.8202 15.6197C67.8402 15.6197 68.9502 16.5197 68.9502 17.5397C68.9502 18.5597 67.9702 19.3797 66.9602 19.3797C65.9502 19.3797 65.0602 18.5297 65.1202 17.5397C65.1802 16.5497 65.8002 15.6197 66.8202 15.6197ZM67.3302 16.0497C67.6902 16.4097 67.5002 16.9597 67.0102 17.4497C66.5202 17.9397 65.9202 18.1797 65.5602 17.8197C65.2002 17.4597 65.3102 16.6897 65.8002 16.1997C66.2902 15.7097 66.9702 15.6897 67.3302 16.0497ZM68.6702 17.1997C68.8502 17.2397 68.9302 18.0497 68.3802 18.6497C67.8402 19.2497 66.9802 19.2397 66.9602 19.0097C66.9402 18.7797 67.5902 18.8097 68.0602 18.3397C68.5302 17.8697 68.4902 17.1597 68.6702 17.1997Z" fill="url(#paint9_radial_9_3697)"/>
<path style="mix-blend-mode:screen" opacity="0.6" fill-rule="evenodd" clip-rule="evenodd" d="M11.13 45.5701C12.62 45.4801 13.74 46.4701 13.74 47.7401C13.74 49.0101 12.49 50.0901 11.15 50.0201C9.81005 49.9501 8.78005 48.9901 8.85005 47.7201C8.92005 46.4501 9.64005 45.6501 11.13 45.5701ZM10.92 45.7701C12.14 45.7001 13.06 46.5101 13.06 47.5501C13.06 48.5901 12.04 49.4801 10.94 49.4201C9.84005 49.3601 9.00005 48.5701 9.05005 47.5301C9.10005 46.4901 9.70005 45.8401 10.92 45.7601V45.7701ZM11.34 46.1801C11.71 46.5501 11.52 47.1901 11.02 47.6901C10.51 48.2001 9.89005 48.3801 9.52005 48.0001C9.15005 47.6301 9.28005 46.8901 9.66005 46.4501C10.03 46.0101 10.98 45.7901 11.35 46.1701L11.34 46.1801ZM12.76 47.1001C12.95 47.1401 13.04 48.0201 12.45 48.6601C11.86 49.3001 10.94 49.3001 10.92 49.0501C10.9 48.8001 11.6 48.8401 12.11 48.3301C12.62 47.8201 12.57 47.0601 12.76 47.1001Z" fill="url(#paint10_radial_9_3697)"/>
<path style="mix-blend-mode:screen" opacity="0.4" fill-rule="evenodd" clip-rule="evenodd" d="M31.4303 65.9597C33.3203 65.8497 34.7503 67.1097 34.7503 68.7197C34.7503 70.3297 33.1603 71.6997 31.4603 71.6197C29.7603 71.5397 28.4503 70.3097 28.5303 68.6897C28.6103 67.0697 29.5403 66.0697 31.4303 65.9497V65.9597ZM31.1703 66.2097C32.7203 66.1197 33.8903 67.1497 33.8903 68.4797C33.8903 69.8097 32.5903 70.9297 31.1903 70.8597C29.7903 70.7897 28.7203 69.7797 28.7903 68.4597C28.8603 67.1297 29.6203 66.3097 31.1703 66.2197V66.2097ZM31.7003 66.7297C32.1703 67.1997 31.9303 68.0097 31.2903 68.6597C30.6503 69.2997 29.8503 69.5297 29.3803 69.0597C28.9103 68.5897 29.0803 67.6497 29.5503 67.0897C30.0303 66.5297 31.2303 66.2597 31.7003 66.7297ZM33.5103 67.8997C33.7503 67.9597 33.8603 69.0597 33.1203 69.8797C32.3703 70.6997 31.2003 70.6897 31.1703 70.3697C31.1403 70.0497 32.0303 70.0997 32.6803 69.4497C33.3303 68.7997 33.2703 67.8397 33.5103 67.8897V67.8997Z" fill="url(#paint11_radial_9_3697)"/>
<path style="mix-blend-mode:screen" opacity="0.4" fill-rule="evenodd" clip-rule="evenodd" d="M10.3202 68.9197C11.9502 68.8197 13.1802 69.9097 13.1802 71.2997C13.1802 72.6897 11.8102 73.8697 10.3402 73.7997C8.87021 73.7297 7.74021 72.6697 7.81021 71.2697C7.88021 69.8797 8.68021 69.0097 10.3102 68.9097L10.3202 68.9197ZM10.0902 69.1397C11.4302 69.0597 12.4402 69.9497 12.4402 71.0897C12.4402 72.2297 11.3202 73.1997 10.1102 73.1397C8.91021 73.0797 7.98021 72.2097 8.04021 71.0697C8.10021 69.9297 8.75021 69.2097 10.0902 69.1297V69.1397ZM10.5502 69.5897C10.9602 69.9997 10.7502 70.6997 10.1902 71.2497C9.63021 71.7997 8.95021 71.9997 8.54021 71.5897C8.13021 71.1797 8.28021 70.3797 8.69021 69.8897C9.10021 69.4097 10.1402 69.1697 10.5502 69.5797V69.5897ZM12.1102 70.5997C12.3202 70.6497 12.4102 71.5997 11.7702 72.3097C11.1302 73.0197 10.1202 73.0097 10.0902 72.7397C10.0602 72.4697 10.8302 72.5097 11.3902 71.9497C11.9502 71.3897 11.9002 70.5597 12.1102 70.6097V70.5997Z" fill="url(#paint12_radial_9_3697)"/>
<path style="mix-blend-mode:screen" opacity="0.4" fill-rule="evenodd" clip-rule="evenodd" d="M48.6401 59.69C49.7901 59.62 50.6502 60.38 50.6502 61.37C50.6502 62.36 49.6902 63.18 48.6602 63.13C47.6302 63.08 46.8302 62.34 46.8802 61.35C46.9302 60.37 47.4901 59.76 48.6401 59.69ZM48.4802 59.84C49.4202 59.78 50.1302 60.41 50.1302 61.21C50.1302 62.01 49.3402 62.69 48.4902 62.65C47.6402 62.61 46.9901 62 47.0301 61.19C47.0701 60.38 47.5302 59.88 48.4702 59.83L48.4802 59.84ZM48.8001 60.16C49.0901 60.45 48.9401 60.94 48.5501 61.33C48.1601 61.72 47.6801 61.86 47.3901 61.57C47.1001 61.28 47.2102 60.72 47.4902 60.38C47.7802 60.04 48.5101 59.88 48.8001 60.16ZM49.9002 60.87C50.0502 60.9 50.1102 61.58 49.6602 62.07C49.2102 62.56 48.5002 62.56 48.4802 62.37C48.4602 62.18 49.0001 62.2 49.3901 61.81C49.7801 61.42 49.7501 60.83 49.8901 60.87H49.9002Z" fill="url(#paint13_radial_9_3697)"/>
<path style="mix-blend-mode:screen" opacity="0.4" fill-rule="evenodd" clip-rule="evenodd" d="M57.35 68.3601C58.42 68.3001 59.23 69.0101 59.23 69.9201C59.23 70.8301 58.33 71.6101 57.37 71.5601C56.41 71.5101 55.67 70.8201 55.71 69.9001C55.76 68.9901 56.28 68.4201 57.35 68.3501V68.3601ZM57.2 68.5001C58.08 68.4501 58.74 69.0301 58.74 69.7801C58.74 70.5301 58 71.1601 57.21 71.1301C56.42 71.0901 55.81 70.5201 55.85 69.7701C55.89 69.0201 56.32 68.5501 57.2 68.5001ZM57.5 68.7901C57.77 69.0601 57.63 69.5201 57.27 69.8801C56.91 70.2401 56.46 70.3701 56.19 70.1101C55.92 69.8401 56.02 69.3101 56.29 69.0001C56.56 68.6801 57.24 68.5301 57.51 68.8001L57.5 68.7901ZM58.52 69.4501C58.66 69.4801 58.72 70.1101 58.3 70.5701C57.88 71.0301 57.22 71.0301 57.2 70.8501C57.18 70.6701 57.69 70.7001 58.05 70.3301C58.42 69.9601 58.38 69.4201 58.52 69.4501Z" fill="url(#paint14_radial_9_3697)"/>
<path style="mix-blend-mode:screen" fill-rule="evenodd" clip-rule="evenodd" d="M38.7404 14.88C40.2904 14.79 41.4504 15.82 41.4504 17.14C41.4504 18.46 40.1504 19.58 38.7604 19.51C37.3704 19.44 36.3004 18.44 36.3704 17.12C36.4404 15.8 37.1904 14.97 38.7404 14.88ZM38.5304 15.09C39.8004 15.02 40.7504 15.86 40.7504 16.94C40.7504 18.02 39.6804 18.94 38.5404 18.89C37.4004 18.83 36.5204 18.01 36.5804 16.93C36.6404 15.85 37.2604 15.17 38.5304 15.09ZM38.9604 15.52C39.3504 15.91 39.1504 16.57 38.6204 17.09C38.0904 17.61 37.4404 17.8 37.0604 17.42C36.6704 17.03 36.8104 16.27 37.2004 15.81C37.5904 15.35 38.5704 15.13 38.9604 15.52ZM40.4404 16.48C40.6404 16.53 40.7304 17.43 40.1204 18.1C39.5104 18.77 38.5504 18.76 38.5304 18.5C38.5004 18.24 39.2404 18.28 39.7604 17.75C40.2804 17.22 40.2404 16.43 40.4404 16.48Z" fill="url(#paint15_radial_9_3697)"/>
<path style="mix-blend-mode:screen" opacity="0.4" fill-rule="evenodd" clip-rule="evenodd" d="M38.6501 26.1301C39.7501 26.0701 40.5801 26.8001 40.5801 27.7401C40.5801 28.6801 39.6501 29.4801 38.6601 29.4301C37.6701 29.3801 36.9001 28.6601 36.9501 27.7201C37.0001 26.7801 37.5401 26.1901 38.6401 26.1201L38.6501 26.1301ZM38.5001 26.2801C39.4101 26.2301 40.0901 26.8301 40.0901 27.6001C40.0901 28.3701 39.3301 29.0301 38.5201 28.9901C37.7101 28.9501 37.0801 28.3601 37.1201 27.5901C37.1601 26.8201 37.6001 26.3301 38.5101 26.2801H38.5001ZM38.8101 26.5801C39.0901 26.8601 38.9401 27.3301 38.5701 27.7001C38.2001 28.0701 37.7301 28.2101 37.4501 27.9301C37.1701 27.6501 37.2701 27.1101 37.5501 26.7801C37.8301 26.4501 38.5301 26.2901 38.8101 26.5701V26.5801ZM39.8601 27.2601C40.0001 27.2901 40.0601 27.9401 39.6301 28.4201C39.1901 28.9001 38.5101 28.8901 38.4901 28.7101C38.4701 28.5301 38.9901 28.5501 39.3701 28.1701C39.7501 27.7901 39.7101 27.2301 39.8601 27.2601Z" fill="url(#paint16_radial_9_3697)"/>
<path style="mix-blend-mode:screen" opacity="0.6" fill-rule="evenodd" clip-rule="evenodd" d="M35.5003 29.1098C37.0603 29.1398 38.4903 30.6498 38.4903 32.3798C38.4903 34.1098 37.3403 34.8398 35.6103 34.8398C33.8803 34.8398 32.5103 34.1298 32.5103 32.3998C32.5103 30.6698 33.9403 29.0798 35.5003 29.1098ZM35.2603 29.3898C36.5503 29.4098 37.7403 30.6598 37.7403 32.0998C37.7403 33.5398 36.7903 34.1398 35.3503 34.1398C33.9103 34.1398 32.7803 33.5498 32.7803 32.1198C32.7803 30.6898 33.9603 29.3698 35.2603 29.3898ZM35.8603 29.8898C36.3403 30.3698 36.1503 31.3398 35.5003 31.9898C34.8503 32.6398 33.9503 32.7798 33.4703 32.2998C32.9903 31.8198 33.1603 30.8298 33.8103 30.1798C34.4603 29.5298 35.3903 29.4198 35.8703 29.8998L35.8603 29.8898ZM37.2703 31.3098C37.5003 31.3598 37.7703 32.5398 37.0703 33.3198C36.3603 34.0998 35.0803 33.9598 35.0503 33.6598C35.0203 33.3598 36.0403 33.5298 36.6503 32.9198C37.2603 32.3098 37.0403 31.2598 37.2703 31.3098Z" fill="url(#paint17_radial_9_3697)"/>
<path style="mix-blend-mode:screen" fill-rule="evenodd" clip-rule="evenodd" d="M20.76 56.1399C21.92 56.1599 22.98 57.2799 22.98 58.5599C22.98 59.8399 22.13 60.3899 20.84 60.3899C19.55 60.3899 18.54 59.8599 18.54 58.5799C18.54 57.2999 19.6 56.1199 20.76 56.1399ZM20.59 56.3499C21.55 56.3699 22.43 57.2999 22.43 58.3599C22.43 59.4199 21.72 59.8699 20.66 59.8699C19.6 59.8699 18.75 59.4299 18.75 58.3699C18.75 57.3099 19.63 56.3299 20.59 56.3499ZM21.04 56.7199C21.4 57.0799 21.25 57.7899 20.77 58.2799C20.29 58.7599 19.62 58.8599 19.26 58.5099C18.9 58.1599 19.03 57.4199 19.51 56.9299C19.99 56.4399 20.68 56.3699 21.04 56.7199ZM22.08 57.7699C22.25 57.8099 22.45 58.6899 21.93 59.2599C21.41 59.8399 20.46 59.7299 20.43 59.5099C20.41 59.2899 21.16 59.4199 21.62 58.9599C22.08 58.4999 21.91 57.7299 22.08 57.7699Z" fill="url(#paint18_radial_9_3697)"/>
<path style="mix-blend-mode:screen" fill-rule="evenodd" clip-rule="evenodd" d="M85.6403 23.2197C86.8703 23.2197 88.2304 24.3097 88.2304 25.5497C88.2304 26.7897 87.0403 27.7797 85.8103 27.7797C84.5803 27.7797 83.5004 26.7397 83.5804 25.5497C83.6504 24.3497 84.4103 23.2197 85.6403 23.2197ZM85.5404 23.3697C86.5604 23.3697 87.6804 24.2697 87.6804 25.2897C87.6804 26.3097 86.7004 27.1397 85.6804 27.1397C84.6604 27.1397 83.7704 26.2797 83.8304 25.2897C83.8904 24.2997 84.5204 23.3697 85.5404 23.3697ZM86.0504 23.7997C86.4104 24.1597 86.2204 24.7097 85.7304 25.1997C85.2404 25.6897 84.6303 25.9297 84.2703 25.5697C83.9103 25.2097 84.0204 24.4397 84.5104 23.9497C85.0004 23.4597 85.6804 23.4397 86.0404 23.7997H86.0504ZM87.3903 24.9497C87.5703 24.9897 87.6503 25.7997 87.1003 26.3997C86.5503 26.9997 85.7004 26.9897 85.6804 26.7597C85.6604 26.5297 86.3103 26.5597 86.7803 26.0897C87.2503 25.6197 87.2103 24.9097 87.3903 24.9497Z" fill="url(#paint19_radial_9_3697)"/>
<path style="mix-blend-mode:screen" opacity="0.7" fill-rule="evenodd" clip-rule="evenodd" d="M651.81 15.4697C653.04 15.4697 654.39 16.5597 654.39 17.7897C654.39 19.0197 653.21 20.0197 651.98 20.0197C650.75 20.0197 649.68 18.9897 649.75 17.7897C649.82 16.5997 650.58 15.4697 651.81 15.4697ZM651.71 15.6197C652.73 15.6197 653.84 16.5197 653.84 17.5397C653.84 18.5597 652.86 19.3797 651.85 19.3797C650.84 19.3797 649.95 18.5297 650.01 17.5397C650.07 16.5497 650.69 15.6197 651.71 15.6197ZM652.22 16.0497C652.58 16.4097 652.39 16.9597 651.9 17.4497C651.41 17.9397 650.81 18.1797 650.45 17.8197C650.09 17.4597 650.2 16.6897 650.69 16.1997C651.18 15.7097 651.86 15.6897 652.22 16.0497ZM653.56 17.1997C653.74 17.2397 653.82 18.0497 653.27 18.6497C652.73 19.2497 651.87 19.2397 651.85 19.0097C651.83 18.7797 652.48 18.8097 652.95 18.3397C653.42 17.8697 653.38 17.1597 653.56 17.1997Z" fill="url(#paint20_radial_9_3697)"/>
<path style="mix-blend-mode:screen" opacity="0.4" fill-rule="evenodd" clip-rule="evenodd" d="M106.01 59.6897C107.9 59.5797 109.33 60.8397 109.33 62.4497C109.33 64.0597 107.74 65.4297 106.04 65.3497C104.34 65.2697 103.03 64.0397 103.11 62.4197C103.19 60.7997 104.12 59.7997 106.01 59.6797V59.6897ZM105.75 59.9397C107.3 59.8497 108.47 60.8797 108.47 62.2097C108.47 63.5397 107.17 64.6597 105.77 64.5897C104.38 64.5197 103.3 63.5097 103.37 62.1897C103.44 60.8597 104.2 60.0397 105.75 59.9497V59.9397ZM106.28 60.4597C106.75 60.9297 106.51 61.7397 105.87 62.3897C105.23 63.0297 104.43 63.2597 103.96 62.7897C103.49 62.3197 103.66 61.3797 104.13 60.8197C104.61 60.2597 105.81 59.9897 106.28 60.4597ZM108.09 61.6297C108.33 61.6897 108.44 62.7897 107.7 63.6097C106.95 64.4297 105.78 64.4197 105.75 64.0997C105.72 63.7797 106.61 63.8297 107.26 63.1797C107.91 62.5297 107.85 61.5697 108.09 61.6197V61.6297Z" fill="url(#paint21_radial_9_3697)"/>
<path style="mix-blend-mode:screen" opacity="0.4" fill-rule="evenodd" clip-rule="evenodd" d="M88.0304 70.2297C89.9204 70.1197 91.3504 71.3797 91.3504 72.9897C91.3504 74.5997 89.7604 75.9697 88.0604 75.8897C86.3604 75.8097 85.0504 74.5797 85.1304 72.9597C85.2104 71.3397 86.1404 70.3397 88.0304 70.2197V70.2297ZM87.7704 70.4797C89.3204 70.3897 90.4904 71.4197 90.4904 72.7497C90.4904 74.0797 89.1904 75.1997 87.7904 75.1297C86.4004 75.0597 85.3204 74.0497 85.3904 72.7297C85.4604 71.3997 86.2204 70.5797 87.7704 70.4897V70.4797ZM88.3004 70.9997C88.7704 71.4697 88.5304 72.2797 87.8904 72.9297C87.2504 73.5697 86.4504 73.7997 85.9804 73.3297C85.5104 72.8597 85.6804 71.9197 86.1504 71.3597C86.6304 70.7997 87.8304 70.5297 88.3004 70.9997ZM90.1104 72.1697C90.3504 72.2297 90.4604 73.3297 89.7204 74.1497C88.9804 74.9697 87.8004 74.9597 87.7704 74.6397C87.7404 74.3197 88.6304 74.3697 89.2804 73.7197C89.9304 73.0697 89.8704 72.1097 90.1104 72.1597V72.1697Z" fill="url(#paint22_radial_9_3697)"/>
<path style="mix-blend-mode:screen" opacity="0.4" fill-rule="evenodd" clip-rule="evenodd" d="M122.47 59.69C123.62 59.62 124.48 60.38 124.48 61.37C124.48 62.36 123.52 63.18 122.49 63.13C121.46 63.08 120.66 62.34 120.71 61.35C120.76 60.36 121.32 59.76 122.47 59.69ZM122.31 59.84C123.25 59.78 123.96 60.41 123.96 61.21C123.96 62.01 123.17 62.69 122.32 62.65C121.47 62.61 120.82 62 120.86 61.19C120.9 60.38 121.36 59.88 122.3 59.83L122.31 59.84ZM122.63 60.16C122.92 60.45 122.77 60.94 122.38 61.33C121.99 61.72 121.51 61.86 121.22 61.57C120.93 61.28 121.04 60.72 121.32 60.38C121.61 60.04 122.34 59.88 122.63 60.16ZM123.73 60.87C123.88 60.9 123.94 61.58 123.49 62.07C123.04 62.56 122.33 62.56 122.31 62.37C122.29 62.18 122.83 62.2 123.22 61.81C123.61 61.42 123.58 60.83 123.72 60.87H123.73Z" fill="url(#paint23_radial_9_3697)"/>
<path style="mix-blend-mode:screen" opacity="0.4" fill-rule="evenodd" clip-rule="evenodd" d="M642.24 68.3601C643.31 68.3001 644.12 69.0101 644.12 69.9201C644.12 70.8301 643.22 71.6101 642.26 71.5601C641.3 71.5101 129.5 70.8201 129.54 69.9001C129.59 68.9901 641.17 68.4201 642.24 68.3501V68.3601ZM642.09 68.5001C642.97 68.4501 643.63 69.0301 643.63 69.7801C643.63 70.5301 642.89 71.1601 642.1 71.1301C641.31 71.0901 129.64 70.5201 129.68 69.7701C129.72 69.0201 641.21 68.5501 642.09 68.5001ZM642.39 68.7901C642.66 69.0601 642.52 69.5201 642.16 69.8801C641.8 70.2401 641.35 70.3701 641.08 70.1101C640.81 69.8501 640.91 69.3101 641.18 69.0001C641.45 68.6801 642.13 68.5301 642.4 68.8001L642.39 68.7901ZM643.41 69.4501C643.55 69.4801 643.61 70.1101 643.19 70.5701C642.77 71.0301 642.11 71.0301 642.09 70.8501C642.07 70.6701 642.58 70.7001 642.94 70.3301C643.3 69.9601 643.27 69.4201 643.41 69.4501Z" fill="url(#paint24_radial_9_3697)"/>
<path style="mix-blend-mode:screen" fill-rule="evenodd" clip-rule="evenodd" d="M112.57 14.88C114.12 14.79 115.28 15.82 115.28 17.14C115.28 18.46 113.98 19.58 112.59 19.51C111.2 19.44 110.13 18.44 110.2 17.12C110.27 15.8 111.02 14.97 112.57 14.88ZM112.36 15.09C113.63 15.02 114.58 15.86 114.58 16.94C114.58 18.02 113.51 18.94 112.37 18.89C111.23 18.83 110.35 18.01 110.41 16.93C110.47 15.85 111.09 15.17 112.36 15.09ZM112.79 15.52C113.18 15.91 112.98 16.57 112.45 17.09C111.92 17.61 111.27 17.8 110.89 17.42C110.5 17.03 110.64 16.27 111.03 15.81C111.42 15.35 112.4 15.13 112.79 15.52ZM114.27 16.48C114.47 16.53 114.56 17.43 113.95 18.1C113.34 18.77 112.38 18.76 112.36 18.5C112.33 18.24 113.07 18.28 113.59 17.75C114.12 17.22 114.07 16.43 114.27 16.48Z" fill="url(#paint25_radial_9_3697)"/>
<path style="mix-blend-mode:screen" opacity="0.6" fill-rule="evenodd" clip-rule="evenodd" d="M705.91 47.3198C707.05 47.3198 708.3 48.3298 708.3 49.4698C708.3 50.6098 707.21 51.5298 706.07 51.5298C704.93 51.5298 703.94 50.5698 704.01 49.4698C704.08 48.3698 704.78 47.3198 705.91 47.3198ZM705.81 47.4598C706.75 47.4598 707.78 48.2898 707.78 49.2298C707.78 50.1698 706.88 50.9298 705.94 50.9298C705 50.9298 704.18 50.1398 704.24 49.2298C704.3 48.3198 704.87 47.4598 705.81 47.4598ZM706.28 47.8598C706.61 48.1898 706.44 48.6998 705.99 49.1498C705.54 49.5998 704.98 49.8298 704.65 49.4898C704.32 49.1598 704.42 48.4398 704.87 47.9898C705.32 47.5398 705.95 47.5198 706.28 47.8498V47.8598ZM707.52 48.9198C707.68 48.9598 707.76 49.6998 707.25 50.2598C706.75 50.8098 705.96 50.8098 705.94 50.5898C705.92 50.3798 706.52 50.4098 706.96 49.9698C707.4 49.5298 707.36 48.8798 707.52 48.9198Z" fill="url(#paint26_radial_9_3697)"/>
<path style="mix-blend-mode:screen" opacity="0.4" fill-rule="evenodd" clip-rule="evenodd" d="M690.03 63.1199C691.92 63.0099 693.35 64.2699 693.35 65.8799C693.35 67.4899 691.76 68.8599 690.06 68.7799C688.36 68.6999 687.05 67.4699 687.13 65.8499C687.21 64.2299 688.14 63.2299 690.03 63.1099V63.1199ZM689.77 63.3699C691.32 63.2799 692.49 64.3099 692.49 65.6399C692.49 66.9699 691.19 68.0899 689.79 68.0199C688.39 67.9499 687.32 66.9399 687.39 65.6199C687.46 64.2899 688.22 63.4699 689.77 63.3799V63.3699ZM690.3 63.8899C690.77 64.3599 690.53 65.1699 689.89 65.8199C689.25 66.4599 688.45 66.6899 687.98 66.2199C687.51 65.7499 687.68 64.8099 688.15 64.2499C688.63 63.6899 689.83 63.4199 690.3 63.8899ZM692.11 65.0599C692.35 65.1199 692.46 66.2199 691.72 67.0399C690.97 67.8599 689.8 67.8499 689.77 67.5299C689.74 67.2099 690.63 67.2599 691.28 66.6099C691.93 65.9599 691.87 64.9999 692.11 65.0499V65.0599Z" fill="url(#paint27_radial_9_3697)"/>
<path style="mix-blend-mode:screen" opacity="0.4" fill-rule="evenodd" clip-rule="evenodd" d="M730.48 49.1799C732.37 49.0699 733.8 50.3299 733.8 51.9399C733.8 53.5499 732.21 54.9199 730.51 54.8399C728.81 54.7599 727.5 53.5299 727.58 51.9099C727.66 50.2899 728.59 49.2899 730.48 49.1699V49.1799ZM730.22 49.4299C731.77 49.3399 732.94 50.3699 732.94 51.6999C732.94 53.0299 731.64 54.1499 730.24 54.0799C728.85 54.0099 727.77 52.9999 727.84 51.6799C727.91 50.3499 728.67 49.5299 730.22 49.4399V49.4299ZM730.75 49.9499C731.22 50.4199 730.98 51.2299 730.34 51.8799C729.7 52.5199 728.9 52.7499 728.43 52.2799C727.96 51.8099 728.13 50.8699 728.6 50.3099C729.08 49.7499 730.28 49.4799 730.75 49.9499ZM732.56 51.1199C732.8 51.1799 732.91 52.2799 732.17 53.0999C731.42 53.9199 730.25 53.9099 730.22 53.5899C730.19 53.2699 731.08 53.3199 731.73 52.6699C732.38 52.0199 732.32 51.0599 732.56 51.1099V51.1199Z" fill="url(#paint28_radial_9_3697)"/>
<path style="mix-blend-mode:screen" opacity="0.4" fill-rule="evenodd" clip-rule="evenodd" d="M715.42 68.3601C716.49 68.3001 717.3 69.0101 717.3 69.9201C717.3 70.8301 716.4 71.6101 715.44 71.5601C714.48 71.5101 713.74 70.8201 713.78 69.9001C713.83 68.9901 714.35 68.4201 715.42 68.3501V68.3601ZM715.27 68.5001C716.15 68.4501 716.81 69.0301 716.81 69.7801C716.81 70.5301 716.07 71.1601 715.28 71.1301C714.49 71.0901 713.88 70.5201 713.92 69.7701C713.96 69.0201 714.39 68.5501 715.27 68.5001ZM715.57 68.7901C715.84 69.0601 715.7 69.5201 715.34 69.8801C714.98 70.2401 714.53 70.3701 714.26 70.1101C713.99 69.8501 714.09 69.3101 714.36 69.0001C714.63 68.6801 715.31 68.5301 715.58 68.8001L715.57 68.7901ZM716.59 69.4501C716.73 69.4801 716.79 70.1101 716.37 70.5701C715.95 71.0301 715.29 71.0301 715.27 70.8501C715.25 70.6701 715.76 70.7001 716.12 70.3301C716.49 69.9601 716.45 69.4201 716.59 69.4501Z" fill="url(#paint29_radial_9_3697)"/>
<path style="mix-blend-mode:screen" opacity="0.4" fill-rule="evenodd" clip-rule="evenodd" d="M696.72 26.1301C697.83 26.0701 698.65 26.8001 698.65 27.7401C698.65 28.6801 697.72 29.4801 696.73 29.4301C695.74 29.3801 694.97 28.6601 695.02 27.7201C695.07 26.7801 695.61 26.1901 696.71 26.1201L696.72 26.1301ZM696.57 26.2801C697.48 26.2301 698.16 26.8301 698.16 27.6001C698.16 28.3701 697.4 29.0301 696.59 28.9901C695.78 28.9501 695.15 28.3601 695.19 27.5901C695.23 26.8201 695.67 26.3301 696.58 26.2801H696.57ZM696.88 26.5801C697.16 26.8601 697.01 27.3301 696.64 27.7001C696.27 28.0701 695.8 28.2101 695.52 27.9301C695.24 27.6501 695.34 27.1101 695.62 26.7801C695.9 26.4501 696.6 26.2901 696.88 26.5701V26.5801ZM697.93 27.2601C698.07 27.2901 698.13 27.9401 697.7 28.4201C697.27 28.9001 696.58 28.8901 696.56 28.7101C696.54 28.5301 697.06 28.5501 697.44 28.1701C697.82 27.7901 697.78 27.2301 697.93 27.2601Z" fill="url(#paint30_radial_9_3697)"/>
<path style="mix-blend-mode:screen" opacity="0.6" fill-rule="evenodd" clip-rule="evenodd" d="M693.57 29.1098C695.13 29.1398 696.56 30.6498 696.56 32.3798C696.56 34.1098 695.41 34.8398 693.68 34.8398C691.95 34.8398 690.58 34.1298 690.58 32.3998C690.58 30.6698 692.01 29.0798 693.57 29.1098ZM693.33 29.3898C694.62 29.4098 695.81 30.6598 695.81 32.0998C695.81 33.5398 694.86 34.1398 693.42 34.1398C691.98 34.1398 690.85 33.5498 690.85 32.1198C690.85 30.6898 692.03 29.3698 693.33 29.3898ZM693.93 29.8898C694.41 30.3698 694.22 31.3398 693.57 31.9898C692.92 32.6398 692.02 32.7798 691.54 32.2998C691.06 31.8198 691.23 30.8298 691.88 30.1798C692.53 29.5298 693.46 29.4198 693.94 29.8998L693.93 29.8898ZM695.34 31.3098C695.57 31.3598 695.84 32.5398 695.14 33.3198C694.43 34.0998 693.15 33.9598 693.12 33.6598C693.09 33.3598 694.11 33.5298 694.72 32.9198C695.33 32.3098 695.11 31.2598 695.34 31.3098Z" fill="url(#paint31_radial_9_3697)"/>
<path style="mix-blend-mode:screen" fill-rule="evenodd" clip-rule="evenodd" d="M678.83 56.1399C679.99 56.1599 681.05 57.2799 681.05 58.5599C681.05 59.8399 680.2 60.3899 678.92 60.3899C677.64 60.3899 676.62 59.8599 676.62 58.5799C676.62 57.2999 677.68 56.1199 678.84 56.1399H678.83ZM678.66 56.3499C679.62 56.3699 680.5 57.2999 680.5 58.3599C680.5 59.4199 679.79 59.8699 678.73 59.8699C677.67 59.8699 676.83 59.4299 676.83 58.3699C676.83 57.3099 677.71 56.3299 678.67 56.3499H678.66ZM679.11 56.7199C679.47 57.0799 679.32 57.7899 678.84 58.2799C678.36 58.7699 677.69 58.8599 677.33 58.5099C676.97 58.1499 677.1 57.4199 677.58 56.9299C678.06 56.4499 678.75 56.3699 679.11 56.7199ZM680.15 57.7699C680.32 57.8099 680.52 58.6899 680 59.2599C679.48 59.8399 678.53 59.7299 678.5 59.5099C678.48 59.2899 679.23 59.4199 679.69 58.9599C680.15 58.4999 679.98 57.7299 680.15 57.7699Z" fill="url(#paint32_radial_9_3697)"/>
<path style="mix-blend-mode:screen" fill-rule="evenodd" clip-rule="evenodd" d="M674.49 13.3699C675.65 13.3899 676.71 14.5099 676.71 15.7899C676.71 17.0699 675.86 17.6199 674.58 17.6199C673.3 17.6199 672.28 17.0899 672.28 15.8099C672.28 14.5299 673.34 13.3499 674.5 13.3699H674.49ZM674.32 13.5799C675.28 13.5999 676.16 14.5299 676.16 15.5899C676.16 16.6499 675.45 17.0999 674.39 17.0999C673.33 17.0999 672.48 16.6599 672.48 15.5999C672.48 14.5399 673.36 13.5599 674.32 13.5799ZM674.77 13.9499C675.13 14.3099 674.98 15.0199 674.5 15.5099C674.02 15.9899 673.35 16.0899 672.99 15.7399C672.63 15.3899 672.76 14.6499 673.24 14.1599C673.72 13.6799 674.41 13.5999 674.77 13.9499ZM675.81 14.9999C675.98 15.0399 676.18 15.9199 675.66 16.4899C675.14 17.0599 674.19 16.9599 674.16 16.7399C674.14 16.5199 674.89 16.6499 675.35 16.1899C675.81 15.7299 675.64 14.9599 675.81 14.9999Z" fill="url(#paint33_radial_9_3697)"/>
<path style="mix-blend-mode:screen" fill-rule="evenodd" clip-rule="evenodd" d="M704.46 6.6199C705.51 6.6399 706.46 7.64991 706.46 8.80991C706.46 9.96991 705.69 10.4599 704.53 10.4599C703.37 10.4599 702.45 9.9899 702.45 8.82991C702.45 7.66991 703.41 6.5999 704.45 6.6199H704.46ZM704.3 6.8099C705.17 6.8299 705.96 7.6699 705.96 8.6199C705.96 9.56991 705.32 9.9899 704.36 9.9899C703.4 9.9899 702.64 9.59991 702.64 8.63991C702.64 7.67991 703.43 6.7899 704.3 6.8099ZM704.7 7.1399C705.02 7.4599 704.89 8.10991 704.46 8.54991C704.02 8.98991 703.42 9.07991 703.1 8.75991C702.78 8.43991 702.89 7.76991 703.33 7.33991C703.77 6.90991 704.39 6.82991 704.71 7.14991L704.7 7.1399ZM705.64 8.08991C705.79 8.12991 705.98 8.9199 705.5 9.4399C705.02 9.9599 704.17 9.86991 704.15 9.66991C704.13 9.46991 704.81 9.57991 705.22 9.16991C705.63 8.75991 705.48 8.05991 705.63 8.08991H705.64Z" fill="url(#paint34_radial_9_3697)"/>
<path style="mix-blend-mode:screen" opacity="0.7" fill-rule="evenodd" clip-rule="evenodd" d="M756.5 32.2598C757.34 32.2598 758.27 33.0098 758.27 33.8498C758.27 34.6898 757.46 35.3798 756.61 35.3798C755.76 35.3798 755.03 34.6698 755.08 33.8498C755.13 33.0298 755.65 32.2598 756.49 32.2598H756.5ZM756.43 32.3598C757.13 32.3598 757.89 32.9798 757.89 33.6798C757.89 34.3798 757.22 34.9398 756.52 34.9398C755.82 34.9398 755.21 34.3498 755.26 33.6798C755.3 32.9998 755.73 32.3598 756.43 32.3598ZM756.78 32.6498C757.03 32.8998 756.9 33.2698 756.56 33.6098C756.22 33.9498 755.81 34.1098 755.56 33.8698C755.31 33.6298 755.39 33.0898 755.73 32.7598C756.07 32.4198 756.53 32.4098 756.78 32.6598V32.6498ZM757.7 33.4398C757.82 33.4698 757.88 34.0198 757.5 34.4298C757.12 34.8398 756.54 34.8298 756.53 34.6798C756.51 34.5198 756.96 34.5398 757.28 34.2198C757.6 33.8998 757.58 33.4098 757.7 33.4398Z" fill="url(#paint35_radial_9_3697)"/>
<path style="mix-blend-mode:screen" opacity="0.7" fill-rule="evenodd" clip-rule="evenodd" d="M664.82 62.04C666.05 62.04 667.4 63.13 667.4 64.36C667.4 65.59 666.22 66.59 664.99 66.59C663.76 66.59 662.69 65.56 662.76 64.36C662.83 63.17 663.59 62.04 664.82 62.04ZM664.72 62.19C665.74 62.19 666.85 63.09 666.85 64.11C666.85 65.13 665.87 65.95 664.86 65.95C663.85 65.95 662.96 65.1 663.02 64.11C663.08 63.12 663.7 62.19 664.72 62.19ZM665.23 62.62C665.59 62.98 665.4 63.53 664.91 64.02C664.42 64.51 663.82 64.75 663.46 64.39C663.1 64.03 663.21 63.26 663.7 62.77C664.19 62.28 664.87 62.26 665.23 62.62ZM666.57 63.77C666.75 63.81 666.83 64.62 666.28 65.22C665.74 65.82 664.88 65.81 664.86 65.58C664.84 65.35 665.49 65.38 665.96 64.91C666.43 64.44 666.39 63.73 666.57 63.77Z" fill="url(#paint36_radial_9_3697)"/>
<path style="mix-blend-mode:screen" fill-rule="evenodd" clip-rule="evenodd" d="M750.16 33.3701C751.79 33.3701 753.59 34.8201 753.59 36.4501C753.59 38.0801 752.02 39.4101 750.38 39.4101C748.74 39.4101 747.32 38.0401 747.42 36.4501C747.52 34.8701 748.52 33.3701 750.15 33.3701H750.16ZM750.02 33.5701C751.37 33.5701 752.86 34.7701 752.86 36.1201C752.86 37.4701 751.56 38.5701 750.21 38.5701C748.86 38.5701 747.68 37.4301 747.77 36.1201C747.85 34.8101 748.68 33.5701 750.03 33.5701H750.02ZM750.69 34.1401C751.17 34.6201 750.92 35.3501 750.27 35.9901C749.62 36.6401 748.82 36.9601 748.34 36.4901C747.86 36.0101 748.01 34.9901 748.66 34.3401C749.31 33.6901 750.21 33.6601 750.69 34.1401ZM752.47 35.6601C752.7 35.7101 752.81 36.7901 752.09 37.5801C751.37 38.3701 750.24 38.3601 750.21 38.0601C750.18 37.7501 751.05 37.8001 751.67 37.1701C752.3 36.5401 752.24 35.6101 752.48 35.6601H752.47Z" fill="url(#paint37_radial_9_3697)"/>
<path style="mix-blend-mode:screen" opacity="0.4" fill-rule="evenodd" clip-rule="evenodd" d="M744.09 56.8601C745.98 56.7501 747.41 58.0101 747.41 59.6201C747.41 61.2301 745.82 62.6001 744.12 62.5201C742.42 62.4401 741.11 61.2101 741.19 59.5901C741.27 57.9701 742.2 56.9701 744.09 56.8501V56.8601ZM743.83 57.1101C745.38 57.0201 746.55 58.0501 746.55 59.3801C746.55 60.7101 745.25 61.8301 743.85 61.7601C742.45 61.6901 741.38 60.6801 741.45 59.3601C741.52 58.0301 742.28 57.2101 743.83 57.1201V57.1101ZM744.36 57.6301C744.83 58.1001 744.59 58.9101 743.95 59.5601C743.31 60.2101 742.51 60.4301 742.04 59.9601C741.57 59.4901 741.74 58.5501 742.21 57.9901C742.69 57.4301 743.89 57.1601 744.36 57.6301ZM746.17 58.8001C746.41 58.8601 746.52 59.9601 745.78 60.7801C745.04 61.6001 743.86 61.5901 743.83 61.2701C743.8 60.9501 744.69 61.0001 745.34 60.3501C745.99 59.7001 745.93 58.7401 746.17 58.7901V58.8001Z" fill="url(#paint38_radial_9_3697)"/>
<path style="mix-blend-mode:screen" fill-rule="evenodd" clip-rule="evenodd" d="M735.31 6.80968C736.86 6.71968 738.02 7.74968 738.02 9.06968C738.02 10.3897 736.72 11.5097 735.33 11.4397C733.94 11.3697 732.87 10.3697 732.94 9.04968C733.01 7.72968 733.76 6.89968 735.31 6.80968ZM735.1 7.01968C736.37 6.94968 737.32 7.78968 737.32 8.86968C737.32 9.94968 736.25 10.8697 735.11 10.8197C733.97 10.7697 733.09 9.93968 733.15 8.85968C733.21 7.76968 733.83 7.09968 735.1 7.02968V7.01968ZM735.53 7.44968C735.92 7.83968 735.72 8.49968 735.19 9.01968C734.66 9.53968 734.01 9.72968 733.63 9.34968C733.24 8.95968 733.38 8.19968 733.77 7.73968C734.16 7.27968 735.14 7.05968 735.53 7.44968ZM737.01 8.40968C737.21 8.45968 737.3 9.35968 736.69 10.0297C736.08 10.6997 735.12 10.6897 735.1 10.4297C735.07 10.1697 735.81 10.2097 736.33 9.67968C736.85 9.14968 736.81 8.35968 737.01 8.40968Z" fill="url(#paint39_radial_9_3697)"/>
<path style="mix-blend-mode:screen" fill-rule="evenodd" clip-rule="evenodd" d="M747.42 13.3699C748.58 13.3899 749.64 14.5099 749.64 15.7899C749.64 17.0699 748.79 17.6199 747.51 17.6199C746.23 17.6199 745.21 17.0899 745.21 15.8099C745.21 14.5299 746.27 13.3499 747.43 13.3699H747.42ZM747.25 13.5799C748.21 13.5999 749.09 14.5299 749.09 15.5899C749.09 16.6499 748.38 17.0999 747.32 17.0999C746.26 17.0999 745.41 16.6599 745.41 15.5999C745.41 14.5399 746.29 13.5599 747.25 13.5799ZM747.7 13.9499C748.06 14.3099 747.91 15.0199 747.43 15.5099C746.95 15.9899 746.28 16.0899 745.92 15.7399C745.56 15.3899 745.69 14.6499 746.17 14.1599C746.65 13.6799 747.34 13.5999 747.7 13.9499ZM748.74 14.9999C748.91 15.0399 749.11 15.9199 748.59 16.4899C748.07 17.0599 747.12 16.9599 747.09 16.7399C747.07 16.5199 747.82 16.6499 748.28 16.1899C748.73 15.7399 748.57 14.9599 748.74 14.9999Z" fill="url(#paint40_radial_9_3697)"/>
</g>
</g>
<defs>
<radialGradient id="paint0_radial_9_3697" cx="0" cy="0" r="1" gradientUnits="userSpaceOnUse" gradientTransform="translate(125.5 -33.89) scale(832.83 832.83)">
<stop stop-color="#6BECFF"/>
<stop offset="0.93" stop-color="#0090FF"/>
</radialGradient>
<radialGradient id="paint1_radial_9_3697" cx="0" cy="0" r="1" gradientUnits="userSpaceOnUse" gradientTransform="translate(549.83 395.6) scale(425.16 425.16)">
<stop offset="0.8" stop-color="#3DEFFF"/>
<stop offset="0.82" stop-color="#39DFEE"/>
<stop offset="0.86" stop-color="#2EB7C3"/>
<stop offset="0.91" stop-color="#1E757D"/>
<stop offset="0.98" stop-color="#071C1E"/>
<stop offset="1"/>
</radialGradient>
<radialGradient id="paint2_radial_9_3697" cx="0" cy="0" r="1" gradientUnits="userSpaceOnUse" gradientTransform="translate(310.86 -149.21) scale(495.23 495.23)">
<stop stop-color="#B5F6FF"/>
<stop offset="1"/>
</radialGradient>
<radialGradient id="paint3_radial_9_3697" cx="0" cy="0" r="1" gradientUnits="userSpaceOnUse" gradientTransform="translate(233.34 -142.18) scale(719.69 719.69)">
<stop offset="0.53" stop-color="white"/>
<stop offset="0.66" stop-color="#C2E8FF"/>
<stop offset="0.95" stop-color="#2CAFFF"/>
<stop offset="1" stop-color="#12A5FF"/>
</radialGradient>
<radialGradient id="paint4_radial_9_3697" cx="0" cy="0" r="1" gradientUnits="userSpaceOnUse" gradientTransform="translate(382.265 41.0878) scale(381.645 41.7424)">
<stop stop-color="#21464F"/>
<stop offset="0.24" stop-color="#294C55" stop-opacity="0.95"/>
<stop offset="0.46" stop-color="#426168" stop-opacity="0.82"/>
<stop offset="0.67" stop-color="#6C8389" stop-opacity="0.58"/>
<stop offset="0.87" stop-color="#A7B3B6" stop-opacity="0.26"/>
<stop offset="1" stop-color="#D6D9DA" stop-opacity="0"/>
</radialGradient>
<radialGradient id="paint5_radial_9_3697" cx="0" cy="0" r="1" gradientUnits="userSpaceOnUse" gradientTransform="translate(167.25 -32.7501) scale(681.87 681.87)">
<stop stop-color="white"/>
<stop offset="1"/>
</radialGradient>
<radialGradient id="paint6_radial_9_3697" cx="0" cy="0" r="1" gradientUnits="userSpaceOnUse" gradientTransform="translate(696.26 -42.0502) scale(155.22 155.22)">
<stop stop-color="#B5F6FF"/>
<stop offset="1"/>
</radialGradient>
<radialGradient id="paint7_radial_9_3697" cx="0" cy="0" r="1" gradientUnits="userSpaceOnUse" gradientTransform="translate(7.95027 19.3497) scale(9.42 9.42)">
<stop stop-color="#B0F5FF"/>
<stop offset="0.93" stop-color="#63BBFF"/>
</radialGradient>
<radialGradient id="paint8_radial_9_3697" cx="0" cy="0" r="1" gradientUnits="userSpaceOnUse" gradientTransform="translate(28.2801 41.41) scale(9.4)">
<stop stop-color="#B0F5FF"/>
<stop offset="0.93" stop-color="#63BBFF"/>
</radialGradient>
<radialGradient id="paint9_radial_9_3697" cx="0" cy="0" r="1" gradientUnits="userSpaceOnUse" gradientTransform="translate(63.0702 11.6097) scale(9.39 9.39)">
<stop stop-color="#B0F5FF"/>
<stop offset="0.93" stop-color="#63BBFF"/>
</radialGradient>
<radialGradient id="paint10_radial_9_3697" cx="0" cy="0" r="1" gradientUnits="userSpaceOnUse" gradientTransform="translate(9.70005 44.4001) scale(6.91 6.91)">
<stop stop-color="#B0F5FF"/>
<stop offset="0.93" stop-color="#63BBFF"/>
</radialGradient>
<radialGradient id="paint11_radial_9_3697" cx="0" cy="0" r="1" gradientUnits="userSpaceOnUse" gradientTransform="translate(29.6103 64.4797) scale(8.79 8.79001)">
<stop stop-color="#B0F5FF"/>
<stop offset="0.93" stop-color="#63BBFF"/>
</radialGradient>
<radialGradient id="paint12_radial_9_3697" cx="0" cy="0" r="1" gradientUnits="userSpaceOnUse" gradientTransform="translate(8.75021 67.6397) scale(7.58 7.58)">
<stop stop-color="#B0F5FF"/>
<stop offset="0.93" stop-color="#63BBFF"/>
</radialGradient>
<radialGradient id="paint13_radial_9_3697" cx="0" cy="0" r="1" gradientUnits="userSpaceOnUse" gradientTransform="translate(47.5302 58.79) scale(5.33 5.33)">
<stop stop-color="#B0F5FF"/>
<stop offset="0.93" stop-color="#63BBFF"/>
</radialGradient>
<radialGradient id="paint14_radial_9_3697" cx="0" cy="0" r="1" gradientUnits="userSpaceOnUse" gradientTransform="translate(56.32 67.5201) scale(4.97 4.97)">
<stop stop-color="#B0F5FF"/>
<stop offset="0.93" stop-color="#63BBFF"/>
</radialGradient>
<radialGradient id="paint15_radial_9_3697" cx="0" cy="0" r="1" gradientUnits="userSpaceOnUse" gradientTransform="translate(37.2504 13.67) scale(7.19 7.19)">
<stop stop-color="#B0F5FF"/>
<stop offset="0.93" stop-color="#63BBFF"/>
</radialGradient>
<radialGradient id="paint16_radial_9_3697" cx="0" cy="0" r="1" gradientUnits="userSpaceOnUse" gradientTransform="translate(37.5901 25.2601) scale(5.13 5.13)">
<stop stop-color="#B0F5FF"/>
<stop offset="0.93" stop-color="#63BBFF"/>
</radialGradient>
<radialGradient id="paint17_radial_9_3697" cx="0" cy="0" r="1" gradientUnits="userSpaceOnUse" gradientTransform="translate(34.0903 27.4798) scale(9.61 9.61)">
<stop stop-color="#B0F5FF"/>
<stop offset="0.93" stop-color="#63BBFF"/>
</radialGradient>
<radialGradient id="paint18_radial_9_3697" cx="0" cy="0" r="1" gradientUnits="userSpaceOnUse" gradientTransform="translate(19.71 54.9299) scale(7.13 7.13)">
<stop stop-color="#B0F5FF"/>
<stop offset="0.93" stop-color="#63BBFF"/>
</radialGradient>
<radialGradient id="paint19_radial_9_3697" cx="0" cy="0" r="1" gradientUnits="userSpaceOnUse" gradientTransform="translate(81.7804 0.49972) scale(9.42)">
<stop stop-color="#B0F5FF"/>
<stop offset="0.93" stop-color="#63BBFF"/>
</radialGradient>
<radialGradient id="paint20_radial_9_3697" cx="0" cy="0" r="1" gradientUnits="userSpaceOnUse" gradientTransform="translate(647.96 11.6097) scale(9.39003 9.39)">
<stop stop-color="#B0F5FF"/>
<stop offset="0.93" stop-color="#63BBFF"/>
</radialGradient>
<radialGradient id="paint21_radial_9_3697" cx="0" cy="0" r="1" gradientUnits="userSpaceOnUse" gradientTransform="translate(104.2 58.2097) scale(8.79 8.79)">
<stop stop-color="#B0F5FF"/>
<stop offset="0.93" stop-color="#63BBFF"/>
</radialGradient>
<radialGradient id="paint22_radial_9_3697" cx="0" cy="0" r="1" gradientUnits="userSpaceOnUse" gradientTransform="translate(86.2104 68.7497) scale(8.79 8.79)">
<stop stop-color="#B0F5FF"/>
<stop offset="0.93" stop-color="#63BBFF"/>
</radialGradient>
<radialGradient id="paint23_radial_9_3697" cx="0" cy="0" r="1" gradientUnits="userSpaceOnUse" gradientTransform="translate(121.36 58.79) scale(5.33001 5.33)">
<stop stop-color="#B0F5FF"/>
<stop offset="0.93" stop-color="#63BBFF"/>
</radialGradient>
<radialGradient id="paint24_radial_9_3697" cx="0" cy="0" r="1" gradientUnits="userSpaceOnUse" gradientTransform="translate(219.4 67.5201) scale(424.13 424.13)">
<stop stop-color="#B0F5FF"/>
<stop offset="0.93" stop-color="#63BBFF"/>
</radialGradient>
<radialGradient id="paint25_radial_9_3697" cx="0" cy="0" r="1" gradientUnits="userSpaceOnUse" gradientTransform="translate(111.08 13.67) scale(7.19 7.19)">
<stop stop-color="#B0F5FF"/>
<stop offset="0.93" stop-color="#63BBFF"/>
</radialGradient>
<radialGradient id="paint26_radial_9_3697" cx="0" cy="0" r="1" gradientUnits="userSpaceOnUse" gradientTransform="translate(702.35 43.7498) scale(8.68996 8.69)">
<stop stop-color="#B0F5FF"/>
<stop offset="0.93" stop-color="#63BBFF"/>
</radialGradient>
<radialGradient id="paint27_radial_9_3697" cx="0" cy="0" r="1" gradientUnits="userSpaceOnUse" gradientTransform="translate(688.21 61.6399) scale(8.78996 8.79)">
<stop stop-color="#B0F5FF"/>
<stop offset="0.93" stop-color="#63BBFF"/>
</radialGradient>
<radialGradient id="paint28_radial_9_3697" cx="0" cy="0" r="1" gradientUnits="userSpaceOnUse" gradientTransform="translate(728.66 47.6999) scale(8.78996 8.79)">
<stop stop-color="#B0F5FF"/>
<stop offset="0.93" stop-color="#63BBFF"/>
</radialGradient>
<radialGradient id="paint29_radial_9_3697" cx="0" cy="0" r="1" gradientUnits="userSpaceOnUse" gradientTransform="translate(714.39 67.5201) scale(4.96994 4.97)">
<stop stop-color="#B0F5FF"/>
<stop offset="0.93" stop-color="#63BBFF"/>
</radialGradient>
<radialGradient id="paint30_radial_9_3697" cx="0" cy="0" r="1" gradientUnits="userSpaceOnUse" gradientTransform="translate(695.66 25.2601) scale(5.13001 5.13)">
<stop stop-color="#B0F5FF"/>
<stop offset="0.93" stop-color="#63BBFF"/>
</radialGradient>
<radialGradient id="paint31_radial_9_3697" cx="0" cy="0" r="1" gradientUnits="userSpaceOnUse" gradientTransform="translate(692.16 27.4798) scale(9.60997 9.61)">
<stop stop-color="#B0F5FF"/>
<stop offset="0.93" stop-color="#63BBFF"/>
</radialGradient>
<radialGradient id="paint32_radial_9_3697" cx="0" cy="0" r="1" gradientUnits="userSpaceOnUse" gradientTransform="translate(677.78 54.9299) scale(7.12999 7.13)">
<stop stop-color="#B0F5FF"/>
<stop offset="0.93" stop-color="#63BBFF"/>
</radialGradient>
<radialGradient id="paint33_radial_9_3697" cx="0" cy="0" r="1" gradientUnits="userSpaceOnUse" gradientTransform="translate(673.44 12.1599) scale(7.12999 7.13)">
<stop stop-color="#B0F5FF"/>
<stop offset="0.93" stop-color="#63BBFF"/>
</radialGradient>
<radialGradient id="paint34_radial_9_3697" cx="0" cy="0" r="1" gradientUnits="userSpaceOnUse" gradientTransform="translate(703.51 5.51991) scale(6.44002 6.44)">
<stop stop-color="#B0F5FF"/>
<stop offset="0.93" stop-color="#63BBFF"/>
</radialGradient>
<radialGradient id="paint35_radial_9_3697" cx="0" cy="0" r="1" gradientUnits="userSpaceOnUse" gradientTransform="translate(753.86 29.5998) scale(6.45001)">
<stop stop-color="#B0F5FF"/>
<stop offset="0.93" stop-color="#63BBFF"/>
</radialGradient>
<radialGradient id="paint36_radial_9_3697" cx="0" cy="0" r="1" gradientUnits="userSpaceOnUse" gradientTransform="translate(660.97 58.18) scale(9.40003 9.39999)">
<stop stop-color="#B0F5FF"/>
<stop offset="0.93" stop-color="#63BBFF"/>
</radialGradient>
<radialGradient id="paint37_radial_9_3697" cx="0" cy="0" r="1" gradientUnits="userSpaceOnUse" gradientTransform="translate(745.04 28.2401) scale(12.4901 12.49)">
<stop stop-color="#B0F5FF"/>
<stop offset="0.93" stop-color="#63BBFF"/>
</radialGradient>
<radialGradient id="paint38_radial_9_3697" cx="0" cy="0" r="1" gradientUnits="userSpaceOnUse" gradientTransform="translate(742.27 55.3701) scale(8.78996 8.79)">
<stop stop-color="#B0F5FF"/>
<stop offset="0.93" stop-color="#63BBFF"/>
</radialGradient>
<radialGradient id="paint39_radial_9_3697" cx="0" cy="0" r="1" gradientUnits="userSpaceOnUse" gradientTransform="translate(733.83 5.59968) scale(7.19002 7.19)">
<stop stop-color="#B0F5FF"/>
<stop offset="0.93" stop-color="#63BBFF"/>
</radialGradient>
<radialGradient id="paint40_radial_9_3697" cx="0" cy="0" r="1" gradientUnits="userSpaceOnUse" gradientTransform="translate(746.38 12.1599) scale(7.12999 7.13)">
<stop stop-color="#B0F5FF"/>
<stop offset="0.93" stop-color="#63BBFF"/>
</radialGradient>
<clipPath id="clip0_9_3697">
<rect width="767.22" height="81.95" fill="white"/>
</clipPath>
</defs>
</svg>
