<?xml version="1.0" encoding="UTF-8"?><svg id="Layer_1" xmlns="http://www.w3.org/2000/svg" xmlns:xlink="http://www.w3.org/1999/xlink" viewBox="0 0 428 462"><defs><style>.cls-1{font-family:AsapCondensed-Bold, 'Asap Condensed';font-size:30.91px;font-weight:700;}.cls-2{fill:url(#_Градієнт_без_назви_10);}.cls-3{fill:#fff;}.cls-4{fill:#c5c5c5;}.cls-5{fill:#1d1d1b;}</style><radialGradient id="_Градієнт_без_назви_10" cx="210.39" cy="229.7" fx="210.39" fy="229.7" r="128.22" gradientUnits="userSpaceOnUse"><stop offset="0" stop-color="#b1b1b1"/><stop offset="1" stop-color="#fff"/></radialGradient></defs><circle class="cls-2" cx="210.39" cy="229.7" r="128.22"/><polygon class="cls-3" points="210.39 418.21 210.39 229.58 239.25 258.43 210.39 418.21"/><polygon class="cls-5" points="210.39 418.21 210.39 229.58 181.54 258.43 210.39 418.21"/><polygon class="cls-3" points="210.39 41.19 210.39 229.82 181.54 200.97 210.39 41.19"/><polygon class="cls-5" points="210.39 41.19 210.39 229.82 239.25 200.97 210.39 41.19"/><polygon class="cls-4" points="151.31 170.14 181.7 200.53 164.85 200.53 151.31 170.14"/><polygon class="cls-5" points="151.31 170.14 181.7 200.53 181.7 183.68 151.31 170.14"/><polygon class="cls-4" points="269.47 170.14 239.08 200.53 239.08 183.68 269.47 170.14"/><polygon class="cls-5" points="269.47 170.14 239.08 200.53 255.93 200.53 269.47 170.14"/><polygon class="cls-4" points="269.47 289.27 239.08 258.88 255.93 258.88 269.47 289.27"/><polygon class="cls-5" points="269.47 289.27 239.08 258.88 239.08 275.73 269.47 289.27"/><polygon class="cls-4" points="151.31 289.27 181.7 258.88 181.7 275.73 151.31 289.27"/><polygon class="cls-5" points="151.31 289.27 181.7 258.88 164.85 258.88 151.31 289.27"/><polygon class="cls-3" points="21.88 229.7 210.52 229.7 181.66 258.55 21.88 229.7"/><polygon class="cls-5" points="21.88 229.7 210.52 229.7 181.66 200.85 21.88 229.7"/><polygon class="cls-3" points="398.91 229.7 210.27 229.7 239.13 200.85 398.91 229.7"/><polygon class="cls-5" points="398.91 229.7 210.27 229.7 239.13 258.55 398.91 229.7"/><text class="cls-1" transform="translate(204.02 27.7)"><tspan x="0" y="0">Š</tspan></text><text class="cls-1" transform="translate(273.87 168.9)"><tspan x="0" y="0">ŠR</tspan></text><text class="cls-1" transform="translate(118.48 168.9)"><tspan x="0" y="0">ŠV</tspan></text><text class="cls-1" transform="translate(272.79 309.67)"><tspan x="0" y="0">PR</tspan></text><text class="cls-1" transform="translate(117.4 309.67)"><tspan x="0" y="0">PV</tspan></text><text class="cls-1" transform="translate(1.21 239.23)"><tspan x="0" y="0">V</tspan></text><text class="cls-1" transform="translate(411.45 239.23)"><tspan x="0" y="0">R</tspan></text><text class="cls-1" transform="translate(202.94 453.46)"><tspan x="0" y="0">P</tspan></text></svg>